<svg width="320" height="256" viewBox="0 0 320 256" fill="none" xmlns="http://www.w3.org/2000/svg">
<g clip-path="url(#clip0)">
<path d="M176.015 113.863C176.015 153.127 143.527 184.956 103.45 184.956C63.3734 184.956 30.8848 153.127 30.8848 113.863C30.8848 74.5989 63.3734 42.7693 103.45 42.7693C143.527 42.7693 176.015 74.5989 176.015 113.863Z" fill="url(#paint0_linear)"/>
<path d="M288.669 117.925C288.669 157.189 256.181 189.019 216.104 189.019C176.027 189.019 143.539 157.189 143.539 117.925C143.539 78.6614 176.027 46.8318 216.104 46.8318C256.181 46.8318 288.669 78.6614 288.669 117.925Z" fill="url(#paint1_linear)"/>
<path d="M192.254 184.956C192.254 224.22 159.765 256.05 119.688 256.05C79.6117 256.05 47.1232 224.22 47.1232 184.956C47.1232 145.692 79.6117 113.863 119.688 113.863C159.765 113.863 192.254 145.692 192.254 184.956Z" fill="url(#paint2_linear)"/>
<path d="M288.669 173.785C288.669 213.048 256.181 244.878 216.104 244.878C176.027 244.878 143.539 213.048 143.539 173.785C143.539 134.521 176.027 102.691 216.104 102.691C256.181 102.691 288.669 134.521 288.669 173.785Z" fill="url(#paint3_linear)"/>
<path d="M286.783 160.804C286.783 174.391 276.276 185.406 263.314 185.406C250.352 185.406 239.844 174.391 239.844 160.804C239.844 147.217 250.352 136.202 263.314 136.202C276.276 136.202 286.783 147.217 286.783 160.804Z" fill="white"/>
<path d="M249.232 176.012C249.232 185.647 241.781 193.457 232.59 193.457C223.399 193.457 215.948 185.647 215.948 176.012C215.948 166.378 223.399 158.567 232.59 158.567C241.781 158.567 249.232 166.378 249.232 176.012Z" fill="white"/>
<path d="M257.766 166.172C257.766 175.806 250.316 183.616 241.125 183.616C231.933 183.616 224.483 175.806 224.483 166.172C224.483 156.537 231.933 148.727 241.125 148.727C250.316 148.727 257.766 156.537 257.766 166.172Z" fill="white"/>
<path d="M297.024 176.012C297.024 185.647 289.574 193.457 280.382 193.457C271.191 193.457 263.74 185.647 263.74 176.012C263.74 166.378 271.191 158.567 280.382 158.567C289.574 158.567 297.024 166.378 297.024 176.012Z" fill="white"/>
<path d="M233.87 164.83H281.663V193.457H233.87V164.83Z" fill="white"/>
<path fill-rule="evenodd" clip-rule="evenodd" d="M263.313 138.404C255.042 138.404 248.529 143.226 245.846 150.423L241.933 148.82C245.268 139.874 253.374 134 263.313 134C276.493 134 287.177 145.199 287.177 159.015H282.975C282.975 147.632 274.172 138.404 263.313 138.404Z" fill="#2287BF"/>
<path fill-rule="evenodd" clip-rule="evenodd" d="M277.997 157.659C288.796 156.35 298.271 165.2 298.271 176.596C298.271 187.124 290.129 195.659 280.085 195.659H231.903C221.931 195.659 213.847 187.185 213.847 176.732C213.847 165.303 223.438 156.481 234.249 157.966L234.829 158.045C235.98 158.203 236.79 159.309 236.639 160.515C236.489 161.721 235.434 162.57 234.283 162.412L233.703 162.333C225.408 161.193 218.049 167.962 218.049 176.732C218.049 184.753 224.251 191.255 231.903 191.255H280.085C287.809 191.255 294.07 184.692 294.07 176.596C294.07 167.833 286.784 161.027 278.479 162.034L275.322 162.416C274.17 162.556 273.128 161.69 272.994 160.482C272.861 159.274 273.687 158.181 274.84 158.041L277.997 157.659Z" fill="#2287BF"/>
<path fill-rule="evenodd" clip-rule="evenodd" d="M246.907 155.422C243.58 150.603 237.157 149.525 232.56 153.012C229.958 154.987 228.498 157.999 228.326 161.125C228.26 162.339 227.267 163.267 226.108 163.197C224.95 163.127 224.065 162.086 224.132 160.872C224.373 156.482 226.428 152.228 230.097 149.444C236.573 144.531 245.623 146.051 250.311 152.839C250.991 153.825 250.78 155.201 249.84 155.915C248.901 156.628 247.587 156.407 246.907 155.422Z" fill="#2287BF"/>
<path d="M63.2414 21.3376C63.2414 29.5322 69.7142 36.1752 77.6988 36.1752C85.6834 36.1752 92.1562 29.5322 92.1562 21.3376C92.1562 13.143 85.6834 6.5 77.6988 6.5C69.7142 6.5 63.2414 13.143 63.2414 21.3376Z" fill="white"/>
<path d="M86.3733 30.5099C86.3733 36.3206 90.9631 41.0311 96.6249 41.0311C102.287 41.0311 106.876 36.3206 106.876 30.5099C106.876 24.6992 102.287 19.9887 96.6249 19.9887C90.9631 19.9887 86.3733 24.6992 86.3733 30.5099Z" fill="white"/>
<path d="M81.116 24.5749C81.116 30.3856 85.7058 35.0961 91.3676 35.0961C97.0294 35.0961 101.619 30.3856 101.619 24.5749C101.619 18.7642 97.0294 14.0537 91.3676 14.0537C85.7058 14.0537 81.116 18.7642 81.116 24.5749Z" fill="white"/>
<path d="M56.9327 30.5099C56.9327 36.3206 61.5225 41.0311 67.1844 41.0311C72.8462 41.0311 77.436 36.3206 77.436 30.5099C77.436 24.6992 72.8462 19.9887 67.1844 19.9887C61.5225 19.9887 56.9327 24.6992 56.9327 30.5099Z" fill="white"/>
<path d="M95.8363 23.7656H66.3958V41.0311H95.8363V23.7656Z" fill="white"/>
<path fill-rule="evenodd" clip-rule="evenodd" d="M77.6986 8C82.6893 8 86.6323 10.8447 88.2631 15.1274L91.0645 14.0591C88.9881 8.60643 83.9257 5 77.6986 5C69.4314 5 62.7937 11.8674 62.7937 20.2585H65.7915C65.7915 13.4524 71.1579 8 77.6986 8Z" fill="#2287BF"/>
<path fill-rule="evenodd" clip-rule="evenodd" d="M68.976 19.3053C62.0495 18.4834 55.9596 23.8977 55.9596 30.8776C55.9596 37.3137 61.1733 42.5311 67.6048 42.5311H96.8146C103.2 42.5311 108.375 37.3514 108.375 30.9619C108.375 23.9477 102.136 18.5732 95.214 19.5041C94.3935 19.6144 93.8178 20.3694 93.928 21.1905C94.0383 22.0115 94.7928 22.5877 95.6133 22.4773C100.762 21.7849 105.378 25.7884 105.378 30.9619C105.378 35.6945 101.544 39.5311 96.8146 39.5311H67.6048C62.829 39.5311 58.9575 35.6568 58.9575 30.8776C58.9575 25.6946 63.4797 21.6741 68.623 22.2844L70.2734 22.4803C71.0955 22.5778 71.8409 21.99 71.9384 21.1673C72.0359 20.3447 71.4485 19.5987 70.6264 19.5011L68.976 19.3053Z" fill="#2287BF"/>
<path fill-rule="evenodd" clip-rule="evenodd" d="M87.9606 18.207C89.9581 15.3745 93.8006 14.7549 96.5374 16.7879C98.0885 17.94 98.9611 19.6993 99.0638 21.5307C99.1107 22.3675 99.8111 23.012 100.628 22.9702C101.445 22.9284 102.069 22.2162 102.022 21.3795C101.871 18.6778 100.578 16.0545 98.266 14.3368C94.1819 11.303 88.4927 12.251 85.5534 16.4189C85.0761 17.0957 85.228 18.0447 85.8927 18.5385C86.5574 19.0322 87.4832 18.8838 87.9606 18.207Z" fill="#2287BF"/>
<path d="M257.947 19.0297C250.347 21.3452 249.092 22.2273 247.218 30.3831C244.841 22.3314 243.534 21.0864 235.895 19.5697C241.751 17.7245 245.154 16.364 246.7 8.23802C248.522 16.2816 250.243 17.0908 257.947 19.0297Z" fill="#AF73FF"/>
<path fill-rule="evenodd" clip-rule="evenodd" d="M258.946 19.0051C258.957 19.4542 258.668 19.8555 258.238 19.9864C254.383 21.1609 252.436 21.9017 251.149 23.2163C249.873 24.5185 249.135 26.5046 248.192 30.6072C248.09 31.0502 247.703 31.3687 247.249 31.3826C246.795 31.3966 246.388 31.1023 246.26 30.6665C245.062 26.609 244.198 24.5462 242.84 23.2494C241.497 21.9671 239.54 21.3131 235.7 20.5506C235.252 20.4617 234.921 20.0805 234.897 19.6243C234.872 19.1682 235.159 18.7531 235.594 18.6159C238.551 17.6841 240.657 16.9346 242.248 15.5131C243.799 14.1278 244.968 11.9956 245.718 8.051C245.807 7.58571 246.209 7.2464 246.683 7.23818C247.156 7.22997 247.57 7.55511 247.675 8.01704C248.584 12.0335 249.42 13.9577 250.783 15.1776C252.186 16.4319 254.274 17.0742 258.191 18.0599C258.626 18.1695 258.935 18.5561 258.946 19.0051ZM256.134 19.597C256.695 19.4148 257.298 19.2275 257.947 19.0297C257.292 18.8648 256.68 18.7081 256.107 18.5544C250.608 17.0777 248.757 15.8803 247.238 10.3995C247.056 9.74308 246.878 9.0252 246.7 8.23803C246.551 9.01968 246.385 9.73873 246.202 10.4016C244.693 15.8469 241.99 17.5037 237.797 18.9487C237.194 19.1565 236.56 19.36 235.894 19.5697C236.598 19.7095 237.248 19.8469 237.85 19.9876C243.239 21.2463 244.786 22.7636 246.641 28.5067C246.829 29.0875 247.02 29.7117 247.218 30.3831C247.375 29.6979 247.529 29.064 247.681 28.4763C249.192 22.6664 250.68 21.3696 256.134 19.597Z" fill="#AF73FF"/>
<path d="M44.5989 239.59C40.3754 240.731 39.6744 241.196 38.5758 245.673C37.3209 241.176 36.607 240.463 32.3908 239.484C35.6455 238.571 37.5393 237.881 38.4562 233.414C39.4034 237.897 40.3499 238.376 44.5989 239.59Z" fill="#AF73FF"/>
<path fill-rule="evenodd" clip-rule="evenodd" d="M45.598 239.597C45.5948 240.047 45.2926 240.438 44.8593 240.556C42.6897 241.142 41.7334 241.493 41.1123 242.097C40.5038 242.69 40.1019 243.647 39.5461 245.912C39.4377 246.353 39.0455 246.666 38.5913 246.673C38.1372 246.68 37.7353 246.38 37.6131 245.942C36.9774 243.663 36.5379 242.617 35.8871 241.966C35.251 241.33 34.2913 240.952 32.1647 240.458C31.7201 240.355 31.402 239.963 31.3916 239.506C31.3813 239.05 31.6814 238.644 32.1209 238.521C33.7789 238.056 34.8506 237.701 35.6534 237.019C36.4134 236.374 37.043 235.328 37.4772 233.213C37.5724 232.749 37.9798 232.416 38.4531 232.414C38.9264 232.413 39.3358 232.744 39.4337 233.207C39.9058 235.442 40.3338 236.399 40.9729 236.999C41.6487 237.633 42.6866 238.004 44.8731 238.629C45.3048 238.752 45.6013 239.148 45.598 239.597ZM42.8243 240.106C43.3362 239.938 43.9223 239.773 44.5988 239.59C43.9314 239.399 43.3455 239.227 42.8282 239.054C40.6181 238.316 39.6618 237.573 38.9608 235.394C38.7814 234.836 38.6187 234.184 38.456 233.414C38.3015 234.167 38.1193 234.812 37.9074 235.37C37.1182 237.446 35.9184 238.3 34.213 238.92C33.6599 239.121 33.0535 239.298 32.3907 239.484C33.0971 239.648 33.7053 239.805 34.2341 239.973C36.3799 240.655 37.2199 241.528 38.0249 243.865C38.2054 244.389 38.3842 244.987 38.5756 245.673C38.747 244.975 38.9087 244.374 39.0756 243.853C39.8073 241.57 40.639 240.82 42.8243 240.106Z" fill="#AF73FF"/>
<path d="M83.4572 191.551C77.5581 193.145 76.5791 193.794 75.0445 200.047C73.2919 193.766 72.2948 192.77 66.4059 191.403C70.9517 190.127 73.5969 189.163 74.8775 182.925C76.2005 189.186 77.5225 189.856 83.4572 191.551Z" fill="#DFE8F3"/>
<path fill-rule="evenodd" clip-rule="evenodd" d="M84.4563 191.558C84.4531 192.007 84.1509 192.399 83.7175 192.517C80.7102 193.329 79.2655 193.839 78.3109 194.769C77.369 195.686 76.7886 197.133 76.0149 200.286C75.9065 200.727 75.5143 201.04 75.0601 201.047C74.6059 201.054 74.2041 200.754 74.0819 200.316C73.1972 197.146 72.5625 195.583 71.5697 194.59C70.5914 193.611 69.1428 193.065 66.1799 192.377C65.7353 192.274 65.4171 191.882 65.4068 191.425C65.3964 190.969 65.6966 190.563 66.136 190.44C68.4396 189.793 70.0219 189.28 71.2194 188.263C72.3741 187.282 73.2825 185.725 73.8985 182.724C73.9937 182.26 74.4012 181.926 74.8745 181.925C75.3478 181.924 75.7571 182.255 75.855 182.718C76.515 185.842 77.1309 187.291 78.1215 188.221C79.1488 189.185 80.7021 189.724 83.7314 190.59C84.163 190.713 84.4595 191.109 84.4563 191.558ZM81.6449 192.063C82.1919 191.898 82.7933 191.73 83.457 191.551C82.8003 191.363 82.2001 191.188 81.6501 191.017C77.8502 189.832 76.448 188.82 75.3817 185.021C75.2076 184.401 75.0425 183.707 74.8774 182.925C74.7194 183.695 74.5407 184.384 74.3402 185.003C73.1547 188.666 71.2081 189.89 68.2924 190.842C67.7036 191.034 67.0753 191.215 66.4058 191.403C67.1079 191.566 67.7405 191.724 68.3131 191.886C72.0239 192.936 73.2164 194.167 74.4954 198.188C74.6743 198.751 74.8549 199.368 75.0444 200.047C75.2136 199.358 75.376 198.737 75.539 198.175C76.6882 194.213 77.8666 193.201 81.6449 192.063Z" fill="#DFE8F3"/>
<path d="M239.752 224C233.853 225.594 232.873 226.244 231.339 232.497C229.586 226.215 228.589 225.22 222.7 223.852C227.246 222.576 229.891 221.613 231.172 215.374C232.495 221.635 233.817 222.305 239.752 224Z" fill="#DFE8F3"/>
<path fill-rule="evenodd" clip-rule="evenodd" d="M240.751 224.008C240.747 224.457 240.445 224.849 240.012 224.966C237.005 225.778 235.56 226.288 234.605 227.218C233.663 228.135 233.083 229.582 232.309 232.735C232.201 233.177 231.809 233.489 231.355 233.497C230.9 233.504 230.499 233.203 230.376 232.766C229.492 229.595 228.857 228.032 227.864 227.039C226.886 226.06 225.437 225.514 222.474 224.826C222.03 224.723 221.712 224.331 221.701 223.875C221.691 223.418 221.991 223.012 222.43 222.889C224.734 222.243 226.316 221.729 227.514 220.712C228.668 219.731 229.577 218.174 230.193 215.173C230.288 214.709 230.696 214.376 231.169 214.374C231.642 214.373 232.052 214.704 232.149 215.167C232.809 218.291 233.425 219.74 234.416 220.67C235.443 221.634 236.996 222.173 240.026 223.039C240.457 223.162 240.754 223.558 240.751 224.008ZM237.939 224.512C238.486 224.347 239.088 224.18 239.751 224C239.095 223.813 238.495 223.638 237.945 223.466C234.145 222.282 232.742 221.269 231.676 217.47C231.502 216.85 231.337 216.156 231.172 215.374C231.014 216.144 230.835 216.833 230.635 217.452C229.449 221.116 227.503 222.339 224.587 223.291C223.998 223.483 223.37 223.664 222.7 223.852C223.402 224.015 224.035 224.173 224.607 224.335C228.318 225.385 229.511 226.616 230.79 230.638C230.969 231.2 231.149 231.818 231.339 232.497C231.508 231.807 231.67 231.186 231.833 230.624C232.983 226.662 234.161 225.65 237.939 224.512Z" fill="#DFE8F3"/>
<path d="M278.279 113.04C272.38 114.634 271.401 115.284 269.866 121.537C268.114 115.255 267.117 114.26 261.228 112.892C265.774 111.616 268.419 110.653 269.699 104.414C271.022 110.675 272.344 111.345 278.279 113.04Z" fill="#DFE8F3"/>
<path fill-rule="evenodd" clip-rule="evenodd" d="M279.278 113.048C279.275 113.497 278.973 113.889 278.539 114.006C275.532 114.818 274.087 115.328 273.133 116.258C272.191 117.175 271.61 118.622 270.837 121.775C270.728 122.217 270.336 122.529 269.882 122.537C269.428 122.544 269.026 122.243 268.904 121.806C268.019 118.635 267.384 117.072 266.391 116.079C265.413 115.1 263.965 114.554 261.002 113.866C260.557 113.763 260.239 113.371 260.229 112.915C260.218 112.458 260.518 112.052 260.958 111.929C263.261 111.283 264.844 110.769 266.041 109.752C267.196 108.771 268.104 107.214 268.72 104.213C268.816 103.749 269.223 103.416 269.696 103.414C270.17 103.413 270.579 103.744 270.677 104.207C271.337 107.331 271.953 108.78 272.943 109.71C273.971 110.674 275.524 111.213 278.553 112.079C278.985 112.202 279.281 112.598 279.278 113.048ZM276.467 113.552C277.014 113.387 277.615 113.22 278.279 113.04C277.622 112.853 277.022 112.678 276.472 112.506C272.672 111.322 271.27 110.309 270.204 106.51C270.029 105.89 269.864 105.196 269.699 104.414C269.541 105.184 269.362 105.873 269.162 106.493C267.976 110.156 266.03 111.379 263.114 112.331C262.525 112.523 261.897 112.704 261.228 112.892C261.93 113.055 262.562 113.213 263.135 113.375C266.846 114.425 268.038 115.656 269.317 119.678C269.496 120.24 269.677 120.858 269.866 121.537C270.035 120.847 270.198 120.226 270.361 119.664C271.51 115.702 272.688 114.69 276.467 113.552Z" fill="#DFE8F3"/>
<path d="M63.3591 101.037C55.411 103.184 54.0919 104.059 52.0243 112.484C49.6629 104.02 48.3194 102.679 40.3851 100.837C46.5099 99.1181 50.0738 97.8196 51.7993 89.4143C53.5818 97.8501 55.363 98.752 63.3591 101.037Z" fill="#DFE8F3"/>
<path fill-rule="evenodd" clip-rule="evenodd" d="M64.3582 101.044C64.3549 101.493 64.0528 101.885 63.6194 102.002C59.5876 103.091 57.5456 103.796 56.1832 105.123C54.8335 106.437 54.0349 108.483 52.9947 112.723C52.8863 113.164 52.4941 113.477 52.0399 113.484C51.5857 113.491 51.1839 113.191 51.0617 112.753C49.8726 108.491 48.9992 106.297 47.5879 104.885C46.1913 103.487 44.1447 102.736 40.1591 101.811C39.7145 101.707 39.3963 101.316 39.386 100.859C39.3756 100.403 39.6758 99.997 40.1152 99.8737C43.2083 99.0058 45.415 98.2975 47.0952 96.8706C48.7325 95.48 49.9818 93.2976 50.8203 89.213C50.9155 88.7491 51.3229 88.4156 51.7962 88.4143C52.2695 88.4129 52.6789 88.744 52.7768 89.2074C53.6666 93.4183 54.5121 95.4693 55.9326 96.8028C57.3899 98.1708 59.5733 98.915 63.6333 100.075C64.0649 100.198 64.3614 100.595 64.3582 101.044ZM61.5269 101.546C62.0954 101.381 62.7047 101.213 63.3589 101.037C62.7104 100.851 62.1029 100.675 61.5328 100.503C55.732 98.7545 53.8207 97.4551 52.3049 91.5928C52.1329 90.9278 51.966 90.2041 51.7991 89.4143C51.6388 90.1954 51.4625 90.9152 51.2698 91.5796C49.6165 97.2805 46.7516 98.9073 42.3088 100.276C41.6977 100.465 41.0567 100.648 40.385 100.837C41.0823 100.999 41.7288 101.157 42.3295 101.316C48.0194 102.826 49.6047 104.452 51.4759 110.595C51.6548 111.182 51.8363 111.81 52.0242 112.484C52.1917 111.801 52.3543 111.168 52.5159 110.58C54.1848 104.506 55.7482 103.217 61.5269 101.546Z" fill="#DFE8F3"/>
<path d="M103.04 144.819C103.04 156.972 94.4051 166.823 80.3212 166.823C66.2372 166.823 54.8199 156.972 54.8199 144.819C54.8199 132.667 63.4553 122.016 77.5392 122.016C91.6232 122.016 103.04 133.617 103.04 144.819Z" fill="white"/>
<path d="M65.0204 158.422C65.0204 167.039 56.9245 174.024 46.9377 174.024C36.9509 174.024 28.855 167.839 28.855 159.222C28.855 150.605 34.6326 151.22 44.6194 151.22C54.6062 151.22 65.0204 149.804 65.0204 158.422Z" fill="white"/>
<path d="M74.2936 149.62C74.2936 158.237 66.1977 165.223 56.2109 165.223C46.2241 165.223 37.6645 161.438 37.6645 152.821C31.6369 142.019 41.7035 127.574 51.6903 127.574C61.6771 127.574 74.2936 141.003 74.2936 149.62Z" fill="white"/>
<path d="M120.196 156.821C120.196 165.438 108.854 174.024 98.8676 174.024C88.8808 174.024 80.7848 167.039 80.7848 158.422C80.7848 149.804 88.8808 142.819 98.8676 142.819C108.854 142.819 120.196 148.204 120.196 156.821Z" fill="white"/>
<path d="M48.3287 148.42H100.259V174.024H48.3287V148.42Z" fill="white"/>
<path fill-rule="evenodd" clip-rule="evenodd" d="M85.4692 124.194C77.0917 121.447 69.5675 124.162 64.0381 129.431C63.2104 130.22 61.9046 130.276 61.1213 129.557C60.3381 128.837 60.3741 127.614 61.2018 126.826C67.7295 120.605 76.963 117.216 87.0816 120.534C93.667 122.694 98.8647 127.212 101.804 132.608C104.741 137.999 105.494 144.416 102.891 150.324C102.446 151.335 101.235 151.875 100.186 151.531C99.1372 151.187 98.6479 150.089 99.0931 149.078C101.131 144.453 100.629 139.204 98.0995 134.561C95.5722 129.922 91.0915 126.038 85.4692 124.194Z" fill="#2287BF"/>
<path fill-rule="evenodd" clip-rule="evenodd" d="M101.506 142.019C101.506 140.914 102.4 140.019 103.504 140.019H103.669C111.855 140.019 119.009 145.549 121.076 153.476C121.853 156.456 121.853 159.586 121.076 162.567C119.009 170.493 111.855 176.024 103.669 176.024H40.4478C32.9415 176.024 26.8564 169.935 26.8564 162.423V161.713C26.8564 151.476 37.9982 145.137 46.7891 150.372C47.7376 150.937 48.0489 152.164 47.4844 153.114C46.9199 154.063 45.6934 154.374 44.7449 153.809C38.6184 150.161 30.8536 154.579 30.8536 161.713V162.423C30.8536 167.725 35.1491 172.024 40.4478 172.024H103.669C110.036 172.024 115.601 167.722 117.208 161.557C117.813 159.239 117.813 156.804 117.208 154.486C115.601 148.321 110.036 144.019 103.669 144.019H103.504C102.4 144.019 101.506 143.123 101.506 142.019Z" fill="#2287BF"/>
<path fill-rule="evenodd" clip-rule="evenodd" d="M51.5908 129.325C48.0314 129.413 44.6199 130.851 41.6774 134.223C38.3955 137.985 37.3923 143.711 38.6442 148.095C38.9258 149.082 38.2281 150.112 37.0858 150.397C35.9435 150.681 34.7891 150.112 34.5075 149.126C32.9935 143.823 34.1101 136.876 38.3246 132.046C41.9996 127.833 46.6201 125.733 51.636 125.608C56.5489 125.486 61.5515 127.263 66.1703 130.263C67.0962 130.865 67.2583 132.027 66.5324 132.859C65.8064 133.691 64.4674 133.878 63.5415 133.277C59.3694 130.567 55.2533 129.234 51.5908 129.325Z" fill="#2287BF"/>
<path d="M202.585 189.143H121.837V203.371H127.001V251.471H197.421V203.371H202.585V189.143Z" fill="url(#paint4_linear)"/>
<path d="M127.329 249.808H196.827V254.501H127.329V249.808Z" fill="black" fill-opacity="0.08"/>
<path d="M121.211 199.321H203.259V204.499H121.211V199.321Z" fill="black" fill-opacity="0.08"/>
<path d="M126.702 203.205H197.454V208.707H126.702V203.205Z" fill="black" fill-opacity="0.08"/>
<path d="M179.568 179.878C179.568 184.365 172.525 188.003 163.837 188.003C155.149 188.003 144.554 182.842 144.554 178.354C144.554 173.867 149.628 167.69 164.435 174.56C173.478 167.183 181.688 173.545 179.568 179.878Z" fill="white"/>
<path d="M156.732 191.051H167.896V250.972H156.732V191.051Z" fill="white"/>
<path d="M154.387 247.606H169.879V251.473H154.387V247.606Z" fill="black" fill-opacity="0.08"/>
<path d="M178.329 173.599C178.329 173.599 182.711 178.317 179.111 183.266C175.512 188.215 163.932 187.751 163.932 187.751L171.131 180.675L178.329 173.599Z" fill="#2F83FF" fill-opacity="0.1"/>
<path d="M150.426 177.255C155.502 173.123 162.993 174.837 162.993 189.916C142.963 188.602 147.981 179.245 150.426 177.255Z" fill="#2F83FF" fill-opacity="0.1"/>
<path d="M155.482 236.934L169.097 225.798V251.627H155.482V236.934Z" fill="#2F83FF" fill-opacity="0.1"/>
<path d="M155.326 202.754L168.94 191.618V212.323L155.326 223.458V202.754Z" fill="#2F83FF" fill-opacity="0.1"/>
<path d="M121.657 187.8H203.127V194.321H121.657V187.8Z" fill="white" fill-opacity="0.16"/>
<path fill-rule="evenodd" clip-rule="evenodd" d="M154.832 174.179C152.523 172.242 149.812 172.284 147.516 174.142C147.147 174.44 146.53 175.24 146.17 176.377C145.824 177.469 145.768 178.703 146.257 179.907C147.142 182.084 150.261 185.073 159.618 186.353C159.091 179.883 157.033 176.025 154.832 174.179ZM152.701 188.981C146.988 187.273 143.843 184.584 142.555 181.413C141.646 179.177 141.792 176.961 142.359 175.169C142.912 173.422 143.921 171.906 145.003 171.03C148.731 168.016 153.572 167.903 157.4 171.113C159.467 172.847 161.146 175.463 162.256 178.918C163.367 175.466 165.045 172.853 167.111 171.121C170.939 167.911 175.779 168.023 179.507 171.038C180.59 171.913 181.598 173.43 182.151 175.176C182.719 176.969 182.864 179.185 181.956 181.421C180.673 184.579 177.548 187.259 171.877 188.968V254.167H152.701V188.981ZM156.698 191.065V250.167H167.88V191.065H156.698ZM164.893 186.36C174.25 185.081 177.369 182.091 178.253 179.914C178.742 178.71 178.686 177.476 178.341 176.385C177.981 175.248 177.364 174.447 176.995 174.149C174.698 172.292 171.988 172.25 169.678 174.187C167.477 176.032 165.419 179.89 164.893 186.36Z" fill="#52199F"/>
<path fill-rule="evenodd" clip-rule="evenodd" d="M119.212 191.694C119.212 189.114 121.322 187.065 123.871 187.065H200.629C203.178 187.065 205.288 189.114 205.288 191.694V203.449C205.288 204.833 204.159 205.912 202.819 205.912H199.419V248.996C199.419 251.833 197.1 254.09 194.291 254.09H130.287C127.479 254.09 125.159 251.833 125.159 248.996V205.912H121.68C120.341 205.912 119.212 204.833 119.212 203.449V191.694ZM129.156 206.299V248.996C129.156 249.577 129.639 250.09 130.287 250.09H194.291C194.939 250.09 195.422 249.577 195.422 248.996V206.299H129.156ZM123.871 191.065C123.482 191.065 123.21 191.37 123.21 191.694V201.912H201.29V191.694C201.29 191.37 201.018 191.065 200.629 191.065H123.871Z" fill="#52199F"/>
<path d="M156.732 201.206H167.896V207.3H156.732V201.206Z" fill="#EBF3FF"/>
<path d="M96.3461 98.1205C79.6003 99.1361 73.0034 90.5033 73.0034 90.5033L82.645 53.4331L162.822 24.9957L244.014 59.5269L251.626 89.9955C251.626 89.9955 242.999 98.1205 227.268 98.1205C219.149 105.23 207.985 110.816 189.209 105.23C183.12 109.292 160.285 120.464 134.912 105.23C122.226 107.769 113.599 111.324 96.3461 98.1205Z" fill="#EBF2FA"/>
<path fill-rule="evenodd" clip-rule="evenodd" d="M162.888 22.8506L245.711 58.0758L253.849 90.6483L252.995 91.452L251.626 89.9956C252.995 91.452 252.995 91.4526 252.994 91.4533L252.992 91.4548L252.979 91.4677L252.949 91.495C252.925 91.517 252.892 91.5464 252.851 91.5829C252.769 91.6558 252.653 91.7567 252.503 91.8816C252.203 92.1314 251.769 92.4772 251.202 92.8868C250.068 93.7056 248.403 94.7814 246.229 95.8524C242.01 97.9306 235.877 99.9904 228.018 100.115C223.921 103.607 218.992 106.758 212.734 108.373C206.376 110.012 198.798 110.027 189.525 107.404C182.208 111.948 159.627 121.979 134.556 107.343C133.706 107.518 132.863 107.699 132.025 107.878C127.092 108.936 122.32 109.959 117.192 109.573C110.937 109.102 104.268 106.583 95.7213 100.156C87.3612 100.534 81.3915 98.5945 77.4422 96.4509C75.4178 95.3522 73.9423 94.2097 72.9581 93.3223C72.466 92.8787 72.0965 92.4987 71.8421 92.2193C71.7149 92.0796 71.6164 91.9649 71.5457 91.8799C71.5103 91.8374 71.4819 91.8023 71.4603 91.7752L71.433 91.7406L71.4231 91.7279L71.4191 91.7227L71.4174 91.7204C71.4166 91.7193 71.4158 91.7183 73.0034 90.5034L71.4158 91.7183L70.8237 90.9436L80.9778 51.9026L162.888 22.8506ZM75.2114 89.954C75.3336 90.0739 75.4742 90.2069 75.6335 90.3505C76.4095 91.0501 77.6298 92.0023 79.3479 92.9348C82.7669 94.7905 88.2313 96.6091 96.2251 96.1242L96.9685 96.0792L97.5601 96.5319C105.982 102.977 112.091 105.177 117.492 105.584C121.994 105.923 126.093 105.049 130.984 104.007C132.115 103.765 133.289 103.515 134.52 103.269L135.278 103.117L135.94 103.515C160.358 118.176 182.31 107.429 188.101 103.566L188.881 103.046L189.779 103.313C198.877 106.02 205.989 105.982 211.736 104.499C217.492 103.015 222.041 100.04 225.952 96.6154L226.517 96.1206H227.268C234.78 96.1206 240.569 94.1824 244.463 92.2638C246.412 91.3035 247.887 90.3481 248.862 89.6435C249.055 89.5043 249.228 89.375 249.381 89.2576L242.316 60.9781L162.756 27.141L84.312 54.9638L75.2114 89.954Z" fill="#52199F"/>
<path d="M95.8388 81.3627C79.0929 82.3783 74.5259 73.2377 74.5259 73.2377L91.7792 38.1988L162.315 8.23792L236.402 42.2613L249.596 73.2377C249.596 73.2377 242.492 81.3627 226.761 81.3627C218.642 88.4721 207.478 94.058 188.702 88.4721C182.613 92.5345 159.777 103.706 134.405 88.4721C121.719 91.0111 113.092 94.5658 95.8388 81.3627Z" fill="#C8D5E4"/>
<path d="M123.748 15.3473C98.1468 32.3846 93.3015 72.7299 96.3462 80.8549C96.3462 80.8549 80.1933 83.6964 72.4961 88.472C77.5964 51.1198 89.2419 30.5816 123.748 15.3473Z" fill="#AF73FF"/>
<path d="M157.24 5.19104C138.853 22.9531 135.338 38.9664 134.912 72.7299C157.476 63.6151 169.446 64.1956 189.717 74.2533C190.366 43.1608 186.466 27.7157 168.911 5.19104H157.24Z" fill="#AF73FF"/>
<path d="M228.283 80.3476C226.761 73.2377 234.372 42.2613 198.851 15.3478C230.82 24.4882 247.235 50.3424 251.625 86.9492C251.625 86.9492 238.432 81.8705 228.283 80.3476Z" fill="#AF73FF"/>
<path d="M187.179 49.8785C197.836 85.4252 180.582 67.6519 162.314 67.6519C142.524 67.6519 127.3 82.8862 137.449 49.8785C137.449 37.5384 148.582 27.5348 162.314 27.5348C176.047 27.5348 187.179 37.5384 187.179 49.8785Z" fill="#9240FF"/>
<path d="M96.3463 79.8393C79.093 81.3627 80.6153 85.4252 74.0185 89.4877C74.0185 76.7924 74.0185 74.2534 79.093 63.5893C82.859 55.6752 94.8239 44.8003 103.451 41.7538C100.636 43.7849 93.3016 58.5112 96.3463 79.8393Z" fill="#9240FF"/>
<path d="M229.025 78.8138C246.278 80.3372 244.756 84.3997 251.353 88.4622C251.353 75.7669 251.353 73.2279 246.278 62.5638C242.512 54.6497 230.547 43.7748 221.921 40.7283C224.735 42.7594 232.069 57.4857 229.025 78.8138Z" fill="#9240FF"/>
<path d="M150.643 6.20667C152.673 6.20667 137.957 27.5347 136.942 40.23C135.927 52.9253 134.912 73.7455 134.912 73.7455C118.112 70.4892 109.623 72.8356 95.3312 80.8549C95.3312 80.8549 93.3014 53.9409 107.51 31.5972C121.719 9.25353 148.613 6.20667 150.643 6.20667Z" fill="white"/>
<path d="M170.941 5.69885C168.911 5.69885 185.849 26.5191 186.864 39.2144C187.879 51.9097 188.894 72.7299 188.894 72.7299C205.694 69.4736 214.183 71.82 228.475 79.8393C228.475 79.8393 231.711 53.4331 215.281 30.5816C198.851 7.7301 172.971 5.69885 170.941 5.69885Z" fill="white"/>
<path d="M139.48 30.0745C139.48 36.1676 135.927 36.6754 134.405 67.1441C122.734 72.2222 101.428 80.1393 97.8688 74.7612C94.3097 69.3831 97.8688 49.45 111.607 40.3456C121.436 33.8315 129.331 30.0745 139.48 30.0745Z" fill="#DFE8F3"/>
<path d="M184.417 29.1728C184.417 35.266 187.969 35.7738 189.491 66.2425C201.163 71.3206 222.469 79.2377 226.028 73.8596C229.587 68.4815 226.028 48.5484 212.29 39.444C202.46 32.9299 194.566 29.1728 184.417 29.1728Z" fill="#EBF2FA"/>
<path d="M191.239 65.1125C191.239 65.1125 202.403 63.0813 209.507 64.0969C216.612 65.1125 226.761 72.2219 226.761 72.2219V80.3468L209.507 72.2219L191.239 73.2375V65.1125Z" fill="#C8D5E4"/>
<path d="M133.39 64.3815C133.39 64.3815 122.226 62.3503 115.122 63.3659C108.018 64.3815 97.8687 71.4909 97.8687 71.4909V79.6159L115.122 71.4909L133.39 72.5065V64.3815Z" fill="#C8D5E4"/>
<path d="M136.435 63.0815C136.435 63.0815 147.091 58.5112 162.315 58.5112C177.538 58.5112 189.209 63.0815 189.209 63.0815V71.2065L162.315 67.144L136.435 71.2065V63.0815Z" fill="#6D30BF"/>
<path d="M74.5259 78.8237C82.62 73.8356 87.0481 72.7545 94.8239 72.73V79.8393L74.5259 86.9487V78.8237Z" fill="#6D30BF"/>
<path d="M249.088 78.3159C240.994 73.3278 236.566 72.2466 228.79 72.2222V79.3315L249.088 86.4409V78.3159Z" fill="#6D30BF"/>
<path fill-rule="evenodd" clip-rule="evenodd" d="M102.11 80.1932C100.608 81.1006 99.0428 82.1159 97.3611 83.2416C90.7404 82.4879 83.3519 83.9266 74.5278 90.6631C73.2069 91.6714 71.8538 92.7985 70.4663 94.0548C70.4663 92.2392 70.5189 90.4373 70.6227 88.6503C73.4201 40.4726 113.402 3.15662 162.315 3.15662C211.151 3.15662 251.086 40.3575 253.993 88.4272C254.106 90.2873 254.163 92.1637 254.163 94.0548C252.625 92.6011 251.303 91.3634 250.087 90.3038C244.085 85.0707 240.687 84.1807 226.761 83.0663C225.281 81.9984 223.842 81.0579 222.44 80.2313C211.841 73.9826 203.357 74.2488 195.53 75.2425C194.459 75.3785 193.4 75.5282 192.35 75.6766C191.295 75.8255 190.25 75.9733 189.21 76.1048C182.613 72.7267 173.855 69.172 162.315 69.172C152.368 69.172 144.554 70.1877 135.42 75.1932C133.075 74.9009 130.923 74.6765 128.93 74.5215C116.424 73.5485 110.194 75.3074 102.11 80.1932ZM134.65 71.0706C125.279 69.9673 118.574 69.9376 112.619 71.3419C106.766 72.7223 101.954 75.418 96.3201 79.1317C89.7204 78.6866 82.681 80.2741 74.8756 85.4979C79.1777 41.1182 116.633 7.15662 162.315 7.15662C207.779 7.15662 245.094 40.7952 249.69 84.864C248.165 83.7679 246.603 82.8596 244.848 82.1309C240.743 80.4276 235.803 79.7968 228.176 79.1681C220.132 73.5712 213.009 71.366 206.402 70.8351C201.015 70.4022 195.985 71.1169 191.618 71.7376C191.036 71.8203 190.465 71.9013 189.907 71.9778C183.125 68.6151 174.07 65.172 162.315 65.172C152.403 65.172 144.109 66.1553 134.65 71.0706Z" fill="#52199F"/>
<path fill-rule="evenodd" clip-rule="evenodd" d="M160.428 179.291L70.7962 93.7675L73.5546 90.8725L163.187 176.396L160.428 179.291Z" fill="#52199F"/>
<path fill-rule="evenodd" clip-rule="evenodd" d="M254.006 94.0307L161.739 179.856L159.017 176.926L251.285 91.1009L254.006 94.0307Z" fill="#52199F"/>
<path fill-rule="evenodd" clip-rule="evenodd" d="M218.285 40.1721C225.221 53.1169 226.526 67.6972 225.277 81.6925L229.259 82.0482C230.547 67.6061 229.243 52.158 221.808 38.2819C214.347 24.3594 200.844 12.259 178.199 4.319L176.877 8.09398C198.743 15.761 211.374 27.2738 218.285 40.1721Z" fill="#52199F"/>
<path fill-rule="evenodd" clip-rule="evenodd" d="M105.575 40.2227C98.6388 53.1674 97.3339 67.7477 98.5826 81.743L94.6013 82.0987C93.3128 67.6566 94.6171 52.2085 102.052 38.3324C109.512 24.4099 123.016 12.3095 145.661 4.36954L146.983 8.14452C125.116 15.8115 112.486 27.3243 105.575 40.2227Z" fill="#52199F"/>
<path fill-rule="evenodd" clip-rule="evenodd" d="M183.554 33.7618C187.087 45.4859 188.222 59.0894 187.72 72.1456L191.714 72.2993C192.227 58.9492 191.078 44.877 187.38 32.6069C183.687 20.3527 177.383 9.68475 167.429 3.49255L165.319 6.88968C174.141 12.3773 180.015 22.0219 183.554 33.7618Z" fill="#52199F"/>
<path fill-rule="evenodd" clip-rule="evenodd" d="M141.391 33.1086C137.858 44.8327 136.723 58.4362 137.225 71.4924L133.23 71.6461C132.717 58.296 133.866 44.2238 137.564 31.9537C141.257 19.6995 147.561 9.03156 157.515 2.83935L159.625 6.23648C150.804 11.7241 144.929 21.3687 141.391 33.1086Z" fill="#52199F"/>
<path fill-rule="evenodd" clip-rule="evenodd" d="M158.762 177.844L93.8089 80.3439L97.1348 78.1251L162.088 175.625L158.762 177.844Z" fill="#52199F"/>
<path fill-rule="evenodd" clip-rule="evenodd" d="M163.837 173.781L227.776 78.3126L231.096 80.5396L167.158 176.008L163.837 173.781Z" fill="#52199F"/>
<path fill-rule="evenodd" clip-rule="evenodd" d="M163.837 173.781L227.776 78.3126L231.096 80.5396L167.158 176.008L163.837 173.781Z" fill="#52199F"/>
<path fill-rule="evenodd" clip-rule="evenodd" d="M160.792 175.812L188.195 72.2189L192.059 73.2424L164.656 176.836L160.792 175.812Z" fill="#52199F"/>
<path fill-rule="evenodd" clip-rule="evenodd" d="M158.763 175.812L133.39 74.2502L137.268 73.28L162.641 174.842L158.763 175.812Z" fill="#52199F"/>
</g>
<defs>
<linearGradient id="paint0_linear" x1="35.2903" y1="137.235" x2="309.392" y2="184.264" gradientUnits="userSpaceOnUse">
<stop stop-color="#2CC3F2"/>
<stop offset="0.644669" stop-color="#00D0FF"/>
<stop offset="1" stop-color="#00FFFF"/>
</linearGradient>
<linearGradient id="paint1_linear" x1="35.2903" y1="137.235" x2="309.392" y2="184.264" gradientUnits="userSpaceOnUse">
<stop stop-color="#2CC3F2"/>
<stop offset="0.644669" stop-color="#00D0FF"/>
<stop offset="1" stop-color="#00FFFF"/>
</linearGradient>
<linearGradient id="paint2_linear" x1="35.2903" y1="137.235" x2="309.392" y2="184.264" gradientUnits="userSpaceOnUse">
<stop stop-color="#2CC3F2"/>
<stop offset="0.644669" stop-color="#00D0FF"/>
<stop offset="1" stop-color="#00FFFF"/>
</linearGradient>
<linearGradient id="paint3_linear" x1="35.2903" y1="137.235" x2="309.392" y2="184.264" gradientUnits="userSpaceOnUse">
<stop stop-color="#2CC3F2"/>
<stop offset="0.644669" stop-color="#00D0FF"/>
<stop offset="1" stop-color="#00FFFF"/>
</linearGradient>
<linearGradient id="paint4_linear" x1="121.837" y1="220.307" x2="202.585" y2="220.307" gradientUnits="userSpaceOnUse">
<stop stop-color="#FA00FF"/>
<stop offset="1" stop-color="#C241EF"/>
</linearGradient>
<clipPath id="clip0">
<rect width="319.772" height="256" fill="white"/>
</clipPath>
</defs>
</svg>
