<svg width="230" height="188" viewBox="0 0 230 188" fill="none" xmlns="http://www.w3.org/2000/svg">
<path d="M27.4288 24.5054V182.391C27.4288 182.896 27.9173 183.251 28.3846 183.084L84.5879 163.022L141.859 182.524L200.186 162.722C200.48 162.623 200.678 162.342 200.678 162.025V4.68855C200.678 4.18794 200.199 3.83405 199.733 3.99138L141.634 23.6429L82.4577 4.05559L27.9074 23.8132C27.6205 23.9171 27.4288 24.1944 27.4288 24.5054Z" fill="white"/>
<path d="M84.2324 4.39844L141.747 23.9866V182.868L84.2324 162.555V4.39844Z" fill="black" fill-opacity="0.08"/>
<path fill-rule="evenodd" clip-rule="evenodd" d="M201.681 159.898L141.751 179.855L84.6288 160.986L28.492 180.915L26.133 173.978L84.5465 153.24L141.742 172.134L199.454 152.916L201.681 159.898Z" fill="black" fill-opacity="0.16"/>
<path fill-rule="evenodd" clip-rule="evenodd" d="M201.718 13.337L141.751 34.0467L84.6076 14.4449L28.492 34.3669L26.133 27.43L84.5677 6.68465L141.743 26.2975L199.417 6.37988L201.718 13.337Z" fill="black" fill-opacity="0.08"/>
<path fill-rule="evenodd" clip-rule="evenodd" d="M198.925 1.5632C201.022 0.840503 203.194 2.43373 203.194 4.69447V162.025C203.194 163.449 202.3 164.714 200.977 165.162L141.745 185.214L84.2601 165.636L29.2329 185.665C27.127 186.432 24.9131 184.837 24.9131 182.552V24.5136C24.9131 23.0957 25.7984 21.8358 27.1132 21.3824L84.2279 1.68717L141.742 21.2754L198.925 1.5632ZM198.162 7.2515L141.752 26.6974L84.2378 7.10925L29.9444 25.8316V179.949L84.2056 160.199L141.749 179.797L198.162 160.699V7.2515Z" fill="#52199F"/>
<path d="M145.297 87.3605C145.297 105.533 124.705 139.276 113.345 147.319C101.984 139.276 81.3923 105.533 81.3923 87.3605C81.3923 69.1882 95.6978 54.4565 113.345 54.4565C130.991 54.4565 145.297 69.1882 145.297 87.3605Z" fill="black" fill-opacity="0.08"/>
<path d="M145.297 80.5742C145.297 98.6046 124.705 132.084 113.345 140.064C101.984 132.084 81.3922 98.6046 81.3922 80.5742C81.3922 62.5438 95.6977 47.9272 113.345 47.9272C130.991 47.9272 145.297 62.5438 145.297 80.5742Z" fill="#B52BD8"/>
<path d="M140.326 77.4268C140.326 90.9141 122.938 115.958 113.345 121.927C103.751 115.958 86.3626 90.9141 86.3626 77.4268C86.3626 63.9395 98.4428 53.0059 113.345 53.0059C128.246 53.0059 140.326 63.9395 140.326 77.4268Z" fill="url(#paint0_linear)"/>
<path d="M137.841 75.4956C131.096 55.5447 96.5202 54.4565 88.4929 75.4956C80.4655 96.5347 90.9781 59.8976 90.9781 59.8976L112.99 50.4663L135.711 59.8976C135.711 59.8976 144.587 95.4465 137.841 75.4956Z" fill="#F650FF"/>
<path fill-rule="evenodd" clip-rule="evenodd" d="M137.185 94.564C139.201 89.0189 140.266 84.2042 140.266 80.5742C140.266 65.3829 128.213 53.0679 113.345 53.0679C98.4764 53.0679 86.4235 65.3829 86.4235 80.5742C86.4235 84.2042 87.4879 89.0189 89.5036 94.564C91.4928 100.036 94.289 105.898 97.465 111.517C100.639 117.133 104.141 122.417 107.5 126.742C109.629 129.483 111.613 131.725 113.345 133.405C115.076 131.725 117.06 129.483 119.189 126.742C122.548 122.417 126.05 117.133 129.224 111.517C132.4 105.898 135.196 100.036 137.185 94.564ZM113.345 140.064C124.705 132.084 145.297 98.6046 145.297 80.5742C145.297 62.5438 130.991 47.9272 113.345 47.9272C95.6977 47.9272 81.3922 62.5438 81.3922 80.5742C81.3922 98.6046 101.984 132.084 113.345 140.064Z" fill="#52199F"/>
<path fill-rule="evenodd" clip-rule="evenodd" d="M113.345 89.2269C118.022 89.2269 121.813 85.3531 121.813 80.5744C121.813 75.7957 118.022 71.9219 113.345 71.9219C108.668 71.9219 104.876 75.7957 104.876 80.5744C104.876 85.3531 108.668 89.2269 113.345 89.2269ZM113.345 93.6332C120.403 93.6332 126.126 87.7866 126.126 80.5744C126.126 73.3622 120.403 67.5156 113.345 67.5156C106.286 67.5156 100.564 73.3622 100.564 80.5744C100.564 87.7866 106.286 93.6332 113.345 93.6332Z" fill="#52199F"/>
<path d="M121.865 80.574C121.865 85.3821 118.05 89.2799 113.345 89.2799C108.639 89.2799 104.824 85.3821 104.824 80.574C104.824 75.7659 108.639 71.8682 113.345 71.8682C118.05 71.8682 121.865 75.7659 121.865 80.574Z" fill="#C8D5E4"/>
<defs>
<linearGradient id="paint0_linear" x1="86.3626" y1="87.4665" x2="140.327" y2="87.4665" gradientUnits="userSpaceOnUse">
<stop stop-color="#FA00FF"/>
<stop offset="1" stop-color="#C241EF"/>
</linearGradient>
</defs>
</svg>
