<svg width="230" height="184" viewBox="0 0 230 184" fill="none" xmlns="http://www.w3.org/2000/svg">
<g clip-path="url(#clip0)">
<path d="M201.734 85.8879C205.039 107.218 189.55 128.604 182.285 132.79C182.285 212.851 78.1571 177.639 81.5427 147.168C46.6703 156.648 24.6634 125.162 36.1014 98.2936C33.8151 83.4648 34.6337 80.2927 36.1014 69.9593C39.3081 47.3816 55.2307 45.1893 78.1571 46.9528C98.1324 8.69466 166.185 2.93876 179.389 60.1566C179.389 60.1566 198.429 64.5583 201.734 85.8879Z" fill="url(#paint0_linear)"/>
<path d="M160.93 38.1307C154.788 39.9285 153.77 40.6277 152.19 47.176C150.345 40.6746 149.303 39.6612 143.163 38.3742C147.895 36.9397 150.649 35.8742 151.964 29.3469C153.362 35.837 154.741 36.5033 160.93 38.1307Z" fill="#DFE8F3"/>
<path fill-rule="evenodd" clip-rule="evenodd" d="M161.649 38.1208C161.653 38.4436 161.442 38.7298 161.132 38.8205C158.021 39.7311 156.424 40.3153 155.357 41.3805C154.299 42.4371 153.683 44.0527 152.888 47.3447C152.812 47.6622 152.531 47.8882 152.204 47.8947C151.877 47.9012 151.588 47.6866 151.498 47.3723C150.569 44.0988 149.887 42.4083 148.785 41.3344C147.694 40.271 146.1 39.7242 143.015 39.0776C142.694 39.0103 142.459 38.7337 142.444 38.4057C142.43 38.0776 142.64 37.7816 142.954 37.6863C145.341 36.9627 147.062 36.3734 148.372 35.229C149.653 34.1103 150.619 32.3836 151.26 29.2049C151.327 28.8712 151.619 28.6304 151.96 28.6282C152.3 28.626 152.595 28.8629 152.667 29.1957C153.365 32.4369 154.025 34.0178 155.135 35.0316C156.272 36.0705 157.972 36.6097 161.113 37.4356C161.425 37.5177 161.644 37.7979 161.649 38.1208ZM159.618 38.5241C160.027 38.3973 160.464 38.2672 160.93 38.1307C160.462 38.0077 160.022 37.8901 159.607 37.7751C155.014 36.5026 153.532 35.5438 152.335 30.9243C152.209 30.4402 152.087 29.916 151.964 29.3469C151.851 29.9104 151.727 30.4331 151.591 30.9189C150.318 35.4894 148.065 36.7895 144.544 37.9425C144.103 38.0866 143.643 38.2285 143.163 38.3742C143.666 38.4798 144.136 38.5835 144.574 38.6886C149.082 39.7693 150.306 40.9918 151.79 45.8163C151.92 46.2409 152.053 46.6933 152.19 47.1761C152.308 46.6864 152.423 46.2295 152.537 45.8024C153.835 40.9505 155.034 39.9434 159.618 38.5241Z" fill="#DFE8F3"/>
<path d="M81.5392 169.443C77.3272 170.676 76.6289 171.156 75.5453 175.646C74.28 171.188 73.5654 170.493 69.3546 169.61C72.6003 168.627 74.4884 167.896 75.3907 163.42C76.349 167.87 77.295 168.327 81.5392 169.443Z" fill="#AF73FF"/>
<path fill-rule="evenodd" clip-rule="evenodd" d="M82.2579 169.433C82.2623 169.756 82.051 170.043 81.7411 170.133C79.5953 170.761 78.5605 171.149 77.8769 171.832C77.2022 172.506 76.7901 173.552 76.2439 175.815C76.1673 176.133 75.8861 176.359 75.5595 176.365C75.2329 176.372 74.943 176.157 74.8538 175.843C74.2147 173.591 73.759 172.491 73.0528 171.802C72.3574 171.124 71.3273 170.758 69.2071 170.314C68.8858 170.246 68.6509 169.97 68.6365 169.642C68.6222 169.314 68.8319 169.018 69.1461 168.923C70.7899 168.424 71.9222 168.031 72.7786 167.283C73.6056 166.561 74.2521 165.431 74.6861 163.278C74.7534 162.944 75.0456 162.703 75.386 162.701C75.7264 162.699 76.0217 162.936 76.0934 163.268C76.5717 165.49 77.0139 166.509 77.7175 167.151C78.4484 167.819 79.5536 168.178 81.722 168.748C82.0342 168.83 82.2534 169.111 82.2579 169.433ZM80.244 169.838C80.6349 169.712 81.0648 169.582 81.5392 169.443C81.0638 169.318 80.6298 169.202 80.2325 169.087C77.5307 168.305 76.5275 167.602 75.7598 164.924C75.6325 164.48 75.5117 163.982 75.3907 163.42C75.2792 163.973 75.1527 164.469 75.0105 164.915C74.1711 167.548 72.7834 168.453 70.7035 169.179C70.2826 169.326 69.8334 169.465 69.3546 169.61C69.8628 169.717 70.3201 169.821 70.7336 169.929C73.3712 170.618 74.2258 171.478 75.1445 174.313C75.275 174.716 75.4068 175.159 75.5452 175.646C75.6648 175.151 75.7797 174.704 75.8952 174.3C76.708 171.453 77.5479 170.711 80.244 169.838Z" fill="#AF73FF"/>
<path d="M62.535 128.362C56.9125 129.815 55.9754 130.422 54.4532 136.345C52.8518 130.361 51.9143 129.406 46.3318 128.046C50.665 126.882 53.1886 125.994 54.4695 120.082C55.6628 126.042 56.9123 126.691 62.535 128.362Z" fill="#DFE8F3"/>
<path fill-rule="evenodd" clip-rule="evenodd" d="M63.2536 128.375C63.2478 128.698 63.0274 128.977 62.7148 129.058C59.8619 129.795 58.4201 130.276 57.4522 131.198C56.4934 132.111 55.9153 133.543 55.1493 136.524C55.068 136.84 54.7835 137.062 54.4567 137.063C54.13 137.065 53.8433 136.846 53.7589 136.53C52.9524 133.517 52.3536 131.967 51.3718 130.964C50.4004 129.972 48.9663 129.428 46.1618 128.745C45.8428 128.667 45.617 128.383 45.6131 128.055C45.6092 127.727 45.8282 127.438 46.1453 127.352C48.3339 126.764 49.8929 126.282 51.0861 125.291C52.2483 124.326 53.145 122.801 53.767 119.93C53.8391 119.597 54.1347 119.361 54.4751 119.363C54.8155 119.366 55.1074 119.607 55.1742 119.941C55.7699 122.916 56.3501 124.364 57.3386 125.311C58.3531 126.284 59.8839 126.824 62.7397 127.673C63.0492 127.765 63.2594 128.052 63.2536 128.375ZM61.2141 128.714C61.6234 128.6 62.0627 128.484 62.535 128.362C62.0697 128.224 61.6343 128.092 61.2264 127.964C57.1761 126.695 55.8381 125.761 54.8163 121.648C54.6977 121.171 54.5833 120.651 54.4694 120.082C54.3482 120.642 54.2158 121.157 54.0717 121.631C52.8646 125.604 50.8412 126.731 47.7184 127.659C47.2783 127.789 46.8164 127.916 46.3318 128.047C46.8324 128.168 47.2955 128.287 47.7252 128.406C51.6986 129.509 52.806 130.67 54.0734 134.984C54.1975 135.406 54.3231 135.859 54.4532 136.345C54.579 135.855 54.7008 135.402 54.8216 134.981C56.0396 130.743 57.1537 129.843 61.2141 128.714Z" fill="#DFE8F3"/>
<path d="M110.959 159.253C108.271 159.948 107.823 160.238 107.095 163.07C106.329 160.209 105.881 159.752 103.211 159.102C105.283 158.546 106.49 158.121 107.103 155.294C107.673 158.144 108.271 158.454 110.959 159.253Z" fill="#DFE8F3"/>
<path fill-rule="evenodd" clip-rule="evenodd" d="M111.678 159.266C111.672 159.589 111.452 159.868 111.139 159.949C109.753 160.307 109.167 160.519 108.788 160.881C108.417 161.234 108.16 161.814 107.791 163.249C107.71 163.566 107.425 163.787 107.098 163.789C106.772 163.791 106.485 163.572 106.401 163.256C106.012 161.804 105.744 161.159 105.353 160.76C104.973 160.371 104.389 160.129 103.041 159.801C102.722 159.723 102.497 159.439 102.493 159.111C102.489 158.783 102.708 158.494 103.025 158.408C104.083 158.124 104.747 157.91 105.245 157.496C105.712 157.109 106.112 156.47 106.4 155.142C106.472 154.809 106.768 154.573 107.108 154.575C107.449 154.578 107.741 154.819 107.807 155.153C108.092 156.573 108.353 157.159 108.734 157.524C109.141 157.914 109.775 158.152 111.164 158.564C111.474 158.656 111.684 158.943 111.678 159.266ZM109.694 159.612C110.051 159.494 110.468 159.38 110.959 159.253C110.478 159.11 110.064 158.983 109.704 158.854C108.446 158.401 107.865 157.927 107.452 156.684C107.324 156.301 107.213 155.845 107.103 155.294C106.987 155.829 106.85 156.277 106.69 156.657C106.197 157.825 105.486 158.343 104.503 158.71C104.116 158.854 103.686 158.975 103.211 159.102C103.719 159.226 104.146 159.343 104.511 159.47C105.73 159.897 106.246 160.445 106.712 161.785C106.839 162.15 106.962 162.574 107.095 163.07C107.224 162.567 107.345 162.144 107.47 161.785C107.923 160.492 108.445 160.025 109.694 159.612Z" fill="#DFE8F3"/>
<path d="M181.623 32.4511C177.675 33.4714 177.018 33.8973 175.949 38.055C174.825 33.8546 174.167 33.1838 170.248 32.2297C173.29 31.412 175.061 30.7885 175.96 26.6387C176.798 30.8223 177.675 31.278 181.623 32.4511Z" fill="#AF73FF"/>
<path fill-rule="evenodd" clip-rule="evenodd" d="M182.341 32.4639C182.335 32.7867 182.115 33.0661 181.802 33.1469C179.787 33.6678 178.834 33.995 178.202 34.5969C177.579 35.19 177.184 36.1359 176.645 38.2338C176.564 38.5503 176.279 38.772 175.953 38.7737C175.626 38.7753 175.339 38.5564 175.255 38.2408C174.687 36.1189 174.277 35.0859 173.633 34.4277C172.999 33.7801 172.051 33.4082 170.078 32.9279C169.759 32.8503 169.533 32.5664 169.529 32.2381C169.525 31.9099 169.744 31.6207 170.061 31.5355C171.604 31.1207 172.652 30.7917 173.449 30.1307C174.214 29.4954 174.827 28.4766 175.258 26.4864C175.33 26.1537 175.626 25.9172 175.966 25.9199C176.307 25.9225 176.598 26.1637 176.665 26.4975C177.083 28.5842 177.481 29.54 178.123 30.1549C178.79 30.7948 179.809 31.1623 181.827 31.762C182.137 31.854 182.347 32.1411 182.341 32.4639ZM180.32 32.8052C180.71 32.6907 181.142 32.5753 181.623 32.451C181.15 32.3106 180.722 32.1804 180.332 32.053C177.903 31.2583 176.981 30.5668 176.307 28.1319C176.186 27.694 176.073 27.1999 175.96 26.6386C175.841 27.1879 175.707 27.6755 175.557 28.1099C174.75 30.4367 173.479 31.2381 171.6 31.8405C171.18 31.9752 170.73 32.1 170.248 32.2296C170.752 32.3524 171.203 32.4706 171.607 32.5921C173.977 33.3046 174.764 34.1352 175.568 36.7215C175.693 37.1219 175.818 37.5643 175.949 38.0549C176.076 37.5594 176.198 37.1168 176.32 36.72C177.097 34.1927 177.891 33.5184 180.32 32.8052Z" fill="#AF73FF"/>
<path d="M189.486 84.5454C186.335 85.3599 185.809 85.6999 184.956 89.0194C184.059 85.6659 183.533 85.1304 180.405 84.3686C182.833 83.7158 184.248 83.218 184.965 79.9049C185.634 83.245 186.335 83.6088 189.486 84.5454Z" fill="#DFE8F3"/>
<path fill-rule="evenodd" clip-rule="evenodd" d="M190.205 84.5583C190.199 84.8811 189.978 85.1605 189.666 85.2413C188.049 85.6593 187.328 85.9136 186.855 86.3636C186.392 86.8047 186.084 87.5196 185.653 89.1983C185.571 89.5148 185.287 89.7365 184.96 89.7382C184.633 89.7398 184.347 89.5209 184.262 89.2052C183.808 87.5069 183.488 86.7194 183.004 86.2249C182.53 85.7411 181.812 85.4511 180.235 85.067C179.916 84.9893 179.69 84.7054 179.686 84.3772C179.682 84.0489 179.901 83.7597 180.218 83.6745C181.454 83.3422 182.26 83.0859 182.867 82.5814C183.444 82.1028 183.922 81.3246 184.263 79.7527C184.335 79.42 184.631 79.1835 184.971 79.1862C185.312 79.1889 185.603 79.43 185.67 79.7638C186.004 81.4288 186.315 82.1507 186.792 82.6076C187.295 83.0896 188.071 83.375 189.691 83.8564C190 83.9484 190.21 84.2355 190.205 84.5583ZM188.202 84.9018C188.575 84.7858 188.999 84.6713 189.486 84.5454C189.008 84.4034 188.587 84.2746 188.213 84.1466C186.533 83.5706 185.822 83.0108 185.313 81.341C185.189 80.9338 185.077 80.4605 184.966 79.9049C184.848 80.446 184.712 80.9121 184.557 81.3159C183.947 82.8972 183.031 83.5256 181.725 83.9778C181.323 84.1172 180.883 84.2399 180.405 84.3686C180.911 84.492 181.35 84.6094 181.732 84.7338C183.365 85.2645 183.986 85.9225 184.574 87.7112C184.7 88.0926 184.824 88.5255 184.956 89.0194C185.085 88.5195 185.206 88.0871 185.33 87.7105C185.9 85.9732 186.528 85.4232 188.202 84.9018Z" fill="#DFE8F3"/>
<path d="M100.002 11.738C94.6835 13.1127 93.7972 13.6865 92.3574 19.2884C90.8427 13.629 89.956 12.7252 84.6758 11.4397C88.7743 10.338 91.1613 9.4979 92.3727 3.90663C93.5015 9.54345 94.6833 10.1575 100.002 11.738Z" fill="#AF73FF"/>
<path fill-rule="evenodd" clip-rule="evenodd" d="M100.72 11.7508C100.714 12.0736 100.494 12.353 100.181 12.4338C97.4807 13.1319 96.1277 13.5847 95.2208 14.4484C94.3231 15.3033 93.7783 16.6473 93.0535 19.4672C92.9721 19.7837 92.6876 20.0054 92.3609 20.0071C92.0342 20.0087 91.7475 19.7898 91.663 19.4742C90.8999 16.6228 90.3355 15.1668 89.415 14.2266C88.5049 13.2969 87.1591 12.7839 84.5057 12.1379C84.1868 12.0603 83.961 11.7764 83.9571 11.4481C83.9532 11.1199 84.1722 10.8307 84.4892 10.7455C86.5605 10.1887 88.0267 9.73458 89.1477 8.8037C90.2377 7.89864 91.0829 6.46526 91.6703 3.75435C91.7424 3.42164 92.038 3.18514 92.3784 3.18782C92.7188 3.1905 93.0107 3.43163 93.0775 3.76543C93.6408 6.57876 94.188 7.93742 95.1134 8.82448C96.065 9.73658 97.5027 10.2455 100.206 11.0489C100.516 11.1409 100.726 11.428 100.72 11.7508ZM98.6829 12.0902C99.0897 11.9764 99.528 11.8603 100.002 11.7379C99.5352 11.5993 99.1006 11.4682 98.6952 11.3404C94.942 10.1578 93.6778 9.26592 92.7195 5.46256C92.6006 4.99073 92.4864 4.4741 92.3727 3.90655C92.2518 4.46482 92.1191 4.97572 91.9742 5.44425C90.8391 9.11365 88.9525 10.1838 86.058 11.0517C85.6206 11.1829 85.1601 11.3094 84.6758 11.4396C85.1769 11.5616 85.6385 11.6802 86.0648 11.7997C89.7438 12.8313 90.7948 13.9338 91.9774 17.931C92.1016 18.3505 92.2271 18.8018 92.3573 19.2883C92.4834 18.7979 92.6052 18.346 92.7261 17.9288C93.8633 14.0042 94.9212 13.1427 98.6829 12.0902Z" fill="#AF73FF"/>
<path d="M90.6629 78.0194C105.604 59.1347 133.025 55.9375 151.909 70.8782L182.68 95.2227C201.565 110.163 204.762 137.584 189.821 156.469C174.881 175.354 147.46 178.551 128.575 163.61L97.8041 139.266C78.9194 124.325 75.7222 96.9041 90.6629 78.0194Z" fill="url(#paint1_linear)"/>
<path fill-rule="evenodd" clip-rule="evenodd" d="M180.004 98.6048L149.234 74.2603C132.217 60.7973 107.508 63.6783 94.045 80.6951C80.582 97.712 83.463 122.421 100.48 135.884L131.251 160.228C148.267 173.691 172.976 170.81 186.439 153.793C199.902 136.776 197.021 112.068 180.004 98.6048ZM151.909 70.8782C133.025 55.9375 105.604 59.1347 90.6629 78.0194C75.7222 96.9041 78.9194 124.325 97.8041 139.266L128.575 163.61C147.46 178.551 174.881 175.354 189.821 156.469C204.762 137.584 201.565 110.163 182.68 95.2227L151.909 70.8782Z" fill="#52199F"/>
<path d="M106.799 90.4328C115.265 79.7325 130.802 77.921 141.502 86.3866L170.822 109.583C181.522 118.049 183.334 133.586 174.868 144.286C166.403 154.986 150.866 156.798 140.165 148.332L110.846 125.136C100.145 116.67 98.3338 101.133 106.799 90.4328Z" fill="white"/>
<path fill-rule="evenodd" clip-rule="evenodd" d="M168.146 112.965L138.827 89.7686C129.994 82.7808 117.169 84.2761 110.181 93.1086C103.194 101.941 104.689 114.766 113.521 121.754L142.841 144.95C151.674 151.938 164.499 150.443 171.486 141.61C178.474 132.778 176.979 119.953 168.146 112.965ZM141.502 86.3866C130.802 77.921 115.265 79.7325 106.799 90.4328C98.3338 101.133 100.145 116.67 110.846 125.136L140.165 148.332C150.866 156.798 166.403 154.986 174.868 144.286C183.334 133.586 181.522 118.049 170.822 109.583L141.502 86.3866Z" fill="#52199F"/>
<path d="M40.7088 39.6355C55.6495 20.7508 83.0704 17.5536 101.955 32.4943L132.726 56.8388C151.611 71.7796 154.808 99.2005 139.867 118.085C124.926 136.97 97.5055 140.167 78.6208 125.226L47.85 100.882C28.9653 85.9411 25.7681 58.5202 40.7088 39.6355Z" fill="url(#paint2_linear)"/>
<path fill-rule="evenodd" clip-rule="evenodd" d="M130.05 60.2209L99.2794 35.8764C82.2625 22.4134 57.5538 25.2944 44.0908 42.3112C30.6279 59.3281 33.5089 84.0368 50.5257 97.4998L81.2965 121.844C98.3134 135.307 123.022 132.426 136.485 115.409C149.948 98.3926 147.067 73.6838 130.05 60.2209ZM101.955 32.4943C83.0704 17.5536 55.6495 20.7508 40.7088 39.6355C25.7681 58.5202 28.9653 85.9411 47.85 100.882L78.6208 125.226C97.5055 140.167 124.926 136.97 139.867 118.085C154.808 99.2005 151.611 71.7796 132.726 56.8388L101.955 32.4943Z" fill="#52199F"/>
<path d="M46.5807 44.3377C58.9997 28.6404 81.7926 25.9828 97.49 38.4018L127.965 62.5126C143.663 74.9317 146.32 97.7245 133.901 113.422C121.482 129.119 98.6894 131.777 82.992 119.358L52.5166 95.247C36.8192 82.8279 34.1617 60.0351 46.5807 44.3377Z" fill="url(#paint3_linear)"/>
<path d="M53.2582 49.5677C63.1639 37.0472 81.3439 34.9275 93.8644 44.8331L123.487 68.2695C136.008 78.1752 138.128 96.3552 128.222 108.876C118.316 121.396 100.136 123.516 87.6157 113.61L57.9928 90.174C45.4723 80.2683 43.3525 62.0883 53.2582 49.5677Z" fill="#B52BD8"/>
<path d="M56.845 52.0489C65.3106 41.3486 80.8477 39.537 91.548 48.0027L120.868 71.1992C131.568 79.6648 133.38 95.2018 124.914 105.902C116.448 116.602 100.911 118.414 90.2111 109.948L60.8913 86.7519C50.191 78.2863 48.3794 62.7493 56.845 52.0489Z" fill="white"/>
<path fill-rule="evenodd" clip-rule="evenodd" d="M118.192 74.5812L88.8722 51.3847C80.0398 44.3968 67.2149 45.8922 60.227 54.7247C53.2392 63.5571 54.7345 76.382 63.567 83.3699L92.8868 106.566C101.719 113.554 114.544 112.059 121.532 103.226C128.52 94.3939 127.024 81.569 118.192 74.5812ZM91.548 48.0027C80.8477 39.537 65.3106 41.3486 56.845 52.0489C48.3794 62.7493 50.191 78.2863 60.8913 86.7519L90.2111 109.948C100.911 118.414 116.448 116.602 124.914 105.902C133.38 95.2018 131.568 79.6648 120.868 71.1992L91.548 48.0027Z" fill="#52199F"/>
<path fill-rule="evenodd" clip-rule="evenodd" d="M117.517 84.7493C110.461 86.2507 104.288 91.8477 102.334 103.573L81.0652 100.028C84.1895 81.2821 95.7161 67.3428 113.029 63.659C129.63 60.1266 148.46 66.7075 165.831 81.4376L151.885 97.8833C137.495 85.681 125.285 83.0964 117.517 84.7493Z" fill="url(#paint4_linear)"/>
<path fill-rule="evenodd" clip-rule="evenodd" d="M164.196 85.9066L149.018 74.2799C130.775 60.3048 104.683 63.6067 90.4962 81.6859L87.1036 79.0237C102.749 59.0862 131.522 55.4449 151.641 70.8564L166.819 82.4832L164.196 85.9066Z" fill="#52199F"/>
<path fill-rule="evenodd" clip-rule="evenodd" d="M153.033 100.811L137.814 89.2851C128.266 82.0537 114.683 83.8105 107.289 93.2333L103.896 90.5711C112.743 79.2973 128.994 77.1953 140.418 85.8472L155.637 97.3731L153.033 100.811Z" fill="#52199F"/>
<path fill-rule="evenodd" clip-rule="evenodd" d="M98.9494 104.428C99.3938 99.8508 100.831 93.9167 104.978 89.2033L108.216 92.0523C104.915 95.8032 103.644 100.703 103.242 104.844C103.043 106.893 103.063 108.696 103.132 109.984C103.167 110.626 103.214 111.136 103.251 111.479C103.27 111.651 103.286 111.78 103.297 111.863C103.302 111.904 103.307 111.934 103.309 111.952L103.312 111.969C103.312 111.969 103.311 111.968 101.18 112.296C99.0491 112.624 99.049 112.623 99.0489 112.622L99.0479 112.616L99.046 112.603L99.0402 112.564C99.0356 112.531 99.0292 112.485 99.0217 112.428C99.0065 112.314 98.9863 112.151 98.9639 111.945C98.9191 111.533 98.8655 110.945 98.8262 110.217C98.7476 108.764 98.7251 106.738 98.9494 104.428Z" fill="#52199F"/>
<path fill-rule="evenodd" clip-rule="evenodd" d="M81.3217 93.852C82.0428 89.4767 83.6489 83.7758 87.2524 78.8577L90.7311 81.4065C87.6803 85.5702 86.2393 90.5341 85.5768 94.5533C85.248 96.5481 85.1172 98.2726 85.0685 99.4921C85.0442 100.101 85.0405 100.581 85.0427 100.904C85.0437 101.065 85.0462 101.186 85.0483 101.264C85.0494 101.303 85.0503 101.331 85.0509 101.348L85.0516 101.364C85.0515 101.364 85.0515 101.363 82.8975 101.462C80.7435 101.56 80.7435 101.56 80.7435 101.559L80.7432 101.553L80.7427 101.542L80.7413 101.505C80.7402 101.475 80.7388 101.433 80.7374 101.38C80.7345 101.274 80.7315 101.124 80.7303 100.932C80.7277 100.549 80.7323 100.002 80.7595 99.3202C80.8137 97.9594 80.9587 96.0543 81.3217 93.852Z" fill="#52199F"/>
<path d="M100.503 97.3991C100.503 97.3991 98.1331 105.863 99.1488 110.265C95.4246 109.926 84.929 100.785 84.929 100.785C85.5869 96.0693 94.9545 98.5808 100.503 97.3991Z" fill="url(#paint5_linear)"/>
<path fill-rule="evenodd" clip-rule="evenodd" d="M144.582 158.518C143.941 160.396 144.943 162.439 146.821 163.081L147.983 159.68C146.821 163.081 146.823 163.081 146.824 163.082L146.827 163.082L146.833 163.085L146.848 163.09L146.887 163.103C146.917 163.113 146.956 163.125 147.004 163.14C147.098 163.17 147.226 163.209 147.386 163.255C147.704 163.346 148.149 163.464 148.703 163.588C149.809 163.836 151.365 164.112 153.232 164.242C156.952 164.502 162.037 164.194 167.263 161.819C169.069 160.998 169.869 158.867 169.048 157.061C168.226 155.254 166.096 154.454 164.289 155.275C160.456 157.017 156.645 157.275 153.733 157.072C152.285 156.971 151.091 156.758 150.276 156.575C149.87 156.484 149.561 156.401 149.367 156.345C149.269 156.318 149.201 156.297 149.163 156.285C149.146 156.279 149.135 156.276 149.131 156.274M101.18 81.3557C102.221 83.0452 104.435 83.5706 106.125 82.5291C113.901 77.7359 120.022 75.5727 127.39 76.9297C135.068 78.3439 144.695 83.6791 159.031 95.7214C160.551 96.9979 162.818 96.8008 164.094 95.281C165.371 93.7612 165.174 91.4944 163.654 90.2178C149.148 78.0329 138.311 71.6328 128.692 69.8611C118.762 68.0323 110.753 71.2329 102.353 76.4107C100.664 77.4522 100.138 79.6661 101.18 81.3557Z" fill="white"/>
<path fill-rule="evenodd" clip-rule="evenodd" d="M47.2093 51.2744C49.0794 51.9394 50.0563 53.9944 49.3914 55.8645C46.8682 62.9609 46.2757 69.7843 48.5912 76.363C50.9143 82.9638 56.3501 89.8446 66.9155 96.6715C68.5825 97.7487 69.0607 99.9733 67.9836 101.64C66.9064 103.307 64.6818 103.786 63.0147 102.708C51.5733 95.3155 44.8206 87.2993 41.8113 78.7492C38.7943 70.1771 39.7253 61.5957 42.6192 53.4566C43.2842 51.5865 45.3392 50.6095 47.2093 51.2744Z" fill="white"/>
<path fill-rule="evenodd" clip-rule="evenodd" d="M68.1427 35.3621C68.1427 37.3469 69.7517 38.9559 71.7365 38.9559C73.3366 38.9559 74.6214 38.9016 75.6884 38.8565C75.8094 38.8513 75.9276 38.8463 76.0432 38.8416C77.1951 38.7938 78.0283 38.7703 78.8872 38.8213C80.5261 38.9187 82.5387 39.305 86.8157 40.7806C88.6919 41.4278 90.7377 40.4316 91.385 38.5553C92.0322 36.6791 91.036 34.6333 89.1597 33.986C84.634 32.4247 81.9066 31.8005 79.3134 31.6465C78.0563 31.5718 76.9004 31.6124 75.7457 31.6602C75.6269 31.6651 75.5074 31.6702 75.3869 31.6753C74.3197 31.7202 73.1778 31.7684 71.7365 31.7684C69.7517 31.7684 68.1427 33.3774 68.1427 35.3621Z" fill="white"/>
</g>
<defs>
<linearGradient id="paint0_linear" x1="198.614" y1="99.7266" x2="16.7139" y2="100.569" gradientUnits="userSpaceOnUse">
<stop stop-color="#2CC3F2"/>
<stop offset="0.644669" stop-color="#00D0FF"/>
<stop offset="1" stop-color="#00FFFF"/>
</linearGradient>
<linearGradient id="paint1_linear" x1="90.6629" y1="78.0194" x2="189.821" y2="156.469" gradientUnits="userSpaceOnUse">
<stop stop-color="#F9A1FE"/>
<stop offset="1" stop-color="#C241EF"/>
</linearGradient>
<linearGradient id="paint2_linear" x1="40.7088" y1="39.6355" x2="139.867" y2="118.085" gradientUnits="userSpaceOnUse">
<stop stop-color="#F9A1FE"/>
<stop offset="1" stop-color="#C241EF"/>
</linearGradient>
<linearGradient id="paint3_linear" x1="46.5807" y1="44.3377" x2="133.901" y2="113.422" gradientUnits="userSpaceOnUse">
<stop stop-color="#F9A1FE"/>
<stop offset="1" stop-color="#C241EF"/>
</linearGradient>
<linearGradient id="paint4_linear" x1="84.3641" y1="78.5849" x2="164.376" y2="90.8944" gradientUnits="userSpaceOnUse">
<stop stop-color="#F9A1FE"/>
<stop offset="1" stop-color="#C241EF"/>
</linearGradient>
<linearGradient id="paint5_linear" x1="88.3994" y1="95.741" x2="102.078" y2="106.562" gradientUnits="userSpaceOnUse">
<stop stop-color="#F9A1FE"/>
<stop offset="1" stop-color="#C241EF"/>
</linearGradient>
<clipPath id="clip0">
<rect width="230" height="184" fill="white"/>
</clipPath>
</defs>
</svg>
