<svg width="230" height="184" viewBox="0 0 230 184" fill="none" xmlns="http://www.w3.org/2000/svg">
<path d="M156.687 102.817C156.687 102.817 173.093 81.7163 182.281 82.7056C191.469 83.6949 187.859 95.5637 186.219 94.9041C184.578 94.2446 183.365 94.9159 181.297 96.2229C176.703 99.1256 161.28 115.016 161.28 115.016L156.687 102.817Z" fill="#DFE8F3"/>
<path fill-rule="evenodd" clip-rule="evenodd" d="M173.231 83.6225C176.14 81.7324 179.432 80.2301 182.512 80.5617C185.325 80.8646 187.398 82.0489 188.73 83.8308C190.015 85.5499 190.442 87.5991 190.467 89.3938C190.491 91.1911 190.117 92.9325 189.582 94.2352C189.321 94.8693 188.968 95.5344 188.498 96.0549C188.165 96.4238 186.994 97.5396 185.415 96.9048C185.089 96.774 184.897 96.7753 184.584 96.8771C184.119 97.0278 183.527 97.3643 182.449 98.0458C181.482 98.6568 179.787 100.069 177.68 101.981C175.617 103.853 173.28 106.09 171.074 108.249C168.87 110.406 166.808 112.474 165.295 114.003C164.54 114.768 163.922 115.397 163.493 115.835C163.279 116.054 163.112 116.225 162.999 116.341L162.828 116.517C162.828 116.517 162.828 116.517 161.28 115.016L162.828 116.517L160.46 118.956L154.243 102.446L154.984 101.493L156.687 102.817C154.984 101.493 154.985 101.493 154.985 101.492L154.999 101.474L155.038 101.425C155.071 101.382 155.12 101.32 155.184 101.24C155.311 101.08 155.497 100.847 155.735 100.553C156.212 99.9654 156.901 99.1301 157.756 98.1322C159.464 96.1396 161.845 93.4837 164.528 90.851C167.2 88.2294 170.229 85.5732 173.231 83.6225ZM159.137 103.205L162.108 111.094C162.148 111.053 162.188 111.013 162.229 110.971C163.752 109.431 165.832 107.345 168.058 105.167C170.281 102.99 172.662 100.711 174.782 98.7869C176.859 96.9029 178.815 95.2404 180.145 94.4001C181.135 93.7745 182.184 93.1218 183.253 92.775C184.03 92.5229 184.813 92.4296 185.619 92.5317C185.923 91.7637 186.171 90.6304 186.155 89.4526C186.138 88.2389 185.847 87.1766 185.276 86.4127C184.752 85.7115 183.831 85.0412 182.05 84.8494C180.536 84.6864 178.332 85.4507 175.581 87.2386C172.922 88.966 170.127 91.3994 167.549 93.9292C164.982 96.4479 162.687 99.0053 161.031 100.938C160.236 101.866 159.591 102.647 159.137 103.205Z" fill="#52199F"/>
<path d="M169.669 29.2612H69.2233V49.6487H75.6472V118.567H163.245V49.6487H169.669V29.2612Z" fill="url(#paint0_linear)"/>
<path d="M74.2586 152.421H160.709V162.812H74.2586V152.421Z" fill="black" fill-opacity="0.08"/>
<path d="M67.203 40.625H168.71V51.3725L67.9218 51.3909L67.203 40.625Z" fill="black" fill-opacity="0.08"/>
<path d="M77.6249 52.8284H161.49V61.4076H77.6249V52.8284Z" fill="black" fill-opacity="0.08"/>
<path d="M106.374 89.8594C93.796 89.8594 76.1866 94.5312 76.1866 94.5312V114.656L124.702 117.531L162.437 106.75C162.437 106.75 167.108 96.6875 162.437 93.4531C157.765 90.2188 143.39 97.7656 133.687 98.125C123.983 98.4844 118.952 89.8594 106.374 89.8594Z" fill="black" fill-opacity="0.08"/>
<path d="M110.687 30.1875H128.655V117.156H110.687V30.1875Z" fill="white"/>
<path d="M109.713 113.027H128.985V118.567H109.713V113.027Z" fill="black" fill-opacity="0.08"/>
<path d="M111.076 97.7367L128.011 81.7812V118.789H111.076V97.7367Z" fill="black" fill-opacity="0.08"/>
<path d="M110.881 48.7621L127.817 32.8066V62.4723L110.881 78.4277V48.7621Z" fill="black" fill-opacity="0.08"/>
<path d="M68.9991 30.2031H170.343V39.5469H68.9991V30.2031Z" fill="white" fill-opacity="0.16"/>
<path fill-rule="evenodd" clip-rule="evenodd" d="M71.7539 27.3535C68.7221 27.3535 66.6478 30.0706 66.6478 32.9176V49.7595C66.6478 50.8931 67.502 52.2212 69.0287 52.2212H74.0449V115.022C74.0449 118.236 76.3807 121.251 79.7351 121.251H159.352C162.706 121.251 165.042 118.236 165.042 115.022V52.2212H169.961C171.487 52.2212 172.342 50.8931 172.342 49.7595V32.9176C172.342 30.0706 170.267 27.3535 167.236 27.3535H71.7539ZM77.6387 115.022V52.7752H111.837V48.6274H70.2415V32.9176C70.2415 31.6035 71.1304 30.9473 71.7539 30.9473H167.236C167.859 30.9473 168.748 31.6035 168.748 32.9176V48.6274H127.219V52.7752H161.448V115.022C161.448 116.703 160.298 117.657 159.352 117.657H79.7351C78.789 117.657 77.6387 116.703 77.6387 115.022Z" fill="#52199F"/>
<path fill-rule="evenodd" clip-rule="evenodd" d="M105.88 6.49827C104.23 6.65803 102.474 7.47639 100.828 9.01C100.179 9.61382 99.3256 10.8561 98.8403 12.4486C98.364 14.0112 98.2795 15.7851 98.9681 17.5242C100.251 20.7648 104.632 24.7379 116.984 26.4557C116.467 16.2447 113.727 10.5688 110.721 8.0895C109.161 6.80302 107.501 6.34137 105.88 6.49827ZM108.305 28.2895C100.993 26.0914 97.1498 22.6936 95.6268 18.8472C94.5772 16.1964 94.7429 13.5657 95.4026 11.4009C96.0533 9.2659 97.2214 7.45781 98.3783 6.38026C100.479 4.42361 102.945 3.17194 105.534 2.92125C108.153 2.66771 110.75 3.45523 113.007 5.31692C115.926 7.72396 118.213 11.8515 119.502 17.7836C120.791 11.8572 123.077 7.73323 125.995 5.32763C128.252 3.46594 130.849 2.67842 133.468 2.93196C136.057 3.18265 138.523 4.43433 140.623 6.39097C141.78 7.46852 142.948 9.27662 143.599 11.4116C144.259 13.5764 144.425 16.2072 143.375 18.8579C141.858 22.6894 138.038 26.0759 130.781 28.2747V121.361H108.305V28.2895ZM111.899 30.9473V117.768H127.187V30.9473H111.899ZM122.018 26.4664C134.369 24.7486 138.75 20.7755 140.034 17.5349C140.722 15.7958 140.638 14.0219 140.161 12.4593C139.676 10.8668 138.822 9.62453 138.174 9.02071C136.527 7.4871 134.771 6.66874 133.121 6.50899C131.501 6.35209 129.841 6.81373 128.281 8.10021C125.275 10.5795 122.535 16.2554 122.018 26.4664Z" fill="#52199F"/>
<path d="M168.905 106.031C168.905 106.031 186.874 83.0311 196.937 84.1095C206.999 85.1879 203.046 98.1251 201.249 97.4061C199.452 96.6872 198.124 97.4189 195.858 98.8436C190.827 102.008 173.937 119.328 173.937 119.328L168.905 106.031Z" fill="#DFE8F3"/>
<path fill-rule="evenodd" clip-rule="evenodd" d="M187.141 85.2692C190.32 83.2133 193.872 81.6124 197.166 81.9655C200.195 82.2901 202.411 83.5553 203.832 85.4482C205.208 87.2795 205.67 89.4703 205.696 91.4023C205.723 93.3365 205.318 95.2098 204.741 96.6065C204.46 97.2878 204.083 97.9902 203.589 98.5342C203.231 98.9293 202.04 100.045 200.448 99.4081C200.043 99.246 199.781 99.2475 199.392 99.373C198.854 99.5468 198.183 99.9289 197.006 100.669C195.93 101.346 194.062 102.897 191.756 104.979C189.493 107.022 186.932 109.463 184.515 111.817C182.101 114.169 179.841 116.424 178.184 118.092C177.356 118.926 176.679 119.612 176.21 120.089C175.975 120.328 175.792 120.514 175.668 120.641L175.481 120.833C175.481 120.833 175.48 120.833 173.937 119.328L175.48 120.833L173.117 123.256L166.459 105.659L167.206 104.703L168.905 106.031C167.206 104.703 167.206 104.703 167.207 104.703L167.222 104.683L167.264 104.629C167.301 104.583 167.354 104.516 167.423 104.429C167.562 104.255 167.765 104.002 168.026 103.682C168.547 103.043 169.301 102.133 170.236 101.047C172.104 98.878 174.708 95.9875 177.641 93.1231C180.563 90.2697 183.869 87.3849 187.141 85.2692ZM171.358 106.42L174.762 115.418C174.88 115.299 175 115.178 175.125 115.053C176.792 113.374 179.069 111.101 181.506 108.728C183.941 106.356 186.546 103.873 188.865 101.779C191.141 99.7238 193.271 97.9234 194.711 97.0183C195.799 96.3336 196.926 95.6375 198.067 95.269C198.94 94.9872 199.817 94.8937 200.724 95.0348C200.734 95.0107 200.745 94.9859 200.755 94.9605C201.111 94.0999 201.402 92.8063 201.384 91.4613C201.366 90.1141 201.041 88.9133 200.384 88.038C199.773 87.2245 198.71 86.4681 196.707 86.2535C194.97 86.0674 192.503 86.9371 189.483 88.8904C186.555 90.7838 183.482 93.4468 180.654 96.2085C177.837 98.9592 175.32 101.751 173.504 103.861C172.598 104.914 171.869 105.793 171.368 106.407C171.365 106.411 171.361 106.416 171.358 106.42Z" fill="#52199F"/>
<path d="M105.296 169.282C94.6084 168.391 65.5278 155.974 55.7358 151.682C53.6625 150.773 52.1773 148.934 51.684 146.725L45.4833 118.956C44.738 115.619 46.4397 112.232 49.6202 110.974C59.2087 107.184 79.6578 99.9211 95.5928 99.9211C116.716 99.9211 118.181 104.405 130.395 107.291C130.905 107.412 131.429 107.474 131.953 107.451C143.861 106.916 165.603 94.8097 171.905 108.718C172.065 109.071 172.19 109.471 172.261 109.853C175.738 128.32 141.799 128.702 127.218 131.547C132.547 131.547 155.196 130.327 163.008 129.898C164.735 129.803 166.339 129.078 167.446 127.749C172.448 121.747 184.277 106.117 195.69 98.4733C196.042 98.2373 196.413 98.0361 196.813 97.8946C203.094 95.6718 208.569 100.372 207.238 106.568C207.109 107.171 206.837 107.729 206.497 108.245C201.535 115.755 181.936 142.042 174.869 151.043C173.808 152.395 172.311 153.267 170.644 153.687C157.93 156.891 117.233 170.276 105.296 169.282Z" fill="white"/>
<path d="M105.655 171.437C94.9323 170.544 67.9155 159.775 58.9807 156.115C57.1065 155.347 55.6779 153.817 55.0049 151.907L47.1238 129.535C45.8795 126.002 47.5591 122.123 51.0467 120.759C60.9049 116.902 80.7584 109.984 96.3116 109.984C117.435 109.984 118.9 114.468 131.114 117.354C131.624 117.474 132.148 117.537 132.672 117.513C143.189 117.041 161.379 107.541 169.825 114.913C172.237 117.017 171.055 120.632 168.061 121.763C160.167 124.743 145.438 127.653 127.577 131.906C146.724 132.738 162.872 132.928 169.236 132.971C171.104 132.984 172.879 132.246 174.061 130.798C178.061 125.898 185.508 115.773 196.403 108.538C196.756 108.303 197.132 108.1 197.53 107.952C203.617 105.678 205.997 109.449 204.384 115.557C204.226 116.154 203.963 116.714 203.619 117.227C198.868 124.308 182.265 144.747 175.621 152.855C174.532 154.184 173.029 155.063 171.364 155.487C158.611 158.736 117.595 172.432 105.655 171.437Z" fill="#DFE8F3"/>
<path d="M128.017 143.101C120.5 144.586 111.402 143.091 111.402 143.091L128.816 130.813L154.529 132.317C154.529 132.317 135.535 141.616 128.017 143.101Z" fill="#C8D5E4"/>
<path d="M168.377 144.385C156.417 146.997 121.383 156.285 104.218 155.625C85.6722 154.912 8.72539 127.653 45.143 151.476C45.6722 151.822 46.303 152.129 46.9054 152.321L103.724 170.472C104.966 170.868 106.293 170.92 107.562 170.62L171.968 155.415C173.647 155.019 175.127 154.032 176.139 152.635L203.799 114.428C206.208 111.1 201.719 107.162 198.733 109.984L172.685 141.784C171.589 143.122 170.067 144.016 168.377 144.385Z" fill="#C8D5E4"/>
<path d="M31.7876 173.01C32.0868 174.719 33.7158 176.123 35.4472 176.012C97.5336 172.008 9.58899 46.1905 31.7876 173.01Z" fill="#C4C4C4"/>
<path fill-rule="evenodd" clip-rule="evenodd" d="M126.359 129.517L126.805 129.43C129.488 128.907 132.828 128.462 136.39 127.988C137.768 127.805 139.179 127.617 140.598 127.418C145.76 126.696 151.141 125.82 155.931 124.482C160.763 123.131 164.74 121.375 167.284 119.044C169.692 116.836 170.865 114.088 170.142 110.252C170.101 110.034 170.028 109.799 169.941 109.607C168.653 106.765 166.66 105.323 164.133 104.663C161.476 103.969 158.163 104.131 154.404 104.792C151.268 105.343 148.015 106.201 144.767 107.057C144.137 107.224 143.506 107.39 142.876 107.554C139.095 108.539 135.289 109.459 132.05 109.605C131.291 109.639 130.565 109.547 129.899 109.39C125.539 108.36 122.594 107.205 119.834 106.122C114.304 103.954 109.517 102.077 95.5928 102.077C80.1154 102.077 60.0154 109.183 50.413 112.98C48.5637 113.711 47.4165 115.521 47.4668 117.509C49.1313 119.112 50.6848 120.977 52.0898 122.953C57.5092 130.574 61.9948 141.683 62.3379 152.187C67.4546 154.369 74.1776 157.158 80.949 159.743C85.8414 161.61 90.737 163.362 95.0579 164.7C99.4213 166.05 103.053 166.931 105.475 167.133C108.115 167.353 112.618 166.77 118.322 165.603C123.947 164.452 130.499 162.786 137.11 160.979C143.59 159.208 150.189 157.283 155.97 155.596C161.867 153.876 166.914 152.403 170.117 151.596C171.398 151.273 172.453 150.629 173.173 149.711C180.231 140.721 199.786 114.491 204.698 107.056C204.938 106.691 205.073 106.382 205.13 106.115C205.634 103.767 204.845 101.863 203.492 100.724C202.133 99.5816 200.008 99.0512 197.532 99.9273C197.343 99.9943 197.133 100.102 196.89 100.265C191.569 103.828 186.066 109.27 181.187 114.699C177.439 118.871 174.136 122.944 171.603 126.068C170.845 127.004 170.155 127.855 169.543 128.598C167.686 130.851 164.911 131.807 162.221 131.673C156.601 131.391 144.093 131.202 128.037 133.604L120.939 138.541C120.287 138.995 119.579 139.364 118.834 139.638L112.87 141.836C111.752 142.248 110.512 141.675 110.101 140.558C109.689 139.441 110.261 138.201 111.379 137.789L117.343 135.592C117.744 135.444 118.125 135.245 118.477 135.001L126.359 129.517ZM161.223 127.311C161.656 127.328 162.061 127.347 162.437 127.366C163.998 127.444 165.364 126.887 166.215 125.855C166.606 125.381 167.035 124.853 167.5 124.281C165.629 125.482 163.494 126.475 161.223 127.311ZM174.093 116.274C174.722 114.251 174.856 111.981 174.381 109.454C174.278 108.909 174.103 108.343 173.869 107.828C172.006 103.716 168.917 101.456 165.223 100.491C161.66 99.56 157.61 99.85 153.658 100.544C150.327 101.13 146.866 102.043 143.621 102.899C143.001 103.063 142.39 103.224 141.789 103.381C137.948 104.381 134.571 105.175 131.856 105.297C131.567 105.31 131.245 105.276 130.891 105.193C127.352 104.356 124.665 103.318 121.993 102.286C116.106 100.012 110.291 97.7648 95.5928 97.7648C79.2003 97.7648 58.402 105.184 48.8274 108.969C46.2645 109.982 44.4457 112.033 43.6319 114.458C42.846 113.963 42.0444 113.538 41.2301 113.197C39.123 112.312 36.6991 111.889 34.2257 112.529C31.7091 113.179 29.6886 114.788 28.184 116.953C25.3437 121.04 23.9685 127.611 23.8062 136.485C23.6403 145.552 24.7392 157.754 27.5397 173.753C28.1803 177.413 31.5845 180.582 35.7247 180.315C44.2481 179.766 50.7531 177.076 55.2525 172.583C59.6239 168.217 61.6646 162.585 62.2058 156.816C67.1271 158.9 73.2451 161.418 79.4111 163.772C84.3487 165.656 89.3392 167.444 93.7828 168.819C98.1838 170.182 102.195 171.187 105.117 171.43C108.445 171.708 113.506 170.99 119.187 169.828C124.947 168.649 131.603 166.955 138.247 165.139C144.937 163.311 151.555 161.378 157.3 159.7C163.08 158.012 167.976 156.583 171.171 155.777C173.224 155.26 175.164 154.16 176.565 152.374C183.641 143.362 203.284 117.02 208.296 109.433C208.736 108.767 209.144 107.961 209.346 107.02C210.173 103.173 208.89 99.6292 206.268 97.4241C203.651 95.2236 199.899 94.5151 196.093 95.8619C195.483 96.0778 194.951 96.373 194.49 96.6817C188.715 100.55 182.925 106.313 177.98 111.817C176.624 113.325 175.322 114.826 174.093 116.274ZM58.01 155.022C58.0839 153.468 58.0439 151.88 57.9033 150.276C57.1727 141.939 53.7246 133.182 49.4171 126.679C47.5348 123.837 45.4883 121.425 43.4328 119.668C32.9738 110.723 22.2814 118.701 31.7876 173.01C32.0868 174.719 33.7158 176.123 35.4472 176.012C51.4634 174.979 57.4956 165.84 58.01 155.022Z" fill="#52199F"/>
<path d="M26.1966 102.452C26.3208 100.605 27.8739 99.2032 29.7251 99.2031C39.9803 99.2031 50.0398 99.2031 55.2131 99.2031C57.1979 99.2032 58.8046 100.812 58.8046 102.797V172.516C58.8046 174.501 57.1957 176.11 55.2109 176.11H35.206C33.471 176.11 31.9897 174.889 31.7015 173.178C29.9683 162.892 24.4996 127.702 26.1966 102.452Z" fill="url(#paint1_linear)"/>
<path d="M28.7491 166.766H61.0928V178.266H28.7491V166.766Z" fill="black" fill-opacity="0.08"/>
<path d="M23.7178 96.3281H61.0928V108.547H23.7178V96.3281Z" fill="white" fill-opacity="0.16"/>
<path fill-rule="evenodd" clip-rule="evenodd" d="M29.7251 94.8906L55.2131 94.8906C59.5831 94.8906 63.1172 98.4338 63.1172 102.797V172.516C63.1172 176.882 59.5774 180.422 55.2109 180.422H35.206C31.4223 180.422 28.0963 177.737 27.4489 173.894C25.7227 163.649 20.1582 127.987 21.8938 102.162C22.1758 97.9666 25.6899 94.8906 29.7251 94.8906ZM29.7251 99.2031C27.8739 99.2031 26.3208 100.604 26.1966 102.452C24.4996 127.702 29.9683 162.892 31.7015 173.178C31.9897 174.889 33.471 176.11 35.206 176.11H55.2109C57.1957 176.11 58.8047 174.501 58.8047 172.516V102.797C58.8047 100.812 57.1979 99.2031 55.2131 99.2031L29.7251 99.2031Z" fill="#52199F"/>
<path d="M47.4366 163.172C47.4366 165.157 45.8276 166.766 43.8428 166.766C41.8581 166.766 40.2491 165.157 40.2491 163.172C40.2491 161.187 41.8581 159.578 43.8428 159.578C45.8276 159.578 47.4366 161.187 47.4366 163.172Z" fill="#52199F"/>
<defs>
<linearGradient id="paint0_linear" x1="69.2233" y1="73.9143" x2="169.669" y2="73.9143" gradientUnits="userSpaceOnUse">
<stop stop-color="#FA00FF"/>
<stop offset="1" stop-color="#C241EF"/>
</linearGradient>
<linearGradient id="paint1_linear" x1="26.4369" y1="133.266" x2="62.3499" y2="135.449" gradientUnits="userSpaceOnUse">
<stop stop-color="#2CC3F2"/>
<stop offset="0.644669" stop-color="#00D0FF"/>
<stop offset="1" stop-color="#00FFFF"/>
</linearGradient>
</defs>
</svg>
