<svg width="230" height="184" viewBox="0 0 230 184" fill="none" xmlns="http://www.w3.org/2000/svg">
<rect width="230" height="184" fill="white"/>
<path fill-rule="evenodd" clip-rule="evenodd" d="M137.708 93.591C130.493 97.8929 122.003 100.373 112.916 100.373C112.538 100.373 112.156 100.369 111.769 100.361C111.85 101.38 111.891 102.408 111.891 103.446C111.891 125.884 92.6317 144.073 68.8739 144.073C45.1162 144.073 25.8568 125.884 25.8568 103.446C25.8568 86.4523 36.9041 71.8955 52.5862 65.832C58.4998 59.7307 61.6647 52.0342 64.8611 44.2609C71.6915 27.6501 78.6661 10.6888 112.916 8.19378C152.468 5.31247 159.263 18.9991 160.284 37.0228C163.039 36.2553 165.923 35.8477 168.894 35.8477C188.315 35.8477 204.059 53.2729 204.059 74.768C204.059 89.0115 201.299 93.2794 197.485 99.1768C193.255 105.719 187.728 114.266 183.233 140.659C176.32 181.25 148.206 127.14 137.708 93.591Z" fill="url(#paint0_linear)"/>
<path d="M184.872 34.9356L184.8 1.36165L194.509 1.37841C195.301 1.37977 195.943 2.0211 195.944 2.81283L196.01 33.5118C196.012 34.3079 195.366 34.9538 194.57 34.9524L184.872 34.9356Z" fill="#FFFEF1"/>
<path fill-rule="evenodd" clip-rule="evenodd" d="M187.741 32.0656L193.132 32.0749L193.073 4.25093L187.682 4.24162L187.741 32.0656ZM184.872 34.9356L194.57 34.9524C195.366 34.9538 196.012 34.3079 196.01 33.5118L195.944 2.81283C195.943 2.0211 195.301 1.37977 194.509 1.37841L184.8 1.36165L184.872 34.9356Z" fill="#2287BF"/>
<path d="M179.081 34.9396L179.153 1.36561L169.444 1.38237C168.652 1.38374 168.01 2.02506 168.008 2.8168L167.943 33.5158C167.941 34.3119 168.587 34.9577 169.383 34.9564L179.081 34.9396Z" fill="#F6FBFF"/>
<path fill-rule="evenodd" clip-rule="evenodd" d="M176.212 32.0696L170.821 32.0789L170.88 4.2549L176.271 4.24559L176.212 32.0696ZM179.081 34.9396L169.383 34.9564C168.587 34.9577 167.941 34.3119 167.943 33.5158L168.008 2.8168C168.01 2.02506 168.652 1.38374 169.444 1.38237L179.153 1.36561L179.081 34.9396Z" fill="#2287BF"/>
<path d="M176.407 34.9364L176.336 1.32559L187.442 1.34476L187.514 34.9556L176.407 34.9364Z" fill="#E1CBFF"/>
<path fill-rule="evenodd" clip-rule="evenodd" d="M179.276 32.0664L184.632 32.0756L184.573 4.21481L179.217 4.20557L179.276 32.0664ZM176.407 34.9364L187.514 34.9556L187.442 1.34476L176.336 1.32559L176.407 34.9364Z" fill="#2287BF"/>
<path opacity="0.3" fill-rule="evenodd" clip-rule="evenodd" d="M194.511 9.55939H169.247V6.68439H194.511V9.55939Z" fill="#2287BF"/>
<path opacity="0.3" fill-rule="evenodd" clip-rule="evenodd" d="M194.511 27.9953H169.247V25.1203H194.511V27.9953Z" fill="#2287BF"/>
<path d="M135.125 33.0625C135.125 32.2686 135.769 31.625 136.562 31.625H198.375C199.169 31.625 199.812 32.2686 199.812 33.0625V40.9688C199.812 41.7627 199.169 42.4062 198.375 42.4062H136.562C135.769 42.4062 135.125 41.7627 135.125 40.9688V33.0625Z" fill="#FFFEF1"/>
<path fill-rule="evenodd" clip-rule="evenodd" d="M138 34.5V39.5312H196.938V34.5H138ZM136.562 31.625C135.769 31.625 135.125 32.2686 135.125 33.0625V40.9688C135.125 41.7627 135.769 42.4062 136.562 42.4062H198.375C199.169 42.4062 199.812 41.7627 199.812 40.9688V33.0625C199.812 32.2686 199.169 31.625 198.375 31.625H136.562Z" fill="#2287BF"/>
<path d="M139.438 15.0938C139.438 14.2998 140.081 13.6562 140.875 13.6562H161.719C162.513 13.6562 163.156 14.2998 163.156 15.0938V32.3438C163.156 33.1377 162.513 33.7812 161.719 33.7812H140.875C140.081 33.7812 139.438 33.1377 139.438 32.3438V15.0938Z" fill="#EFEDFC"/>
<path fill-rule="evenodd" clip-rule="evenodd" d="M142.312 16.5312V30.9062H160.281V16.5312H142.312ZM140.875 13.6562C140.081 13.6562 139.438 14.2998 139.438 15.0938V32.3438C139.438 33.1377 140.081 33.7812 140.875 33.7812H161.719C162.513 33.7812 163.156 33.1377 163.156 32.3438V15.0938C163.156 14.2998 162.513 13.6562 161.719 13.6562H140.875Z" fill="#2287BF"/>
<path d="M138 7.90625C138 7.11234 138.644 6.46875 139.437 6.46875H163.156C163.95 6.46875 164.594 7.11234 164.594 7.90625V15.0938C164.594 15.8877 163.95 16.5312 163.156 16.5312H139.438C138.644 16.5312 138 15.8877 138 15.0938V7.90625Z" fill="#EFEDFC"/>
<path fill-rule="evenodd" clip-rule="evenodd" d="M140.875 9.34375V13.6562H161.719V9.34375H140.875ZM139.437 6.46875C138.644 6.46875 138 7.11234 138 7.90625V15.0938C138 15.8877 138.644 16.5312 139.438 16.5312H163.156C163.95 16.5312 164.594 15.8877 164.594 15.0938V7.90625C164.594 7.11234 163.95 6.46875 163.156 6.46875H139.437Z" fill="#2287BF"/>
<path fill-rule="evenodd" clip-rule="evenodd" d="M145.906 20.8438C145.906 20.0498 146.55 19.4062 147.344 19.4062L154.531 19.4062C155.325 19.4062 155.969 20.0498 155.969 20.8437C155.969 21.6377 155.325 22.2812 154.531 22.2812L147.344 22.2812C146.55 22.2812 145.906 21.6377 145.906 20.8438Z" fill="#2287BF"/>
<path fill-rule="evenodd" clip-rule="evenodd" d="M28.75 176.094C28.75 175.3 29.3936 174.656 30.1875 174.656L198.375 174.656C199.169 174.656 199.812 175.3 199.812 176.094C199.812 176.888 199.169 177.531 198.375 177.531L30.1875 177.531C29.3936 177.531 28.75 176.888 28.75 176.094Z" fill="#2287BF"/>
<path d="M154.5 90.2835L154.571 56.7095L144.862 56.7263C144.071 56.7277 143.429 57.369 143.427 58.1607L143.362 88.8597C143.36 89.6558 144.006 90.3017 144.802 90.3003L154.5 90.2835Z" fill="#FFFEF1"/>
<path fill-rule="evenodd" clip-rule="evenodd" d="M151.631 87.4135L146.24 87.4228L146.299 59.5988L151.69 59.5895L151.631 87.4135ZM154.5 90.2835L144.802 90.3003C144.006 90.3017 143.36 89.6558 143.362 88.8597L143.427 58.1607C143.429 57.369 144.071 56.7277 144.862 56.7263L154.571 56.7095L154.5 90.2835Z" fill="#2287BF"/>
<path d="M160.291 90.2875L160.219 56.7135L169.928 56.7302C170.72 56.7316 171.362 57.3729 171.363 58.1646L171.429 88.8636C171.431 89.6597 170.785 90.3056 169.989 90.3042L160.291 90.2875Z" fill="#F6FBFF"/>
<path fill-rule="evenodd" clip-rule="evenodd" d="M163.16 87.4174L168.551 87.4267L168.491 59.6027L163.1 59.5934L163.16 87.4174ZM160.291 90.2875L169.989 90.3042C170.785 90.3056 171.431 89.6597 171.429 88.8636L171.363 58.1646C171.362 57.3729 170.72 56.7316 169.928 56.7302L160.219 56.7135L160.291 90.2875Z" fill="#2287BF"/>
<path d="M162.965 90.2843L163.036 56.6734L151.93 56.6926L151.858 90.3035L162.965 90.2843Z" fill="#E1CBFF"/>
<path fill-rule="evenodd" clip-rule="evenodd" d="M160.096 87.4142L154.739 87.4235L154.798 59.5627L160.155 59.5534L160.096 87.4142ZM162.965 90.2843L151.858 90.3035L151.93 56.6926L163.036 56.6734L162.965 90.2843Z" fill="#2287BF"/>
<path opacity="0.3" fill-rule="evenodd" clip-rule="evenodd" d="M144.86 64.9072H170.124V62.0322H144.86V64.9072Z" fill="#2287BF"/>
<path opacity="0.3" fill-rule="evenodd" clip-rule="evenodd" d="M144.86 83.3431H170.124V80.4681H144.86V83.3431Z" fill="#2287BF"/>
<path d="M199.974 59.0633C199.974 66.4168 200.571 74.4265 189.732 74.4265C178.893 74.4265 179.49 66.4168 179.49 59.0633C179.49 51.7097 184.075 45.0656 189.732 45.0656C195.388 45.0656 199.974 51.7097 199.974 59.0633Z" fill="#DFE8F3"/>
<path fill-rule="evenodd" clip-rule="evenodd" d="M197.102 60.2179C197.101 59.8401 197.099 59.4556 197.099 59.0633C197.099 55.9544 196.122 53.0487 194.639 50.9842C193.144 48.9022 191.361 47.9406 189.732 47.9406C188.103 47.9406 186.32 48.9022 184.825 50.9842C183.342 53.0487 182.365 55.9544 182.365 59.0633C182.365 59.4556 182.363 59.8401 182.362 60.2178C182.356 61.6899 182.351 63.0585 182.435 64.3837C182.54 66.0369 182.775 67.3672 183.204 68.4058C183.607 69.3834 184.172 70.0837 185.019 70.5836C185.913 71.1109 187.358 71.5515 189.732 71.5515C192.106 71.5515 193.55 71.1109 194.444 70.5836C195.292 70.0837 195.856 69.3834 196.26 68.4058C196.689 67.3672 196.924 66.0369 197.029 64.3837C197.113 63.0585 197.108 61.6899 197.102 60.2179ZM199.977 60.1592C199.976 59.793 199.974 59.4273 199.974 59.0633C199.974 51.7097 195.388 45.0656 189.732 45.0656C184.075 45.0656 179.49 51.7097 179.49 59.0633C179.49 59.4273 179.488 59.793 179.487 60.1592C179.459 67.1903 179.43 74.4265 189.732 74.4265C200.034 74.4265 200.005 67.1903 199.977 60.1592Z" fill="#2287BF"/>
<path d="M189.732 47.4554C193.488 47.4554 184.952 51.5523 185.294 60.0875C185.635 68.6226 187.684 71.0125 187.684 71.0125H181.267C181.267 71.0125 177.783 60.0875 180.173 54.9664C182.563 49.8453 185.977 47.4555 189.732 47.4554Z" fill="#F0F8FF"/>
<path fill-rule="evenodd" clip-rule="evenodd" d="M197.102 60.2179C197.101 59.8401 197.099 59.4556 197.099 59.0633C197.099 55.9544 196.122 53.0487 194.639 50.9842C193.144 48.9022 191.361 47.9406 189.732 47.9406C188.103 47.9406 186.32 48.9022 184.825 50.9842C183.342 53.0487 182.365 55.9544 182.365 59.0633C182.365 59.4556 182.363 59.8401 182.362 60.2178C182.356 61.6899 182.351 63.0585 182.435 64.3837C182.54 66.0369 182.775 67.3672 183.204 68.4058C183.607 69.3834 184.172 70.0837 185.019 70.5836C185.913 71.1109 187.358 71.5515 189.732 71.5515C192.106 71.5515 193.55 71.1109 194.444 70.5836C195.292 70.0837 195.856 69.3834 196.26 68.4058C196.689 67.3672 196.924 66.0369 197.029 64.3837C197.113 63.0585 197.108 61.6899 197.102 60.2179ZM199.977 60.1592C199.976 59.793 199.974 59.4273 199.974 59.0633C199.974 51.7097 195.388 45.0656 189.732 45.0656C184.075 45.0656 179.49 51.7097 179.49 59.0633C179.49 59.4273 179.488 59.793 179.487 60.1592C179.459 67.1903 179.43 74.4265 189.732 74.4265C200.034 74.4265 200.005 67.1903 199.977 60.1592Z" fill="#2287BF"/>
<path fill-rule="evenodd" clip-rule="evenodd" d="M196.229 64.4121C196.472 63.656 197.281 63.2394 198.037 63.4816L200.251 64.1908C201.007 64.433 201.424 65.2422 201.182 65.9983C200.94 66.7544 200.13 67.171 199.374 66.9288L197.16 66.2196C196.404 65.9774 195.987 65.1682 196.229 64.4121Z" fill="#2287BF"/>
<path fill-rule="evenodd" clip-rule="evenodd" d="M196.481 59.3651C196.505 58.5716 197.168 57.9477 197.961 57.9717L200.285 58.042C201.079 58.066 201.703 58.7288 201.679 59.5223C201.655 60.3159 200.992 60.9397 200.198 60.9157L197.874 60.8454C197.081 60.8214 196.457 60.1587 196.481 59.3651Z" fill="#2287BF"/>
<path fill-rule="evenodd" clip-rule="evenodd" d="M195.604 54.6242C195.411 53.8541 195.879 53.0734 196.649 52.8803L198.905 52.315C199.675 52.1219 200.456 52.5897 200.649 53.3598C200.842 54.1299 200.374 54.9107 199.604 55.1037L197.348 55.6691C196.578 55.8621 195.798 55.3943 195.604 54.6242Z" fill="#2287BF"/>
<path fill-rule="evenodd" clip-rule="evenodd" d="M192.169 49.5921C191.63 49.0095 191.665 48.1 192.248 47.5606L193.954 45.981C194.536 45.4416 195.446 45.4767 195.985 46.0592C196.525 46.6418 196.49 47.5513 195.907 48.0907L194.201 49.6703C193.618 50.2097 192.709 50.1746 192.169 49.5921Z" fill="#2287BF"/>
<path fill-rule="evenodd" clip-rule="evenodd" d="M191.329 54.9161C190.702 54.4284 190.59 53.5252 191.078 52.8987L191.82 51.9449C192.308 51.3184 193.211 51.2059 193.837 51.6935C194.464 52.1812 194.576 53.0844 194.089 53.7109L193.346 54.6647C192.859 55.2912 191.955 55.4037 191.329 54.9161Z" fill="#2287BF"/>
<path fill-rule="evenodd" clip-rule="evenodd" d="M191.329 61.7442C190.702 61.2565 190.59 60.3533 191.078 59.7269L191.82 58.773C192.308 58.1465 193.211 58.034 193.837 58.5217C194.464 59.0093 194.576 59.9125 194.089 60.539L193.346 61.4928C192.859 62.1193 191.955 62.2319 191.329 61.7442Z" fill="#2287BF"/>
<path fill-rule="evenodd" clip-rule="evenodd" d="M191.329 68.5723C190.702 68.0847 190.59 67.1815 191.078 66.555L191.82 65.6011C192.308 64.9747 193.211 64.8621 193.837 65.3498C194.464 65.8374 194.576 66.7406 194.089 67.3671L193.346 68.321C192.859 68.9474 191.955 69.06 191.329 68.5723Z" fill="#2287BF"/>
<path fill-rule="evenodd" clip-rule="evenodd" d="M183.53 66.4605C183.288 65.7045 182.479 65.2879 181.723 65.53L179.508 66.2393C178.752 66.4815 178.336 67.2907 178.578 68.0468C178.82 68.8028 179.629 69.2194 180.385 68.9773L182.599 68.268C183.356 68.0258 183.772 67.2166 183.53 66.4605Z" fill="#2287BF"/>
<path fill-rule="evenodd" clip-rule="evenodd" d="M182.596 60.0479C182.572 59.2544 181.909 58.6305 181.115 58.6545L178.791 58.7248C177.998 58.7488 177.374 59.4116 177.398 60.2052C177.422 60.9987 178.085 61.6225 178.878 61.5985L181.202 61.5282C181.996 61.5042 182.62 60.8415 182.596 60.0479Z" fill="#2287BF"/>
<path fill-rule="evenodd" clip-rule="evenodd" d="M183.303 53.4062C183.72 52.731 183.512 51.8451 182.836 51.4275L180.859 50.2046C180.184 49.787 179.298 49.9959 178.88 50.6711C178.463 51.3464 178.671 52.2323 179.347 52.6498L181.324 53.8727C181.999 54.2903 182.885 54.0814 183.303 53.4062Z" fill="#2287BF"/>
<path fill-rule="evenodd" clip-rule="evenodd" d="M187.59 49.5921C188.129 49.0095 188.094 48.1 187.512 47.5606L185.806 45.981C185.223 45.4416 184.313 45.4767 183.774 46.0592C183.235 46.6418 183.27 47.5513 183.852 48.0907L185.559 49.6703C186.141 50.2097 187.051 50.1746 187.59 49.5921Z" fill="#2287BF"/>
<path fill-rule="evenodd" clip-rule="evenodd" d="M187.912 56.9645C188.539 56.4769 188.651 55.5737 188.164 54.9472L187.421 53.9934C186.934 53.3669 186.03 53.2543 185.404 53.742C184.777 54.2297 184.665 55.1328 185.153 55.7593L185.895 56.7132C186.383 57.3396 187.286 57.4522 187.912 56.9645Z" fill="#2287BF"/>
<path fill-rule="evenodd" clip-rule="evenodd" d="M187.748 65.8411C188.374 65.3534 188.487 64.4502 187.999 63.8237L187.257 62.8699C186.769 62.2434 185.866 62.1309 185.239 62.6185C184.613 63.1062 184.5 64.0094 184.988 64.6359L185.73 65.5897C186.218 66.2162 187.121 66.3287 187.748 65.8411Z" fill="#2287BF"/>
<path d="M177.631 75.3492C177.53 74.4946 178.198 73.7437 179.058 73.7437H189.391H199.724C200.584 73.7437 201.252 74.4946 201.151 75.3492L198.758 95.6898C198.673 96.4137 198.06 96.9593 197.331 96.9593H181.451C180.722 96.9593 180.109 96.4137 180.024 95.6898L177.631 75.3492Z" fill="#EFEDFC"/>
<path fill-rule="evenodd" clip-rule="evenodd" d="M198.107 76.6187H180.675L182.73 94.0843H196.052L198.107 76.6187ZM179.058 73.7437C178.198 73.7437 177.53 74.4946 177.631 75.3492L180.024 95.6898C180.109 96.4137 180.722 96.9593 181.451 96.9593H197.331C198.06 96.9593 198.673 96.4137 198.758 95.6898L201.151 75.3492C201.252 74.4946 200.584 73.7437 199.724 73.7437H179.058Z" fill="#2287BF"/>
<path fill-rule="evenodd" clip-rule="evenodd" d="M178.807 77.7687C178.807 76.9748 179.451 76.3312 180.245 76.3312H197.854C198.648 76.3312 199.292 76.9748 199.292 77.7687C199.292 78.5626 198.648 79.2062 197.854 79.2062H180.245C179.451 79.2062 178.807 78.5626 178.807 77.7687Z" fill="#E9E7F9"/>
<path fill-rule="evenodd" clip-rule="evenodd" d="M198.107 76.6187H180.675L182.73 94.0843H196.052L198.107 76.6187ZM179.058 73.7437C178.198 73.7437 177.53 74.4946 177.631 75.3492L180.024 95.6898C180.109 96.4137 180.722 96.9593 181.451 96.9593H197.331C198.06 96.9593 198.673 96.4137 198.758 95.6898L201.151 75.3492C201.252 74.4946 200.584 73.7437 199.724 73.7437H179.058Z" fill="#2287BF"/>
<path d="M175.393 71.0844C175.393 70.2904 176.037 69.6469 176.831 69.6469H201.268C202.062 69.6469 202.706 70.2904 202.706 71.0844V75.0375C202.706 75.8314 202.062 76.475 201.268 76.475H176.831C176.037 76.475 175.393 75.8314 175.393 75.0375V71.0844Z" fill="#EFEDFC"/>
<path fill-rule="evenodd" clip-rule="evenodd" d="M178.268 72.5219V73.6H199.831V72.5219H178.268ZM176.831 69.6469C176.037 69.6469 175.393 70.2904 175.393 71.0844V75.0375C175.393 75.8314 176.037 76.475 176.831 76.475H201.268C202.062 76.475 202.706 75.8314 202.706 75.0375V71.0844C202.706 70.2904 202.062 69.6469 201.268 69.6469H176.831Z" fill="#2287BF"/>
<path d="M135.125 88.4062C135.125 87.6123 135.769 86.9688 136.562 86.9688H198.375C199.169 86.9688 199.812 87.6123 199.812 88.4062V96.3125C199.812 97.1064 199.169 97.75 198.375 97.75H136.562C135.769 97.75 135.125 97.1064 135.125 96.3125V88.4062Z" fill="#FFFEF1"/>
<path fill-rule="evenodd" clip-rule="evenodd" d="M138 89.8438V94.875H196.938V89.8438H138ZM136.562 86.9688C135.769 86.9688 135.125 87.6123 135.125 88.4062V96.3125C135.125 97.1064 135.769 97.75 136.562 97.75H198.375C199.169 97.75 199.812 97.1064 199.812 96.3125V88.4062C199.812 87.6123 199.169 86.9688 198.375 86.9688H136.562Z" fill="#2287BF"/>
<path d="M111.891 43.3586C111.891 49.2038 107.153 53.9422 101.308 53.9422C95.4626 53.9422 90.7241 49.2038 90.7241 43.3586C90.7241 37.5135 95.4626 32.775 101.308 32.775C107.153 32.775 111.891 37.5135 111.891 43.3586Z" fill="#FFFEF1"/>
<path fill-rule="evenodd" clip-rule="evenodd" d="M101.308 51.0672C105.565 51.0672 109.016 47.616 109.016 43.3586C109.016 39.1013 105.565 35.65 101.308 35.65C97.0504 35.65 93.5991 39.1013 93.5991 43.3586C93.5991 47.616 97.0504 51.0672 101.308 51.0672ZM101.308 53.9422C107.153 53.9422 111.891 49.2038 111.891 43.3586C111.891 37.5135 107.153 32.775 101.308 32.775C95.4626 32.775 90.7241 37.5135 90.7241 43.3586C90.7241 49.2038 95.4626 53.9422 101.308 53.9422Z" fill="#2287BF"/>
<path d="M67.3066 9.75471C72.4746 4.36733 81.0315 4.18949 86.4188 9.35749L101.159 23.4977C106.547 28.6657 106.725 37.2225 101.557 42.6099C96.3885 47.9973 87.8317 48.1751 82.4443 43.0071L67.7039 28.8669C62.3165 23.6989 62.1386 15.1421 67.3066 9.75471Z" fill="#FCDBFE"/>
<path fill-rule="evenodd" clip-rule="evenodd" d="M99.169 25.5724L84.4286 11.4322C80.1871 7.36341 73.4502 7.50343 69.3814 11.745C65.3126 15.9865 65.4526 22.7234 69.6941 26.7922L84.4346 40.9324C88.6761 45.0012 95.413 44.8612 99.4818 40.6196C103.551 36.3781 103.411 29.6412 99.169 25.5724ZM86.4188 9.35749C81.0315 4.18949 72.4746 4.36733 67.3066 9.75471C62.1386 15.1421 62.3165 23.6989 67.7039 28.8669L82.4443 43.0071C87.8317 48.1751 96.3885 47.9973 101.557 42.6099C106.725 37.2225 106.547 28.6657 101.159 23.4977L86.4188 9.35749Z" fill="#2287BF"/>
<path fill-rule="evenodd" clip-rule="evenodd" d="M99.169 25.5724L84.4286 11.4322C80.1871 7.36341 73.4502 7.50343 69.3814 11.745C65.3126 15.9865 65.4526 22.7234 69.6941 26.7922L84.4346 40.9324C88.6761 45.0012 95.413 44.8612 99.4818 40.6196C103.551 36.3781 103.411 29.6412 99.169 25.5724ZM86.4188 9.35749C81.0315 4.18949 72.4746 4.36733 67.3066 9.75471C62.1386 15.1421 62.3165 23.6989 67.7039 28.8669L82.4443 43.0071C87.8317 48.1751 96.3885 47.9973 101.557 42.6099C106.725 37.2225 106.547 28.6657 101.159 23.4977L86.4188 9.35749Z" fill="#2287BF"/>
<path d="M96.8694 20.1429C96.8694 20.1429 108.819 18.4359 112.915 19.4601C117.012 20.4843 120.768 25.6054 120.768 25.6054L85.2615 60.3929C85.2615 60.3929 81.542 58.7218 80.1764 54.9664C78.8108 51.2109 79.4936 38.2374 79.4936 38.2374L96.8694 20.1429Z" fill="#FCDBFE"/>
<path d="M68.5398 12.2906C68.5398 19.9625 71.9467 21.85 84.5788 33.4578C83.8959 43.7 89.9695 48.498 92.3594 49.9531C89.125 53.1875 89.125 53.1875 88.0469 54.2656C80.938 47.9016 83.1344 42.9542 82.4534 35.7687L73.7167 26.6231C69.2226 21.5086 66.1428 18.7773 68.5398 12.2906Z" fill="#F0F8FF"/>
<path d="M68.5398 12.2906C68.5398 19.9625 71.9467 21.85 84.5788 33.4578C83.8959 43.7 89.9695 48.498 92.3594 49.9531C89.125 53.1875 89.125 53.1875 88.0469 54.2656C80.938 47.9016 83.1344 42.9542 82.4534 35.7687L73.7167 26.6231C69.2226 21.5086 66.1428 18.7773 68.5398 12.2906Z" fill="#F0F8FF"/>
<path d="M30.6368 81.596L47.3953 118.266L53.8524 118.266L36.4407 78.182L62.0461 42.3344L60.6805 39.9445L30.6368 78.182L30.6368 81.596Z" fill="#FAFCFF"/>
<path fill-rule="evenodd" clip-rule="evenodd" d="M30.2774 81.6743L30.2774 78.0577L60.7277 39.3028L62.4724 42.356L36.8513 78.2254L54.4003 118.625L47.1644 118.625L30.2774 81.6743ZM47.6262 117.906L53.3045 117.906L36.03 78.1387L61.6199 42.3128L60.6333 40.5863L30.9961 78.3063L30.9961 81.5178L47.6262 117.906Z" fill="white"/>
<path fill-rule="evenodd" clip-rule="evenodd" d="M62.0091 40.4242L72.8996 30.7784L70.9933 28.6262L60.0049 38.3588L50.7167 29.9995C50.1266 29.4684 49.2177 29.5162 48.6866 30.1063C48.1555 30.6964 48.2033 31.6053 48.7934 32.1364L58.0286 40.4481L28.6429 77.2645L46.7192 121.065L49.3768 119.968L31.9468 77.7338L60.0367 42.5408L60.2111 42.7442L34.7922 77.3139L52.1922 117.334L54.8288 116.188L38.0883 77.6844L63.8803 42.6073L62.0091 40.4242Z" fill="#2287BF"/>
<path fill-rule="evenodd" clip-rule="evenodd" d="M96.9937 19.9469C96.9937 19.9469 108.943 18.2399 113.04 19.2641C117.137 20.2883 120.892 25.4095 120.892 25.4095L85.3859 60.9157C85.3859 60.9157 80.9476 58.5258 79.582 54.7704C78.2163 51.0149 78.8991 38.0415 78.8991 38.0415L96.9937 19.9469ZM98.3394 22.667L81.7215 39.2849C81.7107 39.5564 81.699 39.8718 81.6872 40.2234C81.6452 41.4772 81.6034 43.1826 81.6034 44.9976C81.6034 46.8196 81.6456 48.7157 81.7664 50.3617C81.8939 52.0989 82.0914 53.2587 82.2839 53.7879C82.7129 54.9677 83.7153 56.1083 84.8366 57.0427C84.9025 57.0976 84.9679 57.1511 85.0326 57.2031L116.975 25.2604C116.825 25.1047 116.666 24.9451 116.5 24.7839C115.135 23.4593 113.626 22.3742 112.342 22.0533C111.698 21.8921 110.496 21.7979 108.831 21.8136C107.236 21.8286 105.437 21.9399 103.725 22.086C102.019 22.2316 100.433 22.4089 99.2719 22.5502C98.9178 22.5932 98.6041 22.6328 98.3394 22.667Z" fill="#2287BF"/>
<path d="M67.5081 40.9688C67.5081 44.7398 64.4511 47.7969 60.68 47.7969C56.909 47.7969 53.8519 44.7398 53.8519 40.9688C53.8519 37.1977 56.909 34.1406 60.68 34.1406C64.4511 34.1406 67.5081 37.1977 67.5081 40.9688Z" fill="#FAFCFF"/>
<path fill-rule="evenodd" clip-rule="evenodd" d="M60.68 44.9219C62.8633 44.9219 64.6331 43.152 64.6331 40.9688C64.6331 38.7855 62.8633 37.0156 60.68 37.0156C58.4968 37.0156 56.7269 38.7855 56.7269 40.9688C56.7269 43.152 58.4968 44.9219 60.68 44.9219ZM60.68 47.7969C64.4511 47.7969 67.5081 44.7398 67.5081 40.9688C67.5081 37.1977 64.4511 34.1406 60.68 34.1406C56.909 34.1406 53.8519 37.1977 53.8519 40.9688C53.8519 44.7398 56.909 47.7969 60.68 47.7969Z" fill="#2287BF"/>
<path d="M40.8785 79.2062C40.8785 82.9773 37.8214 86.0344 34.0504 86.0344C30.2793 86.0344 27.2222 82.9773 27.2222 79.2062C27.2222 75.4352 30.2793 72.3781 34.0504 72.3781C37.8214 72.3781 40.8785 75.4352 40.8785 79.2062Z" fill="#FAFCFF"/>
<path fill-rule="evenodd" clip-rule="evenodd" d="M34.0504 83.1594C36.2336 83.1594 38.0035 81.3895 38.0035 79.2062C38.0035 77.023 36.2336 75.2531 34.0504 75.2531C31.8671 75.2531 30.0972 77.023 30.0972 79.2062C30.0972 81.3895 31.8671 83.1594 34.0504 83.1594ZM34.0504 86.0344C37.8214 86.0344 40.8785 82.9773 40.8785 79.2062C40.8785 75.4352 37.8214 72.3781 34.0504 72.3781C30.2793 72.3781 27.2222 75.4352 27.2222 79.2062C27.2222 82.9773 30.2793 86.0344 34.0504 86.0344Z" fill="#2287BF"/>
<path d="M60.68 126.662C60.68 134.015 54.7188 131.1 47.3652 131.1C40.0116 131.1 34.0504 134.015 34.0504 126.662C34.0504 119.308 40.0116 113.347 47.3652 113.347C54.7188 113.347 60.68 119.308 60.68 126.662Z" fill="#FAFCFF"/>
<path fill-rule="evenodd" clip-rule="evenodd" d="M57.4814 128.551C57.4836 128.549 57.805 128.187 57.805 126.662C57.805 120.896 53.131 116.222 47.3652 116.222C41.5994 116.222 36.9254 120.896 36.9254 126.662C36.9254 128.187 37.2468 128.549 37.249 128.551C37.2542 128.557 37.2593 128.562 37.2705 128.57C37.2831 128.578 37.3147 128.598 37.3767 128.622C37.5107 128.675 37.7564 128.739 38.1766 128.772C39.0759 128.843 40.2389 128.745 41.898 128.58C41.9722 128.572 42.0472 128.565 42.1229 128.557C43.6422 128.406 45.4539 128.225 47.3652 128.225C49.2764 128.225 51.0882 128.406 52.6075 128.557C52.6832 128.565 52.7582 128.572 52.8324 128.58C54.4915 128.745 55.6545 128.843 56.5538 128.772C56.974 128.739 57.2197 128.675 57.3537 128.622C57.4157 128.598 57.4473 128.578 57.4599 128.57C57.4711 128.562 57.4761 128.557 57.4814 128.551ZM52.3547 131.421C57.2362 131.908 60.68 132.251 60.68 126.662C60.68 119.308 54.7188 113.347 47.3652 113.347C40.0116 113.347 34.0504 119.308 34.0504 126.662C34.0504 132.251 37.4942 131.908 42.3757 131.421C43.9167 131.268 45.6009 131.1 47.3652 131.1C49.1295 131.1 50.8137 131.268 52.3547 131.421Z" fill="#2287BF"/>
<path d="M27.2222 131.387C27.2222 128.212 29.7966 125.637 32.9722 125.637H53.5644C56.74 125.637 59.3144 128.212 59.3144 131.387V133.831H27.2222V131.387Z" fill="#FAFCFF"/>
<path fill-rule="evenodd" clip-rule="evenodd" d="M53.5644 128.512H32.9722C31.531 128.512 30.3374 129.573 30.1294 130.956H56.4073C56.1992 129.573 55.0056 128.512 53.5644 128.512ZM59.2985 130.956C59.0779 127.982 56.595 125.637 53.5644 125.637H32.9722C29.9417 125.637 27.4587 127.982 27.2382 130.956C27.2276 131.099 27.2222 131.242 27.2222 131.387V133.831H59.3144V131.387C59.3144 131.242 59.309 131.099 59.2985 130.956Z" fill="#2287BF"/>
<path d="M44.9761 83.6625C44.9761 79.693 48.1941 76.475 52.1636 76.475H177.765C181.735 76.475 184.953 79.693 184.953 83.6625V166.247C184.953 170.216 181.735 173.434 177.765 173.434H52.1636C48.1941 173.434 44.9761 170.216 44.9761 166.247V83.6625Z" fill="#C8D5E4"/>
<path fill-rule="evenodd" clip-rule="evenodd" d="M177.765 79.35H52.1636C49.7819 79.35 47.8511 81.2808 47.8511 83.6625V166.247C47.8511 168.629 49.7819 170.559 52.1636 170.559H177.765C180.147 170.559 182.078 168.629 182.078 166.247V83.6625C182.078 81.2808 180.147 79.35 177.765 79.35ZM52.1636 76.475C48.1941 76.475 44.9761 79.693 44.9761 83.6625V166.247C44.9761 170.216 48.1941 173.434 52.1636 173.434H177.765C181.735 173.434 184.953 170.216 184.953 166.247V83.6625C184.953 79.693 181.735 76.475 177.765 76.475H52.1636Z" fill="#52199F"/>
<path d="M51.1214 82.6204H178.807V161.827H51.1214V82.6204Z" fill="white"/>
<path fill-rule="evenodd" clip-rule="evenodd" d="M175.932 85.4954H53.9964V158.952H175.932V85.4954ZM51.1214 82.6204V161.827H178.807V82.6204H51.1214Z" fill="#52199F"/>
<path d="M34.0511 165.241H195.878V170.344C195.878 174.313 192.66 177.531 188.69 177.531H41.2386C37.2691 177.531 34.0511 174.313 34.0511 170.344V165.241Z" fill="#C8D5E4"/>
<path fill-rule="evenodd" clip-rule="evenodd" d="M193.003 168.116H36.9261V170.344C36.9261 172.726 38.8569 174.656 41.2386 174.656H188.69C191.072 174.656 193.003 172.726 193.003 170.344V168.116ZM34.0511 165.241V170.344C34.0511 174.313 37.2691 177.531 41.2386 177.531H188.69C192.66 177.531 195.878 174.313 195.878 170.344V165.241H34.0511Z" fill="#52199F"/>
<path d="M34.0511 167.289H195.878C195.878 169.929 193.738 172.069 191.098 172.069H38.8308C36.191 172.069 34.0511 169.929 34.0511 167.289Z" fill="white"/>
<path fill-rule="evenodd" clip-rule="evenodd" d="M132.376 168.116H96.8699C96.5722 168.116 96.3308 168.357 96.3308 168.655C96.3308 168.952 96.5722 169.194 96.8699 169.194H132.376C132.674 169.194 132.915 168.952 132.915 168.655C132.915 168.357 132.674 168.116 132.376 168.116ZM96.8699 165.241C94.9843 165.241 93.4558 166.769 93.4558 168.655C93.4558 170.54 94.9843 172.069 96.8699 172.069H132.376C134.262 172.069 135.79 170.54 135.79 168.655C135.79 166.769 134.262 165.241 132.376 165.241H96.8699Z" fill="#52199F"/>
<path fill-rule="evenodd" clip-rule="evenodd" d="M193.003 168.116H36.9261V170.344C36.9261 172.726 38.8569 174.656 41.2386 174.656H188.69C191.072 174.656 193.003 172.726 193.003 170.344V168.116ZM34.0511 165.241V170.344C34.0511 174.313 37.2691 177.531 41.2386 177.531H188.69C192.66 177.531 195.878 174.313 195.878 170.344V165.241H34.0511Z" fill="#52199F"/>
<path d="M53.2057 85.5447L178.014 84.6596L52.7902 143.436L53.2057 85.5447Z" fill="#C8D5E4"/>
<path fill-rule="evenodd" clip-rule="evenodd" d="M178.807 92.0719L53.1699 151.477L51.0193 146.928L176.657 87.5235L178.807 92.0719Z" fill="#DFE8F3"/>
<path d="M53.1699 83.986H176.759V89.4485H53.1699V83.986Z" fill="black" fill-opacity="0.16"/>
<path fill-rule="evenodd" clip-rule="evenodd" d="M175.932 85.4954H53.9964V158.952H175.932V85.4954ZM51.1214 82.6204V161.827H178.807V82.6204H51.1214Z" fill="#52199F"/>
<g opacity="0.8">
<path d="M90.559 100.347H68.9825V104.163H70.3624V117.063H89.1791V104.163H90.559V100.347Z" fill="url(#paint1_linear)"/>
<path d="M70.4501 116.617H89.0204V117.875H70.4501V116.617Z" fill="black" fill-opacity="0.08"/>
<path d="M68.8153 103.077H90.7391V104.466H68.8153V103.077Z" fill="black" fill-opacity="0.08"/>
<path d="M70.2825 104.118H89.1881V105.594H70.2825V104.118Z" fill="black" fill-opacity="0.08"/>
<path d="M84.4087 97.8626C84.4087 99.066 82.5267 100.042 80.2052 100.042C77.8838 100.042 75.0526 98.6575 75.0526 97.4541C75.0526 96.2506 76.8452 94.2004 79.6934 97.7857C82.0508 94.2004 84.9753 96.1642 84.4087 97.8626Z" fill="white"/>
<path d="M78.307 100.859H81.2901V116.929H78.307V100.859Z" fill="white"/>
<path d="M77.6801 116.026H81.8198V117.063H77.6801V116.026Z" fill="black" fill-opacity="0.08"/>
<path d="M84.0778 96.1788C84.0778 96.1788 85.2486 97.4438 84.2868 98.7711C83.3251 100.098 80.2308 99.9739 80.2308 99.9739L82.1543 98.0764L84.0778 96.1788Z" fill="#2F83FF" fill-opacity="0.1"/>
<path d="M76.6218 97.1591C77.9781 96.0511 79.9799 96.5106 79.9799 100.555C74.6276 100.202 75.9685 97.6929 76.6218 97.1591Z" fill="#2F83FF" fill-opacity="0.1"/>
<path d="M77.9729 113.164L81.6108 110.177V117.104H77.9729V113.164Z" fill="#2F83FF" fill-opacity="0.1"/>
<path d="M77.9311 103.997L81.5689 101.011V106.564L77.9311 109.55V103.997Z" fill="#2F83FF" fill-opacity="0.1"/>
<path d="M68.9343 99.9871H90.7038V101.736H68.9343V99.9871Z" fill="white" fill-opacity="0.16"/>
<path fill-rule="evenodd" clip-rule="evenodd" d="M77.7992 96.3343C77.182 95.8149 76.4578 95.8262 75.8441 96.3243C75.7456 96.4042 75.5807 96.6188 75.4845 96.9238C75.3921 97.2165 75.3772 97.5475 75.5079 97.8704C75.7442 98.4542 76.5777 99.256 79.078 99.599C78.9372 97.8639 78.3873 96.8293 77.7992 96.3343ZM77.2297 100.304C75.7031 99.8457 74.8626 99.1247 74.5185 98.2743C74.2758 97.6747 74.3146 97.0804 74.4663 96.5997C74.6141 96.1314 74.8835 95.7246 75.1728 95.4899C76.169 94.6814 77.4623 94.6513 78.4852 95.5121C79.0376 95.977 79.4863 96.6786 79.783 97.6053C80.0797 96.6796 80.5281 95.9787 81.0801 95.5141C82.103 94.6533 83.3963 94.6834 84.3925 95.4919C84.6818 95.7267 84.9512 96.1334 85.099 96.6017C85.2507 97.0824 85.2896 97.6767 85.0469 98.2764C84.7041 99.1233 83.8689 99.842 82.3538 100.3V117.785H77.2297V100.304ZM78.2977 100.863V116.713H81.2857V100.863H78.2977ZM80.4874 99.601C82.9876 99.258 83.8211 98.4562 84.0574 97.8724C84.1881 97.5495 84.1732 97.2185 84.0809 96.9258C83.9846 96.6208 83.8197 96.4062 83.7212 96.3263C83.1075 95.8282 82.3833 95.8169 81.7661 96.3363C81.178 96.8313 80.6282 97.8659 80.4874 99.601Z" fill="#52199F"/>
<path fill-rule="evenodd" clip-rule="evenodd" d="M68.2812 101.032C68.2812 100.34 68.8449 99.79 69.5261 99.79H90.0364C90.7176 99.79 91.2812 100.34 91.2812 101.032V104.184C91.2812 104.555 90.9797 104.845 90.6218 104.845H89.7132V116.399C89.7132 117.159 89.0934 117.765 88.3429 117.765H71.2406C70.49 117.765 69.8702 117.159 69.8702 116.399V104.845H68.9407C68.5828 104.845 68.2812 104.555 68.2812 104.184V101.032ZM70.9383 104.948V116.399C70.9383 116.554 71.0673 116.692 71.2406 116.692H88.3429C88.5161 116.692 88.6451 116.554 88.6451 116.399V104.948H70.9383ZM69.5261 100.863C69.4222 100.863 69.3493 100.945 69.3493 101.032V103.772H90.2132V101.032C90.2132 100.945 90.1403 100.863 90.0364 100.863H69.5261Z" fill="#52199F"/>
<path d="M78.3069 103.582H81.29V105.217H78.3069V103.582Z" fill="#EBF3FF"/>
</g>
<g opacity="0.8">
<path d="M125.059 100.347H103.483V104.163H104.862V117.063H123.679V104.163H125.059V100.347Z" fill="url(#paint2_linear)"/>
<path d="M104.95 116.617H123.52V117.875H104.95V116.617Z" fill="black" fill-opacity="0.08"/>
<path d="M103.315 103.077H125.239V104.466H103.315V103.077Z" fill="black" fill-opacity="0.08"/>
<path d="M104.782 104.118H123.688V105.594H104.782V104.118Z" fill="black" fill-opacity="0.08"/>
<path d="M118.909 97.8626C118.909 99.066 117.027 100.042 114.705 100.042C112.384 100.042 109.553 98.6575 109.553 97.4541C109.553 96.2506 111.345 94.2004 114.193 97.7857C116.551 94.2004 119.475 96.1642 118.909 97.8626Z" fill="white"/>
<path d="M112.807 100.859H115.79V116.929H112.807V100.859Z" fill="white"/>
<path d="M112.18 116.026H116.32V117.063H112.18V116.026Z" fill="black" fill-opacity="0.08"/>
<path d="M118.578 96.1788C118.578 96.1788 119.749 97.4438 118.787 98.7711C117.825 100.098 114.731 99.9739 114.731 99.9739L116.654 98.0764L118.578 96.1788Z" fill="#2F83FF" fill-opacity="0.1"/>
<path d="M111.122 97.1591C112.478 96.0511 114.48 96.5106 114.48 100.555C109.128 100.202 110.468 97.6929 111.122 97.1591Z" fill="#2F83FF" fill-opacity="0.1"/>
<path d="M112.473 113.164L116.111 110.177V117.104H112.473V113.164Z" fill="#2F83FF" fill-opacity="0.1"/>
<path d="M112.431 103.997L116.069 101.011V106.564L112.431 109.55V103.997Z" fill="#2F83FF" fill-opacity="0.1"/>
<path d="M103.434 99.9871H125.204V101.736H103.434V99.9871Z" fill="white" fill-opacity="0.16"/>
<path fill-rule="evenodd" clip-rule="evenodd" d="M112.299 96.3343C111.682 95.8149 110.958 95.8262 110.344 96.3243C110.246 96.4042 110.081 96.6188 109.984 96.9238C109.892 97.2165 109.877 97.5475 110.008 97.8704C110.244 98.4542 111.078 99.256 113.578 99.599C113.437 97.8639 112.887 96.8293 112.299 96.3343ZM111.73 100.304C110.203 99.8457 109.363 99.1247 109.018 98.2743C108.776 97.6747 108.815 97.0804 108.966 96.5997C109.114 96.1314 109.384 95.7246 109.673 95.4899C110.669 94.6814 111.962 94.6513 112.985 95.5121C113.538 95.977 113.986 96.6786 114.283 97.6053C114.58 96.6796 115.028 95.9787 115.58 95.5141C116.603 94.6533 117.896 94.6834 118.893 95.4919C119.182 95.7267 119.451 96.1334 119.599 96.6017C119.751 97.0824 119.79 97.6767 119.547 98.2764C119.204 99.1233 118.369 99.842 116.854 100.3V117.785H111.73V100.304ZM112.798 100.863V116.713H115.786V100.863H112.798ZM114.987 99.601C117.488 99.258 118.321 98.4562 118.557 97.8724C118.688 97.5495 118.673 97.2185 118.581 96.9258C118.485 96.6208 118.32 96.4062 118.221 96.3263C117.608 95.8282 116.883 95.8169 116.266 96.3363C115.678 96.8313 115.128 97.8659 114.987 99.601Z" fill="#52199F"/>
<path fill-rule="evenodd" clip-rule="evenodd" d="M102.781 101.032C102.781 100.34 103.345 99.79 104.026 99.79H124.536C125.218 99.79 125.781 100.34 125.781 101.032V104.184C125.781 104.555 125.48 104.845 125.122 104.845H124.213V116.399C124.213 117.159 123.593 117.765 122.843 117.765H105.741C104.99 117.765 104.37 117.159 104.37 116.399V104.845H103.441C103.083 104.845 102.781 104.555 102.781 104.184V101.032ZM105.438 104.948V116.399C105.438 116.554 105.567 116.692 105.741 116.692H122.843C123.016 116.692 123.145 116.554 123.145 116.399V104.948H105.438ZM104.026 100.863C103.922 100.863 103.849 100.945 103.849 101.032V103.772H124.713V101.032C124.713 100.945 124.64 100.863 124.536 100.863H104.026Z" fill="#52199F"/>
<path d="M112.807 103.582H115.79V105.217H112.807V103.582Z" fill="#EBF3FF"/>
</g>
<g opacity="0.8">
<path d="M159.559 100.347H137.983V104.163H139.362V117.063H158.179V104.163H159.559V100.347Z" fill="url(#paint3_linear)"/>
<path d="M139.45 116.617H158.02V117.875H139.45V116.617Z" fill="black" fill-opacity="0.08"/>
<path d="M137.815 103.077H159.739V104.466H137.815V103.077Z" fill="black" fill-opacity="0.08"/>
<path d="M139.282 104.118H158.188V105.594H139.282V104.118Z" fill="black" fill-opacity="0.08"/>
<path d="M153.409 97.8626C153.409 99.066 151.527 100.042 149.205 100.042C146.884 100.042 144.053 98.6575 144.053 97.4541C144.053 96.2506 145.845 94.2004 148.693 97.7857C151.051 94.2004 153.975 96.1642 153.409 97.8626Z" fill="white"/>
<path d="M147.307 100.859H150.29V116.929H147.307V100.859Z" fill="white"/>
<path d="M146.68 116.026H150.82V117.063H146.68V116.026Z" fill="black" fill-opacity="0.08"/>
<path d="M153.078 96.1788C153.078 96.1788 154.249 97.4438 153.287 98.7711C152.325 100.098 149.231 99.9739 149.231 99.9739L151.154 98.0764L153.078 96.1788Z" fill="#2F83FF" fill-opacity="0.1"/>
<path d="M145.622 97.1591C146.978 96.0511 148.98 96.5106 148.98 100.555C143.628 100.202 144.968 97.6929 145.622 97.1591Z" fill="#2F83FF" fill-opacity="0.1"/>
<path d="M146.973 113.164L150.611 110.177V117.104H146.973V113.164Z" fill="#2F83FF" fill-opacity="0.1"/>
<path d="M146.931 103.997L150.569 101.011V106.564L146.931 109.55V103.997Z" fill="#2F83FF" fill-opacity="0.1"/>
<path d="M137.934 99.9871H159.704V101.736H137.934V99.9871Z" fill="white" fill-opacity="0.16"/>
<path fill-rule="evenodd" clip-rule="evenodd" d="M146.799 96.3343C146.182 95.8149 145.458 95.8262 144.844 96.3243C144.746 96.4042 144.581 96.6188 144.484 96.9238C144.392 97.2165 144.377 97.5475 144.508 97.8704C144.744 98.4542 145.578 99.256 148.078 99.599C147.937 97.8639 147.387 96.8293 146.799 96.3343ZM146.23 100.304C144.703 99.8457 143.863 99.1247 143.518 98.2743C143.276 97.6747 143.315 97.0804 143.466 96.5997C143.614 96.1314 143.884 95.7246 144.173 95.4899C145.169 94.6814 146.462 94.6513 147.485 95.5121C148.038 95.977 148.486 96.6786 148.783 97.6053C149.08 96.6796 149.528 95.9787 150.08 95.5141C151.103 94.6533 152.396 94.6834 153.393 95.4919C153.682 95.7267 153.951 96.1334 154.099 96.6017C154.251 97.0824 154.29 97.6767 154.047 98.2764C153.704 99.1233 152.869 99.842 151.354 100.3V117.785H146.23V100.304ZM147.298 100.863V116.713H150.286V100.863H147.298ZM149.487 99.601C151.988 99.258 152.821 98.4562 153.057 97.8724C153.188 97.5495 153.173 97.2185 153.081 96.9258C152.985 96.6208 152.82 96.4062 152.721 96.3263C152.108 95.8282 151.383 95.8169 150.766 96.3363C150.178 96.8313 149.628 97.8659 149.487 99.601Z" fill="#52199F"/>
<path fill-rule="evenodd" clip-rule="evenodd" d="M137.281 101.032C137.281 100.34 137.845 99.79 138.526 99.79H159.036C159.718 99.79 160.281 100.34 160.281 101.032V104.184C160.281 104.555 159.98 104.845 159.622 104.845H158.713V116.399C158.713 117.159 158.093 117.765 157.343 117.765H140.241C139.49 117.765 138.87 117.159 138.87 116.399V104.845H137.941C137.583 104.845 137.281 104.555 137.281 104.184V101.032ZM139.938 104.948V116.399C139.938 116.554 140.067 116.692 140.241 116.692H157.343C157.516 116.692 157.645 116.554 157.645 116.399V104.948H139.938ZM138.526 100.863C138.422 100.863 138.349 100.945 138.349 101.032V103.772H159.213V101.032C159.213 100.945 159.14 100.863 159.036 100.863H138.526Z" fill="#52199F"/>
<path d="M147.307 103.582H150.29V105.217H147.307V103.582Z" fill="#EBF3FF"/>
</g>
<g opacity="0.8">
<path d="M159.559 131.253H137.983V135.069H139.362V147.969H158.179V135.069H159.559V131.253Z" fill="url(#paint4_linear)"/>
<path d="M139.45 147.523H158.02V148.781H139.45V147.523Z" fill="black" fill-opacity="0.08"/>
<path d="M137.815 133.983H159.739V135.372H137.815V133.983Z" fill="black" fill-opacity="0.08"/>
<path d="M139.282 135.025H158.188V136.5H139.282V135.025Z" fill="black" fill-opacity="0.08"/>
<path d="M153.409 128.769C153.409 129.972 151.527 130.948 149.205 130.948C146.884 130.948 144.053 129.564 144.053 128.36C144.053 127.157 145.845 125.107 148.693 128.692C151.051 125.107 153.975 127.07 153.409 128.769Z" fill="white"/>
<path d="M147.307 131.765H150.29V147.835H147.307V131.765Z" fill="white"/>
<path d="M146.68 146.932H150.82V147.969H146.68V146.932Z" fill="black" fill-opacity="0.08"/>
<path d="M153.078 127.085C153.078 127.085 154.249 128.35 153.287 129.677C152.325 131.005 149.231 130.88 149.231 130.88L151.154 128.983L153.078 127.085Z" fill="#2F83FF" fill-opacity="0.1"/>
<path d="M145.622 128.065C146.978 126.957 148.98 127.417 148.98 131.461C143.628 131.108 144.968 128.599 145.622 128.065Z" fill="#2F83FF" fill-opacity="0.1"/>
<path d="M146.973 144.07L150.611 141.084V148.01H146.973V144.07Z" fill="#2F83FF" fill-opacity="0.1"/>
<path d="M146.931 134.904L150.569 131.917V137.47L146.931 140.456V134.904Z" fill="#2F83FF" fill-opacity="0.1"/>
<path d="M137.934 130.893H159.704V132.642H137.934V130.893Z" fill="white" fill-opacity="0.16"/>
<path fill-rule="evenodd" clip-rule="evenodd" d="M146.799 127.241C146.182 126.721 145.458 126.732 144.844 127.231C144.746 127.31 144.581 127.525 144.484 127.83C144.392 128.123 144.377 128.454 144.508 128.777C144.744 129.36 145.578 130.162 148.078 130.505C147.937 128.77 147.387 127.736 146.799 127.241ZM146.23 131.21C144.703 130.752 143.863 130.031 143.518 129.181C143.276 128.581 143.315 127.987 143.466 127.506C143.614 127.038 143.884 126.631 144.173 126.396C145.169 125.588 146.462 125.558 147.485 126.418C148.038 126.883 148.486 127.585 148.783 128.512C149.08 127.586 149.528 126.885 150.08 126.42C151.103 125.56 152.396 125.59 153.393 126.398C153.682 126.633 153.951 127.04 154.099 127.508C154.251 127.989 154.29 128.583 154.047 129.183C153.704 130.03 152.869 130.748 151.354 131.207V148.692H146.23V131.21ZM147.298 131.769V147.619H150.286V131.769H147.298ZM149.487 130.507C151.988 130.164 152.821 129.362 153.057 128.779C153.188 128.456 153.173 128.125 153.081 127.832C152.985 127.527 152.82 127.312 152.721 127.233C152.108 126.734 151.383 126.723 150.766 127.243C150.178 127.738 149.628 128.772 149.487 130.507Z" fill="#52199F"/>
<path fill-rule="evenodd" clip-rule="evenodd" d="M137.281 131.938C137.281 131.246 137.845 130.696 138.526 130.696H159.036C159.718 130.696 160.281 131.246 160.281 131.938V135.09C160.281 135.461 159.98 135.751 159.622 135.751H158.713V147.305C158.713 148.066 158.093 148.671 157.343 148.671H140.241C139.49 148.671 138.87 148.066 138.87 147.305V135.751H137.941C137.583 135.751 137.281 135.461 137.281 135.09V131.938ZM139.938 135.855V147.305C139.938 147.461 140.067 147.598 140.241 147.598H157.343C157.516 147.598 157.645 147.461 157.645 147.305V135.855H139.938ZM138.526 131.769C138.422 131.769 138.349 131.851 138.349 131.938V134.678H159.213V131.938C159.213 131.851 159.14 131.769 159.036 131.769H138.526Z" fill="#52199F"/>
<path d="M147.307 134.489H150.29V136.123H147.307V134.489Z" fill="#EBF3FF"/>
</g>
<g opacity="0.8">
<path d="M125.059 131.253H103.483V135.069H104.862V147.969H123.679V135.069H125.059V131.253Z" fill="url(#paint5_linear)"/>
<path d="M104.95 147.523H123.52V148.781H104.95V147.523Z" fill="black" fill-opacity="0.08"/>
<path d="M103.315 133.983H125.239V135.372H103.315V133.983Z" fill="black" fill-opacity="0.08"/>
<path d="M104.782 135.025H123.688V136.5H104.782V135.025Z" fill="black" fill-opacity="0.08"/>
<path d="M118.909 128.769C118.909 129.972 117.027 130.948 114.705 130.948C112.384 130.948 109.553 129.564 109.553 128.36C109.553 127.157 111.345 125.107 114.193 128.692C116.551 125.107 119.475 127.07 118.909 128.769Z" fill="white"/>
<path d="M112.807 131.765H115.79V147.835H112.807V131.765Z" fill="white"/>
<path d="M112.18 146.932H116.32V147.969H112.18V146.932Z" fill="black" fill-opacity="0.08"/>
<path d="M118.578 127.085C118.578 127.085 119.749 128.35 118.787 129.677C117.825 131.005 114.731 130.88 114.731 130.88L116.654 128.983L118.578 127.085Z" fill="#2F83FF" fill-opacity="0.1"/>
<path d="M111.122 128.065C112.478 126.957 114.48 127.417 114.48 131.461C109.128 131.108 110.468 128.599 111.122 128.065Z" fill="#2F83FF" fill-opacity="0.1"/>
<path d="M112.473 144.07L116.111 141.084V148.01H112.473V144.07Z" fill="#2F83FF" fill-opacity="0.1"/>
<path d="M112.431 134.904L116.069 131.917V137.47L112.431 140.456V134.904Z" fill="#2F83FF" fill-opacity="0.1"/>
<path d="M103.434 130.893H125.204V132.642H103.434V130.893Z" fill="white" fill-opacity="0.16"/>
<path fill-rule="evenodd" clip-rule="evenodd" d="M112.299 127.241C111.682 126.721 110.958 126.732 110.344 127.231C110.246 127.31 110.081 127.525 109.984 127.83C109.892 128.123 109.877 128.454 110.008 128.777C110.244 129.36 111.078 130.162 113.578 130.505C113.437 128.77 112.887 127.736 112.299 127.241ZM111.73 131.21C110.203 130.752 109.363 130.031 109.018 129.181C108.776 128.581 108.815 127.987 108.966 127.506C109.114 127.038 109.384 126.631 109.673 126.396C110.669 125.588 111.962 125.558 112.985 126.418C113.538 126.883 113.986 127.585 114.283 128.512C114.58 127.586 115.028 126.885 115.58 126.42C116.603 125.56 117.896 125.59 118.893 126.398C119.182 126.633 119.451 127.04 119.599 127.508C119.751 127.989 119.79 128.583 119.547 129.183C119.204 130.03 118.369 130.748 116.854 131.207V148.692H111.73V131.21ZM112.798 131.769V147.619H115.786V131.769H112.798ZM114.987 130.507C117.488 130.164 118.321 129.362 118.557 128.779C118.688 128.456 118.673 128.125 118.581 127.832C118.485 127.527 118.32 127.312 118.221 127.233C117.608 126.734 116.883 126.723 116.266 127.243C115.678 127.738 115.128 128.772 114.987 130.507Z" fill="#52199F"/>
<path fill-rule="evenodd" clip-rule="evenodd" d="M102.781 131.938C102.781 131.246 103.345 130.696 104.026 130.696H124.536C125.218 130.696 125.781 131.246 125.781 131.938V135.09C125.781 135.461 125.48 135.751 125.122 135.751H124.213V147.305C124.213 148.066 123.593 148.671 122.843 148.671H105.741C104.99 148.671 104.37 148.066 104.37 147.305V135.751H103.441C103.083 135.751 102.781 135.461 102.781 135.09V131.938ZM105.438 135.855V147.305C105.438 147.461 105.567 147.598 105.741 147.598H122.843C123.016 147.598 123.145 147.461 123.145 147.305V135.855H105.438ZM104.026 131.769C103.922 131.769 103.849 131.851 103.849 131.938V134.678H124.713V131.938C124.713 131.851 124.64 131.769 124.536 131.769H104.026Z" fill="#52199F"/>
<path d="M112.807 134.489H115.79V136.123H112.807V134.489Z" fill="#EBF3FF"/>
</g>
<g opacity="0.8">
<path d="M90.559 131.253H68.9825V135.069H70.3624V147.969H89.1791V135.069H90.559V131.253Z" fill="url(#paint6_linear)"/>
<path d="M70.4501 147.523H89.0204V148.781H70.4501V147.523Z" fill="black" fill-opacity="0.08"/>
<path d="M68.8153 133.983H90.7391V135.372H68.8153V133.983Z" fill="black" fill-opacity="0.08"/>
<path d="M70.2825 135.025H89.1881V136.5H70.2825V135.025Z" fill="black" fill-opacity="0.08"/>
<path d="M84.4087 128.769C84.4087 129.972 82.5267 130.948 80.2052 130.948C77.8838 130.948 75.0526 129.564 75.0526 128.36C75.0526 127.157 76.8452 125.107 79.6934 128.692C82.0508 125.107 84.9753 127.07 84.4087 128.769Z" fill="white"/>
<path d="M78.307 131.765H81.2901V147.835H78.307V131.765Z" fill="white"/>
<path d="M77.6801 146.932H81.8198V147.969H77.6801V146.932Z" fill="black" fill-opacity="0.08"/>
<path d="M84.0778 127.085C84.0778 127.085 85.2486 128.35 84.2868 129.677C83.3251 131.005 80.2308 130.88 80.2308 130.88L82.1543 128.983L84.0778 127.085Z" fill="#2F83FF" fill-opacity="0.1"/>
<path d="M76.6218 128.065C77.9781 126.957 79.9799 127.417 79.9799 131.461C74.6276 131.108 75.9685 128.599 76.6218 128.065Z" fill="#2F83FF" fill-opacity="0.1"/>
<path d="M77.9729 144.07L81.6108 141.084V148.01H77.9729V144.07Z" fill="#2F83FF" fill-opacity="0.1"/>
<path d="M77.9311 134.904L81.5689 131.917V137.47L77.9311 140.456V134.904Z" fill="#2F83FF" fill-opacity="0.1"/>
<path d="M68.9343 130.893H90.7038V132.642H68.9343V130.893Z" fill="white" fill-opacity="0.16"/>
<path fill-rule="evenodd" clip-rule="evenodd" d="M77.7992 127.241C77.182 126.721 76.4578 126.732 75.8441 127.231C75.7456 127.31 75.5807 127.525 75.4845 127.83C75.3921 128.123 75.3772 128.454 75.5079 128.777C75.7442 129.36 76.5777 130.162 79.078 130.505C78.9372 128.77 78.3873 127.736 77.7992 127.241ZM77.2297 131.21C75.7031 130.752 74.8626 130.031 74.5185 129.181C74.2758 128.581 74.3146 127.987 74.4663 127.506C74.6141 127.038 74.8835 126.631 75.1728 126.396C76.169 125.588 77.4623 125.558 78.4852 126.418C79.0376 126.883 79.4863 127.585 79.783 128.512C80.0797 127.586 80.5281 126.885 81.0801 126.42C82.103 125.56 83.3963 125.59 84.3925 126.398C84.6818 126.633 84.9512 127.04 85.099 127.508C85.2507 127.989 85.2896 128.583 85.0469 129.183C84.7041 130.03 83.8689 130.748 82.3538 131.207V148.692H77.2297V131.21ZM78.2977 131.769V147.619H81.2857V131.769H78.2977ZM80.4874 130.507C82.9876 130.164 83.8211 129.362 84.0574 128.779C84.1881 128.456 84.1732 128.125 84.0809 127.832C83.9846 127.527 83.8197 127.312 83.7212 127.233C83.1075 126.734 82.3833 126.723 81.7661 127.243C81.178 127.738 80.6282 128.772 80.4874 130.507Z" fill="#52199F"/>
<path fill-rule="evenodd" clip-rule="evenodd" d="M68.2812 131.938C68.2812 131.246 68.8449 130.696 69.5261 130.696H90.0364C90.7176 130.696 91.2812 131.246 91.2812 131.938V135.09C91.2812 135.461 90.9797 135.751 90.6218 135.751H89.7132V147.305C89.7132 148.066 89.0934 148.671 88.3429 148.671H71.2406C70.49 148.671 69.8702 148.066 69.8702 147.305V135.751H68.9407C68.5828 135.751 68.2812 135.461 68.2812 135.09V131.938ZM70.9383 135.855V147.305C70.9383 147.461 71.0673 147.598 71.2406 147.598H88.3429C88.5161 147.598 88.6451 147.461 88.6451 147.305V135.855H70.9383ZM69.5261 131.769C69.4222 131.769 69.3493 131.851 69.3493 131.938V134.678H90.2132V131.938C90.2132 131.851 90.1403 131.769 90.0364 131.769H69.5261Z" fill="#52199F"/>
<path d="M78.3069 134.489H81.29V136.123H78.3069V134.489Z" fill="#EBF3FF"/>
</g>
<defs>
<linearGradient id="paint0_linear" x1="28.9022" y1="73.0691" x2="218.377" y2="105.6" gradientUnits="userSpaceOnUse">
<stop stop-color="#2CC3F2"/>
<stop offset="0.644669" stop-color="#00D0FF"/>
<stop offset="1" stop-color="#00FFFF"/>
</linearGradient>
<linearGradient id="paint1_linear" x1="68.9825" y1="108.705" x2="90.559" y2="108.705" gradientUnits="userSpaceOnUse">
<stop stop-color="#FA00FF"/>
<stop offset="1" stop-color="#C241EF"/>
</linearGradient>
<linearGradient id="paint2_linear" x1="103.483" y1="108.705" x2="125.059" y2="108.705" gradientUnits="userSpaceOnUse">
<stop stop-color="#FA00FF"/>
<stop offset="1" stop-color="#C241EF"/>
</linearGradient>
<linearGradient id="paint3_linear" x1="137.983" y1="108.705" x2="159.559" y2="108.705" gradientUnits="userSpaceOnUse">
<stop stop-color="#FA00FF"/>
<stop offset="1" stop-color="#C241EF"/>
</linearGradient>
<linearGradient id="paint4_linear" x1="137.983" y1="139.611" x2="159.559" y2="139.611" gradientUnits="userSpaceOnUse">
<stop stop-color="#FA00FF"/>
<stop offset="1" stop-color="#C241EF"/>
</linearGradient>
<linearGradient id="paint5_linear" x1="103.483" y1="139.611" x2="125.059" y2="139.611" gradientUnits="userSpaceOnUse">
<stop stop-color="#FA00FF"/>
<stop offset="1" stop-color="#C241EF"/>
</linearGradient>
<linearGradient id="paint6_linear" x1="68.9825" y1="139.611" x2="90.559" y2="139.611" gradientUnits="userSpaceOnUse">
<stop stop-color="#FA00FF"/>
<stop offset="1" stop-color="#C241EF"/>
</linearGradient>
</defs>
</svg>
