<svg width="230" height="188" viewBox="0 0 230 188" fill="none" xmlns="http://www.w3.org/2000/svg">
<rect width="230" height="188" fill="white"/>
<path d="M113.527 166.353C160.382 166.353 207.406 121.027 207.406 72.5651C207.406 48.6367 190.021 34.9077 167.42 28.8929C149.138 17.3599 144.09 5.16284 119.09 1.51373C77.7142 -4.52586 60.7525 54.447 60.7525 54.447C60.7525 54.447 33.9042 67.2361 27.6456 96.3674C26.2548 134.735 66.6722 166.353 113.527 166.353Z" fill="url(#paint0_linear)"/>
<path fill-rule="evenodd" clip-rule="evenodd" d="M57.6023 40.8633C57.1131 40.8633 56.6576 41.1174 56.3931 41.5378L51.9827 48.5475C51.9555 48.5908 51.9308 48.6346 51.9086 48.679H47.1713C46.6822 48.679 46.2266 48.9331 45.9621 49.3535L41.9161 55.7841H39.4792C38.6853 55.7841 38.0417 56.4417 38.0417 57.2528V64.2625C38.0417 65.0737 38.6853 65.7313 39.4792 65.7313H40.8233V170.887H86.7195V65.7313H87.4149V58.6262H95.0643V50.8105H105.495V40.8633H57.6023Z" fill="#FAFCFF"/>
<path fill-rule="evenodd" clip-rule="evenodd" d="M55.8249 47.873L58.3871 43.8008H102.62V47.873H55.8249ZM56.3931 41.5378C56.6576 41.1174 57.1131 40.8633 57.6023 40.8633H105.495V50.8105H95.0643V58.6262H87.4149V65.7313H86.9687V171.109H40.9687V65.7313H39.4792C38.6853 65.7313 38.0417 65.0737 38.0417 64.2625V57.2528C38.0417 56.4417 38.6853 55.7841 39.4792 55.7841H41.9161L45.9621 49.3535C46.2266 48.9331 46.6822 48.679 47.1713 48.679H51.9086C51.9308 48.6346 51.9555 48.5908 51.9827 48.5475L56.3931 41.5378ZM84.5399 62.4219H40.9687V62.7938H40.9167V58.7216H84.5399V62.4219ZM43.8502 65.7313V168.134H84.0872V65.7313H43.8502ZM47.9561 51.6165L45.394 55.6887H92.1893V51.6165H47.9561ZM51.301 77.81C52.0949 77.81 52.7385 78.4676 52.7385 79.2788V82.7359C52.7385 83.5471 52.0949 84.2047 51.301 84.2047C50.5071 84.2047 49.8635 83.5471 49.8635 82.7359V79.2788C49.8635 78.4676 50.5071 77.81 51.301 77.81ZM61.2628 79.2788C61.2628 78.4676 60.6192 77.81 59.8253 77.81C59.0314 77.81 58.3878 78.4676 58.3878 79.2788V82.7359C58.3878 83.5471 59.0314 84.2047 59.8253 84.2047C60.6192 84.2047 61.2628 83.5471 61.2628 82.7359V79.2788ZM68.3494 77.81C69.1433 77.81 69.7869 78.4676 69.7869 79.2788V82.7359C69.7869 83.5471 69.1433 84.2047 68.3494 84.2047C67.5555 84.2047 66.9119 83.5471 66.9119 82.7359V79.2788C66.9119 78.4676 67.5555 77.81 68.3494 77.81ZM79.1635 79.2788C79.1635 78.4676 78.5199 77.81 77.726 77.81C76.9321 77.81 76.2885 78.4676 76.2885 79.2788V82.7359C76.2885 83.5471 76.9321 84.2047 77.726 84.2047C78.5199 84.2047 79.1635 83.5471 79.1635 82.7359V79.2788Z" fill="#2287BF"/>
<path fill-rule="evenodd" clip-rule="evenodd" d="M189.64 55.0737H152.782V70.705H152.087V151.704H197.983V72.8366H199.337C200.354 72.8366 201.049 71.7871 200.672 70.8224L196.313 59.6901C195.222 56.902 192.579 55.0737 189.64 55.0737Z" fill="white"/>
<path fill-rule="evenodd" clip-rule="evenodd" d="M155.657 58.0112H189.64C191.403 58.0112 192.989 59.1082 193.644 60.781L197.214 69.8991H191.485L191.499 68.4217C191.525 65.6358 189.336 63.3556 186.61 63.3288C183.883 63.302 181.651 65.5388 181.625 68.3247L181.61 69.8991H176.882L176.896 68.4217C176.922 65.6358 174.733 63.3556 172.006 63.3288C169.28 63.302 167.048 65.5388 167.022 68.3247L167.007 69.8991H162.279L162.292 68.4217C162.319 65.6358 160.13 63.3556 157.403 63.3288C156.789 63.3228 156.201 63.4313 155.657 63.6349V58.0112ZM152.782 66.4679V55.0737H189.64C192.579 55.0737 195.222 56.902 196.313 59.6901L200.672 70.8224C201.049 71.7871 200.354 72.8366 199.337 72.8366H197.983V151.704H152.087V70.705H152.396L152.418 68.3247C152.424 67.6678 152.553 67.0413 152.782 66.4679ZM154.962 73.6425H195.108V88.3724H154.962V73.6425ZM154.962 91.3099H195.108V106.135H154.962V91.3099ZM154.962 109.073V148.766H195.108V109.073H154.962ZM161.174 77.8102C161.968 77.8102 162.611 78.4678 162.611 79.2789V82.7361C162.611 83.5472 161.968 84.2048 161.174 84.2048C160.38 84.2048 159.736 83.5472 159.736 82.7361V79.2789C159.736 78.4678 160.38 77.8102 161.174 77.8102ZM169.565 79.2789C169.565 78.4677 168.922 77.8102 168.128 77.8102C167.334 77.8102 166.69 78.4677 166.69 79.2789V82.736C166.69 83.5472 167.334 84.2048 168.128 84.2048C168.922 84.2048 169.565 83.5472 169.565 82.736V79.2789ZM175.082 77.8102C175.876 77.8102 176.519 78.4677 176.519 79.2789V82.736C176.519 83.5472 175.876 84.2048 175.082 84.2048C174.288 84.2048 173.644 83.5472 173.644 82.736V79.2789C173.644 78.4677 174.288 77.8102 175.082 77.8102ZM184.169 79.2789C184.169 78.4677 183.525 77.8102 182.731 77.8102C181.937 77.8102 181.294 78.4677 181.294 79.2789V82.736C181.294 83.5472 181.937 84.2048 182.731 84.2048C183.525 84.2048 184.169 83.5472 184.169 82.736V79.2789ZM190.381 77.8102C191.174 77.8102 191.818 78.4677 191.818 79.2789V82.736C191.818 83.5472 191.174 84.2048 190.381 84.2048C189.587 84.2048 188.943 83.5472 188.943 82.736V79.2789C188.943 78.4677 189.587 77.8102 190.381 77.8102ZM162.611 97.0418C162.611 96.2306 161.968 95.573 161.174 95.573C160.38 95.573 159.736 96.2306 159.736 97.0418V100.499C159.736 101.31 160.38 101.968 161.174 101.968C161.968 101.968 162.611 101.31 162.611 100.499V97.0418ZM168.128 95.573C168.922 95.573 169.565 96.2306 169.565 97.0417V100.499C169.565 101.31 168.922 101.968 168.128 101.968C167.334 101.968 166.69 101.31 166.69 100.499V97.0417C166.69 96.2306 167.334 95.573 168.128 95.573ZM176.519 97.0417C176.519 96.2306 175.876 95.573 175.082 95.573C174.288 95.573 173.644 96.2306 173.644 97.0417V100.499C173.644 101.31 174.288 101.968 175.082 101.968C175.876 101.968 176.519 101.31 176.519 100.499V97.0417ZM182.731 95.573C183.525 95.573 184.169 96.2306 184.169 97.0417V100.499C184.169 101.31 183.525 101.968 182.731 101.968C181.937 101.968 181.294 101.31 181.294 100.499V97.0417C181.294 96.2306 181.937 95.573 182.731 95.573ZM191.818 97.0417C191.818 96.2306 191.174 95.573 190.381 95.573C189.587 95.573 188.943 96.2306 188.943 97.0417V100.499C188.943 101.31 189.587 101.968 190.381 101.968C191.174 101.968 191.818 101.31 191.818 100.499V97.0417Z" fill="#2287BF"/>
<path d="M117.875 43.3988L137.641 30.1094L157.406 43.3988V168.172H117.875V43.3988Z" fill="white"/>
<path fill-rule="evenodd" clip-rule="evenodd" d="M137.831 31.5483L154.775 42.4823V46.1132L137.831 35.1791L120.887 46.113V42.4823L137.831 31.5483ZM118.012 47.9683V40.8632L137.831 28.074L157.65 40.8632V160.94H157.65V168.045H118.012V47.9683L118.012 47.9683ZM154.775 160.94V165.108H120.887V160.94H154.775ZM154.775 158.003H120.887V49.5873L137.831 38.6534L154.775 49.5874V158.003ZM127.748 51.4732C127.748 50.662 128.391 50.0045 129.185 50.0045H133.541C134.169 47.9992 136.008 46.5473 138.179 46.5473C140.35 46.5473 142.189 47.9992 142.816 50.0045H146.477C147.271 50.0045 147.914 50.662 147.914 51.4732C147.914 52.2844 147.271 52.942 146.477 52.942H142.845C142.247 54.9964 140.384 56.4945 138.179 56.4945C135.974 56.4945 134.111 54.9964 133.513 52.942H129.185C128.391 52.942 127.748 52.2844 127.748 51.4732ZM131.271 63.5997C132.065 63.5997 132.709 64.2573 132.709 65.0684V68.5256C132.709 69.3367 132.065 69.9943 131.271 69.9943C130.478 69.9943 129.834 69.3367 129.834 68.5256V65.0684C129.834 64.2573 130.478 63.5997 131.271 63.5997ZM141.318 65.0684C141.318 64.2573 140.675 63.5997 139.881 63.5997C139.087 63.5997 138.443 64.2573 138.443 65.0684V68.5256C138.443 69.3367 139.087 69.9943 139.881 69.9943C140.675 69.9943 141.318 69.3367 141.318 68.5256V65.0684ZM148.491 63.5997C149.284 63.5997 149.928 64.2573 149.928 65.0684V68.5256C149.928 69.3367 149.284 69.9943 148.491 69.9943C147.697 69.9943 147.053 69.3367 147.053 68.5256V65.0684C147.053 64.2573 147.697 63.5997 148.491 63.5997ZM132.709 75.0156C132.709 74.2044 132.065 73.5469 131.271 73.5469C130.478 73.5469 129.834 74.2044 129.834 75.0156V78.4727C129.834 79.2839 130.478 79.9415 131.271 79.9415C132.065 79.9415 132.709 79.2839 132.709 78.4727V75.0156ZM139.881 73.5469C140.675 73.5469 141.318 74.2044 141.318 75.0156V78.4727C141.318 79.2839 140.675 79.9415 139.881 79.9415C139.087 79.9415 138.443 79.2839 138.443 78.4727V75.0156C138.443 74.2044 139.087 73.5469 139.881 73.5469ZM149.928 75.0156C149.928 74.2044 149.284 73.5469 148.491 73.5469C147.697 73.5469 147.053 74.2044 147.053 75.0156V78.4727C147.053 79.2839 147.697 79.9415 148.491 79.9415C149.284 79.9415 149.928 79.2839 149.928 78.4727V75.0156Z" fill="#2287BF"/>
<path d="M80.4999 8.07837H125.781V171.11H80.4999V8.07837Z" fill="white"/>
<path fill-rule="evenodd" clip-rule="evenodd" d="M82.6405 9.69629V13.058H124.177V9.69629H82.6405ZM81.203 6.75879C80.4091 6.75879 79.7655 7.41637 79.7655 8.22754V14.5267C79.7655 15.0604 80.0441 15.5276 80.4607 15.7848V170.888H126.357V15.785C126.774 15.5278 127.052 15.0605 127.052 14.5267V8.22754C127.052 7.41637 126.409 6.75879 125.615 6.75879H81.203ZM123.482 16.0909H83.3357V167.95H123.482V16.0909ZM90.243 21.6796C91.0369 21.6796 91.6805 22.3372 91.6805 23.1483V26.6055C91.6805 27.4166 91.0369 28.0742 90.243 28.0742C89.4491 28.0742 88.8055 27.4166 88.8055 26.6055V23.1483C88.8055 22.3372 89.4491 21.6796 90.243 21.6796ZM98.7672 21.6796C99.5611 21.6796 100.205 22.3372 100.205 23.1484V26.6055C100.205 27.4167 99.5611 28.0742 98.7672 28.0742C97.9733 28.0742 97.3297 27.4167 97.3297 26.6055V23.1484C97.3297 22.3372 97.9733 21.6796 98.7672 21.6796ZM108.729 23.1484C108.729 22.3372 108.085 21.6796 107.291 21.6796C106.497 21.6796 105.854 22.3372 105.854 23.1484V26.6055C105.854 27.4167 106.497 28.0742 107.291 28.0742C108.085 28.0742 108.729 27.4167 108.729 26.6055V23.1484ZM116.668 21.6796C117.462 21.6796 118.105 22.3372 118.105 23.1484V26.6055C118.105 27.4167 117.462 28.0742 116.668 28.0742C115.874 28.0742 115.23 27.4167 115.23 26.6055V23.1484C115.23 22.3372 115.874 21.6796 116.668 21.6796ZM91.6805 35.2271C91.6805 34.4159 91.0369 33.7583 90.243 33.7583C89.4491 33.7583 88.8055 34.4159 88.8055 35.2271V38.6842C88.8055 39.4954 89.4491 40.1529 90.243 40.1529C91.0369 40.1529 91.6805 39.4954 91.6805 38.6842V35.2271ZM98.7672 33.7584C99.5611 33.7584 100.205 34.4159 100.205 35.2271V38.6842C100.205 39.4954 99.5611 40.153 98.7672 40.153C97.9733 40.153 97.3297 39.4954 97.3297 38.6842V35.2271C97.3297 34.4159 97.9733 33.7584 98.7672 33.7584ZM108.729 35.2271C108.729 34.4159 108.085 33.7584 107.291 33.7584C106.497 33.7584 105.854 34.4159 105.854 35.2271V38.6842C105.854 39.4954 106.497 40.153 107.291 40.153C108.085 40.153 108.729 39.4954 108.729 38.6842V35.2271ZM116.668 33.7584C117.462 33.7584 118.105 34.4159 118.105 35.2271V38.6842C118.105 39.4954 117.462 40.153 116.668 40.153C115.874 40.153 115.23 39.4954 115.23 38.6842V35.2271C115.23 34.4159 115.874 33.7584 116.668 33.7584ZM91.6805 47.3058C91.6805 46.4946 91.0369 45.8371 90.243 45.8371C89.4491 45.8371 88.8055 46.4946 88.8055 47.3058V50.7629C88.8055 51.5741 89.4491 52.2317 90.243 52.2317C91.0369 52.2317 91.6805 51.5741 91.6805 50.7629V47.3058ZM98.7672 45.837C99.5611 45.837 100.205 46.4946 100.205 47.3058V50.7629C100.205 51.5741 99.5611 52.2316 98.7672 52.2316C97.9733 52.2316 97.3297 51.5741 97.3297 50.7629V47.3058C97.3297 46.4946 97.9733 45.837 98.7672 45.837ZM108.729 47.3058C108.729 46.4946 108.085 45.837 107.291 45.837C106.497 45.837 105.854 46.4946 105.854 47.3058V50.7629C105.854 51.5741 106.497 52.2316 107.291 52.2316C108.085 52.2316 108.729 51.5741 108.729 50.7629V47.3058ZM116.668 45.837C117.462 45.837 118.105 46.4946 118.105 47.3058V50.7629C118.105 51.5741 117.462 52.2316 116.668 52.2316C115.874 52.2316 115.23 51.5741 115.23 50.7629V47.3058C115.23 46.4946 115.874 45.837 116.668 45.837ZM91.6805 59.3845C91.6805 58.5734 91.0369 57.9158 90.243 57.9158C89.4491 57.9158 88.8055 58.5734 88.8055 59.3845V62.8417C88.8055 63.6528 89.4491 64.3104 90.243 64.3104C91.0369 64.3104 91.6805 63.6528 91.6805 62.8417V59.3845ZM98.7672 57.9157C99.5611 57.9157 100.205 58.5733 100.205 59.3845V62.8416C100.205 63.6528 99.5611 64.3104 98.7672 64.3104C97.9733 64.3104 97.3297 63.6528 97.3297 62.8416V59.3845C97.3297 58.5733 97.9733 57.9157 98.7672 57.9157ZM108.729 59.3845C108.729 58.5733 108.085 57.9157 107.291 57.9157C106.497 57.9157 105.854 58.5733 105.854 59.3845V62.8416C105.854 63.6528 106.497 64.3104 107.291 64.3104C108.085 64.3104 108.729 63.6528 108.729 62.8416V59.3845ZM116.668 57.9157C117.462 57.9157 118.105 58.5733 118.105 59.3845V62.8416C118.105 63.6528 117.462 64.3104 116.668 64.3104C115.874 64.3104 115.23 63.6528 115.23 62.8416V59.3845C115.23 58.5733 115.874 57.9157 116.668 57.9157ZM92.3759 70.7528C92.3759 69.9416 91.7323 69.284 90.9384 69.284C90.1445 69.284 89.5009 69.9416 89.5009 70.7528V74.2099C89.5009 75.0211 90.1445 75.6786 90.9384 75.6786C91.7323 75.6786 92.3759 75.0211 92.3759 74.2099V70.7528ZM99.4628 69.284C100.257 69.284 100.9 69.9416 100.9 70.7528V74.2099C100.9 75.0211 100.257 75.6786 99.4628 75.6786C98.6689 75.6786 98.0253 75.0211 98.0253 74.2099V70.7528C98.0253 69.9416 98.6689 69.284 99.4628 69.284ZM109.424 70.7528C109.424 69.9416 108.781 69.284 107.987 69.284C107.193 69.284 106.549 69.9416 106.549 70.7528V74.2099C106.549 75.0211 107.193 75.6786 107.987 75.6786C108.781 75.6786 109.424 75.0211 109.424 74.2099V70.7528ZM117.363 69.284C118.157 69.284 118.801 69.9416 118.801 70.7528V74.2099C118.801 75.0211 118.157 75.6786 117.363 75.6786C116.57 75.6786 115.926 75.0211 115.926 74.2099V70.7528C115.926 69.9416 116.57 69.284 117.363 69.284Z" fill="#2287BF"/>
<path fill-rule="evenodd" clip-rule="evenodd" d="M78.3748 14.5266C78.3748 13.7154 79.0183 13.0579 79.8123 13.0579H127.006C127.8 13.0579 128.443 13.7154 128.443 14.5266C128.443 15.3378 127.8 15.9954 127.006 15.9954H79.8123C79.0183 15.9954 78.3748 15.3378 78.3748 14.5266Z" fill="#2287BF"/>
<path fill-rule="evenodd" clip-rule="evenodd" d="M64.4668 184.339C64.4668 183.528 65.1104 182.871 65.9043 182.871H133.96C134.754 182.871 135.397 183.528 135.397 184.339C135.397 185.151 134.754 185.808 133.96 185.808H65.9043C65.1104 185.808 64.4668 185.151 64.4668 184.339Z" fill="#2287BF"/>
<path fill-rule="evenodd" clip-rule="evenodd" d="M147.219 184.339C147.219 183.528 147.863 182.871 148.656 182.871H192.373C193.167 182.871 193.811 183.528 193.811 184.339C193.811 185.151 193.167 185.808 192.373 185.808H148.656C147.863 185.808 147.219 185.151 147.219 184.339Z" fill="#2287BF"/>
<path fill-rule="evenodd" clip-rule="evenodd" d="M38.0417 169.419C38.0417 168.608 38.6853 167.95 39.4792 167.95H83.1958C83.9897 167.95 84.6333 168.608 84.6333 169.419C84.6333 170.23 83.9897 170.887 83.1958 170.887H39.4792C38.6853 170.887 38.0417 170.23 38.0417 169.419Z" fill="#2287BF"/>
<path fill-rule="evenodd" clip-rule="evenodd" d="M49.8635 184.339C49.8635 183.528 50.5071 182.871 51.301 182.871H55.3799C56.1738 182.871 56.8174 183.528 56.8174 184.339C56.8174 185.151 56.1738 185.808 55.3799 185.808H51.301C50.5071 185.808 49.8635 185.151 49.8635 184.339Z" fill="#2287BF"/>
<path fill-rule="evenodd" clip-rule="evenodd" d="M43.562 94.9624C43.562 94.354 43.0793 93.8608 42.4839 93.8608H30.8457C30.2503 93.8608 29.7676 94.354 29.7676 94.9624C29.7676 95.5708 30.2503 96.064 30.8457 96.064H42.4839C43.0793 96.064 43.562 95.5708 43.562 94.9624Z" fill="url(#paint1_linear)"/>
<path fill-rule="evenodd" clip-rule="evenodd" d="M48.0468 111.58C48.0468 110.971 47.5641 110.478 46.9686 110.478H34.0532C33.4578 110.478 32.9751 110.971 32.9751 111.58C32.9751 112.188 33.4578 112.681 34.0532 112.681H46.9686C47.5641 112.681 48.0468 112.188 48.0468 111.58Z" fill="url(#paint2_linear)"/>
<path fill-rule="evenodd" clip-rule="evenodd" d="M46.2587 122.803C46.2587 122.195 45.776 121.701 45.1805 121.701H39.4178C38.8223 121.701 38.3397 122.195 38.3397 122.803C38.3397 123.411 38.8223 123.905 39.4178 123.905H45.1805C45.776 123.905 46.2587 123.411 46.2587 122.803Z" fill="url(#paint3_linear)"/>
<path fill-rule="evenodd" clip-rule="evenodd" d="M47.2804 133.765C47.2804 133.157 46.7977 132.664 46.2023 132.664H44.7822C44.1868 132.664 43.7041 133.157 43.7041 133.765C43.7041 134.374 44.1868 134.867 44.7822 134.867H46.2023C46.7977 134.867 47.2804 134.374 47.2804 133.765Z" fill="url(#paint4_linear)"/>
<path fill-rule="evenodd" clip-rule="evenodd" d="M42.1712 133.765C42.1712 133.157 41.6885 132.664 41.0931 132.664H27.9222C27.3268 132.664 26.8441 133.157 26.8441 133.765C26.8441 134.374 27.3268 134.867 27.9222 134.867H41.0931C41.6885 134.867 42.1712 134.374 42.1712 133.765Z" fill="url(#paint5_linear)"/>
<path fill-rule="evenodd" clip-rule="evenodd" d="M42.1712 141.856C42.1712 141.248 41.6885 140.755 41.0931 140.755H16.1714C15.576 140.755 15.0933 141.248 15.0933 141.856C15.0933 142.465 15.576 142.958 16.1714 142.958H41.0931C41.6885 142.958 42.1712 142.465 42.1712 141.856Z" fill="url(#paint6_linear)"/>
<path d="M152.965 83.7603H48.6788V98.9947H51.6651V150.494H149.283V98.9947H152.965V83.7603Z" fill="url(#paint7_linear)"/>
<path d="M48.3229 91.4463H153.716V100.014H48.3229V91.4463Z" fill="black" fill-opacity="0.08"/>
<path d="M51.0667 97.8724H149.146V106.976H51.0667V97.8724Z" fill="black" fill-opacity="0.08"/>
<path d="M91.588 84.6995H109.668V147.935H91.588V84.6995Z" fill="white"/>
<path d="M89.6277 146.354H111.104V150.494H89.6277V146.354Z" fill="black" fill-opacity="0.08"/>
<path d="M114.87 68.4099C114.87 68.4099 119.076 73.2285 115.065 77.7029C111.054 82.1773 99.1831 82.3337 99.1831 82.3337L107.027 74.6613L114.87 68.4099Z" fill="#2F83FF" fill-opacity="0.1"/>
<path d="M85.965 69.9244C91.0341 66.6029 99.0322 68.5047 98.0817 82.9153C79.92 79.3669 83.3269 71.653 85.965 69.9244Z" fill="#2F83FF" fill-opacity="0.1"/>
<path d="M91.1462 134.929L110.019 123.006V150.66H91.1462V134.929Z" fill="#2F83FF" fill-opacity="0.1"/>
<path d="M90.9292 98.3328L109.802 86.4102V108.578L90.9292 120.5V98.3328Z" fill="#2F83FF" fill-opacity="0.1"/>
<path d="M47.7776 84.6995H152.783V91.0941H47.7776V84.6995Z" fill="white" fill-opacity="0.16"/>
<path d="M51.95 132.3H149.306V138.695H51.95V132.3Z" fill="black" fill-opacity="0.08"/>
<path fill-rule="evenodd" clip-rule="evenodd" d="M86.8687 67.9232C88.0403 67.0331 90.6591 66.673 93.1651 68.5908C95.4554 70.3435 97.7669 74.1382 98.2883 81.4696C93.2312 80.6126 89.9204 79.3654 87.8106 78.0209C85.508 76.5534 84.6858 75.0097 84.4699 73.7099C84.2443 72.3526 84.6348 70.9873 85.2436 69.8603C85.5437 69.3049 85.8788 68.8425 86.1703 68.5111C86.3896 68.2618 86.5334 68.1439 86.5846 68.1019C86.6119 68.0795 86.6127 68.0788 86.5844 68.0914L86.736 68.024L86.8687 67.9232ZM88.624 85.1464H51.4987C50.76 85.1464 50.147 85.3768 49.7514 85.6788C49.3561 85.9806 49.2484 86.2837 49.2484 86.4927V98.1057H88.624V85.1464ZM88.624 101.457H53.3194V147.844C53.3194 148.191 53.4999 148.618 54.013 149.01C54.5263 149.401 55.302 149.688 56.2204 149.688H88.624V101.457ZM91.499 149.688V101.457H109.666V149.688H91.499ZM88.624 152.625V152.708H90.0615H111.104H112.541V152.625H144.945C146.422 152.625 147.816 152.17 148.873 151.363C149.93 150.556 150.721 149.327 150.721 147.844V101.043H152.595C153.054 101.043 153.526 100.903 153.915 100.606C154.305 100.308 154.683 99.7832 154.683 99.0777V86.4927C154.683 85.1469 153.965 84.0426 153.026 83.3255C152.087 82.6086 150.856 82.2089 149.558 82.2089H110.438C112.063 81.572 113.418 80.8866 114.542 80.1651C117.327 78.3771 118.754 76.3189 119.213 74.2051C119.663 72.1275 119.12 70.2569 118.479 68.9265C117.847 67.6136 117.047 66.6759 116.719 66.3732C114.337 64.1751 110.098 63.7942 106.519 66.2966C103.867 68.1508 101.651 71.4982 100.55 76.6912C99.4996 71.5101 97.3997 68.1613 94.8886 66.2397C91.5481 63.6833 87.5964 63.7996 85.2618 65.4855C84.8115 65.7344 84.3791 66.1529 84.032 66.5475C83.595 67.0443 83.1328 67.689 82.7267 68.4406C81.9232 69.9278 81.2657 71.9763 81.6354 74.2016C82.0147 76.4843 83.4311 78.6919 86.2891 80.5133C87.242 81.1206 88.3598 81.6887 89.663 82.2089H51.4987C50.2007 82.2089 48.9698 82.6086 48.0307 83.3255C47.0913 84.0426 46.3734 85.1469 46.3734 86.4927V99.0777C46.3734 99.7833 46.7514 100.308 47.1412 100.606C47.5307 100.903 48.0023 101.043 48.4617 101.043H50.4444V147.844C50.4444 149.327 51.2351 150.556 52.2922 151.363C53.3491 152.17 54.7427 152.625 56.2204 152.625H88.624ZM112.541 85.1464V98.1057H151.808V86.4927C151.808 86.2837 151.701 85.9806 151.305 85.6788C150.91 85.3768 150.297 85.1464 149.558 85.1464H112.541ZM112.541 101.457H147.846V147.844C147.846 148.191 147.665 148.618 147.152 149.01C146.639 149.401 145.863 149.688 144.945 149.688H112.541V101.457ZM109.666 98.1057V85.1465H91.499V98.1057H109.666ZM113.013 77.6778C110.926 79.0173 107.693 80.3293 102.791 81.3917C103.341 74.1344 105.755 70.3901 108.143 68.7209C110.769 66.8843 113.52 67.3795 114.792 68.5531C114.79 68.5508 114.79 68.5511 114.793 68.5541L114.793 68.5542C114.802 68.564 114.839 68.6018 114.901 68.6738C114.976 68.7609 115.074 68.8817 115.184 69.0325C115.406 69.3354 115.668 69.7428 115.9 70.2239C116.37 71.1992 116.666 72.3676 116.406 73.5697C116.153 74.7356 115.318 76.1976 113.013 77.6778Z" fill="#52199F"/>
<path d="M91.5876 96.7781H109.668V103.173H91.5876V96.7781Z" fill="#EBF3FF"/>
<path d="M60.2947 152.906H150.696V170.669H60.2947V152.906Z" fill="#9EB2CC"/>
<path fill-rule="evenodd" clip-rule="evenodd" d="M147.821 155.843H63.1697V167.731H147.821V155.843ZM60.2947 152.906V170.669H150.696V152.906H60.2947Z" fill="#52199F"/>
<path d="M63.0764 155.748H147.915V160.721H63.0764V155.748Z" fill="#8796AE"/>
<path d="M50.5592 137.985H150.696V155.748H57.7467C53.7772 155.748 50.5592 152.46 50.5592 148.404V137.985Z" fill="#DFE8F3"/>
<path fill-rule="evenodd" clip-rule="evenodd" d="M147.821 140.922H53.4342V148.404C53.4342 150.837 55.365 152.81 57.7467 152.81H147.821V140.922ZM50.5592 137.985V148.404C50.5592 152.46 53.7772 155.748 57.7467 155.748H150.696V137.985H50.5592Z" fill="#52199F"/>
<path d="M53.3408 140.116H147.915V148.643H53.3408V140.116Z" fill="white"/>
<path d="M103.409 169.958C103.409 178.983 96.2486 186.3 87.4153 186.3C78.582 186.3 71.4211 178.983 71.4211 169.958C71.4211 160.933 78.582 153.616 87.4153 153.616C96.2486 153.616 103.409 160.933 103.409 169.958Z" fill="#6F7F94"/>
<path fill-rule="evenodd" clip-rule="evenodd" d="M87.4153 183.362C94.6608 183.362 100.534 177.361 100.534 169.958C100.534 162.555 94.6608 156.554 87.4153 156.554C80.1698 156.554 74.2961 162.555 74.2961 169.958C74.2961 177.361 80.1698 183.362 87.4153 183.362ZM87.4153 186.3C96.2486 186.3 103.409 178.983 103.409 169.958C103.409 160.933 96.2486 153.616 87.4153 153.616C78.582 153.616 71.4211 160.933 71.4211 169.958C71.4211 178.983 78.582 186.3 87.4153 186.3Z" fill="#52199F"/>
<path fill-rule="evenodd" clip-rule="evenodd" d="M98.7157 165.634C98.8636 164.631 99.779 163.941 100.76 164.092L100.868 164.109C101.85 164.26 102.525 165.195 102.377 166.198C102.229 167.2 101.314 167.891 100.333 167.74L100.225 167.723C99.2435 167.572 98.5679 166.637 98.7157 165.634Z" fill="#52199F"/>
<path fill-rule="evenodd" clip-rule="evenodd" d="M73.6761 176.406C72.8404 175.859 72.597 174.723 73.1323 173.869L73.3933 173.453C73.9286 172.599 75.04 172.351 75.8756 172.898C76.7112 173.444 76.9547 174.58 76.4194 175.434L76.1584 175.85C75.623 176.704 74.5117 176.953 73.6761 176.406Z" fill="#52199F"/>
<path fill-rule="evenodd" clip-rule="evenodd" d="M77.5606 181.18C76.5688 181.213 75.7386 180.418 75.7063 179.405L75.7032 179.306C75.671 178.293 76.4489 177.444 77.4407 177.411C78.4326 177.378 79.2628 178.173 79.295 179.187L79.2982 179.285C79.3304 180.299 78.5525 181.147 77.5606 181.18Z" fill="#52199F"/>
<path fill-rule="evenodd" clip-rule="evenodd" d="M81.9922 184.672C81.0156 184.852 80.0809 184.189 79.9046 183.191L79.8526 182.897C79.6763 181.9 80.325 180.945 81.3016 180.764C82.2782 180.584 83.2128 181.247 83.3892 182.245L83.4411 182.539C83.6175 183.537 82.9687 184.492 81.9922 184.672Z" fill="#52199F"/>
<path fill-rule="evenodd" clip-rule="evenodd" d="M87.8635 186.101C86.9353 186.46 85.8982 185.982 85.5471 185.033L85.3424 184.48C84.9913 183.532 85.4591 182.472 86.3873 182.114C87.3155 181.755 88.3526 182.233 88.7037 183.181L88.9084 183.734C89.2595 184.683 88.7917 185.742 87.8635 186.101Z" fill="#52199F"/>
<path fill-rule="evenodd" clip-rule="evenodd" d="M93.0013 180.95C93.9809 181.112 94.6461 182.055 94.4871 183.056L94.4637 183.203C94.3047 184.204 93.3817 184.884 92.4021 184.721C91.4225 184.559 90.7573 183.616 90.9163 182.615L90.9398 182.468C91.0987 181.467 92.0217 180.787 93.0013 180.95Z" fill="#52199F"/>
<path fill-rule="evenodd" clip-rule="evenodd" d="M84.467 154.264C85.4063 154.591 85.9079 155.635 85.5875 156.594L85.3686 157.25C85.0482 158.21 84.0271 158.722 83.0878 158.395C82.1486 158.067 81.6469 157.024 81.9673 156.064L82.1862 155.409C82.5066 154.449 83.5278 153.937 84.467 154.264Z" fill="#52199F"/>
<path fill-rule="evenodd" clip-rule="evenodd" d="M77.6714 156.94C78.5035 156.388 79.6164 156.629 80.1572 157.479L80.6667 158.28C81.2075 159.13 80.9713 160.268 80.1392 160.82C79.307 161.373 78.1941 161.131 77.6534 160.281L77.1438 159.48C76.603 158.63 76.8392 157.493 77.6714 156.94Z" fill="#52199F"/>
<path fill-rule="evenodd" clip-rule="evenodd" d="M73.7725 163.953C73.5563 162.964 74.1661 161.982 75.1347 161.761L75.1814 161.751C76.15 161.53 77.1104 162.153 77.3267 163.142C77.5429 164.132 76.9331 165.113 75.9646 165.334L75.9178 165.345C74.9493 165.566 73.9888 164.943 73.7725 163.953Z" fill="#52199F"/>
<path fill-rule="evenodd" clip-rule="evenodd" d="M98.3329 159.185C99.2968 159.427 99.8869 160.42 99.6509 161.405L99.5187 161.957C99.2827 162.942 98.31 163.545 97.3461 163.304C96.3822 163.062 95.7921 162.069 96.0281 161.084L96.1603 160.532C96.3963 159.547 97.369 158.944 98.3329 159.185Z" fill="#52199F"/>
<path fill-rule="evenodd" clip-rule="evenodd" d="M94.0692 155.947C95.0557 156.058 95.768 156.964 95.6601 157.972L95.6413 158.148C95.5334 159.156 94.6462 159.883 93.6597 159.773C92.6732 159.663 91.9609 158.756 92.0688 157.748L92.0877 157.573C92.1956 156.565 93.0827 155.837 94.0692 155.947Z" fill="#52199F"/>
<path fill-rule="evenodd" clip-rule="evenodd" d="M89.2113 154.383C90.2032 154.414 90.9826 155.261 90.9521 156.275L90.9491 156.375C90.9186 157.389 90.0897 158.185 89.0978 158.154C88.1059 158.123 87.3265 157.276 87.357 156.262L87.36 156.162C87.3905 155.148 88.2194 154.352 89.2113 154.383Z" fill="#52199F"/>
<path fill-rule="evenodd" clip-rule="evenodd" d="M99.4998 169.8C100.075 168.974 101.197 168.78 102.006 169.368L102.055 169.404C102.864 169.991 103.053 171.138 102.478 171.964C101.903 172.79 100.781 172.984 99.9725 172.396L99.9229 172.36C99.1141 171.772 98.9247 170.626 99.4998 169.8Z" fill="#52199F"/>
<path fill-rule="evenodd" clip-rule="evenodd" d="M73.5529 170.606C72.6778 170.128 72.3477 169.016 72.8157 168.121L72.8211 168.111C73.2891 167.217 74.3779 166.88 75.253 167.358C76.1281 167.836 76.4582 168.948 75.9902 169.843L75.9848 169.853C75.5169 170.747 74.4281 171.084 73.5529 170.606Z" fill="#52199F"/>
<path fill-rule="evenodd" clip-rule="evenodd" d="M98.2916 174.737C98.9206 173.953 100.053 173.838 100.82 174.481L101.227 174.821C101.995 175.464 102.107 176.62 101.478 177.405C100.849 178.189 99.7168 178.304 98.9492 177.661L98.5426 177.321C97.775 176.678 97.6626 175.521 98.2916 174.737Z" fill="#52199F"/>
<path fill-rule="evenodd" clip-rule="evenodd" d="M95.4269 178.948C95.8994 178.057 96.9899 177.725 97.8625 178.208L98.2425 178.418C99.1152 178.901 99.4396 180.015 98.9671 180.907C98.4945 181.798 97.4041 182.13 96.5314 181.647L96.1514 181.437C95.2787 180.954 94.9543 179.84 95.4269 178.948Z" fill="#52199F"/>
<path d="M95.76 169.958C95.76 174.667 92.0239 178.484 87.4153 178.484C82.8066 178.484 79.0705 174.667 79.0705 169.958C79.0705 165.249 82.8066 161.432 87.4153 161.432C92.0239 161.432 95.76 165.249 95.76 169.958Z" fill="#ECF4FE"/>
<path fill-rule="evenodd" clip-rule="evenodd" d="M87.4153 175.547C90.4361 175.547 92.885 173.045 92.885 169.958C92.885 166.872 90.4361 164.369 87.4153 164.369C84.3944 164.369 81.9455 166.872 81.9455 169.958C81.9455 173.045 84.3944 175.547 87.4153 175.547ZM87.4153 178.484C92.0239 178.484 95.76 174.667 95.76 169.958C95.76 165.249 92.0239 161.432 87.4153 161.432C82.8066 161.432 79.0705 165.249 79.0705 169.958C79.0705 174.667 82.8066 178.484 87.4153 178.484Z" fill="#52199F"/>
<path d="M147.915 103.17H184.373C187.302 103.17 189.938 104.986 191.036 107.76L202.156 135.853H147.915V103.17Z" fill="white"/>
<path fill-rule="evenodd" clip-rule="evenodd" d="M184.373 106.107H150.79V132.916H197.892L188.371 108.861C187.712 107.197 186.13 106.107 184.373 106.107ZM191.036 107.76C189.938 104.986 187.302 103.17 184.373 103.17H147.915V135.853H202.156L191.036 107.76Z" fill="#52199F"/>
<path d="M147.915 125.906H197.009C200.996 125.906 204.222 129.222 204.197 133.296L203.967 170.669H147.915V125.906Z" fill="white"/>
<path fill-rule="evenodd" clip-rule="evenodd" d="M197.009 128.844H150.79V167.731H201.11L201.322 133.278C201.337 130.833 199.401 128.844 197.009 128.844ZM203.967 170.669L204.197 133.296C204.222 129.222 200.996 125.906 197.009 125.906H147.915V170.669H203.967Z" fill="#52199F"/>
<path d="M150.696 142.958H201.46V167.826H150.696V142.958Z" fill="#DFE8F3"/>
<path d="M150.696 119.511H151.84C155.815 119.511 159.035 122.808 159.027 126.87L159 140.827H150.696V119.511Z" fill="white"/>
<path d="M154.173 114.729C154.173 111.484 156.748 108.854 159.923 108.854H191.464L200.07 128.748H159.923C156.748 128.748 154.173 126.118 154.173 122.873V114.729Z" fill="url(#paint8_linear)"/>
<path fill-rule="evenodd" clip-rule="evenodd" d="M189.591 111.791H159.923C158.336 111.791 157.048 113.106 157.048 114.729V122.873C157.048 124.495 158.336 125.811 159.923 125.811H195.656L189.591 111.791ZM191.464 108.854H159.923C156.748 108.854 154.173 111.484 154.173 114.729V122.873C154.173 126.118 156.748 128.748 159.923 128.748H200.07L191.464 108.854Z" fill="#52199F"/>
<path fill-rule="evenodd" clip-rule="evenodd" d="M154.869 122.641L189.431 109.564L190.929 113.696L156.366 126.773L154.869 122.641Z" fill="url(#paint9_linear)"/>
<path fill-rule="evenodd" clip-rule="evenodd" d="M154.173 114.538L170.167 108.854L171.112 111.628L155.118 117.312L154.173 114.538Z" fill="url(#paint10_linear)"/>
<path d="M188.248 166.405C188.248 164.051 190.116 162.142 192.42 162.142H203.547C205.851 162.142 207.719 164.051 207.719 166.405C207.719 168.76 205.851 170.668 203.547 170.668H192.42C190.116 170.668 188.248 168.76 188.248 166.405Z" fill="#CED8EE"/>
<path fill-rule="evenodd" clip-rule="evenodd" d="M203.547 165.08H192.42C191.704 165.08 191.123 165.673 191.123 166.405C191.123 167.138 191.704 167.731 192.42 167.731H203.547C204.263 167.731 204.844 167.138 204.844 166.405C204.844 165.673 204.263 165.08 203.547 165.08ZM192.42 162.142C190.116 162.142 188.248 164.051 188.248 166.405C188.248 168.76 190.116 170.668 192.42 170.668H203.547C205.851 170.668 207.719 168.76 207.719 166.405C207.719 164.051 205.851 162.142 203.547 162.142H192.42Z" fill="#52199F"/>
<path d="M56.1224 166.405C56.1224 164.051 57.9904 162.142 60.2948 162.142H64.4671C66.7715 162.142 68.6395 164.051 68.6395 166.405C68.6395 168.76 66.7715 170.668 64.4671 170.668H60.2948C57.9904 170.668 56.1224 168.76 56.1224 166.405Z" fill="#CED8EE"/>
<path fill-rule="evenodd" clip-rule="evenodd" d="M64.4671 165.08H60.2948C59.5782 165.08 58.9974 165.673 58.9974 166.405C58.9974 167.138 59.5782 167.731 60.2948 167.731H64.4671C65.1837 167.731 65.7645 167.138 65.7645 166.405C65.7645 165.673 65.1837 165.08 64.4671 165.08ZM60.2948 162.142C57.9904 162.142 56.1224 164.051 56.1224 166.405C56.1224 168.76 57.9904 170.668 60.2948 170.668H64.4671C66.7715 170.668 68.6395 168.76 68.6395 166.405C68.6395 164.051 66.7715 162.142 64.4671 162.142H60.2948Z" fill="#52199F"/>
<path d="M194.656 135.394C194.668 133.072 196.521 131.2 198.794 131.215L204.587 131.255L204.547 139.653L198.739 139.614C196.472 139.598 194.645 137.71 194.656 135.394Z" fill="#FFE6E3"/>
<path fill-rule="evenodd" clip-rule="evenodd" d="M201.698 134.173L198.775 134.153C198.092 134.148 197.535 134.711 197.531 135.408C197.528 136.104 198.077 136.672 198.758 136.676L201.686 136.696L201.698 134.173ZM204.587 131.255L198.794 131.215C196.521 131.2 194.668 133.072 194.656 135.394C194.645 137.71 196.472 139.598 198.739 139.614L204.547 139.653L204.587 131.255Z" fill="#52199F"/>
<path fill-rule="evenodd" clip-rule="evenodd" d="M189.591 111.791H159.923C158.336 111.791 157.048 113.106 157.048 114.729V122.873C157.048 124.495 158.336 125.811 159.923 125.811H195.656L189.591 111.791ZM191.464 108.854H159.923C156.748 108.854 154.173 111.484 154.173 114.729V122.873C154.173 126.118 156.748 128.748 159.923 128.748H200.07L191.464 108.854Z" fill="#52199F"/>
<path d="M177.469 147.221C165.371 147.221 155.564 157.719 155.564 170.668H199.374C199.374 157.719 189.567 147.221 177.469 147.221Z" fill="#CED8EE"/>
<path fill-rule="evenodd" clip-rule="evenodd" d="M177.469 150.159C167.989 150.159 159.96 157.701 158.632 167.731H196.307C194.978 157.701 186.949 150.159 177.469 150.159ZM199.204 167.731C197.854 156.168 188.637 147.221 177.469 147.221C166.301 147.221 157.085 156.168 155.734 167.731C155.622 168.693 155.564 169.674 155.564 170.668H199.374C199.374 169.674 199.316 168.693 199.204 167.731Z" fill="#52199F"/>
<path d="M193.116 169.248C193.116 178.273 185.955 185.589 177.121 185.589C168.288 185.589 161.127 178.273 161.127 169.248C161.127 160.222 168.288 152.906 177.121 152.906C185.955 152.906 193.116 160.222 193.116 169.248Z" fill="#6F7F94"/>
<path fill-rule="evenodd" clip-rule="evenodd" d="M177.121 182.652C184.367 182.652 190.241 176.651 190.241 169.248C190.241 161.845 184.367 155.843 177.121 155.843C169.876 155.843 164.002 161.845 164.002 169.248C164.002 176.651 169.876 182.652 177.121 182.652ZM177.121 185.589C185.955 185.589 193.116 178.273 193.116 169.248C193.116 160.222 185.955 152.906 177.121 152.906C168.288 152.906 161.127 160.222 161.127 169.248C161.127 178.273 168.288 185.589 177.121 185.589Z" fill="#52199F"/>
<path fill-rule="evenodd" clip-rule="evenodd" d="M188.422 164.924C188.57 163.921 189.485 163.231 190.466 163.382L190.574 163.398C191.556 163.549 192.231 164.485 192.083 165.487C191.936 166.49 191.02 167.18 190.039 167.029L189.931 167.013C188.95 166.862 188.274 165.926 188.422 164.924Z" fill="#52199F"/>
<path fill-rule="evenodd" clip-rule="evenodd" d="M163.382 175.695C162.547 175.148 162.303 174.013 162.838 173.159L163.099 172.743C163.635 171.889 164.746 171.64 165.582 172.187C166.417 172.734 166.661 173.87 166.125 174.723L165.864 175.14C165.329 175.993 164.218 176.242 163.382 175.695Z" fill="#52199F"/>
<path fill-rule="evenodd" clip-rule="evenodd" d="M167.267 180.47C166.275 180.503 165.445 179.708 165.413 178.694L165.409 178.596C165.377 177.582 166.155 176.734 167.147 176.701C168.139 176.668 168.969 177.463 169.001 178.476L169.004 178.575C169.037 179.588 168.259 180.437 167.267 180.47Z" fill="#52199F"/>
<path fill-rule="evenodd" clip-rule="evenodd" d="M171.698 183.961C170.722 184.142 169.787 183.479 169.611 182.481L169.559 182.187C169.382 181.189 170.031 180.234 171.008 180.054C171.984 179.874 172.919 180.537 173.095 181.534L173.147 181.828C173.324 182.826 172.675 183.781 171.698 183.961Z" fill="#52199F"/>
<path fill-rule="evenodd" clip-rule="evenodd" d="M177.57 185.39C176.641 185.749 175.604 185.271 175.253 184.323L175.049 183.77C174.697 182.822 175.165 181.762 176.093 181.403C177.022 181.044 178.059 181.522 178.41 182.471L178.615 183.024C178.966 183.972 178.498 185.032 177.57 185.39Z" fill="#52199F"/>
<path fill-rule="evenodd" clip-rule="evenodd" d="M182.707 180.239C183.687 180.402 184.352 181.345 184.193 182.345L184.17 182.493C184.011 183.494 183.088 184.173 182.108 184.011C181.129 183.848 180.463 182.905 180.622 181.905L180.646 181.757C180.805 180.756 181.728 180.077 182.707 180.239Z" fill="#52199F"/>
<path fill-rule="evenodd" clip-rule="evenodd" d="M174.173 153.553C175.112 153.881 175.614 154.924 175.294 155.884L175.075 156.539C174.754 157.499 173.733 158.012 172.794 157.684C171.855 157.357 171.353 156.314 171.673 155.354L171.892 154.698C172.213 153.739 173.234 153.226 174.173 153.553Z" fill="#52199F"/>
<path fill-rule="evenodd" clip-rule="evenodd" d="M167.377 156.23C168.21 155.677 169.323 155.918 169.863 156.769L170.373 157.57C170.914 158.42 170.677 159.557 169.845 160.11C169.013 160.662 167.9 160.421 167.359 159.571L166.85 158.769C166.309 157.919 166.545 156.782 167.377 156.23Z" fill="#52199F"/>
<path fill-rule="evenodd" clip-rule="evenodd" d="M163.479 163.243C163.262 162.253 163.872 161.272 164.841 161.051L164.888 161.04C165.856 160.819 166.817 161.442 167.033 162.432C167.249 163.422 166.639 164.403 165.671 164.624L165.624 164.634C164.655 164.855 163.695 164.232 163.479 163.243Z" fill="#52199F"/>
<path fill-rule="evenodd" clip-rule="evenodd" d="M188.039 158.475C189.003 158.716 189.593 159.71 189.357 160.695L189.225 161.246C188.989 162.231 188.016 162.834 187.052 162.593C186.088 162.352 185.498 161.358 185.734 160.373L185.866 159.822C186.102 158.837 187.075 158.234 188.039 158.475Z" fill="#52199F"/>
<path fill-rule="evenodd" clip-rule="evenodd" d="M183.775 155.237C184.762 155.347 185.474 156.254 185.366 157.262L185.347 157.437C185.24 158.445 184.352 159.173 183.366 159.063C182.379 158.952 181.667 158.046 181.775 157.038L181.794 156.862C181.902 155.854 182.789 155.127 183.775 155.237Z" fill="#52199F"/>
<path fill-rule="evenodd" clip-rule="evenodd" d="M178.917 153.673C179.909 153.704 180.689 154.551 180.658 155.564L180.655 155.665C180.625 156.678 179.796 157.475 178.804 157.443C177.812 157.412 177.033 156.565 177.063 155.552L177.066 155.451C177.097 154.438 177.926 153.642 178.917 153.673Z" fill="#52199F"/>
<path fill-rule="evenodd" clip-rule="evenodd" d="M189.206 169.089C189.781 168.263 190.903 168.07 191.712 168.657L191.761 168.693C192.57 169.281 192.76 170.427 192.184 171.253C191.609 172.08 190.487 172.273 189.679 171.686L189.629 171.65C188.82 171.062 188.631 169.916 189.206 169.089Z" fill="#52199F"/>
<path fill-rule="evenodd" clip-rule="evenodd" d="M163.259 169.896C162.384 169.418 162.054 168.305 162.522 167.411L162.527 167.401C162.995 166.507 164.084 166.169 164.959 166.647C165.834 167.126 166.164 168.238 165.696 169.132L165.691 169.142C165.223 170.037 164.134 170.374 163.259 169.896Z" fill="#52199F"/>
<path fill-rule="evenodd" clip-rule="evenodd" d="M187.998 174.027C188.627 173.242 189.759 173.127 190.526 173.77L190.933 174.111C191.701 174.753 191.813 175.91 191.184 176.694C190.555 177.479 189.423 177.593 188.655 176.951L188.249 176.61C187.481 175.968 187.369 174.811 187.998 174.027Z" fill="#52199F"/>
<path fill-rule="evenodd" clip-rule="evenodd" d="M185.133 178.238C185.606 177.346 186.696 177.015 187.569 177.497L187.949 177.708C188.821 178.19 189.146 179.305 188.673 180.196C188.201 181.088 187.11 181.419 186.238 180.937L185.858 180.726C184.985 180.244 184.661 179.129 185.133 178.238Z" fill="#52199F"/>
<path d="M185.466 169.247C185.466 173.956 181.73 177.774 177.121 177.774C172.513 177.774 168.777 173.956 168.777 169.247C168.777 164.538 172.513 160.721 177.121 160.721C181.73 160.721 185.466 164.538 185.466 169.247Z" fill="#ECF4FE"/>
<path fill-rule="evenodd" clip-rule="evenodd" d="M177.121 174.836C180.142 174.836 182.591 172.334 182.591 169.247C182.591 166.161 180.142 163.659 177.121 163.659C174.101 163.659 171.652 166.161 171.652 169.247C171.652 172.334 174.101 174.836 177.121 174.836ZM177.121 177.774C181.73 177.774 185.466 173.956 185.466 169.247C185.466 164.538 181.73 160.721 177.121 160.721C172.513 160.721 168.777 164.538 168.777 169.247C168.777 173.956 172.513 177.774 177.121 177.774Z" fill="#52199F"/>
<path fill-rule="evenodd" clip-rule="evenodd" d="M171.558 148.643V110.985H174.433V148.643H171.558Z" fill="#52199F"/>
<path fill-rule="evenodd" clip-rule="evenodd" d="M162.565 130.88C163.359 130.88 164.002 131.537 164.002 132.348V134.384C164.002 135.196 163.359 135.853 162.565 135.853C161.771 135.853 161.127 135.196 161.127 134.384V132.348C161.127 131.537 161.771 130.88 162.565 130.88Z" fill="#52199F"/>
<defs>
<linearGradient id="paint0_linear" x1="30.6834" y1="74.2823" x2="222.903" y2="103.966" gradientUnits="userSpaceOnUse">
<stop stop-color="#2CC3F2"/>
<stop offset="0.0364583" stop-color="#00D0FF"/>
<stop offset="1" stop-color="#00FFFF"/>
</linearGradient>
<linearGradient id="paint1_linear" x1="43.562" y1="94.9624" x2="29.7676" y2="94.9624" gradientUnits="userSpaceOnUse">
<stop stop-color="#FA00FF"/>
<stop offset="1" stop-color="#C241EF"/>
</linearGradient>
<linearGradient id="paint2_linear" x1="48.0468" y1="111.58" x2="32.9751" y2="111.58" gradientUnits="userSpaceOnUse">
<stop stop-color="#FA00FF"/>
<stop offset="1" stop-color="#C241EF"/>
</linearGradient>
<linearGradient id="paint3_linear" x1="46.2587" y1="122.803" x2="38.3397" y2="122.803" gradientUnits="userSpaceOnUse">
<stop stop-color="#FA00FF"/>
<stop offset="1" stop-color="#C241EF"/>
</linearGradient>
<linearGradient id="paint4_linear" x1="47.2804" y1="133.765" x2="43.7041" y2="133.765" gradientUnits="userSpaceOnUse">
<stop stop-color="#FA00FF"/>
<stop offset="1" stop-color="#C241EF"/>
</linearGradient>
<linearGradient id="paint5_linear" x1="42.1712" y1="133.765" x2="26.8441" y2="133.765" gradientUnits="userSpaceOnUse">
<stop stop-color="#FA00FF"/>
<stop offset="1" stop-color="#C241EF"/>
</linearGradient>
<linearGradient id="paint6_linear" x1="42.1712" y1="141.856" x2="15.0933" y2="141.856" gradientUnits="userSpaceOnUse">
<stop stop-color="#FA00FF"/>
<stop offset="1" stop-color="#C241EF"/>
</linearGradient>
<linearGradient id="paint7_linear" x1="48.6788" y1="117.127" x2="152.965" y2="117.127" gradientUnits="userSpaceOnUse">
<stop stop-color="#FA00FF"/>
<stop offset="1" stop-color="#C241EF"/>
</linearGradient>
<linearGradient id="paint8_linear" x1="154.958" y1="117.665" x2="200.33" y2="132.524" gradientUnits="userSpaceOnUse">
<stop stop-color="#2CC3F2"/>
<stop offset="0.644669" stop-color="#00D0FF"/>
<stop offset="1" stop-color="#00FFFF"/>
</linearGradient>
<linearGradient id="paint9_linear" x1="189.675" y1="112.09" x2="167.255" y2="99.3277" gradientUnits="userSpaceOnUse">
<stop stop-color="#2CC3F2"/>
<stop offset="0.0364583" stop-color="#00D0FF"/>
<stop offset="1" stop-color="#00FFFF"/>
</linearGradient>
<linearGradient id="paint10_linear" x1="162.17" y1="111.696" x2="161.925" y2="111.005" gradientUnits="userSpaceOnUse">
<stop stop-color="#01F1FF"/>
<stop offset="1" stop-color="#C2FFA6"/>
</linearGradient>
</defs>
</svg>
