<svg width="230" height="184" viewBox="0 0 230 184" fill="none" xmlns="http://www.w3.org/2000/svg">
<path d="M65.8368 8.46518C65.7494 8.24976 65.7728 8.01196 65.9121 7.82586C67.3601 5.89213 76.0749 -4.47897 87.6079 8.84155C87.8923 9.17006 88.4127 9.19692 88.7133 8.88307C92.8372 4.57632 95.8226 3.01903 100.054 3.01903C104.332 3.01903 106.7 3.97367 112.241 8.96588C112.549 9.24381 113.038 9.19473 113.306 8.87768C123.679 -3.38872 133.273 5.77967 135.112 7.76465C135.31 7.9788 135.342 8.2809 135.204 8.53831C134.003 10.7855 128.183 21.7743 123.073 33.2827C122.938 33.5867 123.036 33.9462 123.294 34.1567C129.168 38.9595 126.943 44.2137 125.945 45.9576C125.749 46.3005 125.809 46.7454 126.115 46.9952C129.771 49.9791 150.716 68.1865 160.939 101.489C172.153 138.019 159.602 157.066 159.578 157.102C159.555 157.137 143.56 181.592 100.054 181.592C56.9615 181.592 41.5261 157.6 41.2149 157.109C41.2051 157.094 41.2136 157.107 41.203 157.092C40.8655 156.624 28.5987 139.236 40.1896 101.829C50.9014 67.2593 71.1941 49.7875 74.7011 46.9663C74.9969 46.7284 75.0676 46.3092 74.8936 45.9719C73.9356 44.1146 71.5964 38.2143 77.7301 33.838C78.0358 33.6198 78.1427 33.1988 77.964 32.8684C69.5783 17.3579 66.4858 10.0642 65.8368 8.46518Z" fill="#1DB2DD"/>
<path d="M65.8368 8.46518C65.7494 8.24976 65.7728 8.01196 65.9121 7.82586C67.3601 5.89213 76.0749 -4.47897 87.6079 8.84155C87.8923 9.17006 88.4127 9.19692 88.7133 8.88307C92.8372 4.57632 95.8226 3.01903 100.054 3.01903C104.332 3.01903 106.7 3.97367 112.241 8.96588C112.549 9.24381 113.038 9.19473 113.306 8.87768C123.679 -3.38872 133.273 5.77967 135.112 7.76465C135.31 7.9788 135.342 8.2809 135.204 8.53831C134.003 10.7855 128.183 21.7743 123.073 33.2827C122.938 33.5867 123.036 33.9462 123.294 34.1567C129.168 38.9595 126.943 44.2137 125.945 45.9576C125.749 46.3005 125.809 46.7454 126.115 46.9952C129.771 49.9791 150.716 68.1865 160.939 101.489C172.153 138.019 159.602 157.066 159.578 157.102C159.555 157.137 143.56 181.592 100.054 181.592C56.9615 181.592 41.5261 157.6 41.2149 157.109C41.2051 157.094 41.2136 157.107 41.203 157.092C40.8655 156.624 28.5987 139.236 40.1896 101.829C50.9014 67.2593 71.1941 49.7875 74.7011 46.9663C74.9969 46.7284 75.0676 46.3092 74.8936 45.9719C73.9356 44.1146 71.5964 38.2143 77.7301 33.838C78.0358 33.6198 78.1427 33.1988 77.964 32.8684C69.5783 17.3579 66.4858 10.0642 65.8368 8.46518Z" fill="#1DB2DD"/>
<path d="M99.2147 170.185C149.845 170.185 159.54 142.225 159.54 142.225C159.54 142.225 165.088 140.886 155.893 108.282C146.698 75.6776 118.752 56.5785 118.752 56.5785H82.2758C82.2758 56.5785 55.0399 72.0466 45.4133 105.864C35.7867 139.682 42.0216 143.994 42.0216 143.994C42.0216 143.994 52.5658 168.824 99.2147 170.185Z" fill="url(#paint0_linear)"/>
<path d="M120.784 34.3766C125.763 23.0747 128.162 16.5756 128.658 15.2C128.723 15.0209 128.713 14.8311 128.612 14.6698C127.948 13.6117 124.937 9.86582 118.22 15.4863C115.035 18.1507 110.511 18.4089 106.939 16.2914C104.641 14.9292 102.759 14.5837 100.185 14.5837C98.1092 14.5837 96.3331 14.9586 94.5753 15.8491C90.6991 17.8128 85.9197 17.9216 82.5723 15.151C75.5297 9.32171 72.7765 13.2693 72.1185 14.5581C72.0047 14.7809 72.0422 15.0433 72.1792 15.2527C72.8445 16.2704 75.2634 20.2168 82.9698 34.425C83.0955 34.6568 83.3425 34.8096 83.6062 34.8096H120.125C120.41 34.8096 120.67 34.6372 120.784 34.3766Z" fill="url(#paint1_linear)"/>
<path d="M39.9807 138.892C39.9807 138.892 49.8447 167.803 100.865 168.143C151.886 168.484 161.75 137.531 161.75 137.531C163.791 146.034 155.628 166.783 126.376 175.626C97.1239 180.705 103.246 181.409 75.355 175.626C47.4637 169.844 38.28 148.415 39.9807 138.892Z" fill="#01F3FF"/>
<path d="M98.5751 178.348C129.242 178.348 140.503 155.03 140.503 155.03C140.503 155.03 149.368 136.894 141.462 102.079C133.555 67.2641 116.544 49.7756 116.544 49.7756H81.085C81.085 49.7756 64.685 66.2925 56.4073 102.403C48.1297 138.513 57.1261 155.03 57.1261 155.03C57.1261 155.03 67.9076 178.348 98.5751 178.348Z" fill="white" fill-opacity="0.3"/>
<path d="M135.9 113.041C135.9 132.578 120.062 148.416 100.525 148.416C80.9885 148.416 65.1509 132.578 65.1509 113.041C65.1509 93.5045 80.9885 77.6669 100.525 77.6669C120.062 77.6669 135.9 93.5045 135.9 113.041Z" fill="url(#paint2_linear)"/>
<path d="M79.4367 87.531C79.4367 89.2216 78.0661 90.5922 76.3755 90.5922C74.6848 90.5922 73.3142 89.2216 73.3142 87.531C73.3142 85.8403 74.6848 84.4697 76.3755 84.4697C78.0661 84.4697 79.4367 85.8403 79.4367 87.531Z" fill="#52199F"/>
<path d="M88.9605 80.7281C88.9605 82.4188 87.59 83.7894 85.8993 83.7894C84.2086 83.7894 82.8381 82.4188 82.8381 80.7281C82.8381 79.0374 84.2086 77.6669 85.8993 77.6669C87.59 77.6669 88.9605 79.0374 88.9605 80.7281Z" fill="#52199F"/>
<path d="M100.525 78.0072C100.525 79.6978 99.1547 81.0684 97.464 81.0684C95.7733 81.0684 94.4028 79.6978 94.4028 78.0072C94.4028 76.3165 95.7733 74.9459 97.464 74.9459C99.1547 74.9459 100.525 76.3165 100.525 78.0072Z" fill="#52199F"/>
<path d="M112.09 78.6875C112.09 80.3781 110.719 81.7487 109.029 81.7487C107.338 81.7487 105.967 80.3781 105.967 78.6875C105.967 76.9968 107.338 75.6262 109.029 75.6262C110.719 75.6262 112.09 76.9968 112.09 78.6875Z" fill="#52199F"/>
<path d="M122.974 83.4496C122.974 85.1402 121.604 86.5108 119.913 86.5108C118.222 86.5108 116.852 85.1402 116.852 83.4496C116.852 81.7589 118.222 80.3883 119.913 80.3883C121.604 80.3883 122.974 81.7589 122.974 83.4496Z" fill="#52199F"/>
<path d="M131.818 91.6128C131.818 93.3034 130.447 94.674 128.757 94.674C127.066 94.674 125.695 93.3034 125.695 91.6128C125.695 89.9221 127.066 88.5515 128.757 88.5515C130.447 88.5515 131.818 89.9221 131.818 91.6128Z" fill="#52199F"/>
<path d="M137.26 101.817C137.26 103.508 135.89 104.878 134.199 104.878C132.508 104.878 131.138 103.508 131.138 101.817C131.138 100.126 132.508 98.7556 134.199 98.7556C135.89 98.7556 137.26 100.126 137.26 101.817Z" fill="#52199F"/>
<path d="M139.301 113.382C139.301 115.072 137.93 116.443 136.24 116.443C134.549 116.443 133.179 115.072 133.179 113.382C133.179 111.691 134.549 110.32 136.24 110.32C137.93 110.32 139.301 111.691 139.301 113.382Z" fill="#52199F"/>
<path d="M137.26 124.946C137.26 126.637 135.89 128.007 134.199 128.007C132.508 128.007 131.138 126.637 131.138 124.946C131.138 123.255 132.508 121.885 134.199 121.885C135.89 121.885 137.26 123.255 137.26 124.946Z" fill="#52199F"/>
<path d="M131.818 135.15C131.818 136.841 130.447 138.212 128.757 138.212C127.066 138.212 125.695 136.841 125.695 135.15C125.695 133.46 127.066 132.089 128.757 132.089C130.447 132.089 131.818 133.46 131.818 135.15Z" fill="#52199F"/>
<path d="M122.974 143.314C122.974 145.004 121.604 146.375 119.913 146.375C118.222 146.375 116.852 145.004 116.852 143.314C116.852 141.623 118.222 140.252 119.913 140.252C121.604 140.252 122.974 141.623 122.974 143.314Z" fill="#52199F"/>
<path d="M112.09 148.075C112.09 149.766 110.719 151.137 109.029 151.137C107.338 151.137 105.967 149.766 105.967 148.075C105.967 146.385 107.338 145.014 109.029 145.014C110.719 145.014 112.09 146.385 112.09 148.075Z" fill="#52199F"/>
<path d="M112.09 148.075C112.09 149.766 110.719 151.137 109.029 151.137C107.338 151.137 105.967 149.766 105.967 148.075C105.967 146.385 107.338 145.014 109.029 145.014C110.719 145.014 112.09 146.385 112.09 148.075Z" fill="#52199F"/>
<path d="M100.525 149.436C100.525 151.127 99.1547 152.497 97.464 152.497C95.7733 152.497 94.4028 151.127 94.4028 149.436C94.4028 147.745 95.7733 146.375 97.464 146.375C99.1547 146.375 100.525 147.745 100.525 149.436Z" fill="#52199F"/>
<path d="M79.4367 139.912C79.4367 141.603 78.0661 142.973 76.3755 142.973C74.6848 142.973 73.3142 141.603 73.3142 139.912C73.3142 138.221 74.6848 136.851 76.3755 136.851C78.0661 136.851 79.4367 138.221 79.4367 139.912Z" fill="#52199F"/>
<path d="M71.9537 130.388C71.9537 132.079 70.5831 133.45 68.8924 133.45C67.2017 133.45 65.8312 132.079 65.8312 130.388C65.8312 128.698 67.2017 127.327 68.8924 127.327C70.5831 127.327 71.9537 128.698 71.9537 130.388Z" fill="#52199F"/>
<path d="M68.5523 119.504C68.5523 121.195 67.1817 122.565 65.491 122.565C63.8003 122.565 62.4298 121.195 62.4298 119.504C62.4298 117.813 63.8003 116.443 65.491 116.443C67.1817 116.443 68.5523 117.813 68.5523 119.504Z" fill="#52199F"/>
<path d="M68.5523 107.939C68.5523 109.63 67.1817 111 65.491 111C63.8003 111 62.4298 109.63 62.4298 107.939C62.4298 106.248 63.8003 104.878 65.491 104.878C67.1817 104.878 68.5523 106.248 68.5523 107.939Z" fill="#52199F"/>
<path d="M71.9536 96.3746C71.9536 98.0653 70.5831 99.4358 68.8924 99.4358C67.2017 99.4358 65.8311 98.0653 65.8311 96.3746C65.8311 94.6839 67.2017 93.3134 68.8924 93.3134C70.5831 93.3134 71.9536 94.6839 71.9536 96.3746Z" fill="#52199F"/>
<path d="M88.9605 146.035C88.9605 147.725 87.59 149.096 85.8993 149.096C84.2086 149.096 82.8381 147.725 82.8381 146.035C82.8381 144.344 84.2086 142.973 85.8993 142.973C87.59 142.973 88.9605 144.344 88.9605 146.035Z" fill="#52199F"/>
<path d="M80.7972 25.9659H120.934V34.8095H80.7972V25.9659Z" fill="url(#paint3_linear)"/>
<path d="M117.691 102.157C117.691 108.168 112.514 113.041 106.127 113.041C104.808 113.041 95.8502 113.041 94.4028 113.041C94.4053 115.762 94.4629 127.582 94.4028 133.449C92.3368 133.449 88.9606 133.449 88.9606 133.449C88.9606 133.449 89.1199 94.2326 89.1199 91.2725C94.222 91.2724 99.7398 91.2725 106.127 91.2725C112.514 91.2725 117.691 96.1456 117.691 102.157Z" fill="white"/>
<path d="M112.77 101.851C112.77 104.725 110.127 108.279 106.866 108.279C105.272 108.279 94.4029 108.279 94.4029 108.279C94.4029 108.279 94.4028 97.5028 94.4028 96.0342C97.6827 96.0342 103.606 96.0342 106.866 96.0342C110.127 96.0342 112.77 98.9764 112.77 101.851Z" fill="url(#paint4_linear)"/>
<path d="M86.2395 115.762H107.328V120.524H86.2395V115.762Z" fill="white"/>
<path d="M86.2395 108.279H93.7225V113.041H86.2395V108.279Z" fill="white"/>
<path d="M68.8924 8.61871L82.4979 34.4692L98.1443 35.8298C98.1443 35.8298 94.0626 20.1834 104.947 5.55747C99.1647 3.17651 88.2803 11.68 88.2803 11.68L77.0557 4.8772L68.8924 8.61871Z" fill="white" fill-opacity="0.3"/>
<path d="M98.8571 178.688C129.525 178.688 116.172 176.987 116.172 176.987C116.172 176.987 88.9915 158.06 81.085 123.246C73.1786 88.4307 95.4557 49.0955 95.4557 49.0955H81.085C81.085 49.0955 64.685 65.6123 56.4073 101.723C48.1297 137.833 57.1261 155.03 57.1261 155.03C57.1261 155.03 68.1897 178.688 98.8571 178.688Z" fill="white" fill-opacity="0.4"/>
<path fill-rule="evenodd" clip-rule="evenodd" d="M122.304 49.7757C122.304 49.7757 133.242 38.9391 121.928 32.7688H80.2652C67.3916 38.2895 78.3288 49.7757 78.3288 49.7757H122.304ZM80.7584 44.7444H119.979C120.619 43.8804 121.26 42.8433 121.655 41.8016C122.083 40.6738 122.079 39.9353 121.941 39.4761C121.86 39.2062 121.605 38.5824 120.51 37.8L81.3832 37.8C79.709 38.6694 79.2843 39.4344 79.1644 39.7176C79.0009 40.1034 78.9246 40.7432 79.267 41.827C79.5834 42.8287 80.1547 43.8587 80.7584 44.7444Z" fill="#52199F"/>
<path fill-rule="evenodd" clip-rule="evenodd" d="M129.74 9.29048C128.807 8.62822 127.654 7.98743 126.38 7.66068C125.192 7.35585 123.913 7.32595 122.504 7.81835C121.068 8.32032 119.184 9.47656 117.005 12.0528C115.153 14.2435 111.647 14.7594 109.245 12.5952C106.539 10.1575 104.979 9.05735 103.804 8.50017C102.817 8.03244 101.905 7.84935 100.185 7.84935C98.7134 7.84935 97.6636 8.10395 96.6235 8.64277C95.4833 9.23344 94.1177 10.2896 92.2188 12.2726C89.9069 14.6871 86.1896 14.3477 84.2071 12.058C81.6979 9.1599 79.63 7.88506 78.1293 7.35421C76.6909 6.84543 75.5072 6.92209 74.4831 7.23716C73.2229 7.62484 72.1211 8.40393 71.2834 9.15986C72.7868 12.5274 76.0387 19.3997 82.205 30.8049C83.5539 33.3 82.7128 36.2741 80.5747 37.7995C78.7346 39.1124 78.4768 40.303 78.4538 41.1368C78.4228 42.261 78.8612 43.3767 79.1769 43.9888C80.2768 46.1211 79.938 49.0136 77.7607 50.765C74.6953 53.2309 55.1291 69.982 44.7834 103.37C34.0978 137.856 44.6739 153.865 45.122 154.515C45.2102 154.637 45.2728 154.736 45.2946 154.77C45.6316 155.291 60.0155 177.078 100.185 177.078C121.074 177.078 134.825 171.545 143.375 166.079C151.339 160.988 154.986 155.845 155.829 154.655C155.892 154.567 155.939 154.501 155.971 154.458C155.958 154.475 156.147 154.218 156.466 153.66C156.775 153.119 157.189 152.327 157.646 151.276C158.559 149.177 159.639 146.048 160.381 141.844C161.859 133.461 162.015 120.646 156.604 103.018C146.758 70.9458 126.579 53.4558 123.292 50.7731C121.031 48.9275 120.814 45.9064 122.021 43.7962C122.306 43.2985 122.681 42.4168 122.657 41.4793C122.64 40.7845 122.412 39.5216 120.468 37.9321C118.699 36.4861 117.885 33.9088 118.934 31.5452C122.945 22.5124 127.378 13.8142 129.74 9.29048ZM45.2915 154.766C45.2918 154.766 45.2921 154.767 45.2925 154.767C45.2875 154.759 45.2872 154.759 45.2915 154.766ZM45.1365 154.536C45.1364 154.536 45.1327 154.531 45.1254 154.52C45.1329 154.531 45.1366 154.536 45.1365 154.536ZM66.0434 7.98431C65.904 8.17041 65.8806 8.40821 65.968 8.62363C66.617 10.2227 69.7095 17.5163 78.0953 33.0268C78.2739 33.3572 78.167 33.7783 77.8613 33.9964C71.7276 38.3727 74.0668 44.273 75.0248 46.1304C75.1988 46.4677 75.1281 46.8869 74.8324 47.1248C71.3253 49.9459 51.0326 67.4178 40.3209 101.988C28.7299 139.395 40.9967 156.782 41.3342 157.25L41.3367 157.254L41.3403 157.258C41.3409 157.259 41.3405 157.259 41.3461 157.268C41.6573 157.758 57.0928 181.75 100.185 181.75C142.277 181.75 157.663 160.132 159.561 157.466C159.626 157.374 159.675 157.305 159.709 157.26C160.73 155.899 172.294 138.212 161.07 101.647C150.847 68.3449 129.902 50.1375 126.246 47.1536C125.94 46.9039 125.88 46.4589 126.076 46.116C127.074 44.3721 129.3 39.118 123.425 34.3151C123.167 34.1046 123.069 33.7451 123.204 33.4411C128.314 21.9328 134.134 10.9439 135.336 8.69675C135.473 8.43934 135.442 8.13725 135.243 7.9231C133.405 5.93812 123.811 -3.23028 113.438 9.03613C113.17 9.35317 112.681 9.40225 112.372 9.12433C106.831 4.13211 104.464 3.17747 100.185 3.17747C95.9538 3.17747 92.9684 4.73477 88.8445 9.04152C88.544 9.35537 88.0235 9.3285 87.7391 8.99999C76.2061 -4.32052 67.4914 6.05058 66.0434 7.98431Z" fill="#52199F"/>
<path d="M78.7564 41.272C78.7564 38.8299 80.7361 36.8502 83.1782 36.8502H117.872C120.314 36.8502 122.294 38.8299 122.294 41.272C122.294 43.7141 120.314 45.6938 117.872 45.6938H83.1782C80.7361 45.6938 78.7564 43.7141 78.7564 41.272Z" fill="#6D30BF"/>
<path d="M88.2803 36.8502H95.083L88.9605 45.6938H82.1578L88.2803 36.8502Z" fill="#AF73FF"/>
<path d="M99.1647 36.8502H105.967L99.845 45.6938H93.0422L99.1647 36.8502Z" fill="#AF73FF"/>
<path d="M111.41 36.8502H118.212L112.09 45.6938H105.287L111.41 36.8502Z" fill="#AF73FF"/>
<path d="M159.562 91.9679C159.562 91.7553 159.655 91.5555 159.826 91.4296C161.109 90.4859 167.09 86.5611 178.224 86.2618C189.484 85.9591 194.947 90.4413 196.02 91.4383C196.153 91.5622 196.219 91.7339 196.219 91.9159V164.918C196.219 165.121 196.134 165.313 195.974 165.439C194.769 166.385 189.08 170.344 178.224 170.344C167.375 170.344 161.17 166.391 159.836 165.441C159.659 165.315 159.562 165.111 159.562 164.894V91.9679Z" fill="white"/>
<path fill-rule="evenodd" clip-rule="evenodd" d="M200.531 91.916V164.918C200.531 166.312 199.939 167.809 198.638 168.831C196.816 170.261 190.213 174.656 178.224 174.656C166.272 174.656 159.211 170.289 157.335 168.954C155.927 167.952 155.25 166.387 155.25 164.894V91.9679C155.25 90.5063 155.9 88.9646 157.27 87.9561C159.128 86.5889 165.943 82.278 178.108 81.9509C190.691 81.6127 197.21 86.657 198.956 88.2798C200.073 89.3182 200.531 90.6884 200.531 91.916ZM159.826 91.4296C159.655 91.5556 159.562 91.7554 159.562 91.9679V164.894C159.562 165.111 159.659 165.315 159.836 165.441C161.17 166.391 167.375 170.344 178.224 170.344C189.08 170.344 194.769 166.385 195.974 165.439C196.134 165.313 196.219 165.121 196.219 164.918V91.916C196.219 91.7339 196.153 91.5623 196.02 91.4383C194.947 90.4414 189.484 85.9592 178.224 86.2619C167.09 86.5612 161.109 90.4859 159.826 91.4296Z" fill="#52199F"/>
<path d="M178.25 126.141L199.094 121.469V130.812L178.25 136.203V126.141Z" fill="#DFE8F3"/>
<path d="M178.25 149.859L199.094 145.906V155.25L178.25 160.641V149.859Z" fill="#DFE8F3"/>
<path d="M178.25 114.641L157.406 109.969V119.312L178.25 124.703V114.641Z" fill="#DFE8F3"/>
<path d="M178.25 138L157.406 134.047V143.391L178.25 148.781V138Z" fill="#DFE8F3"/>
<path d="M178.25 163.156L157.406 157.766V167.109L178.25 172.5V163.156Z" fill="#DFE8F3"/>
<path d="M178.25 103.5L199.094 98.1094V107.453L178.25 112.844V103.5Z" fill="#DFE8F3"/>
<path fill-rule="evenodd" clip-rule="evenodd" d="M195.175 99.4909C191.709 101.431 186.235 103.301 177.939 103.487C169.595 103.675 164.071 101.799 160.566 99.7368C158.822 98.7106 157.605 97.6539 156.806 96.8211C156.406 96.4053 156.112 96.0464 155.909 95.7764C155.807 95.6415 155.728 95.5287 155.67 95.442C155.641 95.3987 155.617 95.3619 155.598 95.3322C155.589 95.3173 155.581 95.3042 155.574 95.2929L155.564 95.2773L155.56 95.2705L155.558 95.2674C155.557 95.2659 155.557 95.2644 157.406 94.1563C159.256 93.0481 159.255 93.0467 159.254 93.0454L159.253 93.0428L159.25 93.038L159.245 93.0306L159.241 93.0236C159.24 93.0223 159.244 93.0278 159.251 93.0396C159.267 93.0631 159.301 93.1118 159.354 93.1822C159.46 93.3228 159.643 93.5497 159.916 93.8345C160.462 94.4031 161.372 95.2075 162.753 96.0199C165.497 97.6349 170.216 99.347 177.842 99.1757C185.517 99.0033 190.286 97.2855 193.069 95.7277C194.465 94.946 195.382 94.1935 195.928 93.6701C196.202 93.4079 196.384 93.2017 196.488 93.0763C196.54 93.0135 196.572 92.9709 196.586 92.9514C196.592 92.9435 196.595 92.9395 196.595 92.9395L196.595 92.9401L196.589 92.9482L196.584 92.9558L196.581 92.9605L196.579 92.9631C196.578 92.9644 196.577 92.9658 198.375 94.1563C200.173 95.3467 200.172 95.3482 200.171 95.3496L200.169 95.3527L200.165 95.3593L200.154 95.3743C200.147 95.3851 200.138 95.3976 200.129 95.4116C200.109 95.4397 200.084 95.4741 200.055 95.5144C199.995 95.595 199.915 95.6991 199.812 95.8235C199.606 96.0722 199.311 96.4014 198.912 96.7838C198.113 97.5496 196.903 98.5236 195.175 99.4909Z" fill="#52199F"/>
<path fill-rule="evenodd" clip-rule="evenodd" d="M195.089 111.395C191.641 113.127 186.199 114.8 177.939 114.986C169.633 115.172 164.139 113.494 160.648 111.642C158.909 110.718 157.69 109.763 156.883 109.004C156.481 108.625 156.182 108.297 155.975 108.047C155.871 107.922 155.789 107.818 155.729 107.736C155.699 107.695 155.674 107.661 155.654 107.632C155.644 107.618 155.635 107.605 155.628 107.594L155.617 107.579L155.613 107.572L155.611 107.569C155.61 107.567 155.609 107.566 157.406 106.375C159.204 105.184 159.203 105.183 159.202 105.181L159.2 105.179L159.197 105.174L159.192 105.166L159.185 105.157C159.184 105.154 159.186 105.158 159.193 105.167C159.206 105.185 159.237 105.226 159.288 105.287C159.39 105.409 159.569 105.61 159.839 105.864C160.378 106.371 161.285 107.097 162.67 107.832C165.429 109.297 170.177 110.847 177.842 110.674C185.554 110.501 190.353 108.948 193.154 107.541C194.558 106.836 195.475 106.161 196.016 105.697C196.287 105.464 196.466 105.283 196.566 105.175C196.616 105.121 196.646 105.085 196.658 105.07C196.664 105.063 196.666 105.061 196.663 105.064L196.656 105.074L196.65 105.082L196.646 105.087L196.644 105.089C196.643 105.091 196.642 105.092 198.375 106.375C200.108 107.658 200.107 107.659 200.106 107.661L200.104 107.664L200.099 107.67L200.088 107.685C200.08 107.695 200.071 107.707 200.06 107.721C200.039 107.747 200.014 107.779 199.983 107.817C199.921 107.892 199.839 107.987 199.734 108.101C199.524 108.328 199.226 108.625 198.824 108.97C198.02 109.659 196.811 110.531 195.089 111.395Z" fill="#52199F"/>
<path fill-rule="evenodd" clip-rule="evenodd" d="M195.089 122.895C191.641 124.627 186.199 126.3 177.939 126.486C169.633 126.672 164.139 124.994 160.648 123.142C158.909 122.218 157.69 121.263 156.883 120.504C156.481 120.125 156.182 119.797 155.975 119.547C155.871 119.422 155.789 119.318 155.729 119.236C155.699 119.195 155.674 119.161 155.654 119.132C155.644 119.118 155.635 119.105 155.628 119.094L155.617 119.079L155.613 119.072L155.611 119.069C155.61 119.067 155.609 119.066 157.406 117.875C159.204 116.684 159.203 116.683 159.202 116.681L159.2 116.679L159.197 116.674L159.192 116.666L159.185 116.657C159.184 116.654 159.186 116.658 159.193 116.667C159.206 116.685 159.237 116.726 159.288 116.787C159.39 116.909 159.569 117.11 159.839 117.364C160.378 117.871 161.285 118.597 162.67 119.332C165.429 120.797 170.177 122.347 177.842 122.174C185.554 122.001 190.353 120.448 193.154 119.041C194.558 118.336 195.475 117.661 196.016 117.197C196.287 116.964 196.466 116.783 196.566 116.675C196.616 116.621 196.646 116.585 196.658 116.57C196.664 116.563 196.666 116.561 196.663 116.564L196.656 116.574L196.65 116.582L196.646 116.587L196.644 116.589C196.643 116.591 196.642 116.592 198.375 117.875C200.108 119.158 200.107 119.159 200.106 119.161L200.104 119.164L200.099 119.17L200.088 119.185C200.08 119.195 200.071 119.207 200.06 119.221C200.039 119.247 200.014 119.279 199.983 119.317C199.921 119.392 199.839 119.487 199.734 119.601C199.524 119.828 199.226 120.125 198.824 120.47C198.02 121.159 196.811 122.031 195.089 122.895Z" fill="#52199F"/>
<path fill-rule="evenodd" clip-rule="evenodd" d="M195.089 135.114C191.641 136.845 186.199 138.519 177.939 138.705C169.633 138.891 164.139 137.213 160.648 135.36C158.909 134.437 157.69 133.482 156.883 132.723C156.481 132.344 156.182 132.015 155.975 131.766C155.871 131.641 155.789 131.536 155.729 131.455C155.699 131.414 155.674 131.379 155.654 131.351C155.644 131.337 155.635 131.324 155.628 131.313L155.617 131.297L155.613 131.291L155.611 131.288C155.61 131.286 155.609 131.285 157.406 130.094C159.204 128.903 159.203 128.902 159.202 128.9L159.2 128.897L159.197 128.893L159.192 128.885L159.185 128.876C159.184 128.873 159.186 128.876 159.193 128.886C159.206 128.904 159.237 128.945 159.288 129.006C159.39 129.128 159.569 129.328 159.839 129.583C160.378 130.09 161.285 130.816 162.67 131.551C165.429 133.016 170.177 134.565 177.842 134.393C185.554 134.22 190.353 132.666 193.154 131.26C194.558 130.555 195.475 129.88 196.016 129.415C196.287 129.183 196.466 129.001 196.566 128.893C196.616 128.839 196.646 128.804 196.658 128.789C196.664 128.782 196.666 128.78 196.663 128.783L196.656 128.793L196.65 128.801L196.646 128.805L196.644 128.808C196.643 128.809 196.642 128.811 198.375 130.094C200.108 131.377 200.107 131.378 200.106 131.38L200.104 131.383L200.099 131.389L200.088 131.404C200.08 131.414 200.071 131.426 200.06 131.439C200.039 131.466 200.014 131.498 199.983 131.536C199.921 131.61 199.839 131.706 199.734 131.819C199.524 132.046 199.226 132.344 198.824 132.688C198.02 133.378 196.811 134.25 195.089 135.114Z" fill="#52199F"/>
<path fill-rule="evenodd" clip-rule="evenodd" d="M195.089 147.333C191.641 149.064 186.199 150.738 177.939 150.923C169.633 151.11 164.139 149.432 160.648 147.579C158.909 146.656 157.69 145.701 156.883 144.942C156.481 144.563 156.182 144.234 155.975 143.985C155.871 143.86 155.789 143.755 155.729 143.674C155.699 143.633 155.674 143.598 155.654 143.57C155.644 143.555 155.635 143.543 155.628 143.532L155.617 143.516L155.613 143.509L155.611 143.506C155.61 143.505 155.609 143.503 157.406 142.313C159.204 141.122 159.203 141.12 159.202 141.119L159.2 141.116L159.197 141.111L159.192 141.103L159.185 141.095C159.184 141.092 159.186 141.095 159.193 141.104C159.206 141.122 159.237 141.164 159.288 141.225C159.39 141.346 159.569 141.547 159.839 141.801C160.378 142.309 161.285 143.035 162.67 143.77C165.429 145.234 170.177 146.784 177.842 146.612C185.554 146.439 190.353 144.885 193.154 143.479C194.558 142.774 195.475 142.099 196.016 141.634C196.287 141.401 196.466 141.22 196.566 141.112C196.616 141.058 196.646 141.023 196.658 141.008C196.664 141 196.666 140.998 196.663 141.002L196.656 141.011L196.65 141.019L196.646 141.024L196.644 141.027C196.643 141.028 196.642 141.03 198.375 142.313C200.108 143.596 200.107 143.597 200.106 143.598L200.104 143.601L200.099 143.608L200.088 143.623C200.08 143.633 200.071 143.645 200.06 143.658C200.039 143.685 200.014 143.717 199.983 143.754C199.921 143.829 199.839 143.925 199.734 144.038C199.524 144.265 199.226 144.563 198.824 144.907C198.02 145.597 196.811 146.468 195.089 147.333Z" fill="#52199F"/>
<path fill-rule="evenodd" clip-rule="evenodd" d="M195.089 159.551C191.641 161.283 186.199 162.957 177.939 163.142C169.633 163.329 164.139 161.651 160.648 159.798C158.909 158.874 157.69 157.92 156.883 157.16C156.481 156.781 156.182 156.453 155.975 156.203C155.871 156.079 155.789 155.974 155.729 155.892C155.699 155.852 155.674 155.817 155.654 155.788C155.644 155.774 155.635 155.761 155.628 155.75L155.617 155.735L155.613 155.728L155.611 155.725C155.61 155.724 155.609 155.722 157.406 154.531C159.204 153.34 159.203 153.339 159.202 153.338L159.2 153.335L159.197 153.33L159.192 153.322L159.185 153.313C159.184 153.311 159.186 153.314 159.193 153.323C159.206 153.341 159.237 153.382 159.288 153.443C159.39 153.565 159.569 153.766 159.839 154.02C160.378 154.527 161.285 155.254 162.67 155.989C165.429 157.453 170.177 159.003 177.842 158.831C185.554 158.657 190.353 157.104 193.154 155.697C194.558 154.993 195.475 154.317 196.016 153.853C196.287 153.62 196.466 153.439 196.566 153.331C196.616 153.277 196.646 153.241 196.658 153.227C196.664 153.219 196.666 153.217 196.663 153.221L196.656 153.23L196.65 153.238L196.646 153.243L196.644 153.246C196.643 153.247 196.642 153.248 198.375 154.531C200.108 155.814 200.107 155.816 200.106 155.817L200.104 155.82L200.099 155.827L200.088 155.841C200.08 155.852 200.071 155.864 200.06 155.877C200.039 155.903 200.014 155.936 199.983 155.973C199.921 156.048 199.839 156.143 199.734 156.257C199.524 156.484 199.226 156.782 198.824 157.126C198.02 157.816 196.811 158.687 195.089 159.551Z" fill="#52199F"/>
<path fill-rule="evenodd" clip-rule="evenodd" d="M200.531 91.916V164.918C200.531 166.312 199.939 167.809 198.638 168.831C196.816 170.261 190.213 174.656 178.224 174.656C166.272 174.656 159.211 170.289 157.335 168.954C155.927 167.952 155.25 166.387 155.25 164.894V91.9679C155.25 90.5063 155.9 88.9646 157.27 87.9561C159.128 86.5889 165.943 82.278 178.108 81.9509C190.691 81.6127 197.21 86.657 198.956 88.2798C200.073 89.3182 200.531 90.6884 200.531 91.916ZM159.826 91.4296C159.655 91.5556 159.562 91.7554 159.562 91.9679V164.894C159.562 165.111 159.659 165.315 159.836 165.441C161.17 166.391 167.375 170.344 178.224 170.344C189.08 170.344 194.769 166.385 195.974 165.439C196.134 165.313 196.219 165.121 196.219 164.918V91.916C196.219 91.7339 196.153 91.5623 196.02 91.4383C194.947 90.4414 189.484 85.9592 178.224 86.2619C167.09 86.5612 161.109 90.4859 159.826 91.4296Z" fill="#52199F"/>
<path d="M117.875 133.658C117.875 133.446 117.967 133.246 118.139 133.12C119.421 132.176 125.403 128.251 136.536 127.952C147.796 127.649 153.26 132.132 154.332 133.129C154.466 133.253 154.531 133.424 154.531 133.606V170.671C154.531 170.874 154.447 171.066 154.287 171.192C153.082 172.138 147.392 176.097 136.536 176.097C125.688 176.097 119.483 172.143 118.149 171.194C117.971 171.068 117.875 170.864 117.875 170.647V133.658Z" fill="white"/>
<path d="M136.562 169.269L157.406 163.878V173.222L136.562 178.612V169.269Z" fill="#DFE8F3"/>
<path d="M136.562 157.769L115.719 152.378V161.722L136.562 167.112V157.769Z" fill="#DFE8F3"/>
<path d="M136.562 145.909L157.406 140.519V149.862L136.562 155.253V145.909Z" fill="#DFE8F3"/>
<path fill-rule="evenodd" clip-rule="evenodd" d="M154.118 141.905C150.599 143.84 145.041 145.707 136.61 145.893C128.133 146.081 122.524 144.208 118.967 142.151C117.196 141.127 115.96 140.073 115.148 139.241C114.742 138.826 114.443 138.467 114.236 138.197C114.133 138.062 114.053 137.949 113.993 137.863C113.964 137.819 113.94 137.783 113.92 137.753C113.911 137.738 113.902 137.725 113.895 137.713L113.886 137.698L113.881 137.691L113.879 137.688C113.879 137.686 113.878 137.685 115.719 136.563C117.56 135.44 117.559 135.439 117.558 135.437L117.557 135.435L117.554 135.43L117.549 135.423L117.545 135.416C117.544 135.414 117.547 135.42 117.555 135.431C117.571 135.455 117.605 135.504 117.659 135.574C117.767 135.715 117.954 135.942 118.233 136.227C118.789 136.797 119.717 137.603 121.126 138.418C123.928 140.038 128.741 141.754 136.515 141.582C144.335 141.409 149.199 139.689 152.039 138.126C153.464 137.343 154.399 136.588 154.956 136.064C155.235 135.801 155.421 135.594 155.527 135.468C155.58 135.406 155.613 135.363 155.627 135.343C155.633 135.335 155.636 135.331 155.636 135.331L155.636 135.332L155.63 135.34L155.625 135.348L155.622 135.352L155.62 135.355C155.619 135.356 155.618 135.358 157.406 136.563C159.194 137.767 159.193 137.769 159.193 137.77L159.19 137.773L159.186 137.78L159.176 137.795C159.168 137.806 159.159 137.818 159.149 137.832C159.129 137.86 159.104 137.895 159.074 137.935C159.014 138.016 158.932 138.12 158.827 138.244C158.619 138.492 158.318 138.821 157.913 139.203C157.101 139.968 155.872 140.94 154.118 141.905Z" fill="#52199F"/>
<path fill-rule="evenodd" clip-rule="evenodd" d="M154.033 153.808C150.532 155.535 145.004 157.207 136.61 157.392C128.17 157.578 122.592 155.903 119.049 154.055C117.283 153.134 116.045 152.181 115.226 151.423C114.817 151.045 114.514 150.717 114.303 150.468C114.197 150.343 114.115 150.238 114.053 150.157C114.023 150.116 113.997 150.081 113.977 150.053C113.967 150.039 113.958 150.026 113.95 150.015L113.939 149.999L113.935 149.993L113.933 149.99C113.932 149.988 113.931 149.987 115.719 148.781C117.507 147.576 117.506 147.575 117.505 147.573L117.503 147.571L117.5 147.566L117.494 147.558L117.488 147.549C117.486 147.546 117.488 147.55 117.495 147.559C117.509 147.577 117.541 147.618 117.593 147.679C117.696 147.801 117.879 148.003 118.154 148.258C118.704 148.766 119.63 149.494 121.044 150.232C123.86 151.701 128.704 153.253 136.515 153.081C144.372 152.907 149.266 151.351 152.124 149.941C153.556 149.234 154.492 148.557 155.045 148.091C155.322 147.858 155.504 147.676 155.606 147.567C155.657 147.513 155.688 147.477 155.7 147.463C155.706 147.455 155.708 147.453 155.705 147.456L155.698 147.466L155.692 147.474L155.688 147.479L155.686 147.481C155.685 147.483 155.684 147.484 157.406 148.781C159.128 150.079 159.127 150.08 159.126 150.082L159.124 150.085L159.119 150.091L159.108 150.106C159.1 150.116 159.091 150.128 159.08 150.141C159.059 150.168 159.033 150.2 159.001 150.237C158.939 150.312 158.855 150.407 158.748 150.521C158.536 150.747 158.232 151.044 157.825 151.388C157.008 152.076 155.78 152.946 154.033 153.808Z" fill="#52199F"/>
<path fill-rule="evenodd" clip-rule="evenodd" d="M154.033 165.308C150.532 167.035 145.004 168.707 136.61 168.892C128.17 169.078 122.592 167.403 119.049 165.555C117.283 164.634 116.045 163.681 115.226 162.923C114.817 162.545 114.514 162.217 114.303 161.968C114.197 161.843 114.115 161.738 114.053 161.657C114.023 161.616 113.997 161.581 113.977 161.553C113.967 161.539 113.958 161.526 113.95 161.515L113.939 161.499L113.935 161.493L113.933 161.49C113.932 161.488 113.931 161.487 115.719 160.281C117.507 159.076 117.506 159.075 117.505 159.073L117.503 159.071L117.5 159.066L117.494 159.058L117.488 159.049C117.486 159.046 117.488 159.05 117.495 159.059C117.509 159.077 117.541 159.118 117.593 159.179C117.696 159.301 117.879 159.503 118.154 159.758C118.704 160.266 119.63 160.994 121.044 161.732C123.86 163.201 128.704 164.753 136.515 164.581C144.372 164.407 149.266 162.851 152.124 161.441C153.556 160.734 154.492 160.057 155.045 159.591C155.322 159.358 155.504 159.176 155.606 159.067C155.657 159.013 155.688 158.977 155.7 158.963C155.706 158.955 155.708 158.953 155.705 158.956L155.698 158.966L155.692 158.974L155.688 158.979L155.686 158.981C155.685 158.983 155.684 158.984 157.406 160.281C159.128 161.579 159.127 161.58 159.126 161.582L159.124 161.585L159.119 161.591L159.108 161.606C159.1 161.616 159.091 161.628 159.08 161.641C159.059 161.668 159.033 161.7 159.001 161.737C158.939 161.812 158.855 161.907 158.748 162.021C158.536 162.247 158.232 162.544 157.825 162.888C157.008 163.576 155.78 164.446 154.033 165.308Z" fill="#52199F"/>
<path fill-rule="evenodd" clip-rule="evenodd" d="M158.844 134.247V170.741C158.844 172.152 158.237 173.66 156.919 174.679C155.085 176.095 148.492 180.406 136.536 180.406C124.615 180.406 117.565 176.121 115.679 174.8C114.255 173.802 113.562 172.226 113.562 170.717V134.3C113.562 132.821 114.227 131.269 115.614 130.264C117.483 128.912 124.288 124.681 136.422 124.36C148.968 124.028 155.478 128.974 157.238 130.583C158.375 131.623 158.844 133.006 158.844 134.247ZM118.143 133.758C117.97 133.883 117.875 134.085 117.875 134.3V170.717C117.875 170.936 117.974 171.142 118.153 171.268C119.497 172.209 125.7 176.094 136.536 176.094C147.379 176.094 153.068 172.204 154.282 171.266C154.445 171.14 154.531 170.947 154.531 170.741V134.247C154.531 134.064 154.464 133.89 154.328 133.766C153.247 132.777 147.783 128.373 136.536 128.671C125.416 128.965 119.435 132.822 118.143 133.758Z" fill="#52199F"/>
<defs>
<linearGradient id="paint0_linear" x1="42.1066" y1="106.897" x2="171.76" y2="126.526" gradientUnits="userSpaceOnUse">
<stop stop-color="#2CC3F2"/>
<stop offset="0.197917" stop-color="#00D0FF"/>
<stop offset="1" stop-color="#00FFFF"/>
</linearGradient>
<linearGradient id="paint1_linear" x1="73.0193" y1="22.1322" x2="128.143" y2="41.6109" gradientUnits="userSpaceOnUse">
<stop stop-color="#2CC3F2"/>
<stop offset="0.197917" stop-color="#00D0FF"/>
<stop offset="1" stop-color="#00FFFF"/>
</linearGradient>
<linearGradient id="paint2_linear" x1="65.1509" y1="113.041" x2="135.9" y2="113.041" gradientUnits="userSpaceOnUse">
<stop stop-color="#FA00FF"/>
<stop offset="1" stop-color="#C241EF"/>
</linearGradient>
<linearGradient id="paint3_linear" x1="81.4832" y1="29.8829" x2="112.53" y2="49.885" gradientUnits="userSpaceOnUse">
<stop stop-color="#2CC3F2"/>
<stop offset="0.197917" stop-color="#00D0FF"/>
<stop offset="1" stop-color="#00FFFF"/>
</linearGradient>
<linearGradient id="paint4_linear" x1="94.4028" y1="102.157" x2="112.77" y2="102.157" gradientUnits="userSpaceOnUse">
<stop stop-color="#FA00FF"/>
<stop offset="1" stop-color="#C241EF"/>
</linearGradient>
</defs>
</svg>
