<svg width="230" height="188" viewBox="0 0 230 188" fill="none" xmlns="http://www.w3.org/2000/svg">
<g clip-path="url(#clip0)">
<rect width="230" height="188" fill="white"/>
<path d="M148.781 30.7769C156.527 55.8145 129.783 115.642 104.753 123.726C79.7229 131.81 53.1527 118.067 45.4068 93.0288C37.6608 67.9911 51.6724 41.1408 76.7024 33.0568C101.733 24.9729 100.869 45.1087 148.781 30.7769Z" fill="url(#paint0_linear)"/>
<path d="M223.384 87.111C223.384 87.111 225.591 137.138 177.054 141.486C177.054 141.486 124.313 97.9335 116.567 72.8958C127.31 0.21323 223.384 26.0153 223.384 87.111Z" fill="url(#paint1_linear)"/>
<path d="M160.216 105.814C167.962 130.851 153.95 157.702 128.92 165.786C103.89 173.87 77.3197 160.126 69.5738 135.088C61.8278 110.05 75.8394 83.2 100.869 75.1161C125.9 67.0322 152.47 80.7759 160.216 105.814Z" fill="url(#paint2_linear)"/>
<path d="M127.586 108.516C172.529 253.787 79.5875 -46.6339 127.586 108.516V108.516Z" fill="url(#paint3_linear)"/>
<path d="M164.399 12.8885C159.017 14.5628 158.128 15.2006 156.801 21.0979C155.117 15.2759 154.192 14.3757 148.781 13.279C152.929 11.9447 155.339 10.961 156.434 5.08525C157.724 10.9014 158.943 11.4865 164.399 12.8885Z" fill="#AF73FF"/>
<path fill-rule="evenodd" clip-rule="evenodd" d="M165.118 12.8705C165.126 13.2002 164.917 13.495 164.609 13.591C161.878 14.4405 160.502 14.9755 159.593 15.9236C158.692 16.8627 158.169 18.2957 157.501 21.2625C157.428 21.5878 157.149 21.8217 156.823 21.8319C156.496 21.8422 156.204 21.6261 156.112 21.306C155.263 18.3718 154.652 16.8831 153.693 15.9478C152.744 15.0232 151.361 14.5507 148.642 13.9993C148.32 13.934 148.082 13.654 148.064 13.3191C148.046 12.9841 148.252 12.6793 148.566 12.5785C150.66 11.9047 152.149 11.3633 153.274 10.3373C154.37 9.33787 155.197 7.79886 155.728 4.94791C155.792 4.60622 156.081 4.35703 156.422 4.351C156.762 4.34497 157.06 4.58374 157.135 4.92297C157.779 7.82717 158.37 9.21518 159.333 10.0947C160.324 10.9994 161.8 11.4634 164.574 12.1763C164.888 12.2568 165.11 12.5407 165.118 12.8705ZM163.096 13.3052C163.499 13.1713 163.932 13.0338 164.399 12.8885C163.928 12.7673 163.488 12.6523 163.077 12.5394C159.204 11.476 157.894 10.6077 156.821 6.6697C156.69 6.18923 156.562 5.66306 156.434 5.08526C156.327 5.65887 156.208 6.18586 156.075 6.67111C155.008 10.5827 153.101 11.7816 150.149 12.8229C149.716 12.9756 149.26 13.125 148.781 13.279C149.288 13.3816 149.755 13.4826 150.187 13.586C153.98 14.4937 155.077 15.5923 156.386 19.7209C156.521 20.1466 156.658 20.6046 156.801 21.0979C156.914 20.5944 157.024 20.1293 157.134 19.6986C158.201 15.5221 159.255 14.5815 163.096 13.3052Z" fill="#AF73FF"/>
<path d="M69.0209 179.191C66.0298 180.017 65.5334 180.353 64.7553 183.59C63.8666 180.338 63.361 179.823 60.3751 179.115C62.6801 178.454 64.0213 177.955 64.6706 174.726C65.3414 177.967 66.0117 178.314 69.0209 179.191Z" fill="#AF73FF"/>
<path fill-rule="evenodd" clip-rule="evenodd" d="M69.7396 179.197C69.7373 179.527 69.52 179.814 69.2083 179.9C67.6711 180.325 66.9969 180.578 66.5595 181.013C66.1311 181.438 65.847 182.127 65.4533 183.765C65.3754 184.089 65.0933 184.319 64.7666 184.324C64.4399 184.33 64.1509 184.109 64.063 183.788C63.6127 182.14 63.302 181.386 62.8435 180.918C62.3955 180.46 61.7189 180.187 60.2126 179.83C59.8928 179.754 59.664 179.467 59.6566 179.131C59.6491 178.796 59.865 178.498 60.1811 178.408C61.3556 178.071 62.1122 177.815 62.6786 177.324C63.2142 176.859 63.6593 176.106 63.9665 174.578C64.0351 174.237 64.3281 173.992 64.6685 173.991C65.0089 173.99 65.3034 174.234 65.3738 174.574C65.7081 176.189 66.0108 176.878 66.4606 177.309C66.9369 177.766 67.6691 178.033 69.2182 178.485C69.5287 178.576 69.7419 178.867 69.7396 179.197ZM67.7462 179.57C68.113 179.447 68.5339 179.326 69.0209 179.191C68.5405 179.051 68.1197 178.925 67.749 178.798C66.2025 178.268 65.5278 177.731 65.0338 176.175C64.9045 175.768 64.7875 175.291 64.6706 174.726C64.5596 175.278 64.4284 175.75 64.2756 176.157C63.7193 177.639 62.877 178.254 61.6832 178.7C61.2868 178.849 60.8515 178.978 60.3751 179.115C60.8834 179.235 61.3197 179.35 61.6984 179.474C63.1995 179.965 63.7931 180.595 64.3591 182.264C64.4891 182.648 64.6176 183.086 64.7553 183.59C64.8787 183.077 64.9949 182.637 65.1152 182.256C65.63 180.625 66.2177 180.083 67.7462 179.57Z" fill="#AF73FF"/>
<path d="M127.076 179.494C122.898 180.647 122.205 181.116 121.118 185.638C119.877 181.096 119.171 180.376 115 179.387C118.219 178.465 120.093 177.768 121 173.257C121.937 177.784 122.873 178.268 127.076 179.494Z" fill="#AF73FF"/>
<path fill-rule="evenodd" clip-rule="evenodd" d="M127.795 179.499C127.792 179.829 127.575 180.117 127.263 180.203C125.133 180.791 124.113 181.159 123.439 181.829C122.775 182.489 122.364 183.532 121.816 185.813C121.738 186.137 121.456 186.367 121.129 186.372C120.803 186.377 120.514 186.157 120.426 185.835C119.799 183.542 119.35 182.415 118.649 181.699C117.959 180.994 116.936 180.6 114.838 180.102C114.518 180.026 114.289 179.739 114.282 179.403C114.274 179.068 114.49 178.77 114.806 178.68C116.438 178.212 117.556 177.841 118.402 177.108C119.217 176.401 119.86 175.278 120.296 173.109C120.364 172.768 120.657 172.523 120.998 172.522C121.338 172.521 121.632 172.764 121.703 173.105C122.17 175.363 122.606 176.408 123.305 177.078C124.03 177.773 125.127 178.162 127.273 178.788C127.584 178.878 127.797 179.169 127.795 179.499ZM125.773 179.87C126.166 179.749 126.598 179.626 127.076 179.494C126.603 179.356 126.172 179.228 125.777 179.102C123.107 178.25 122.115 177.516 121.362 174.793C121.237 174.339 121.118 173.83 121 173.257C120.886 173.821 120.758 174.326 120.613 174.779C119.775 177.404 118.405 178.289 116.355 178.975C115.933 179.116 115.482 179.249 115 179.387C115.505 179.506 115.96 179.622 116.37 179.742C118.977 180.498 119.822 181.389 120.723 184.274C120.852 184.686 120.982 185.139 121.118 185.638C121.24 185.131 121.357 184.675 121.474 184.264C122.284 181.422 123.119 180.688 125.773 179.87Z" fill="#AF73FF"/>
<path d="M164.891 45.6697C162.301 46.384 161.872 46.675 161.198 49.4773C160.429 46.6622 159.991 46.2161 157.406 45.6032C159.402 45.0316 160.563 44.5997 161.125 41.804C161.705 44.6099 162.286 44.9098 164.891 45.6697Z" fill="#DFE8F3"/>
<path fill-rule="evenodd" clip-rule="evenodd" d="M165.609 45.675C165.607 46.0049 165.39 46.2927 165.078 46.3787C163.742 46.7473 163.185 46.9614 162.827 47.3168C162.479 47.6632 162.237 48.2318 161.896 49.6524C161.818 49.9766 161.536 50.2063 161.209 50.2116C160.883 50.2168 160.594 49.9963 160.506 49.6748C160.115 48.2452 159.851 47.6184 159.475 47.2338C159.109 46.86 158.55 46.6282 157.244 46.3185C156.924 46.2427 156.695 45.9551 156.688 45.6198C156.68 45.2845 156.896 44.9866 157.212 44.8961C158.232 44.604 158.866 44.3868 159.338 43.9777C159.779 43.5954 160.157 42.9673 160.421 41.6562C160.489 41.3155 160.782 41.0706 161.123 41.0696C161.463 41.0686 161.757 41.3118 161.828 41.6521C162.117 43.0498 162.375 43.6181 162.74 43.9685C163.132 44.3442 163.741 44.5706 165.088 44.9636C165.398 45.0541 165.612 45.3451 165.609 45.675ZM163.634 46.0506C163.986 45.9255 164.399 45.8052 164.891 45.6697C164.407 45.5286 163.993 45.4033 163.636 45.2749C162.454 44.8502 161.895 44.3911 161.489 43.2098C161.357 42.8255 161.241 42.3648 161.125 41.804C161.015 42.3497 160.882 42.8054 160.725 43.1896C160.268 44.3074 159.603 44.8204 158.687 45.1872C158.305 45.3402 157.879 45.4678 157.406 45.6032C157.915 45.7239 158.341 45.8381 158.702 45.9652C159.846 46.3676 160.346 46.8991 160.801 48.1739C160.932 48.5416 161.06 48.9712 161.198 49.4773C161.322 48.9611 161.438 48.5301 161.56 48.1659C161.977 46.9285 162.471 46.4634 163.634 46.0506Z" fill="#DFE8F3"/>
<path d="M203.767 65.5879C197.675 67.2688 196.663 67.9535 195.079 74.5475C193.268 67.9234 192.238 66.8737 186.156 65.4314C190.851 64.0864 193.583 63.0701 194.906 56.4916C196.272 63.094 197.638 63.7999 203.767 65.5879Z" fill="#DFE8F3"/>
<path fill-rule="evenodd" clip-rule="evenodd" d="M204.486 65.5932C204.484 65.9231 204.266 66.2109 203.955 66.2969C200.867 67.1488 199.288 67.7029 198.234 68.7516C197.188 69.7912 196.574 71.4062 195.777 74.7226C195.699 75.0468 195.416 75.2765 195.09 75.2818C194.763 75.287 194.474 75.0665 194.386 74.745C193.475 71.4109 192.803 69.6809 191.711 68.5656C190.63 67.4611 189.048 66.8711 185.994 66.1467C185.674 66.0709 185.445 65.7833 185.438 65.448C185.43 65.1127 185.646 64.8148 185.962 64.7243C188.332 64.0455 190.034 63.4889 191.331 62.3642C192.597 61.2662 193.558 59.5463 194.202 56.3438C194.27 56.0031 194.563 55.7582 194.904 55.7572C195.244 55.7562 195.539 55.9993 195.609 56.3396C196.291 59.6357 196.942 61.2546 198.042 62.3096C199.169 63.3898 200.855 63.9747 203.965 64.8818C204.275 64.9723 204.488 65.2633 204.486 65.5932ZM202.447 65.9618C202.859 65.841 203.298 65.7174 203.767 65.5879C203.302 65.4522 202.864 65.3227 202.452 65.1964C197.909 63.8052 196.443 62.8001 195.27 58.1026C195.147 57.6081 195.026 57.0727 194.906 56.4916C194.79 57.0668 194.664 57.5995 194.526 58.0936C193.253 62.6687 191.023 63.9354 187.544 65.0201C187.102 65.158 186.64 65.2929 186.156 65.4314C186.657 65.5502 187.124 65.6663 187.559 65.7831C192.019 66.9787 193.229 68.2444 194.684 73.1563C194.813 73.5907 194.944 74.0536 195.079 74.5475C195.199 74.0472 195.316 73.5809 195.432 73.1456C196.728 68.2858 197.921 67.2903 202.447 65.9618Z" fill="#DFE8F3"/>
<path d="M137.756 23.0413C133.784 24.137 133.125 24.5833 132.092 28.8815C130.912 24.5637 130.241 23.8795 126.276 22.9393C129.336 22.0626 131.117 21.4001 131.979 17.112C132.87 21.4157 133.76 21.8758 137.756 23.0413Z" fill="#AF73FF"/>
<path fill-rule="evenodd" clip-rule="evenodd" d="M138.474 23.0466C138.472 23.3765 138.255 23.6643 137.943 23.7503C135.916 24.3096 134.956 24.6578 134.323 25.2868C133.7 25.9067 133.311 26.8881 132.79 29.0567C132.712 29.3809 132.43 29.6106 132.103 29.6158C131.777 29.6211 131.487 29.4005 131.4 29.079C130.804 26.8981 130.379 25.836 129.72 25.1631C129.072 24.501 128.109 24.1279 126.114 23.6547C125.794 23.5788 125.565 23.2913 125.558 22.9559C125.55 22.6206 125.766 22.3227 126.082 22.2322C127.634 21.7875 128.69 21.4364 129.487 20.745C130.254 20.0803 130.862 19.0215 131.275 16.9642C131.344 16.6235 131.637 16.3786 131.977 16.3776C132.318 16.3766 132.612 16.6197 132.683 16.96C133.127 19.1067 133.539 20.0895 134.195 20.7179C134.877 21.3715 135.911 21.7394 137.953 22.3352C138.263 22.4257 138.477 22.7167 138.474 23.0466ZM136.456 23.4174C136.846 23.2962 137.276 23.1735 137.756 23.0413C137.282 22.9031 136.852 22.7748 136.46 22.6489C133.988 21.8539 133.05 21.1519 132.342 18.636C132.216 18.1888 132.098 17.6844 131.979 17.112C131.866 17.6749 131.737 18.1753 131.592 18.6219C130.802 21.0431 129.523 21.8835 127.625 22.527C127.206 22.669 126.757 22.8015 126.276 22.9393C126.782 23.0592 127.234 23.175 127.64 23.2947C130.051 24.0046 130.854 24.852 131.697 27.5225C131.826 27.9309 131.955 28.3819 132.092 28.8815C132.214 28.374 132.331 27.9202 132.448 27.5127C133.207 24.8852 134.001 24.1821 136.456 23.4174Z" fill="#AF73FF"/>
<path fill-rule="evenodd" clip-rule="evenodd" d="M22.2812 52.0848C22.2812 50.0569 23.8902 48.413 25.875 48.413L57.5 48.413C59.4848 48.413 61.0938 50.0569 61.0938 52.0848C61.0938 54.1128 59.4848 55.7567 57.5 55.7567L25.875 55.7567C23.8902 55.7567 22.2812 54.1128 22.2812 52.0848Z" fill="url(#paint4_linear)"/>
<path fill-rule="evenodd" clip-rule="evenodd" d="M5.75 74.8505C5.75 72.8225 7.35898 71.1786 9.34375 71.1786L44.5625 71.1786C46.5473 71.1786 48.1562 72.8225 48.1562 74.8505C48.1562 76.8784 46.5473 78.5223 44.5625 78.5223L9.34375 78.5223C7.35898 78.5223 5.75 76.8784 5.75 74.8505Z" fill="url(#paint5_linear)"/>
<path fill-rule="evenodd" clip-rule="evenodd" d="M10.7812 106.429C10.7812 104.401 12.3902 102.757 14.375 102.757H29.4688C31.4535 102.757 33.0625 104.401 33.0625 106.429C33.0625 108.457 31.4535 110.1 29.4688 110.1H14.375C12.3902 110.1 10.7813 108.457 10.7812 106.429Z" fill="url(#paint6_linear)"/>
<path fill-rule="evenodd" clip-rule="evenodd" d="M7.90625 137.272C7.90625 135.244 9.51523 133.6 11.5 133.6H14.375C16.3598 133.6 17.9688 135.244 17.9688 137.272C17.9688 139.3 16.3598 140.944 14.375 140.944H11.5C9.51523 140.944 7.90625 139.3 7.90625 137.272Z" fill="url(#paint7_linear)"/>
<path fill-rule="evenodd" clip-rule="evenodd" d="M22.2812 137.272C22.2812 135.244 23.8902 133.6 25.875 133.6H61.8125C63.7973 133.6 65.4062 135.244 65.4062 137.272C65.4062 139.3 63.7973 140.944 61.8125 140.944H25.875C23.8902 140.944 22.2812 139.3 22.2812 137.272Z" fill="url(#paint8_linear)"/>
<path fill-rule="evenodd" clip-rule="evenodd" d="M22.2812 160.038C22.2812 158.01 23.8902 156.366 25.875 156.366H94.875C96.8598 156.366 98.4688 158.01 98.4688 160.038C98.4688 162.066 96.8598 163.71 94.875 163.71H25.875C23.8902 163.71 22.2812 162.066 22.2812 160.038Z" fill="url(#paint9_linear)"/>
<path d="M83.5181 32.78C85.5933 29.3225 90.0187 28.2385 93.4027 30.3588L197.904 95.8366C201.288 97.9569 202.349 102.479 200.273 105.936L160.056 172.944C157.981 176.401 153.555 177.485 150.171 175.365L45.67 109.887C42.2861 107.767 41.2251 103.245 43.3003 99.7877L83.5181 32.78Z" fill="#EBF2FA"/>
<path fill-rule="evenodd" clip-rule="evenodd" d="M196.025 98.9668L91.5239 33.4889C89.832 32.4288 87.6192 32.9708 86.5816 34.6996L46.3639 101.707C45.3263 103.436 45.8568 105.697 47.5487 106.757L152.05 172.235C153.742 173.295 155.955 172.753 156.992 171.024L197.21 104.017C198.247 102.288 197.717 100.027 196.025 98.9668ZM93.4027 30.3588C90.0187 28.2385 85.5933 29.3225 83.5181 32.78L43.3003 99.7877C41.2251 103.245 42.2861 107.767 45.67 109.887L150.171 175.365C153.555 177.485 157.981 176.401 160.056 172.944L200.273 105.936C202.349 102.479 201.288 97.9569 197.904 95.8366L93.4027 30.3588Z" fill="#52199F"/>
<path d="M128.265 90.5363C129.69 90.2935 131.07 91.1687 131.49 92.5811L154.996 171.758C155.761 174.336 153.009 176.519 150.754 175.123L45.4283 109.888C43.1476 108.475 43.8151 104.927 46.4457 104.478L128.265 90.5363Z" fill="#F0F8FF"/>
<path fill-rule="evenodd" clip-rule="evenodd" d="M128.234 94.2643L48.9487 107.774L151.012 170.988L128.234 94.2643ZM131.49 92.5811C131.07 91.1687 129.69 90.2935 128.265 90.5363L46.4457 104.478C43.8151 104.927 43.1476 108.475 45.4283 109.888L150.754 175.123C153.009 176.519 155.761 174.336 154.996 171.758L131.49 92.5811Z" fill="#52199F"/>
<path opacity="0.3" d="M125.944 117.735C117.302 119.133 108.931 113.968 106.119 105.503L83.7454 38.1617C82.8854 35.5733 85.6483 33.2932 87.944 34.6967L196.5 101.064C198.805 102.474 198.127 106.057 195.473 106.486L125.944 117.735Z" fill="#BDBDBD"/>
<path d="M128.971 113.218C120.388 114.544 112.104 109.412 109.287 101.023L86.5601 33.3449C85.6876 30.7468 88.4713 28.4556 90.77 29.8797L199.272 97.098C201.571 98.5221 200.869 102.103 198.211 102.514L128.971 113.218Z" fill="#F0F8FF"/>
<path fill-rule="evenodd" clip-rule="evenodd" d="M90.6031 34.0704L112.686 99.8313C114.94 106.543 121.567 110.648 128.433 109.587L195.712 99.1869L90.6031 34.0704ZM109.287 101.023C112.104 109.412 120.388 114.544 128.971 113.218L198.211 102.514C200.869 102.103 201.571 98.5221 199.272 97.098L90.77 29.8797C88.4713 28.4556 85.6876 30.7468 86.5601 33.3449L109.287 101.023Z" fill="#52199F"/>
<path d="M43.9169 99.0249L160.916 171.862C160.916 171.862 158.492 176.58 153.284 176.529C152.499 176.521 151.791 176.247 151.12 175.829C140.753 169.365 64.2685 121.611 44.685 109.383C42.1135 107.778 41.1963 104.419 42.5768 101.682L43.9169 99.0249Z" fill="black" fill-opacity="0.08"/>
<path fill-rule="evenodd" clip-rule="evenodd" d="M196.025 98.9668L91.5239 33.4889C89.832 32.4288 87.6192 32.9708 86.5816 34.6996L46.3639 101.707C45.3263 103.436 45.8568 105.697 47.5487 106.757L152.05 172.235C153.742 173.295 155.955 172.753 156.992 171.024L197.21 104.017C198.247 102.288 197.717 100.027 196.025 98.9668ZM93.4027 30.3588C90.0187 28.2385 85.5933 29.3225 83.5181 32.78L43.3003 99.7877C41.2251 103.245 42.2861 107.767 45.67 109.887L150.171 175.365C153.555 177.485 157.981 176.401 160.056 172.944L200.273 105.936C202.349 102.479 201.288 97.9569 197.904 95.8366L93.4027 30.3588Z" fill="#52199F"/>
<path d="M88.979 31.7356L197.441 100.042L187.563 101.818L92.0388 42.3241L88.979 31.7356Z" fill="#DFE8F3"/>
<path d="M97.1944 35.8261L117.121 96.4464C119.375 103.158 123.846 105.06 130.712 103.999L192.241 94.3332L200.49 100.598L130.531 110.567C121.948 111.894 114.383 108.23 111.565 99.8412L88.8389 32.1631L97.1944 35.8261Z" fill="url(#paint10_linear)"/>
<path fill-rule="evenodd" clip-rule="evenodd" d="M90.6031 34.0704L112.686 99.8313C114.94 106.543 121.567 110.648 128.433 109.587L195.712 99.1869L90.6031 34.0704ZM109.287 101.023C112.104 109.412 120.388 114.544 128.971 113.218L198.211 102.514C200.869 102.103 201.571 98.5221 199.272 97.098L90.77 29.8797C88.4713 28.4556 85.6876 30.7468 86.5601 33.3449L109.287 101.023Z" fill="#52199F"/>
</g>
<defs>
<linearGradient id="paint0_linear" x1="52.8523" y1="107.017" x2="238.876" y2="83.0138" gradientUnits="userSpaceOnUse">
<stop stop-color="#2CC3F2"/>
<stop offset="0.644669" stop-color="#00D0FF"/>
<stop offset="1" stop-color="#00FFFF"/>
</linearGradient>
<linearGradient id="paint1_linear" x1="52.8523" y1="107.017" x2="238.876" y2="83.0138" gradientUnits="userSpaceOnUse">
<stop stop-color="#2CC3F2"/>
<stop offset="0.644669" stop-color="#00D0FF"/>
<stop offset="1" stop-color="#00FFFF"/>
</linearGradient>
<linearGradient id="paint2_linear" x1="52.8523" y1="107.017" x2="238.876" y2="83.0138" gradientUnits="userSpaceOnUse">
<stop stop-color="#2CC3F2"/>
<stop offset="0.644669" stop-color="#00D0FF"/>
<stop offset="1" stop-color="#00FFFF"/>
</linearGradient>
<linearGradient id="paint3_linear" x1="52.8523" y1="107.017" x2="238.876" y2="83.0138" gradientUnits="userSpaceOnUse">
<stop stop-color="#2CC3F2"/>
<stop offset="0.644669" stop-color="#00D0FF"/>
<stop offset="1" stop-color="#00FFFF"/>
</linearGradient>
<linearGradient id="paint4_linear" x1="22.2812" y1="52.0848" x2="61.0938" y2="52.0848" gradientUnits="userSpaceOnUse">
<stop stop-color="#FA00FF"/>
<stop offset="1" stop-color="#C241EF"/>
</linearGradient>
<linearGradient id="paint5_linear" x1="5.75" y1="74.8505" x2="48.1563" y2="74.8505" gradientUnits="userSpaceOnUse">
<stop stop-color="#FA00FF"/>
<stop offset="1" stop-color="#C241EF"/>
</linearGradient>
<linearGradient id="paint6_linear" x1="10.7812" y1="106.429" x2="33.0625" y2="106.429" gradientUnits="userSpaceOnUse">
<stop stop-color="#FA00FF"/>
<stop offset="1" stop-color="#C241EF"/>
</linearGradient>
<linearGradient id="paint7_linear" x1="7.90625" y1="137.272" x2="17.9688" y2="137.272" gradientUnits="userSpaceOnUse">
<stop stop-color="#FA00FF"/>
<stop offset="1" stop-color="#C241EF"/>
</linearGradient>
<linearGradient id="paint8_linear" x1="22.2812" y1="137.272" x2="65.4063" y2="137.272" gradientUnits="userSpaceOnUse">
<stop stop-color="#FA00FF"/>
<stop offset="1" stop-color="#C241EF"/>
</linearGradient>
<linearGradient id="paint9_linear" x1="22.2812" y1="160.038" x2="98.4688" y2="160.038" gradientUnits="userSpaceOnUse">
<stop stop-color="#FA00FF"/>
<stop offset="1" stop-color="#C241EF"/>
</linearGradient>
<linearGradient id="paint10_linear" x1="187.976" y1="121.685" x2="75.3694" y2="54.8608" gradientUnits="userSpaceOnUse">
<stop stop-color="#FA00FF"/>
<stop offset="1" stop-color="#C241EF"/>
</linearGradient>
<clipPath id="clip0">
<rect width="230" height="188" fill="white"/>
</clipPath>
</defs>
</svg>
