<svg width="230" height="189" viewBox="0 0 230 189" fill="none" xmlns="http://www.w3.org/2000/svg">
<path d="M145.356 160.311C134.316 181.173 73.98 187.317 54.0495 143.987C42.4233 118.711 42.4631 95.3214 63.1203 69.7734C62.8552 30.9604 107.465 6.61981 143.669 32.3345C190.012 32.682 188.373 79.8626 182.963 87.3783C195.839 108.242 189.567 155.845 145.356 160.311Z" fill="url(#paint0_linear)"/>
<path d="M94.3623 31.968C96.9481 32.7414 97.3768 33.0421 98.0421 35.8589C98.8188 33.0623 99.2575 32.6264 101.843 32.0728C99.85 31.4557 98.6908 30.9974 98.1369 28.1896C97.5486 30.9814 96.9679 31.268 94.3623 31.968Z" fill="#DFE8F3"/>
<path fill-rule="evenodd" clip-rule="evenodd" d="M93.6436 31.958C93.6392 32.2878 93.8505 32.5802 94.1604 32.6729C95.4931 33.0715 96.054 33.2991 96.4145 33.6669C96.7663 34.0258 97.0064 34.6047 97.3433 36.0313C97.42 36.3557 97.7011 36.5866 98.0278 36.5932C98.3544 36.5999 98.6443 36.3806 98.7335 36.0595C99.1283 34.6379 99.3929 34.0221 99.7659 33.6507C100.128 33.29 100.683 33.0715 101.99 32.7916C102.311 32.7228 102.546 32.4402 102.561 32.105C102.575 31.7698 102.365 31.4673 102.051 31.37C101.034 31.055 100.397 30.8226 99.9231 30.3997C99.4785 30.0029 99.1013 29.3617 98.8415 28.0446C98.7742 27.7036 98.4821 27.4576 98.1416 27.4554C97.8012 27.4531 97.5059 27.6951 97.4343 28.0351C97.1409 29.4271 96.8825 29.984 96.5213 30.3211C96.1328 30.6837 95.5286 30.8954 94.1795 31.2579C93.8673 31.3418 93.6481 31.6281 93.6436 31.958ZM95.6116 32.3754C95.2612 32.2431 94.8501 32.114 94.3623 31.9681C94.8493 31.8372 95.2656 31.7208 95.6244 31.5998C96.7991 31.2036 97.3578 30.758 97.7663 29.5941C97.9005 29.2115 98.0186 28.7513 98.1369 28.1897C98.2445 28.7353 98.375 29.1921 98.53 29.5787C98.9847 30.7125 99.6503 31.2415 100.569 31.63C100.949 31.7907 101.373 31.9273 101.843 32.0728C101.33 32.1826 100.902 32.2877 100.539 32.4075C99.4017 32.7827 98.9019 33.3019 98.4451 34.5583C98.312 34.9244 98.1826 35.3531 98.042 35.859C97.9202 35.343 97.8062 34.9115 97.6855 34.546C97.2716 33.2926 96.7781 32.816 95.6116 32.3754Z" fill="#DFE8F3"/>
<path d="M150.809 168.387C154.234 169.411 154.802 169.81 155.683 173.541C156.713 169.836 157.294 169.259 160.718 168.526C158.079 167.708 156.543 167.101 155.809 163.381C155.03 167.08 154.26 167.459 150.809 168.387Z" fill="#AF73FF"/>
<path fill-rule="evenodd" clip-rule="evenodd" d="M150.09 168.377C150.085 168.707 150.297 168.999 150.607 169.092C152.359 169.616 153.165 169.931 153.692 170.469C154.211 170.998 154.54 171.83 154.985 173.714C155.061 174.038 155.343 174.269 155.669 174.276C155.996 174.282 156.286 174.063 156.375 173.742C156.896 171.866 157.259 170.988 157.804 170.445C158.339 169.913 159.139 169.614 160.866 169.244C161.187 169.176 161.422 168.893 161.436 168.558C161.451 168.223 161.241 167.92 160.927 167.823C159.586 167.408 158.693 167.088 158.022 166.489C157.38 165.916 156.864 165.009 156.514 163.236C156.447 162.895 156.154 162.649 155.814 162.647C155.474 162.645 155.178 162.887 155.107 163.227C154.718 165.072 154.364 165.879 153.826 166.381C153.261 166.909 152.398 167.2 150.626 167.677C150.314 167.76 150.094 168.047 150.09 168.377ZM152.089 168.791C151.712 168.662 151.289 168.53 150.809 168.387C151.289 168.258 151.717 168.139 152.101 168.021C154.05 167.42 154.846 166.824 155.44 164.867C155.57 164.441 155.689 163.951 155.809 163.381C155.919 163.939 156.047 164.426 156.194 164.855C156.851 166.772 157.888 167.515 159.396 168.084C159.802 168.237 160.242 168.378 160.718 168.526C160.208 168.635 159.761 168.741 159.366 168.854C157.469 169.398 156.778 170.112 156.085 172.201C155.954 172.596 155.823 173.04 155.684 173.541C155.563 173.031 155.448 172.583 155.331 172.187C154.713 170.095 154.032 169.462 152.089 168.791Z" fill="#AF73FF"/>
<path d="M172.748 116.061C175.365 116.753 175.802 117.041 176.51 119.858C177.256 117.012 177.692 116.558 180.29 115.911C178.273 115.358 177.099 114.935 176.503 112.124C175.947 114.958 175.366 115.267 172.748 116.061Z" fill="#DFE8F3"/>
<path fill-rule="evenodd" clip-rule="evenodd" d="M172.03 116.075C172.036 116.404 172.256 116.69 172.568 116.772C173.919 117.129 174.484 117.339 174.849 117.694C175.205 118.041 175.455 118.613 175.814 120.041C175.895 120.364 176.18 120.591 176.507 120.592C176.833 120.594 177.12 120.37 177.204 120.048C177.583 118.603 177.842 117.967 178.219 117.574C178.585 117.192 179.148 116.951 180.46 116.625C180.779 116.546 181.005 116.255 181.009 115.92C181.013 115.585 180.794 115.289 180.477 115.202C179.446 114.919 178.804 114.707 178.323 114.299C177.873 113.917 177.485 113.287 177.205 111.968C177.133 111.628 176.837 111.387 176.497 111.389C176.156 111.392 175.865 111.638 175.798 111.979C175.521 113.391 175.267 113.969 174.901 114.327C174.509 114.711 173.897 114.947 172.544 115.357C172.234 115.451 172.024 115.745 172.03 116.075ZM174.01 116.428C173.656 116.307 173.241 116.191 172.748 116.061C173.23 115.915 173.643 115.785 174 115.653C175.195 115.21 175.755 114.74 176.153 113.536C176.281 113.149 176.392 112.686 176.503 112.124C176.618 112.669 176.755 113.124 176.916 113.507C177.39 114.638 178.07 115.149 179.004 115.51C179.388 115.658 179.816 115.781 180.29 115.911C179.783 116.038 179.358 116.157 178.997 116.288C177.839 116.707 177.341 117.249 176.893 118.549C176.766 118.919 176.643 119.35 176.51 119.858C176.381 119.343 176.26 118.913 176.134 118.549C175.699 117.297 175.195 116.833 174.01 116.428Z" fill="#DFE8F3"/>
<path d="M182.902 35.6117C186.558 36.5771 187.167 36.9801 188.156 40.9142C189.198 36.9397 189.807 36.305 193.436 35.4022C190.619 34.6285 188.979 34.0385 188.146 30.1118C187.37 34.0705 186.558 34.5017 182.902 35.6117Z" fill="#AF73FF"/>
<path fill-rule="evenodd" clip-rule="evenodd" d="M182.184 35.6249C182.189 35.9548 182.41 36.2402 182.722 36.3227C184.592 36.8165 185.46 37.1235 186.033 37.6815C186.598 38.2306 186.961 39.1106 187.46 41.0971C187.542 41.4204 187.826 41.647 188.153 41.6487C188.48 41.6503 188.766 41.4266 188.851 41.1042C189.377 39.0948 189.754 38.1313 190.339 37.5201C190.915 36.9198 191.778 36.5705 193.606 36.1158C193.925 36.0364 194.151 35.7464 194.155 35.411C194.159 35.0756 193.94 34.7801 193.623 34.693C192.192 34.3001 191.233 33.9912 190.506 33.3744C189.81 32.7841 189.246 31.8332 188.848 29.9564C188.776 29.6165 188.481 29.3748 188.14 29.3775C187.8 29.3803 187.508 29.6267 187.441 29.9677C187.054 31.9418 186.688 32.8308 186.107 33.3999C185.499 33.9946 184.57 34.3393 182.698 34.9078C182.388 35.0018 182.178 35.2951 182.184 35.6249ZM184.199 35.9743C183.815 35.857 183.385 35.7393 182.902 35.6117C183.377 35.4677 183.803 35.3352 184.188 35.2048C186.34 34.4756 187.186 33.8164 187.799 31.6187C187.921 31.1816 188.034 30.6835 188.146 30.1119C188.264 30.6705 188.399 31.1616 188.551 31.5952C189.286 33.6893 190.427 34.4453 192.094 35.0042C192.508 35.1432 192.955 35.27 193.436 35.4022C192.931 35.5279 192.484 35.6484 192.087 35.7735C189.99 36.433 189.263 37.2188 188.538 39.5598C188.413 39.9628 188.288 40.4119 188.156 40.9143C188.029 40.4065 187.907 39.9575 187.785 39.5585C187.084 37.275 186.35 36.6306 184.199 35.9743Z" fill="#AF73FF"/>
<path d="M160.938 22.9332C162.981 23.4727 163.321 23.6978 163.874 25.8959C164.456 23.6752 164.796 23.3206 166.824 22.8162C165.25 22.3839 164.333 22.0543 163.868 19.8603C163.435 22.0721 162.981 22.3131 160.938 22.9332Z" fill="#AF73FF"/>
<path fill-rule="evenodd" clip-rule="evenodd" d="M160.22 22.9465C160.225 23.2763 160.446 23.5617 160.758 23.6443C161.821 23.925 162.219 24.0811 162.469 24.3244C162.71 24.5588 162.896 24.9603 163.178 26.0788C163.259 26.4021 163.544 26.6287 163.87 26.6304C164.197 26.632 164.484 26.4083 164.568 26.0859C164.865 24.9534 165.059 24.4984 165.32 24.2262C165.571 23.965 165.967 23.7853 166.994 23.5298C167.313 23.4504 167.539 23.1604 167.543 22.825C167.546 22.4896 167.327 22.1941 167.01 22.107C166.201 21.8848 165.734 21.7263 165.389 21.4339C165.076 21.1679 164.785 20.7153 164.57 19.7049C164.498 19.3649 164.203 19.1233 163.862 19.126C163.522 19.1287 163.23 19.3751 163.163 19.7162C162.947 20.8169 162.756 21.2216 162.509 21.4635C162.236 21.7311 161.799 21.9058 160.733 22.2293C160.424 22.3233 160.214 22.6166 160.22 22.9465ZM162.159 23.306C161.835 23.1783 161.437 23.0652 160.938 22.9333C161.426 22.7853 161.822 22.6589 162.15 22.5222C162.852 22.2296 163.237 21.8895 163.513 21.189C163.649 20.8453 163.759 20.4147 163.868 19.8604C163.981 20.3932 164.121 20.816 164.29 21.1571C164.611 21.8056 165.04 22.1585 165.596 22.4093C165.951 22.5698 166.359 22.6885 166.824 22.8162C166.316 22.9425 165.915 23.0593 165.588 23.1984C164.91 23.4873 164.558 23.8719 164.26 24.6354C164.129 24.9732 164.008 25.3853 163.874 25.896C163.743 25.3764 163.624 24.9671 163.492 24.6377C163.202 23.9145 162.847 23.5772 162.159 23.306Z" fill="#AF73FF"/>
<path d="M101.284 10.0522C106.263 11.3673 107.093 11.9162 108.441 17.2753C109.859 11.8612 110.69 10.9967 115.633 9.76682C111.796 8.71291 109.561 7.90924 108.427 2.56034C107.37 7.95281 106.263 8.54024 101.284 10.0522Z" fill="#AF73FF"/>
<path fill-rule="evenodd" clip-rule="evenodd" d="M100.565 10.0654C100.571 10.3953 100.791 10.6807 101.104 10.7633C103.635 11.4318 104.89 11.8627 105.728 12.6791C106.558 13.4866 107.066 14.7592 107.745 17.4582C107.826 17.7815 108.111 18.0081 108.438 18.0098C108.764 18.0114 109.051 17.7877 109.135 17.4653C109.85 14.7361 110.376 13.3553 111.229 12.4658C112.071 11.5871 113.318 11.0986 115.803 10.4804C116.122 10.4011 116.348 10.111 116.352 9.7756C116.356 9.44021 116.137 9.14474 115.82 9.05767C113.879 8.52465 112.516 8.09225 111.475 7.20926C110.466 6.35265 109.678 4.99277 109.129 2.40488C109.057 2.06494 108.761 1.8233 108.421 1.82604C108.081 1.82877 107.789 2.07514 107.722 2.4162C107.195 5.10724 106.684 6.39373 105.829 7.23136C104.948 8.09457 103.613 8.57884 101.079 9.34832C100.77 9.4423 100.559 9.73561 100.565 10.0654ZM102.6 10.4125C102.196 10.2962 101.759 10.1777 101.284 10.0523C101.751 9.91028 102.185 9.77645 102.587 9.64602C106.011 8.53661 107.192 7.67381 108.08 4.1373C108.199 3.66226 108.313 3.13898 108.427 2.56039C108.547 3.12898 108.68 3.64621 108.826 4.11783C109.881 7.52332 111.615 8.55132 114.257 9.37037C114.691 9.50497 115.149 9.63393 115.633 9.76688C115.131 9.89173 114.672 10.0128 114.25 10.1353C110.897 11.1082 109.91 12.1681 108.821 15.8932C108.697 16.318 108.572 16.7774 108.441 17.2754C108.315 16.7732 108.193 16.3133 108.072 15.891C107.024 12.2366 106.03 11.4016 102.6 10.4125Z" fill="#AF73FF"/>
<path d="M159.603 53.4297C164.604 54.7506 165.438 55.3019 166.792 60.6845C168.216 55.2466 169.05 54.3783 174.016 53.1431C170.161 52.0845 167.917 51.2773 166.777 45.905C165.716 51.3211 164.604 51.9111 159.603 53.4297Z" fill="#DFE8F3"/>
<path fill-rule="evenodd" clip-rule="evenodd" d="M158.885 53.4429C158.89 53.7728 159.111 54.0582 159.423 54.1408C161.966 54.8122 163.226 55.2452 164.069 56.0658C164.904 56.8775 165.414 58.1566 166.096 60.8673C166.177 61.1906 166.461 61.4172 166.788 61.4189C167.115 61.4205 167.402 61.1968 167.486 60.8744C168.204 58.1334 168.733 56.7457 169.589 55.8516C170.436 54.9684 171.689 54.4776 174.185 53.8566C174.504 53.7773 174.73 53.4872 174.734 53.1518C174.738 52.8165 174.519 52.521 174.202 52.4339C172.253 51.8986 170.883 51.4641 169.837 50.5768C168.823 49.7158 168.031 48.3492 167.48 45.7496C167.408 45.4096 167.112 45.168 166.772 45.1707C166.431 45.1735 166.139 45.4198 166.073 45.7609C165.543 48.4637 165.03 49.7568 164.17 50.5988C163.284 51.4665 161.943 51.953 159.398 52.7258C159.089 52.8198 158.879 53.1131 158.885 53.4429ZM160.919 53.79C160.515 53.6737 160.078 53.5552 159.603 53.4298C160.071 53.2878 160.504 53.154 160.907 53.0235C164.352 51.9078 165.538 51.0418 166.431 47.4829C166.55 47.0073 166.664 46.4838 166.777 45.9051C166.898 46.4738 167.031 46.9913 167.177 47.4634C168.237 50.891 169.981 51.9232 172.638 52.7466C173.073 52.8812 173.531 53.0102 174.015 53.1431C173.514 53.268 173.054 53.3891 172.632 53.5115C169.258 54.4896 168.266 55.5538 167.172 59.302C167.048 59.727 166.922 60.1866 166.792 60.6845C166.665 60.1824 166.544 59.7224 166.423 59.2998C165.369 55.6225 164.371 54.7846 160.919 53.79Z" fill="#DFE8F3"/>
<path d="M133.477 48.2692L152.031 66.5142H133.477V48.2692Z" fill="#DFE8F3"/>
<path d="M72.394 48.1575C72.394 44.9128 74.9683 42.2825 78.144 42.2825H128.331C131.507 42.2825 134.081 44.9128 134.081 48.1575V65.3135C134.081 65.7223 134.408 66.0525 134.808 66.0478L152.075 65.8473C155.276 65.8102 157.89 68.4512 157.89 71.722V146.43C157.89 149.675 155.316 152.305 152.14 152.305H78.144C74.9683 152.305 72.394 149.675 72.394 146.43V48.1575Z" fill="#DFE8F3"/>
<path fill-rule="evenodd" clip-rule="evenodd" d="M78.144 147.899H152.14C152.934 147.899 153.578 147.242 153.578 146.43V71.722C153.578 70.9043 152.924 70.244 152.124 70.2533L134.857 70.4538C132.056 70.4863 129.769 68.1754 129.769 65.3135V48.1575C129.769 47.3463 129.125 46.6887 128.331 46.6887H78.144C77.3501 46.6887 76.7065 47.3463 76.7065 48.1575V146.43C76.7065 147.242 77.3501 147.899 78.144 147.899ZM78.144 42.2825C74.9683 42.2825 72.394 44.9128 72.394 48.1575V146.43C72.394 149.675 74.9683 152.305 78.144 152.305H152.14C155.316 152.305 157.89 149.675 157.89 146.43V71.722C157.89 68.4512 155.276 65.8102 152.075 65.8473L134.808 66.0478C134.408 66.0525 134.081 65.7223 134.081 65.3135V48.1575C134.081 44.9128 131.507 42.2825 128.331 42.2825H78.144Z" fill="#52199F"/>
<path fill-rule="evenodd" clip-rule="evenodd" d="M128.703 43.6985C129.523 42.8158 130.887 42.7791 131.751 43.6165L156.654 67.7558C157.518 68.5932 157.554 69.9877 156.734 70.8704C155.915 71.7531 154.55 71.7898 153.686 70.9523L128.783 46.8131C127.919 45.9757 127.883 44.5812 128.703 43.6985Z" fill="#52199F"/>
<path d="M74.5586 43.7596H130.293V50.9471H74.5586V43.7596Z" fill="#F0F8FF"/>
<path d="M75.6407 142.906H155.726V150.094H75.6407V142.906Z" fill="#C8D5E4"/>
<path d="M132.39 69.0361C132.1 67.5564 133.763 66.5021 134.932 67.4238C135.198 67.6334 135.522 67.752 135.857 67.7628L154.634 68.3687C155.417 68.3939 156.125 68.8517 156.483 69.5639C157.212 71.0171 156.193 72.7471 154.594 72.7684L135.14 73.0276C134.002 73.0428 133.015 72.227 132.792 71.0866L132.39 69.0361Z" fill="#C8D5E4"/>
<path fill-rule="evenodd" clip-rule="evenodd" d="M78.144 147.899H152.14C152.934 147.899 153.578 147.242 153.578 146.43V71.722C153.578 70.9043 152.924 70.244 152.124 70.2533L134.857 70.4538C132.056 70.4863 129.769 68.1754 129.769 65.3135V48.1575C129.769 47.3463 129.125 46.6887 128.331 46.6887H78.144C77.3501 46.6887 76.7065 47.3463 76.7065 48.1575V146.43C76.7065 147.242 77.3501 147.899 78.144 147.899ZM78.144 42.2825C74.9683 42.2825 72.394 44.9128 72.394 48.1575V146.43C72.394 149.675 74.9683 152.305 78.144 152.305H152.14C155.316 152.305 157.89 149.675 157.89 146.43V71.722C157.89 68.4512 155.276 65.8102 152.075 65.8473L134.808 66.0478C134.408 66.0525 134.081 65.7223 134.081 65.3135V48.1575C134.081 44.9128 131.507 42.2825 128.331 42.2825H78.144Z" fill="#52199F"/>
<path d="M106.598 74.6259L125.153 92.8709H106.598V74.6259Z" fill="#EBF2FA"/>
<path d="M44.7969 75.2485C44.7969 72.0039 47.3713 69.3735 50.5469 69.3735H100.734C103.91 69.3735 106.484 72.0039 106.484 75.2485V92.4046C106.484 92.8134 106.811 93.1435 107.211 93.1389L124.478 92.9384C127.679 92.9012 130.293 95.5422 130.293 98.813V173.521C130.293 176.766 127.719 179.396 124.543 179.396H50.5469C47.3713 179.396 44.7969 176.766 44.7969 173.521V75.2485Z" fill="white"/>
<path fill-rule="evenodd" clip-rule="evenodd" d="M50.5469 174.99H124.543C125.337 174.99 125.981 174.333 125.981 173.521V98.813C125.981 97.9953 125.327 97.3351 124.527 97.3444L107.26 97.5448C104.459 97.5774 102.172 95.2665 102.172 92.4046V75.2485C102.172 74.4374 101.528 73.7798 100.734 73.7798H50.5469C49.753 73.7798 49.1094 74.4374 49.1094 75.2485V173.521C49.1094 174.333 49.753 174.99 50.5469 174.99ZM50.5469 69.3735C47.3713 69.3735 44.7969 72.0039 44.7969 75.2485V173.521C44.7969 176.766 47.3713 179.396 50.5469 179.396H124.543C127.719 179.396 130.293 176.766 130.293 173.521V98.813C130.293 95.5422 127.679 92.9012 124.478 92.9384L107.211 93.1389C106.811 93.1435 106.484 92.8134 106.484 92.4046V75.2485C106.484 72.0039 103.91 69.3735 100.734 69.3735H50.5469Z" fill="#52199F"/>
<path fill-rule="evenodd" clip-rule="evenodd" d="M102.129 71.624C102.959 70.7519 104.325 70.7328 105.178 71.5813L128.681 94.9461C129.535 95.7946 129.553 97.1894 128.723 98.0615C127.892 98.9335 126.527 98.9526 125.674 98.1041L102.171 74.7394C101.317 73.8908 101.299 72.496 102.129 71.624Z" fill="#52199F"/>
<path d="M48.0434 169.998H128.128V177.185H48.0434V169.998Z" fill="#F0F8FF"/>
<path d="M104.074 96.4985C103.784 95.0188 105.447 93.9645 106.616 94.8862C106.882 95.0958 107.206 95.2144 107.541 95.2252L126.318 95.8311C127.101 95.8563 127.809 96.3141 128.167 97.0263C128.896 98.4795 127.877 100.209 126.278 100.231L106.824 100.49C105.686 100.505 104.699 99.6894 104.475 98.549L104.074 96.4985Z" fill="#F0F8FF"/>
<path fill-rule="evenodd" clip-rule="evenodd" d="M50.5469 174.99H124.543C125.337 174.99 125.981 174.333 125.981 173.521V98.813C125.981 97.9953 125.327 97.3351 124.527 97.3444L107.26 97.5448C104.459 97.5774 102.172 95.2665 102.172 92.4046V75.2485C102.172 74.4374 101.528 73.7798 100.734 73.7798H50.5469C49.753 73.7798 49.1094 74.4374 49.1094 75.2485V173.521C49.1094 174.333 49.753 174.99 50.5469 174.99ZM50.5469 69.3735C47.3713 69.3735 44.7969 72.0039 44.7969 75.2485V173.521C44.7969 176.766 47.3713 179.396 50.5469 179.396H124.543C127.719 179.396 130.293 176.766 130.293 173.521V98.813C130.293 95.5422 127.679 92.9012 124.478 92.9384L107.211 93.1389C106.811 93.1435 106.484 92.8134 106.484 92.4046V75.2485C106.484 72.0039 103.91 69.3735 100.734 69.3735H50.5469Z" fill="#52199F"/>
<path d="M78.3748 120.055C83.4173 113.497 92.6718 112.387 99.0454 117.575L109.431 126.028C115.804 131.216 116.883 140.738 111.841 147.295C106.798 153.852 97.5437 154.962 91.1701 149.775L80.7849 141.321C74.4113 136.133 73.3323 126.612 78.3748 120.055Z" fill="url(#paint1_linear)"/>
<path fill-rule="evenodd" clip-rule="evenodd" d="M108.527 127.203L98.1423 118.749C92.3992 114.075 84.06 115.075 79.5162 120.984C74.9725 126.893 75.9448 135.472 81.688 140.147L92.0731 148.6C97.8163 153.275 106.156 152.275 110.699 146.366C115.243 140.457 114.271 131.877 108.527 127.203ZM99.0454 117.575C92.6718 112.387 83.4173 113.497 78.3748 120.055C73.3323 126.612 74.4113 136.133 80.7849 141.321L91.1701 149.775C97.5437 154.962 106.798 153.852 111.841 147.295C116.883 140.738 115.804 131.216 109.431 126.028L99.0454 117.575Z" fill="#7547B2"/>
<path d="M83.8208 124.365C86.678 120.649 91.9217 120.02 95.5331 122.96L105.428 131.014C109.04 133.954 109.651 139.349 106.794 143.064C103.937 146.78 98.6932 147.409 95.0819 144.469L85.1864 136.415C81.5751 133.475 80.9637 128.08 83.8208 124.365Z" fill="white"/>
<path fill-rule="evenodd" clip-rule="evenodd" d="M104.525 132.189L94.63 124.134C91.6491 121.708 87.3207 122.227 84.9623 125.294C82.6039 128.361 83.1085 132.814 86.0895 135.241L95.9849 143.295C98.9659 145.721 103.294 145.202 105.653 142.135C108.011 139.068 107.506 134.615 104.525 132.189ZM95.5331 122.96C91.9217 120.02 86.678 120.649 83.8208 124.365C80.9637 128.08 81.5751 133.475 85.1864 136.415L95.0819 144.469C98.6932 147.409 103.937 146.78 106.794 143.064C109.651 139.349 109.04 133.954 105.428 131.014L95.5331 122.96Z" fill="#7547B2"/>
<path d="M61.5153 106.727C66.5578 100.169 75.8123 99.059 82.1859 104.247L92.5711 112.7C98.9446 117.888 100.024 127.409 94.9812 133.967C89.9387 140.524 80.6842 141.634 74.3106 136.446L63.9254 127.993C57.5518 122.805 56.4728 113.284 61.5153 106.727Z" fill="url(#paint2_linear)"/>
<path fill-rule="evenodd" clip-rule="evenodd" d="M91.668 113.874L81.2828 105.421C75.5397 100.746 67.2005 101.747 62.6567 107.656C58.113 113.564 59.0853 122.144 64.8285 126.819L75.2136 135.272C80.9568 139.947 89.296 138.946 93.8398 133.038C98.3835 127.129 97.4112 118.549 91.668 113.874ZM82.1859 104.247C75.8123 99.059 66.5578 100.169 61.5153 106.727C56.4728 113.284 57.5518 122.805 63.9254 127.993L74.3106 136.446C80.6842 141.634 89.9387 140.524 94.9812 133.967C100.024 127.409 98.9446 117.888 92.5711 112.7L82.1859 104.247Z" fill="#7547B2"/>
<path d="M63.497 108.359C67.6885 102.909 75.3811 101.986 80.6789 106.298L90.9644 114.67C96.2622 118.983 97.1592 126.897 92.9677 132.348C88.7763 137.798 81.0837 138.721 75.7859 134.409L65.5004 126.037C60.2025 121.724 59.3056 113.81 63.497 108.359Z" fill="url(#paint3_linear)"/>
<path d="M66.9612 111.037C69.8183 107.321 75.0621 106.692 78.6735 109.632L88.5689 117.686C92.1802 120.626 92.7916 126.021 89.9345 129.736C87.0774 133.452 81.8336 134.081 78.2222 131.141L68.3268 123.087C64.7155 120.147 64.1041 114.752 66.9612 111.037Z" fill="white"/>
<path fill-rule="evenodd" clip-rule="evenodd" d="M87.6658 118.861L77.7704 110.806C74.7894 108.38 70.461 108.899 68.1026 111.966C65.7442 115.033 66.2489 119.486 69.2299 121.912L79.1253 129.967C82.1063 132.393 86.4347 131.874 88.7931 128.807C91.1515 125.74 90.6468 121.287 87.6658 118.861ZM78.6735 109.632C75.0621 106.692 69.8183 107.321 66.9612 111.037C64.1041 114.752 64.7155 120.147 68.3268 123.087L78.2222 131.141C81.8336 134.081 87.0774 133.452 89.9345 129.736C92.7916 126.021 92.1802 120.626 88.5689 117.686L78.6735 109.632Z" fill="#7547B2"/>
<path fill-rule="evenodd" clip-rule="evenodd" d="M87.438 122.391C85.0565 122.913 82.9734 124.856 82.3139 128.928L75.1355 127.697C76.19 121.188 80.0802 116.347 85.9234 115.068C91.5263 113.842 97.8813 116.127 103.744 121.241L99.0373 126.952C94.1807 122.715 90.0597 121.817 87.438 122.391Z" fill="url(#paint4_linear)"/>
<path fill-rule="evenodd" clip-rule="evenodd" d="M103.192 122.793L98.0696 118.756C91.9124 113.904 83.1066 115.05 78.3185 121.328L77.1735 120.403C82.4538 113.48 92.1646 112.216 98.9547 117.567L104.077 121.605L103.192 122.793Z" fill="#7547B2"/>
<path fill-rule="evenodd" clip-rule="evenodd" d="M99.4246 127.969L94.2883 123.966C91.0657 121.455 86.4816 122.065 83.986 125.337L82.841 124.413C85.8268 120.498 91.3114 119.768 95.167 122.773L100.303 126.775L99.4246 127.969Z" fill="#7547B2"/>
<path fill-rule="evenodd" clip-rule="evenodd" d="M81.1715 129.224C81.3214 127.635 81.8064 125.575 83.2063 123.938L84.2989 124.927C83.1849 126.23 82.7558 127.931 82.6201 129.369C82.553 130.08 82.5597 130.707 82.5832 131.154C82.5949 131.377 82.6108 131.554 82.6233 131.673C82.6296 131.732 82.6351 131.777 82.6388 131.806C82.6406 131.82 82.642 131.831 82.6429 131.837L82.6437 131.843C82.6437 131.843 82.6437 131.843 81.9244 131.956C81.2051 132.07 81.2051 132.07 81.2051 132.07L81.2047 132.068L81.2041 132.063L81.2021 132.049C81.2006 132.038 81.1984 132.022 81.1959 132.002C81.1908 131.963 81.1839 131.906 81.1764 131.835C81.1613 131.691 81.1432 131.487 81.1299 131.235C81.1034 130.73 81.0958 130.027 81.1715 129.224Z" fill="#7547B2"/>
<path fill-rule="evenodd" clip-rule="evenodd" d="M75.2221 125.552C75.4655 124.033 76.0075 122.053 77.2237 120.346L78.3978 121.231C77.3682 122.677 76.8818 124.4 76.6582 125.796C76.5473 126.488 76.5031 127.087 76.4867 127.511C76.4785 127.722 76.4772 127.889 76.4779 128.001C76.4783 128.057 76.4791 128.099 76.4799 128.126C76.4802 128.139 76.4805 128.149 76.4807 128.155L76.4809 128.161C76.4809 128.161 76.4809 128.16 75.754 128.195C75.027 128.229 75.027 128.229 75.027 128.228L75.0269 128.226L75.0267 128.222L75.0262 128.21C75.0259 128.199 75.0254 128.185 75.0249 128.166C75.024 128.129 75.0229 128.077 75.0225 128.011C75.0217 127.878 75.0232 127.688 75.0324 127.451C75.0507 126.978 75.0996 126.317 75.2221 125.552Z" fill="#7547B2"/>
<path d="M81.6958 126.784C81.6958 126.784 80.8959 129.723 81.2387 131.251C79.9818 131.134 76.4396 127.959 76.4396 127.959C76.6616 126.322 79.8231 127.194 81.6958 126.784Z" fill="url(#paint5_linear)"/>
<defs>
<linearGradient id="paint0_linear" x1="46.3777" y1="99.4652" x2="202.925" y2="98.5851" gradientUnits="userSpaceOnUse">
<stop stop-color="#2CC3F2"/>
<stop offset="0.644669" stop-color="#00D0FF"/>
<stop offset="1" stop-color="#00FFFF"/>
</linearGradient>
<linearGradient id="paint1_linear" x1="78.3748" y1="120.055" x2="112.568" y2="146.349" gradientUnits="userSpaceOnUse">
<stop stop-color="#FA00FF"/>
<stop offset="1" stop-color="#9D02D3"/>
</linearGradient>
<linearGradient id="paint2_linear" x1="61.5153" y1="106.727" x2="95.7087" y2="133.021" gradientUnits="userSpaceOnUse">
<stop stop-color="#FA00FF"/>
<stop offset="1" stop-color="#F9E7FF"/>
</linearGradient>
<linearGradient id="paint3_linear" x1="63.4971" y1="108.359" x2="93.6084" y2="131.514" gradientUnits="userSpaceOnUse">
<stop stop-color="#FA00FF"/>
<stop offset="1" stop-color="#F9E7FF"/>
</linearGradient>
<linearGradient id="paint4_linear" x1="76.2489" y1="120.251" x2="103.287" y2="124.294" gradientUnits="userSpaceOnUse">
<stop stop-color="#F9A1FE"/>
<stop offset="0.6875" stop-color="#C702E7"/>
<stop offset="1" stop-color="#C602E7"/>
</linearGradient>
<linearGradient id="paint5_linear" x1="77.6108" y1="126.208" x2="82.3276" y2="129.835" gradientUnits="userSpaceOnUse">
<stop stop-color="#F9A1FE"/>
<stop offset="1" stop-color="#C241EF"/>
</linearGradient>
</defs>
</svg>
