<svg width="320" height="256" viewBox="0 0 320 256" fill="none" xmlns="http://www.w3.org/2000/svg">
<g clip-path="url(#clip0)">
<path d="M38.6467 84.7595C29.8482 127.359 48.4234 139.601 56.7331 148.42C23.4934 263.002 150.099 262.022 183.827 231.178C260.573 263.002 305.544 184.161 270.813 155.765C280.126 136.172 282.701 137.045 284.957 122.12C289.888 89.5085 270.813 61.2506 238.376 54.1671C217.418 32.189 210.835 16.9056 176.837 6.65972C120.567 -10.298 100.727 39.708 100.727 39.708C100.727 39.708 53.3489 46.3775 38.6467 84.7595Z" fill="url(#paint0_linear)"/>
<path d="M228.314 62.3119H102.195V87.9558H110.261V174.643H220.248V87.9558H228.314V62.3119Z" fill="url(#paint1_linear)"/>
<path d="M101.011 75.2488H229.161V89.6714H101.011V75.2488Z" fill="black" fill-opacity="0.08"/>
<path d="M109.587 86.0658H220.095V101.39H109.587V86.0658Z" fill="black" fill-opacity="0.08"/>
<path d="M133.328 153.604C122.422 147.036 107.083 136.667 107.083 136.667L101.706 148.419L134.946 176.331L149.611 176.331C145.701 167.027 144.234 160.171 133.328 153.604Z" fill="black" fill-opacity="0.08"/>
<path d="M197.445 154.61C208.351 148.042 223.69 137.673 223.69 137.673L229.067 149.425L195.827 177.338L181.162 177.338C185.073 168.034 186.539 161.178 197.445 154.61Z" fill="black" fill-opacity="0.08"/>
<path d="M153.521 63.2128H176.007V175.841H153.521V63.2128Z" fill="white"/>
<path d="M153.034 167.675H177.231V174.644H153.034V167.675Z" fill="black" fill-opacity="0.08"/>
<path d="M188.526 36.4584C188.526 36.4584 197.273 42.7998 191.651 51.7194C186.03 60.6391 167.943 59.8028 167.943 59.8028L179.186 47.0506L188.526 36.4584Z" fill="#2F83FF" fill-opacity="0.1"/>
<path d="M146.848 40.8863C154.775 33.4404 166.477 36.5282 166.477 63.7052C135.191 61.3358 143.029 44.4733 146.848 40.8863Z" fill="#2F83FF" fill-opacity="0.1"/>
<path d="M154.745 148.442L176.009 128.373V174.922H154.745V148.442Z" fill="#2F83FF" fill-opacity="0.1"/>
<path d="M154.5 86.8414L175.764 66.7723V104.086L154.5 124.156V86.8414Z" fill="#2F83FF" fill-opacity="0.1"/>
<path d="M101.913 63.4962H229.16V75.249H101.913V63.4962Z" fill="white" fill-opacity="0.16"/>
<path fill-rule="evenodd" clip-rule="evenodd" d="M141.882 40.3732C144.518 37.1628 149.388 35.7182 153.622 38.0472C157.631 40.2528 161.742 46.2358 162.429 59.0524C149.789 57.1423 144.21 53.0052 141.989 49.3671C139.63 45.5028 140.753 41.7485 141.882 40.3732ZM151.526 64.1725H105.372C104.415 64.1725 103.214 65.1471 103.214 66.911V86.9314H151.526V64.1725ZM151.526 91.6282H112.501V170.184C112.501 172.409 114.032 173.758 115.393 173.758H151.526V91.6282ZM155.519 173.758V91.6282H175.234V173.758H155.519ZM151.526 177.758V177.897H153.522H177.231H179.227V177.758H215.36C219.398 177.758 222.245 174.116 222.245 170.184V90.9314H228.681C230.424 90.9314 231.41 89.4101 231.41 88.0951V66.911C231.41 63.4409 228.892 60.1725 225.259 60.1725H180.192C186.799 57.7651 190.72 54.5394 192.761 51.0684C195.956 45.6341 194.237 40.0502 191.668 37.6527C187.847 34.0871 181.054 31.9344 175.005 35.0781C170.615 37.3591 167.077 42.1794 165.324 50.2753C163.549 42.0176 159.95 36.9647 155.544 34.541C149.423 31.1743 142.5 33.3232 138.798 37.8323C136.631 40.4713 135.301 46.0784 138.583 51.4539C140.626 54.8019 144.341 57.8865 150.411 60.1725H105.372C101.74 60.1725 99.2207 63.4409 99.2207 66.911V88.0951C99.2207 89.4101 100.208 90.9314 101.95 90.9314H108.509V170.184C108.509 174.116 111.356 177.758 115.393 177.758H151.526ZM155.519 64.1725H175.234V86.9314H155.519V64.1725ZM179.227 86.9314V64.1725H225.259C226.216 64.1725 227.418 65.1471 227.418 66.911V86.9314H179.227ZM179.227 91.6282H218.252V170.184C218.252 172.409 216.722 173.758 215.36 173.758H179.227V91.6282ZM189.321 49.0382C187.197 52.6505 181.522 56.9101 168.219 59.0416C168.901 46.2732 172.924 40.6655 176.843 38.6288C181.054 36.4406 186.055 37.8815 188.947 40.5798C190.159 41.7113 191.556 45.2372 189.321 49.0382Z" fill="#52199F"/>
<path d="M155.477 84.7593H175.271V95.5325H155.477V84.7593Z" fill="#EBF3FF"/>
<path d="M267.417 187.103C211.202 218.934 224.4 234.114 222.445 252.722C212.18 254.681 183.339 253.701 183.339 253.701C183.339 253.701 181.873 215.506 183.339 201.304C184.806 187.103 190.183 176.82 190.183 176.82C190.183 176.82 193.605 165.067 220.49 147.439C220.49 147.439 227.333 142.052 227.333 133.238C229.778 125.402 238.088 112.181 248.353 114.14C251.286 116.588 259.107 116.588 245.909 146.459C245.909 146.459 236.132 152.335 235.154 164.088C242.487 167.026 247.864 162.129 247.864 162.129C247.864 162.129 250.797 154.294 259.107 148.418C259.596 144.5 259.107 139.603 265.462 129.81C264.484 124.913 265.462 114.14 267.417 105.325C265.95 94.0625 269.372 77.5631 281.104 79.3716C288.436 81.8202 285.014 120.996 285.014 135.686C283.548 148.908 272.794 177.8 267.417 187.103Z" fill="#DFE8F3"/>
<path d="M238.576 128.34C244.442 130.789 251.774 131.278 251.774 131.278L253.729 119.526L249.33 114.629H241.02L229.288 126.382L227.333 137.155L222.934 144.99L193.604 169.474L184.317 194.448L182.85 253.701H191.649V224.809C191.649 224.809 191.453 214.526 192.627 203.263C193.604 190.041 229.288 149.887 229.288 149.887C229.288 149.887 231.732 135.196 238.576 128.34Z" fill="white"/>
<path d="M278.659 90.6343C274.26 89.1652 267.808 95.6292 267.417 96.0209L273.282 80.8405L283.548 79.8611L285.014 100.428C285.014 100.428 279.148 101.407 278.659 90.6343Z" fill="white"/>
<path d="M211.202 225.299C210.225 230.686 210.225 245.376 210.225 245.376L221.956 253.701L223.423 227.258L229.778 215.015L240.532 205.711L266.928 188.083L280.126 157.232L283.548 131.768C283.548 131.768 272.305 167.516 260.084 180.247C250.308 188.537 247.864 188.572 232.71 198.366C217.557 208.16 212.18 219.912 211.202 225.299Z" fill="#C8D5E4"/>
<path d="M264.973 130.299L267.906 113.65C267.906 113.65 269.155 122.954 267.417 134.706C265.679 146.459 265.462 149.887 254.219 165.557C242.976 181.227 228.311 181.227 228.311 181.227L234.666 164.088L247.375 163.108L258.129 148.907L264.973 130.299Z" fill="#C8D5E4"/>
<path fill-rule="evenodd" clip-rule="evenodd" d="M272.609 79.4825C274.996 77.6825 277.955 76.863 281.407 77.3952L281.574 77.421L281.735 77.4746C283.444 78.0452 284.506 79.5538 285.193 81.0615C285.906 82.6258 286.409 84.6104 286.777 86.8077C287.515 91.2187 287.774 96.9357 287.805 102.928C287.836 108.941 287.636 115.328 287.429 121.105C287.398 121.995 287.366 122.869 287.335 123.724C287.162 128.453 287.011 132.616 287.011 135.686V135.797L286.998 135.907C286.238 142.765 283.112 153.481 279.564 163.531C276.012 173.593 271.929 183.287 269.144 188.106L268.872 188.576L268.4 188.844C240.868 204.465 230.501 215.814 226.613 225.266C224.676 229.973 224.289 234.343 224.319 238.806C224.329 240.239 224.385 241.73 224.444 243.26C224.561 246.359 224.686 249.618 224.435 252.876L224.294 254.722H182.362C182.361 254.722 182.361 254.722 182.361 252.722C180.365 252.748 180.365 252.748 180.365 252.748L180.36 252.324C180.357 252.047 180.352 251.639 180.347 251.115C180.336 250.068 180.323 248.556 180.311 246.698C180.288 242.981 180.273 237.877 180.304 232.328C180.365 221.267 180.608 208.314 181.353 201.099C182.106 193.804 183.862 187.527 185.427 183.073C186.211 180.843 186.949 179.064 187.495 177.836C187.769 177.221 187.994 176.743 188.153 176.415C188.229 176.258 188.291 176.135 188.335 176.047C188.337 176.039 188.34 176.031 188.343 176.022C188.387 175.898 188.449 175.731 188.536 175.52C188.708 175.099 188.977 174.508 189.38 173.76C190.185 172.262 191.527 170.135 193.711 167.471C198.07 162.155 205.785 154.701 219.308 145.823C219.345 145.792 219.398 145.747 219.467 145.687C219.624 145.548 219.86 145.333 220.147 145.045C220.723 144.468 221.499 143.608 222.276 142.497C223.834 140.267 225.337 137.112 225.337 133.238V132.933L225.427 132.641C226.726 128.48 229.548 122.951 233.433 118.671C237.282 114.429 242.579 111.002 248.726 112.175L249.234 112.272L249.631 112.604C249.761 112.712 249.979 112.843 250.257 113.008C251.632 113.829 254.455 115.515 255.149 119.687C255.549 122.094 255.315 125.277 254.205 129.645C253.091 134.032 251.058 139.745 247.734 147.269L247.478 147.848L246.94 148.172L246.938 148.173L246.937 148.174L246.935 148.174L246.93 148.178C246.919 148.184 246.9 148.197 246.872 148.215C246.816 148.25 246.727 148.308 246.61 148.388C246.375 148.548 246.027 148.797 245.6 149.133C244.745 149.807 243.587 150.825 242.4 152.184C240.261 154.633 238.072 158.136 237.333 162.702C239.819 163.336 241.95 162.947 243.552 162.34C244.514 161.976 245.281 161.532 245.801 161.185C245.965 161.075 246.104 160.976 246.214 160.893C246.321 160.647 246.468 160.322 246.659 159.932C247.096 159.041 247.764 157.803 248.702 156.377C250.469 153.691 253.214 150.311 257.215 147.323C257.234 147.11 257.253 146.889 257.273 146.657C257.409 145.093 257.58 143.104 258.147 140.833C258.907 137.786 260.373 134.112 263.363 129.383C262.964 126.671 263.015 122.889 263.349 118.871C263.714 114.489 264.433 109.64 265.393 105.232C264.691 99.4124 265.208 92.2857 267.459 86.6983C268.612 83.8382 270.277 81.2408 272.609 79.4825ZM247.864 162.13C249.207 163.609 249.206 163.61 249.205 163.611L249.203 163.612L249.2 163.615L249.191 163.623L249.168 163.644C249.149 163.66 249.125 163.681 249.096 163.706C249.038 163.756 248.959 163.822 248.859 163.901C248.659 164.06 248.376 164.273 248.016 164.513C247.3 164.991 246.264 165.589 244.965 166.081C242.347 167.074 238.642 167.64 234.413 165.945L233.042 165.396L233.165 163.922C233.699 157.501 236.639 152.706 239.395 149.55C240.775 147.97 242.122 146.785 243.131 145.989C243.613 145.61 244.02 145.317 244.32 145.111C247.451 137.971 249.322 132.65 250.336 128.659C251.38 124.549 251.482 121.978 251.21 120.345C250.848 118.166 250.001 117.636 248.765 116.864C248.386 116.627 247.97 116.367 247.52 116.029C243.565 115.485 239.741 117.666 236.387 121.361C233.025 125.066 230.512 129.912 229.327 133.558C229.246 138.349 227.37 142.181 225.547 144.791C224.612 146.128 223.677 147.165 222.971 147.874C222.616 148.228 222.317 148.503 222.1 148.693C221.992 148.789 221.904 148.863 221.84 148.916C221.808 148.943 221.782 148.964 221.762 148.98L221.738 149L221.726 149.009L221.724 149.01C221.724 149.011 221.723 149.011 220.489 147.439L221.723 149.011L221.655 149.065L221.583 149.112C208.275 157.838 200.861 165.053 196.797 170.01C194.765 172.487 193.571 174.4 192.895 175.657C192.557 176.286 192.348 176.751 192.228 177.042C192.169 177.187 192.131 177.289 192.112 177.346C192.103 177.371 192.097 177.387 192.095 177.395C192.095 177.396 192.094 177.396 192.094 177.397C192.093 177.4 192.093 177.4 192.094 177.397L192.043 177.572L191.952 177.747L191.951 177.748L191.95 177.749L191.942 177.765C191.934 177.781 191.921 177.806 191.904 177.841C191.868 177.911 191.814 178.019 191.744 178.164C191.603 178.454 191.397 178.891 191.143 179.462C190.635 180.605 189.938 182.285 189.194 184.401C187.704 188.639 186.038 194.604 185.325 201.511C184.603 208.497 184.358 221.252 184.297 232.35C184.266 237.88 184.281 242.967 184.304 246.673C184.314 248.326 184.326 249.704 184.336 250.722H220.557C220.642 248.359 220.554 246.085 220.463 243.742C220.401 242.154 220.338 240.535 220.326 238.833C220.295 234.099 220.702 229.135 222.921 223.742C227.317 213.055 238.596 201.22 265.953 185.636C268.546 180.988 272.382 171.878 275.8 162.197C279.319 152.227 282.29 141.946 283.018 135.573C283.021 132.434 283.175 128.226 283.345 123.561C283.376 122.709 283.408 121.841 283.439 120.963C283.645 115.187 283.842 108.872 283.812 102.949C283.782 97.005 283.522 91.5509 282.839 87.4688C282.496 85.4195 282.064 83.8271 281.561 82.7229C281.126 81.769 280.755 81.4293 280.567 81.3155C278.266 81.0139 276.469 81.5783 275.01 82.6784C273.447 83.857 272.148 85.7493 271.162 88.1958C269.182 93.1084 268.696 99.6867 269.396 105.067L269.442 105.416L269.365 105.759C268.408 110.076 267.688 114.884 267.329 119.203C266.965 123.577 266.988 127.26 267.419 129.418L267.578 130.217L267.135 130.9C264.058 135.643 262.692 139.113 262.021 141.803C261.536 143.745 261.409 145.229 261.282 146.704C261.227 147.348 261.172 147.989 261.088 148.666L260.978 149.543L260.258 150.052C256.353 152.814 253.706 156.04 252.036 158.578C251.202 159.845 250.617 160.934 250.244 161.695C250.058 162.075 249.925 162.372 249.841 162.568C249.799 162.666 249.77 162.739 249.752 162.784C249.743 162.806 249.737 162.821 249.734 162.829L249.733 162.832L249.732 162.834L249.732 162.835L249.564 163.284L249.207 163.609L247.864 162.13ZM182.361 252.722L180.365 252.748L180.391 254.722H182.362L182.361 252.722Z" fill="#52199F"/>
<path fill-rule="evenodd" clip-rule="evenodd" d="M234.155 161.257C234.496 160.927 235.152 160.541 235.997 160.714C237.078 160.934 237.776 161.989 237.556 163.072C237.511 163.295 237.43 163.502 237.321 163.688C237.282 163.91 237.237 164.231 237.175 164.686C237.167 164.746 237.158 164.807 237.15 164.87C237 165.972 236.788 167.536 236.42 169.315C235.648 173.044 234.15 177.94 230.873 181.902C230.17 182.752 228.911 182.87 228.062 182.166C227.213 181.461 227.095 180.2 227.799 179.35C230.463 176.128 231.789 171.985 232.51 168.503C232.849 166.864 233.045 165.42 233.195 164.317C233.203 164.259 233.211 164.201 233.219 164.145C233.291 163.612 233.363 163.09 233.443 162.706C233.479 162.535 233.544 162.244 233.669 161.963C233.725 161.836 233.867 161.536 234.155 161.257ZM237.368 163.452C237.368 163.452 237.368 163.454 237.367 163.458C237.368 163.454 237.368 163.452 237.368 163.452Z" fill="#52199F"/>
<path d="M184.257 243.907H220.489L221.092 254.68H184.316L184.257 243.907Z" fill="#C8D5E4"/>
<path d="M191.649 243.907H210.224V254.68H191.649V243.907Z" fill="#DFE8F3"/>
<path d="M184.253 243.907H191.649V254.68H184.317L184.253 243.907Z" fill="white"/>
<path d="M65.7633 187.103C121.978 218.934 108.78 234.114 110.735 252.722C121 254.681 149.841 253.701 149.841 253.701C149.841 253.701 151.307 215.506 149.841 201.304C148.374 187.103 142.997 176.82 142.997 176.82C142.997 176.82 139.576 165.067 112.69 147.439C112.69 147.439 105.847 142.052 105.847 133.238C103.403 125.402 95.0926 112.181 84.8274 114.14C81.8945 116.588 74.0733 116.588 87.2716 146.459C87.2716 146.459 97.0479 152.335 98.0257 164.088C90.6932 167.026 85.3163 162.129 85.3163 162.129C85.3163 162.129 82.3832 154.294 74.0733 148.418C73.5845 144.5 74.0733 139.603 67.7186 129.81C68.6963 124.913 67.7186 114.14 65.7633 105.325C67.2298 94.0625 63.8081 77.5631 52.0763 79.3716C44.7439 81.8202 48.1657 120.996 48.1657 135.686C49.6322 148.908 60.3863 177.8 65.7633 187.103Z" fill="#DFE8F3"/>
<path d="M94.6038 128.34C88.7379 130.789 81.4055 131.278 81.4055 131.278L79.4502 119.526L83.8497 114.629H92.1596L103.891 126.382L105.847 137.155L110.246 144.99L139.575 169.474L148.863 194.448L150.33 253.701H141.531V224.809C141.531 224.809 141.726 214.526 140.553 203.263C139.575 190.041 103.891 149.887 103.891 149.887C103.891 149.887 101.447 135.196 94.6038 128.34Z" fill="white"/>
<path d="M54.5207 90.6343C58.9201 89.1652 65.3726 95.6292 65.7637 96.0209L59.8978 80.8405L49.6325 79.8611L48.166 100.428C48.166 100.428 54.0319 101.407 54.5207 90.6343Z" fill="white"/>
<path d="M121.978 225.299C122.956 230.686 122.956 245.376 122.956 245.376L111.224 253.701L109.757 227.258L103.403 215.015L92.6486 205.711L66.2522 188.083L53.054 157.232L49.6322 131.768C49.6322 131.768 60.8751 167.516 73.0957 180.247C82.8722 188.537 85.3163 188.572 100.47 198.366C115.623 208.16 121 219.912 121.978 225.299Z" fill="#C8D5E4"/>
<path d="M68.2074 130.299L65.2745 113.65C65.2745 113.65 64.0253 122.954 65.7633 134.706C67.5013 146.459 67.7186 149.887 78.9615 165.557C90.2044 181.227 104.869 181.227 104.869 181.227L98.5144 164.088L85.805 163.108L75.0509 148.907L68.2074 130.299Z" fill="#C8D5E4"/>
<path fill-rule="evenodd" clip-rule="evenodd" d="M60.5714 79.4825C58.184 77.6825 55.2256 76.863 51.773 77.3952L51.6058 77.421L51.4453 77.4746C49.7365 78.0452 48.6745 79.5538 47.9873 81.0615C47.2743 82.6258 46.7708 84.6104 46.4033 86.8077C45.6654 91.2187 45.4059 96.9357 45.3753 102.928C45.3445 108.941 45.5445 115.328 45.7508 121.105C45.7825 121.995 45.8144 122.869 45.8455 123.724C46.0179 128.453 46.1696 132.616 46.1696 135.686V135.797L46.1818 135.907C46.9424 142.765 50.068 153.481 53.6162 163.531C57.1684 173.593 61.2507 183.287 64.0359 188.106L64.3077 188.576L64.7798 188.844C92.3118 204.465 102.679 215.814 106.568 225.266C108.504 229.973 108.891 234.343 108.861 238.806C108.852 240.239 108.795 241.73 108.737 243.26C108.619 246.359 108.495 249.618 108.745 252.876L108.887 254.722H150.819C150.819 254.722 150.819 254.722 150.819 252.722C152.815 252.748 152.815 252.748 152.815 252.748L152.82 252.324C152.824 252.047 152.828 251.639 152.833 251.115C152.844 250.068 152.857 248.556 152.869 246.698C152.892 242.981 152.907 237.877 152.876 232.328C152.815 221.267 152.572 208.314 151.827 201.099C151.074 193.804 149.318 187.527 147.753 183.073C146.969 180.843 146.231 179.064 145.685 177.836C145.412 177.221 145.186 176.743 145.027 176.415C144.951 176.258 144.889 176.135 144.846 176.047C144.843 176.039 144.84 176.031 144.837 176.022C144.793 175.898 144.731 175.731 144.645 175.52C144.472 175.099 144.203 174.508 143.8 173.76C142.995 172.262 141.654 170.135 139.469 167.471C135.11 162.155 127.395 154.701 113.872 145.823C113.835 145.792 113.782 145.747 113.713 145.687C113.556 145.548 113.32 145.333 113.033 145.045C112.457 144.468 111.681 143.608 110.904 142.497C109.347 140.267 107.844 137.112 107.844 133.238V132.933L107.753 132.641C106.455 128.48 103.632 122.951 99.7476 118.671C95.8984 114.429 90.601 111.002 84.4542 112.175L83.9466 112.272L83.5496 112.604C83.4196 112.712 83.201 112.843 82.9234 113.008C81.5486 113.829 78.7256 115.515 78.0313 119.687C77.6309 122.094 77.8651 125.277 78.9748 129.645C80.0893 134.032 82.1219 139.745 85.4463 147.269L85.7023 147.848L86.2405 148.172L86.2424 148.173L86.2434 148.174L86.2447 148.174L86.25 148.178C86.2608 148.184 86.2804 148.197 86.3083 148.215C86.3641 148.25 86.4529 148.308 86.5703 148.388C86.8053 148.548 87.1536 148.797 87.5801 149.133C88.435 149.807 89.5931 150.825 90.7798 152.184C92.9193 154.633 95.1087 158.136 95.8469 162.702C93.3615 163.336 91.2305 162.947 89.6281 162.34C88.6666 161.976 87.8995 161.532 87.3787 161.185C87.2147 161.075 87.0766 160.976 86.9662 160.893C86.8592 160.647 86.7118 160.322 86.5207 159.932C86.0839 159.041 85.4166 157.803 84.4783 156.377C82.7112 153.691 79.9659 150.311 75.9656 147.323C75.946 147.11 75.9269 146.889 75.9069 146.657C75.7717 145.093 75.5998 143.104 75.0329 140.833C74.2727 137.786 72.8071 134.112 69.8175 129.383C70.2158 126.671 70.1649 122.889 69.8307 118.871C69.4662 114.489 68.7476 109.64 67.7875 105.232C68.4891 99.4124 67.9725 92.2857 65.7208 86.6983C64.5681 83.8382 62.9035 81.2408 60.5714 79.4825ZM85.3166 162.13C83.9736 163.609 83.9744 163.61 83.9751 163.611L83.9767 163.612L83.9803 163.615L83.989 163.623L84.0126 163.644C84.031 163.66 84.0548 163.681 84.0839 163.706C84.1421 163.756 84.2216 163.822 84.3216 163.901C84.5214 164.06 84.8044 164.273 85.1639 164.513C85.8805 164.991 86.9158 165.589 88.2151 166.081C90.8332 167.074 94.5385 167.64 98.7674 165.945L100.138 165.396L100.016 163.922C99.4813 157.501 96.5415 152.706 93.7848 149.55C92.4051 147.97 91.058 146.785 90.0493 145.989C89.5673 145.61 89.1602 145.317 88.8602 145.111C85.7287 137.971 83.8583 132.65 82.8443 128.659C81.8002 124.549 81.6982 121.978 81.9699 120.345C82.3325 118.166 83.1795 117.636 84.4148 116.864C84.7942 116.627 85.2102 116.367 85.66 116.029C89.6157 115.485 93.4394 117.666 96.7931 121.361C100.155 125.066 102.668 129.912 103.853 133.558C103.934 138.349 105.81 142.181 107.633 144.791C108.568 146.128 109.503 147.165 110.21 147.874C110.564 148.228 110.863 148.503 111.08 148.693C111.188 148.789 111.276 148.863 111.34 148.916C111.372 148.943 111.398 148.964 111.418 148.98L111.442 149L111.454 149.009L111.456 149.01C111.457 149.011 111.457 149.011 112.691 147.439L111.457 149.011L111.525 149.065L111.597 149.112C124.905 157.838 132.319 165.053 136.383 170.01C138.415 172.487 139.609 174.4 140.285 175.657C140.624 176.286 140.832 176.751 140.952 177.042C141.011 177.187 141.049 177.289 141.069 177.346C141.077 177.371 141.083 177.387 141.085 177.395C141.086 177.396 141.086 177.396 141.086 177.397C141.087 177.4 141.087 177.4 141.086 177.397L141.137 177.572L141.229 177.747L141.229 177.748L141.23 177.749L141.238 177.765C141.246 177.781 141.259 177.806 141.277 177.841C141.312 177.911 141.366 178.019 141.436 178.164C141.577 178.454 141.783 178.891 142.037 179.462C142.545 180.605 143.242 182.285 143.986 184.401C145.476 188.639 147.142 194.604 147.855 201.511C148.577 208.497 148.822 221.252 148.884 232.35C148.914 237.88 148.899 242.967 148.876 246.673C148.866 248.326 148.854 249.704 148.844 250.722H112.623C112.538 248.359 112.626 246.085 112.718 243.742C112.78 242.154 112.843 240.535 112.854 238.833C112.885 234.099 112.478 229.135 110.259 223.742C105.863 213.055 94.5841 201.22 67.2273 185.636C64.6341 180.988 60.7982 171.878 57.3806 162.197C53.8607 152.227 50.8898 141.946 50.1624 135.573C50.1588 132.434 50.0053 128.226 49.8352 123.561C49.8041 122.709 49.7725 121.841 49.7411 120.963C49.535 115.187 49.3378 108.872 49.3681 102.949C49.3986 97.005 49.6585 91.5509 50.3413 87.4688C50.6841 85.4195 51.1162 83.8271 51.6195 82.7229C52.0543 81.769 52.4256 81.4293 52.6131 81.3155C54.9142 81.0139 56.7111 81.5783 58.1702 82.6784C59.7334 83.857 61.0322 85.7493 62.0182 88.1958C63.998 93.1084 64.4845 99.6867 63.784 105.067L63.7385 105.416L63.8148 105.759C64.7724 110.076 65.4923 114.884 65.8516 119.203C66.2154 123.577 66.1921 127.26 65.7613 129.418L65.6018 130.217L66.0451 130.9C69.1226 135.643 70.488 139.113 71.1592 141.803C71.644 143.745 71.7713 145.229 71.8979 146.704C71.9531 147.348 72.0081 147.989 72.0926 148.666L72.202 149.543L72.9223 150.052C76.8275 152.814 79.4745 156.04 81.1444 158.578C81.9781 159.845 82.5634 160.934 82.9362 161.695C83.1224 162.075 83.2551 162.372 83.3389 162.568C83.3808 162.666 83.4103 162.739 83.4282 162.784C83.4372 162.806 83.4432 162.821 83.4463 162.829L83.4473 162.832L83.4481 162.834L83.4486 162.835L83.6167 163.284L83.9736 163.609L85.3166 162.13ZM150.819 252.722L152.815 252.748L152.789 254.722H150.819L150.819 252.722Z" fill="#52199F"/>
<path fill-rule="evenodd" clip-rule="evenodd" d="M99.0253 161.257C98.685 160.927 98.029 160.541 97.1834 160.714C96.1029 160.934 95.405 161.989 95.6246 163.072C95.6699 163.295 95.7508 163.502 95.8601 163.688C95.8984 163.91 95.944 164.231 96.0058 164.686C96.014 164.746 96.0224 164.807 96.0309 164.87C96.1805 165.972 96.3927 167.536 96.7608 169.315C97.5326 173.044 99.0302 177.94 102.307 181.902C103.011 182.752 104.269 182.87 105.118 182.166C105.967 181.461 106.085 180.2 105.382 179.35C102.717 176.128 101.391 171.985 100.671 168.503C100.331 166.864 100.135 165.42 99.9854 164.317C99.9775 164.259 99.9698 164.201 99.9621 164.145C99.8896 163.612 99.8177 163.09 99.7376 162.706C99.702 162.535 99.6366 162.244 99.512 161.963C99.4554 161.836 99.3132 161.536 99.0253 161.257ZM95.8126 163.452C95.8126 163.452 95.8131 163.454 95.8141 163.458C95.8131 163.454 95.8126 163.452 95.8126 163.452Z" fill="#52199F"/>
<path d="M148.923 243.907H112.691L112.088 254.68H148.864L148.923 243.907Z" fill="#C8D5E4"/>
<path d="M141.531 243.907H122.955V254.68H141.531V243.907Z" fill="#DFE8F3"/>
<path d="M148.926 243.907H141.531V254.68H148.863L148.926 243.907Z" fill="white"/>
<path d="M265.129 23.679C255.732 26.5447 254.181 27.6365 251.864 37.7305C248.925 27.7653 247.309 26.2245 237.864 24.3473C245.104 22.0635 249.312 20.3798 251.224 10.3227C253.476 20.2778 255.604 21.2793 265.129 23.679Z" fill="#AF73FF"/>
<path fill-rule="evenodd" clip-rule="evenodd" d="M266.127 23.6544C266.138 24.1035 265.848 24.5048 265.419 24.6356C260.666 26.0853 258.196 27.0161 256.554 28.6941C254.925 30.3598 254.001 32.8828 252.837 37.9546C252.735 38.3975 252.348 38.7161 251.895 38.73C251.441 38.7439 251.035 38.4497 250.907 38.0138C249.428 32.9997 248.346 30.3845 246.615 28.7295C244.898 27.089 242.413 26.2709 237.67 25.3282C237.223 25.2393 236.892 24.8581 236.867 24.4019C236.843 23.9458 237.129 23.5307 237.564 23.3935C241.213 22.2425 243.866 21.3025 245.877 19.504C247.848 17.7416 249.31 15.0459 250.243 10.1357C250.331 9.67037 250.734 9.33105 251.206 9.32284C251.679 9.31463 252.093 9.63977 252.197 10.1017C253.322 15.074 254.367 17.524 256.114 19.0886C257.899 20.6875 260.545 21.4931 265.372 22.7092C265.807 22.8187 266.116 23.2053 266.127 23.6544ZM263.308 24.2456C263.88 24.0627 264.486 23.875 265.129 23.679C264.479 23.5154 263.864 23.3583 263.281 23.2044C255.993 21.2807 253.705 19.8599 251.762 12.5338C251.581 11.8499 251.403 11.1146 251.224 10.3227C251.074 11.1113 250.91 11.8485 250.731 12.5385C248.843 19.8388 245.334 21.8597 239.784 23.7258C239.17 23.9326 238.53 24.1374 237.864 24.3473C238.564 24.4864 239.22 24.6236 239.838 24.7625C246.997 26.3733 248.881 28.2147 251.288 35.8375C251.476 36.4324 251.667 37.0625 251.864 37.7305C252.02 37.0494 252.173 36.4093 252.325 35.8068C254.272 28.0918 256.081 26.5558 263.308 24.2456Z" fill="#AF73FF"/>
<path d="M85.5137 241.264C80.292 242.677 79.4254 243.252 78.0671 248.793C76.5157 243.227 75.6331 242.345 70.4204 241.133C74.4443 240.003 76.7857 239.149 77.9192 233.621C79.0903 239.169 80.2605 239.762 85.5137 241.264Z" fill="#DFE8F3"/>
<path fill-rule="evenodd" clip-rule="evenodd" d="M86.5118 241.271C86.5086 241.721 86.2068 242.113 85.7738 242.23C83.1053 242.952 81.8577 243.398 81.0377 244.197C80.2303 244.984 79.7221 246.235 79.0364 249.031C78.9282 249.473 78.5364 249.786 78.0827 249.793C77.629 249.8 77.2276 249.5 77.1055 249.062C76.3215 246.249 75.7656 244.893 74.9108 244.037C74.0707 243.196 72.8194 242.717 70.1946 242.107C69.7505 242.004 69.4326 241.612 69.4223 241.155C69.412 240.699 69.7118 240.293 70.1508 240.17C72.1933 239.596 73.5695 239.146 74.6076 238.263C75.603 237.417 76.3987 236.065 76.9413 233.419C77.0364 232.955 77.4434 232.622 77.9162 232.621C78.389 232.619 78.7979 232.95 78.8958 233.414C79.4798 236.181 80.0198 237.433 80.8685 238.23C81.754 239.062 83.0992 239.534 85.7877 240.303C86.2189 240.426 86.5151 240.822 86.5118 241.271ZM83.7147 241.777C84.2499 241.612 84.8462 241.445 85.5136 241.264C84.8539 241.076 84.2586 240.901 83.7195 240.73C80.5681 239.726 79.3414 238.816 78.4228 235.678C78.2474 235.079 78.0833 234.398 77.9191 233.621C77.7625 234.385 77.5828 235.059 77.3787 235.658C76.3511 238.672 74.7065 239.753 72.2849 240.571C71.7082 240.766 71.0874 240.945 70.4203 241.133C71.1234 241.296 71.7478 241.454 72.3056 241.618C75.3769 242.519 76.4318 243.612 77.518 246.95C77.6971 247.5 77.877 248.111 78.067 248.793C78.2368 248.1 78.3988 247.485 78.5627 246.937C79.5424 243.656 80.5857 242.743 83.7147 241.777Z" fill="#DFE8F3"/>
<path d="M88.3754 67.0902C81.0821 69.063 79.8717 69.8666 77.9745 77.6057C75.8077 69.8312 74.5749 68.5993 67.2943 66.9065C72.9145 65.328 76.1847 64.1352 77.768 56.4142C79.4037 64.1633 81.0381 64.9917 88.3754 67.0902Z" fill="#DFE8F3"/>
<path fill-rule="evenodd" clip-rule="evenodd" d="M89.3739 67.0974C89.3707 67.5466 89.0689 67.9386 88.636 68.0557C84.9316 69.0577 83.0803 69.701 81.848 70.9023C80.6283 72.0912 79.8994 73.9481 78.9443 77.8442C78.8361 78.2856 78.4443 78.5984 77.9906 78.6055C77.5369 78.6127 77.1355 78.3124 77.0135 77.8746C75.9217 73.9574 75.1244 71.9624 73.8467 70.6827C72.5836 69.4176 70.7278 68.7313 67.069 67.8806C66.6249 67.7774 66.307 67.3858 66.2967 66.9292C66.2864 66.4725 66.5862 66.0669 67.0252 65.9436C69.8659 65.1458 71.8733 64.4989 73.3994 63.2014C74.8828 61.9403 76.0232 59.9554 76.7906 56.213C76.8857 55.7491 77.2927 55.4156 77.7655 55.4142C78.2383 55.4129 78.6472 55.744 78.745 56.2074C79.5614 60.0748 80.3335 61.9357 81.617 63.1418C82.937 64.3824 84.9193 65.0617 88.6498 66.1287C89.081 66.252 89.3772 66.6482 89.3739 67.0974ZM86.5504 67.6001C87.1129 67.4357 87.7197 67.2677 88.3757 67.0902C87.7258 66.9043 87.1206 66.7284 86.5562 66.5567C81.3966 64.9876 79.6452 63.7755 78.2731 58.5712C78.1009 57.918 77.9346 57.2019 77.7684 56.4142C77.6088 57.1924 77.4321 57.9042 77.2376 58.5568C75.7324 63.6068 73.1605 65.1101 69.2074 66.3461C68.6025 66.5353 67.9653 66.7181 67.2947 66.9065C67.9927 67.0688 68.6351 67.2268 69.228 67.3868C74.2832 68.7507 75.7456 70.2553 77.427 75.7239C77.6057 76.3049 77.7868 76.9306 77.9749 77.6057C78.1427 76.9213 78.3051 76.2911 78.4668 75.7096C79.9693 70.3069 81.4122 69.102 86.5504 67.6001Z" fill="#DFE8F3"/>
<path d="M126.055 40.3509C120.415 41.8767 119.479 42.4983 118.011 48.4838C116.335 42.4709 115.382 41.5181 109.751 40.2088C114.098 38.9879 116.627 38.0654 117.851 32.0938C119.117 38.0871 120.381 38.7278 126.055 40.3509Z" fill="#DFE8F3"/>
<path fill-rule="evenodd" clip-rule="evenodd" d="M126.827 40.3565C126.825 40.7039 126.591 41.007 126.257 41.0976C123.392 41.8726 121.96 42.3702 121.007 43.2993C120.063 44.2188 119.5 45.655 118.761 48.6683C118.677 49.0097 118.374 49.2516 118.023 49.2572C117.672 49.2627 117.362 49.0305 117.267 48.6918C116.423 45.6622 115.806 44.1192 114.818 43.1294C113.841 42.151 112.406 41.6202 109.576 40.9622C109.233 40.8824 108.987 40.5795 108.979 40.2263C108.971 39.8732 109.203 39.5595 109.542 39.4641C111.739 38.847 113.292 38.3467 114.472 37.3432C115.62 36.3678 116.502 34.8326 117.095 31.9382C117.169 31.5794 117.483 31.3214 117.849 31.3204C118.215 31.3193 118.531 31.5754 118.607 31.9338C119.238 34.925 119.835 36.3643 120.828 37.2971C121.849 38.2566 123.382 38.782 126.267 39.6072C126.601 39.7026 126.83 40.009 126.827 40.3565ZM124.644 40.7453C125.079 40.6181 125.548 40.4882 126.055 40.3509C125.553 40.2071 125.085 40.0711 124.648 39.9383C120.657 38.7247 119.303 37.7872 118.242 33.7621C118.109 33.2569 117.98 32.703 117.851 32.0938C117.728 32.6956 117.591 33.2462 117.441 33.7509C116.277 37.6568 114.287 38.8194 111.23 39.7754C110.762 39.9217 110.269 40.0631 109.751 40.2088C110.291 40.3343 110.787 40.4566 111.246 40.5803C115.156 41.6352 116.287 42.7988 117.587 47.0284C117.726 47.4778 117.866 47.9617 118.011 48.4838C118.141 47.9545 118.266 47.4671 118.392 47.0174C119.554 42.8387 120.67 41.9069 124.644 40.7453Z" fill="#DFE8F3"/>
<path d="M220.123 11.71C215.037 13.0859 214.193 13.6464 212.87 19.0438C211.358 13.6217 210.499 12.7625 205.421 11.5819C209.341 10.481 211.621 9.64912 212.726 4.26433C213.866 9.66869 215.006 10.2465 220.123 11.71Z" fill="#AF73FF"/>
<path fill-rule="evenodd" clip-rule="evenodd" d="M221.016 11.7165C221.013 12.1181 220.743 12.4685 220.356 12.5732C217.761 13.2751 216.524 13.7138 215.708 14.5096C214.903 15.2944 214.404 16.5346 213.736 19.257C213.64 19.6517 213.289 19.9314 212.884 19.9378C212.478 19.9442 212.119 19.6757 212.01 19.2842C211.247 16.5464 210.701 15.2055 209.852 14.3546C209.015 13.5168 207.775 13.047 205.219 12.4529C204.822 12.3605 204.538 12.0104 204.529 11.6022C204.519 11.1939 204.788 10.8312 205.18 10.721C207.167 10.1629 208.525 9.7207 209.552 8.84788C210.54 8.0076 211.321 6.67118 211.851 4.08441C211.936 3.66959 212.3 3.37145 212.723 3.37023C213.146 3.369 213.511 3.66503 213.599 4.07935C214.168 6.77522 214.697 8.01734 215.544 8.81289C216.423 9.63923 217.755 10.1027 220.368 10.8503C220.754 10.9606 221.019 11.3148 221.016 11.7165ZM218.508 12.1676C218.993 12.0202 219.53 11.8707 220.123 11.71C219.536 11.542 219.001 11.3857 218.512 11.2323C215.294 10.2226 214.089 9.34438 213.176 6.12867C213.02 5.57949 212.873 4.96214 212.726 4.26433C212.585 4.95093 212.425 5.56351 212.245 6.11206C211.228 9.20972 209.571 10.2657 207.101 11.08C206.578 11.2525 206.019 11.4141 205.421 11.5819C206.049 11.7278 206.612 11.8688 207.12 12.0141C210.26 12.9128 211.289 13.9763 212.379 17.3855C212.539 17.8855 212.7 18.436 212.87 19.0438C213.021 18.4266 213.166 17.8726 213.312 17.3735C214.292 14.0172 215.309 13.1384 218.508 12.1676Z" fill="#AF73FF"/>
<path d="M281.959 54.6567C277.097 55.9719 276.29 56.5077 275.025 61.667C273.58 56.4841 272.758 55.6628 267.905 54.5343C271.651 53.4819 273.832 52.6867 274.887 47.5394C275.978 52.7054 277.067 53.2577 281.959 54.6567Z" fill="#AF73FF"/>
<path fill-rule="evenodd" clip-rule="evenodd" d="M282.957 54.6639C282.954 55.1131 282.652 55.5051 282.219 55.6222C279.73 56.2954 278.587 56.7073 277.839 57.437C277.103 58.1543 276.633 59.2993 275.994 61.9055C275.886 62.3469 275.494 62.6597 275.04 62.6669C274.587 62.674 274.185 62.3737 274.063 61.9359C273.333 59.3145 272.819 58.07 272.037 57.2874C271.271 56.5195 270.124 56.0769 267.679 55.5084C267.235 55.4051 266.917 55.0135 266.907 54.5569C266.896 54.1003 267.196 53.6947 267.635 53.5714C269.539 53.0366 270.806 52.6206 271.759 51.81C272.67 51.0358 273.406 49.7937 273.909 47.3382C274.004 46.8743 274.411 46.5408 274.884 46.5394C275.357 46.5381 275.766 46.8692 275.864 47.3325C276.407 49.9085 276.907 51.0546 277.68 51.7814C278.49 52.5426 279.725 52.9779 282.233 53.6952C282.664 53.8185 282.96 54.2147 282.957 54.6639ZM280.167 55.1703C280.695 55.0045 281.288 54.838 281.959 54.6567C281.297 54.4674 280.704 54.2936 280.172 54.1217C277.362 53.2143 276.231 52.3618 275.391 49.5719C275.214 48.986 275.051 48.3147 274.887 47.5394C274.731 48.2998 274.551 48.9651 274.344 49.5504C273.402 52.2233 271.917 53.2254 269.756 53.9718C269.187 54.1684 268.57 54.3473 267.905 54.5343C268.609 54.698 269.228 54.8552 269.777 55.0202C272.512 55.8429 273.491 56.8592 274.475 59.8346C274.655 60.3768 274.834 60.984 275.025 61.667C275.195 60.9725 275.357 60.3619 275.522 59.8218C276.412 56.9024 277.381 56.0455 280.167 55.1703Z" fill="#AF73FF"/>
</g>
<defs>
<linearGradient id="paint0_linear" x1="41.067" y1="96.8336" x2="306.917" y2="177.649" gradientUnits="userSpaceOnUse">
<stop stop-color="#2CC3F2"/>
<stop offset="0.644669" stop-color="#00D0FF"/>
<stop offset="1" stop-color="#00FFFF"/>
</linearGradient>
<linearGradient id="paint1_linear" x1="102.195" y1="118.478" x2="228.314" y2="118.478" gradientUnits="userSpaceOnUse">
<stop stop-color="#FA00FF"/>
<stop offset="1" stop-color="#C241EF"/>
</linearGradient>
<clipPath id="clip0">
<rect width="319.434" height="256" fill="white"/>
</clipPath>
</defs>
</svg>
