<svg width="218" height="52" viewBox="0 0 218 52" fill="none" xmlns="http://www.w3.org/2000/svg">
	<path fill-rule="evenodd" clip-rule="evenodd" d="M103.465 1.75761C104.456 1.01331 105.791 0.367451 107.248 0.732557C109.33 1.25458 111.064 2.65769 111.437 4.84687C111.799 6.96584 110.791 9.3229 108.592 11.6254C108.333 11.8964 107.975 12.0496 107.6 12.0496H90.9372C90.5625 12.0496 90.2042 11.8964 89.9454 11.6254C87.7618 9.33918 86.6932 6.9905 87.0188 4.86939C87.3606 2.64192 89.1322 1.2426 91.3073 0.728209C92.7841 0.378947 94.14 0.993523 95.1733 1.74483C96.2264 2.51052 97.1758 3.58048 97.9524 4.60366C98.4919 5.31444 98.9714 6.03404 99.3677 6.67057C99.7587 6.03652 100.23 5.32029 100.758 4.61286C101.519 3.59235 102.446 2.52364 103.465 1.75761ZM97.7401 9.30678C97.6649 9.17239 97.5802 9.02355 97.4867 8.86313C97.0614 8.13305 96.4644 7.18001 95.7676 6.26197C95.0614 5.33156 94.3008 4.50165 93.5603 3.96329C92.8001 3.41057 92.2789 3.31694 91.9385 3.39743C90.4793 3.74255 89.8509 4.49705 89.7299 5.28547C89.6023 6.11654 89.9432 7.49497 91.5394 9.30678H97.7401ZM101.001 9.30678H106.997C108.573 7.51068 108.876 6.14052 108.734 5.30797C108.593 4.48127 107.927 3.73055 106.581 3.39308C106.323 3.32844 105.858 3.39079 105.113 3.95053C104.397 4.48854 103.652 5.31969 102.956 6.25278C102.27 7.17285 101.678 8.12788 101.255 8.85941C101.161 9.02126 101.076 9.17136 101.001 9.30678Z" fill="url(#paint0_linear)"/>
	<path d="M80.0572 51.3714C77.8481 51.3714 76.0572 49.5806 76.0572 47.3714V18.3429C76.0572 16.1337 77.8481 14.3429 80.0572 14.3429H118.686C120.895 14.3429 122.686 16.1337 122.686 18.3429V47.3714C122.686 49.5806 120.895 51.3714 118.686 51.3714H80.0572Z" fill="url(#paint1_linear)"/>
	<path d="M23.9568 20.2682C24.9972 20.6392 26.1414 20.0966 26.5124 19.0562C26.8834 18.0158 26.3407 16.8716 25.3003 16.5006L23.9568 20.2682ZM2 33.3233L0.000906825 33.2631C0.000302315 33.2832 0 33.3032 0 33.3233L2 33.3233ZM16.5763 31.3235C15.4718 31.3235 14.5763 32.2189 14.5763 33.3235C14.5763 34.428 15.4718 35.3235 16.5763 35.3235V31.3235ZM8.85715 46.8396L7.93625 48.615L8.85715 46.8396ZM24.5961 47.7393L25.0686 49.6827L24.5961 47.7393ZM24.6286 18.3844C25.3003 16.5006 25.2994 16.5003 25.2983 16.4999C25.2979 16.4997 25.2968 16.4994 25.2959 16.499C25.2941 16.4984 25.2919 16.4976 25.2894 16.4967C25.2844 16.495 25.2781 16.4928 25.2704 16.4901C25.2552 16.4848 25.2346 16.4777 25.2089 16.4689C25.1575 16.4515 25.0855 16.4275 24.9944 16.3982C24.8122 16.3396 24.5528 16.2595 24.2269 16.1677C23.5762 15.9842 22.6546 15.7521 21.5488 15.5501C19.3565 15.1494 16.3468 14.8492 13.2562 15.3425C10.1456 15.839 6.85997 17.1582 4.31817 20.0706C1.77823 22.9809 0.181986 27.2518 0.000906825 33.2631L3.99909 33.3835C4.16087 28.013 5.56463 24.7257 7.33183 22.7008C9.09717 20.6781 11.4258 19.6853 13.8867 19.2925C16.3675 18.8965 18.8863 19.1298 20.8297 19.4849C21.7918 19.6607 22.5899 19.8621 23.1418 20.0177C23.4172 20.0953 23.6299 20.1611 23.7695 20.206C23.8393 20.2285 23.8906 20.2456 23.9223 20.2564C23.9381 20.2618 23.949 20.2655 23.9548 20.2676C23.9578 20.2686 23.9594 20.2691 23.9597 20.2693C23.9599 20.2693 23.9597 20.2693 23.9592 20.2691C23.959 20.269 23.9584 20.2688 23.9583 20.2688C23.9576 20.2685 23.9568 20.2682 24.6286 18.3844ZM27.3143 46.8044V34.3235H23.3143V46.8044H27.3143ZM24.3143 31.3235H16.5763V35.3235H24.3143V31.3235ZM2 33.3233C0 33.3233 1.19209e-07 33.324 4.76837e-07 33.3248C7.15256e-07 33.3251 1.43051e-06 33.3259 2.26498e-06 33.3265C3.8147e-06 33.3277 6.55651e-06 33.329 1.06096e-05 33.3306C1.88351e-05 33.3336 3.27826e-05 33.3372 5.59092e-05 33.3415C0.000102043 33.3499 0.000184894 33.3608 0.000331283 33.3741C0.000623941 33.4006 0.00117087 33.4365 0.00218856 33.4814C0.00422323 33.5711 0.00814307 33.6967 0.0156894 33.854C0.0307676 34.1684 0.060408 34.6115 0.118773 35.1504C0.23502 36.2237 0.467691 37.7004 0.937371 39.3084C1.86075 42.4696 3.80338 46.4712 7.93625 48.615L9.77806 45.0643C7.05379 43.6511 5.56784 40.8946 4.77693 38.1869C4.38946 36.8604 4.19356 35.6249 4.09552 34.7197C4.04674 34.2693 4.02281 33.9065 4.0111 33.6624C4.00525 33.5405 4.00247 33.4486 4.00116 33.3907C4.0005 33.3617 4.00021 33.3413 4.00009 33.3299C4.00002 33.3242 4 33.3208 4 33.3197C3.99999 33.3191 3.99999 33.3191 4 33.3197C4 33.32 4 33.3205 4 33.3211C4 33.3214 4 33.3219 4 33.3221C4 33.3227 4 33.3233 2 33.3233ZM7.93625 48.615C11.2253 50.3211 14.9553 50.6984 18.0463 50.6187C21.1614 50.5384 23.8124 49.9881 25.0686 49.6827L24.1236 45.7959C23.0272 46.0625 20.6758 46.5496 17.9432 46.62C15.1863 46.6911 12.2232 46.3326 9.77806 45.0643L7.93625 48.615ZM27.3143 34.3235C27.3143 32.6666 25.9711 31.3235 24.3143 31.3235V35.3235C23.762 35.3235 23.3143 34.8758 23.3143 34.3235H27.3143ZM23.3143 46.8044C23.3143 46.3787 23.606 45.9218 24.1236 45.7959L25.0686 49.6827C26.4468 49.3476 27.3143 48.1158 27.3143 46.8044H23.3143Z" fill="#0066CC"/>
	<path fill-rule="evenodd" clip-rule="evenodd" d="M31.4857 17.0857C31.4857 15.9496 32.4067 15.0286 33.5429 15.0286H44.5143C45.6504 15.0286 46.5714 15.9496 46.5714 17.0857C46.5714 18.2218 45.6504 19.1429 44.5143 19.1429H41.0857V46.5714H44.5143C45.6504 46.5714 46.5714 47.4924 46.5714 48.6286C46.5714 49.7647 45.6504 50.6857 44.5143 50.6857H33.5429C32.4067 50.6857 31.4857 49.7647 31.4857 48.6286C31.4857 47.4924 32.4067 46.5714 33.5429 46.5714H36.9714V19.1429H33.5429C32.4067 19.1429 31.4857 18.2218 31.4857 17.0857Z" fill="#0066CC"/>
	<path fill-rule="evenodd" clip-rule="evenodd" d="M52.0571 18.4571C52.0571 16.5636 53.5922 15.0286 55.4857 15.0286H69.2C70.3361 15.0286 71.2571 15.9496 71.2571 17.0857C71.2571 18.2218 70.3361 19.1429 69.2 19.1429H56.1714V30.8H67.8286C68.9647 30.8 69.8857 31.721 69.8857 32.8571C69.8857 33.9933 68.9647 34.9143 67.8286 34.9143H56.1714V48.6286C56.1714 49.7647 55.2504 50.6857 54.1143 50.6857C52.9781 50.6857 52.0571 49.7647 52.0571 48.6286V18.4571Z" fill="#0066CC"/>
	<path fill-rule="evenodd" clip-rule="evenodd" d="M130.229 18.4571C130.229 16.5636 131.764 15.0286 133.657 15.0286H147.371C148.508 15.0286 149.429 15.9496 149.429 17.0857C149.429 18.2218 148.508 19.1429 147.371 19.1429H134.343V30.8H147.371C148.508 30.8 149.429 31.721 149.429 32.8571C149.429 33.9933 148.508 34.9143 147.371 34.9143H134.343V46.5714H147.371C148.508 46.5714 149.429 47.4924 149.429 48.6286C149.429 49.7647 148.508 50.6857 147.371 50.6857H133.657C131.764 50.6857 130.229 49.1507 130.229 47.2571V18.4571ZM162.642 17.466C163.7 14.3754 168.071 14.3754 169.129 17.466L175.331 35.5774L180.144 47.8789C180.558 48.937 180.036 50.1303 178.978 50.5443C177.92 50.9583 176.727 50.4362 176.313 49.3782L171.995 38.3429H159.777L155.459 49.3782C155.045 50.4362 153.851 50.9583 152.793 50.5443C151.735 50.1303 151.213 48.937 151.627 47.8789L156.441 35.5774L162.642 17.466ZM161.251 34.2286H170.52L165.886 20.6934L161.251 34.2286ZM212.723 22.8918L213.2 48.6667C213.221 49.8026 214.159 50.7064 215.295 50.6854C216.431 50.6643 217.335 49.7264 217.314 48.5905L216.767 19.0644C216.697 15.2534 211.392 14.3852 210.11 17.9747L200.81 44.0156L191.039 17.9591C189.699 14.3851 184.4 15.3459 184.4 19.163V48.6286C184.4 49.7647 185.321 50.6857 186.457 50.6857C187.593 50.6857 188.514 49.7647 188.514 48.6286V22.9445L197.615 47.2142C198.737 50.2055 202.98 50.1722 204.055 47.1636L212.723 22.8918Z" fill="#0066CC"/>
	<rect x="80.1714" y="18.4571" width="38.4" height="6.85714" rx="3.42857" fill="white"/>
	<rect x="95.2571" y="18.4571" width="8.22858" height="30.1714" rx="4.11429" fill="white"/>
	<defs>
	<linearGradient id="paint0_linear" x1="86.9613" y1="6.33857" x2="111.509" y2="6.33857" gradientUnits="userSpaceOnUse">
	<stop stop-color="#FA00FF"/>
	<stop offset="1" stop-color="#C241EF"/>
	</linearGradient>
	<linearGradient id="paint1_linear" x1="76.0572" y1="32.8571" x2="122.686" y2="32.8571" gradientUnits="userSpaceOnUse">
	<stop stop-color="#FA00FF"/>
	<stop offset="1" stop-color="#C241EF"/>
	</linearGradient>
	</defs>
</svg>