<svg width="320" height="256" viewBox="0 0 320 256" fill="none" xmlns="http://www.w3.org/2000/svg">
<path d="M287 128C287 198.14 230.14 255 160 255C89.8598 255 33 198.14 33 128C33 57.8598 89.8598 1 160 1C230.14 1 287 57.8598 287 128Z" fill="url(#paint0_linear)"/>
<path fill-rule="evenodd" clip-rule="evenodd" d="M160 249C226.826 249 281 194.826 281 128C281 61.1735 226.826 7 160 7C93.1735 7 39 61.1735 39 128C39 194.826 93.1735 249 160 249ZM160 255C230.14 255 287 198.14 287 128C287 57.8598 230.14 1 160 1C89.8598 1 33 57.8598 33 128C33 198.14 89.8598 255 160 255Z" fill="#52199F"/>
<path d="M87.5213 185.129C83.616 181.224 83.616 174.892 87.5213 170.987L203.487 55.0215C207.392 51.1163 213.724 51.1163 217.629 55.0215L232.478 69.8708C236.383 73.776 236.383 80.1077 232.478 84.0129L116.513 199.978C112.607 203.884 106.276 203.884 102.371 199.978L87.5213 185.129Z" fill="white"/>
<path fill-rule="evenodd" clip-rule="evenodd" d="M207.022 58.5571L91.0568 174.523C89.1042 176.475 89.1042 179.641 91.0568 181.594L105.906 196.443C107.859 198.396 111.024 198.396 112.977 196.443L228.943 80.4774C230.895 78.5247 230.895 75.3589 228.943 73.4063L214.093 58.5571C212.141 56.6044 208.975 56.6044 207.022 58.5571ZM87.5213 170.987C83.616 174.892 83.616 181.224 87.5213 185.129L102.371 199.978C106.276 203.884 112.607 203.884 116.513 199.978L232.478 84.0129C236.383 80.1077 236.383 73.776 232.478 69.8708L217.629 55.0215C213.724 51.1163 207.392 51.1163 203.487 55.0215L87.5213 170.987Z" fill="#52199F"/>
<path d="M102.37 55.0218C106.276 51.1165 112.607 51.1165 116.512 55.0218L232.478 170.987C236.383 174.893 236.383 181.224 232.478 185.129L217.629 199.979C213.723 203.884 207.392 203.884 203.487 199.979L87.5211 84.0131C83.6159 80.1079 83.6159 73.7762 87.5211 69.871L102.37 55.0218Z" fill="white"/>
<path fill-rule="evenodd" clip-rule="evenodd" d="M228.942 174.523L112.977 58.5573C111.024 56.6047 107.858 56.6047 105.906 58.5573L91.0566 73.4065C89.104 75.3591 89.104 78.525 91.0566 80.4776L207.022 196.443C208.975 198.396 212.141 198.396 214.093 196.443L228.942 181.594C230.895 179.641 230.895 176.475 228.942 174.523ZM116.512 55.0218C112.607 51.1165 106.276 51.1165 102.37 55.0218L87.5211 69.871C83.6159 73.7762 83.6159 80.1079 87.5211 84.0131L203.487 199.979C207.392 203.884 213.723 203.884 217.629 199.979L232.478 185.129C236.383 181.224 236.383 174.893 232.478 170.987L116.512 55.0218Z" fill="#52199F"/>
<rect x="115.233" y="150.324" width="86.394" height="30.9948" rx="10" transform="rotate(-45 115.233 150.324)" fill="white"/>
<defs>
<linearGradient id="paint0_linear" x1="33" y1="128" x2="287" y2="128" gradientUnits="userSpaceOnUse">
<stop stop-color="#FA00FF"/>
<stop offset="1" stop-color="#C241EF"/>
</linearGradient>
</defs>
</svg>
