<svg width="320" height="256" viewBox="0 0 320 256" fill="none" xmlns="http://www.w3.org/2000/svg">
<rect width="319.772" height="256" fill="white"/>
<path d="M157.838 226.523C222.982 226.523 288.359 164.803 288.359 98.8122C288.359 66.2288 264.189 47.5341 232.767 39.3436C207.349 23.6391 200.33 7.03039 165.573 2.06138C108.047 -6.16274 84.4651 74.1407 84.4651 74.1407C84.4651 74.1407 47.1375 91.5557 38.4362 131.224C36.5025 183.469 92.6953 226.523 157.838 226.523Z" fill="url(#paint0_linear)"/>
<path fill-rule="evenodd" clip-rule="evenodd" d="M80.0854 55.6436C79.4053 55.6436 78.772 55.9896 78.4042 56.562L72.2724 66.1072C72.2346 66.1661 72.2003 66.2258 72.1694 66.2862H65.5831C64.903 66.2862 64.2697 66.6322 63.9019 67.2047L58.2767 75.9612H54.8887C53.7849 75.9612 52.8901 76.8567 52.8901 77.9612V87.5064C52.8901 88.6109 53.7849 89.5064 54.8887 89.5064H56.7574V232.698H120.568V89.5064H121.534V79.8313H132.169V69.1887H146.672V55.6436H80.0854Z" fill="#FAFCFF"/>
<path fill-rule="evenodd" clip-rule="evenodd" d="M77.6143 65.1887L81.1765 59.6436H142.674V65.1887H77.6143ZM78.4042 56.562C78.772 55.9896 79.4053 55.6436 80.0854 55.6436H146.672V69.1887H132.169V79.8313H121.534V89.5064H120.914V233H56.9595V89.5064H54.8887C53.7849 89.5064 52.8901 88.6109 52.8901 87.5064V77.9612C52.8901 76.8567 53.7849 75.9612 54.8887 75.9612H58.2767L63.9019 67.2047C64.2697 66.6322 64.903 66.2862 65.5831 66.2862H72.1694C72.2003 66.2258 72.2346 66.1661 72.2724 66.1072L78.4042 56.562ZM117.537 85H56.9595V85.5064H56.8873V79.9612H117.537V85ZM60.9657 89.5064V228.948H116.908V89.5064H60.9657ZM66.6742 70.2862L63.112 75.8313H128.172V70.2862H66.6742ZM71.3246 105.954C72.4284 105.954 73.3232 106.849 73.3232 107.954V112.662C73.3232 113.766 72.4284 114.662 71.3246 114.662C70.2209 114.662 69.3261 113.766 69.3261 112.662V107.954C69.3261 106.849 70.2209 105.954 71.3246 105.954ZM85.1747 107.954C85.1747 106.849 84.2799 105.954 83.1761 105.954C82.0724 105.954 81.1776 106.849 81.1776 107.954V112.662C81.1776 113.766 82.0724 114.662 83.1761 114.662C84.2799 114.662 85.1747 113.766 85.1747 112.662V107.954ZM95.0273 105.954C96.131 105.954 97.0258 106.849 97.0258 107.954V112.662C97.0258 113.766 96.131 114.662 95.0273 114.662C93.9235 114.662 93.0287 113.766 93.0287 112.662V107.954C93.0287 106.849 93.9235 105.954 95.0273 105.954ZM110.062 107.954C110.062 106.849 109.168 105.954 108.064 105.954C106.96 105.954 106.065 106.849 106.065 107.954V112.662C106.065 113.766 106.96 114.662 108.064 114.662C109.168 114.662 110.062 113.766 110.062 112.662V107.954Z" fill="#2287BF"/>
<path fill-rule="evenodd" clip-rule="evenodd" d="M263.659 74.9941H212.416V96.2793H211.449V206.575H275.259V99.1819H277.141C278.555 99.1819 279.522 97.7528 278.997 96.4391L272.937 81.2802C271.42 77.4836 267.745 74.9941 263.659 74.9941Z" fill="white"/>
<path fill-rule="evenodd" clip-rule="evenodd" d="M216.413 78.9941H263.659C266.111 78.9941 268.316 80.4878 269.226 82.7658L274.189 95.1819H266.225L266.244 93.1701C266.281 89.3765 263.237 86.2716 259.446 86.2351C255.655 86.1986 252.552 89.2444 252.516 93.038L252.495 95.1819H245.922L245.941 93.1701C245.977 89.3765 242.934 86.2716 239.143 86.2351C235.352 86.1986 232.249 89.2444 232.213 93.038L232.192 95.1819H225.618L225.638 93.1701C225.674 89.3765 222.63 86.2716 218.84 86.2351C217.987 86.2269 217.169 86.3747 216.413 86.6518V78.9941ZM212.416 90.5096V74.9941H263.659C267.745 74.9941 271.42 77.4836 272.937 81.2802L278.997 96.4391C279.522 97.7528 278.555 99.1819 277.141 99.1819H275.259V206.575H211.449V96.2793H211.878L211.909 93.038C211.918 92.1434 212.097 91.2904 212.416 90.5096ZM215.446 100.279H271.262V120.337H215.446V100.279ZM215.446 124.337H271.262V144.525H215.446V124.337ZM215.446 148.525V202.575H271.262V148.525H215.446ZM224.082 105.954C225.186 105.954 226.081 106.85 226.081 107.954V112.662C226.081 113.767 225.186 114.662 224.082 114.662C222.979 114.662 222.084 113.767 222.084 112.662V107.954C222.084 106.85 222.979 105.954 224.082 105.954ZM235.749 107.954C235.749 106.85 234.854 105.954 233.751 105.954C232.647 105.954 231.752 106.85 231.752 107.954V112.662C231.752 113.767 232.647 114.662 233.751 114.662C234.854 114.662 235.749 113.767 235.749 112.662V107.954ZM243.419 105.954C244.523 105.954 245.417 106.85 245.417 107.954V112.662C245.417 113.767 244.523 114.662 243.419 114.662C242.315 114.662 241.42 113.767 241.42 112.662V107.954C241.42 106.85 242.315 105.954 243.419 105.954ZM256.052 107.954C256.052 106.85 255.158 105.954 254.054 105.954C252.95 105.954 252.055 106.85 252.055 107.954V112.662C252.055 113.767 252.95 114.662 254.054 114.662C255.158 114.662 256.052 113.767 256.052 112.662V107.954ZM264.689 105.954C265.793 105.954 266.687 106.85 266.687 107.954V112.662C266.687 113.767 265.793 114.662 264.689 114.662C263.585 114.662 262.69 113.767 262.69 112.662V107.954C262.69 106.85 263.585 105.954 264.689 105.954ZM226.081 132.142C226.081 131.038 225.186 130.142 224.082 130.142C222.979 130.142 222.084 131.038 222.084 132.142V136.85C222.084 137.954 222.979 138.85 224.082 138.85C225.186 138.85 226.081 137.954 226.081 136.85V132.142ZM233.751 130.142C234.854 130.142 235.749 131.037 235.749 132.142V136.85C235.749 137.954 234.854 138.85 233.751 138.85C232.647 138.85 231.752 137.954 231.752 136.85V132.142C231.752 131.037 232.647 130.142 233.751 130.142ZM245.417 132.142C245.417 131.037 244.523 130.142 243.419 130.142C242.315 130.142 241.42 131.037 241.42 132.142V136.85C241.42 137.954 242.315 138.85 243.419 138.85C244.523 138.85 245.417 137.954 245.417 136.85V132.142ZM254.054 130.142C255.158 130.142 256.052 131.037 256.052 132.142V136.85C256.052 137.954 255.158 138.85 254.054 138.85C252.95 138.85 252.055 137.954 252.055 136.85V132.142C252.055 131.037 252.95 130.142 254.054 130.142ZM266.687 132.142C266.687 131.037 265.793 130.142 264.689 130.142C263.585 130.142 262.69 131.037 262.69 132.142V136.85C262.69 137.954 263.585 138.85 264.689 138.85C265.793 138.85 266.687 137.954 266.687 136.85V132.142Z" fill="#2287BF"/>
<path d="M163.883 59.0963L191.364 41L218.844 59.0963V229H163.883V59.0963Z" fill="white"/>
<path fill-rule="evenodd" clip-rule="evenodd" d="M191.629 42.9595L215.186 57.8483V62.7925L191.629 47.9036L168.072 62.7923V57.8483L191.629 42.9595ZM164.074 65.3186V55.6437L191.629 38.2285L219.183 55.6437V219.153H219.183V228.828H164.074V65.3187L164.074 65.3186ZM215.186 219.153V224.828H168.071V219.153H215.186ZM215.186 215.153H168.072V67.5233L191.629 52.6346L215.186 67.5234V215.153ZM177.61 70.0913C177.61 68.9867 178.504 68.0913 179.608 68.0913H185.665C186.537 65.3608 189.094 63.3837 192.112 63.3837C195.13 63.3837 197.687 65.3608 198.559 68.0913H203.649C204.753 68.0913 205.647 68.9867 205.647 70.0913C205.647 71.1959 204.753 72.0913 203.649 72.0913H198.599C197.768 74.8888 195.178 76.9288 192.112 76.9288C189.046 76.9288 186.457 74.8888 185.625 72.0913H179.608C178.504 72.0913 177.61 71.1959 177.61 70.0913ZM182.509 86.6039C183.613 86.6039 184.507 87.4994 184.507 88.6039V93.3115C184.507 94.4161 183.613 95.3115 182.509 95.3115C181.405 95.3115 180.51 94.4161 180.51 93.3115V88.6039C180.51 87.4994 181.405 86.6039 182.509 86.6039ZM196.477 88.604C196.477 87.4994 195.582 86.604 194.479 86.604C193.375 86.604 192.48 87.4994 192.48 88.604V93.3116C192.48 94.4161 193.375 95.3116 194.479 95.3116C195.582 95.3116 196.477 94.4161 196.477 93.3116V88.604ZM206.449 86.604C207.552 86.604 208.447 87.4994 208.447 88.604V93.3116C208.447 94.4161 207.552 95.3116 206.449 95.3116C205.345 95.3116 204.45 94.4161 204.45 93.3116V88.604C204.45 87.4994 205.345 86.604 206.449 86.604ZM184.507 102.149C184.507 101.044 183.613 100.149 182.509 100.149C181.405 100.149 180.51 101.044 180.51 102.149V106.857C180.51 107.961 181.405 108.857 182.509 108.857C183.613 108.857 184.507 107.961 184.507 106.857V102.149ZM194.479 100.149C195.582 100.149 196.477 101.044 196.477 102.149V106.857C196.477 107.961 195.582 108.857 194.479 108.857C193.375 108.857 192.48 107.961 192.48 106.857V102.149C192.48 101.044 193.375 100.149 194.479 100.149ZM208.447 102.149C208.447 101.044 207.552 100.149 206.449 100.149C205.345 100.149 204.45 101.044 204.45 102.149V106.857C204.45 107.961 205.345 108.857 206.449 108.857C207.552 108.857 208.447 107.961 208.447 106.857V102.149Z" fill="#2287BF"/>
<path d="M111.92 11.0005H174.876V233H111.92V11.0005Z" fill="white"/>
<path fill-rule="evenodd" clip-rule="evenodd" d="M114.897 13.2036V17.7812H172.646V13.2036H114.897ZM112.898 9.20361C111.794 9.20361 110.899 10.099 110.899 11.2036V19.7812C110.899 20.5079 111.287 21.1441 111.866 21.4943V232.698H175.676V21.4946C176.256 21.1444 176.643 20.5081 176.643 19.7812V11.2036C176.643 10.099 175.748 9.20361 174.645 9.20361H112.898ZM171.679 21.9112H115.863V228.698H171.679V21.9112ZM125.466 29.5213C126.57 29.5213 127.465 30.4167 127.465 31.5213V36.2289C127.465 37.3334 126.57 38.2289 125.466 38.2289C124.363 38.2289 123.468 37.3334 123.468 36.2289V31.5213C123.468 30.4167 124.363 29.5213 125.466 29.5213ZM137.318 29.5213C138.422 29.5213 139.316 30.4168 139.316 31.5213V36.2289C139.316 37.3335 138.422 38.2289 137.318 38.2289C136.214 38.2289 135.319 37.3335 135.319 36.2289V31.5213C135.319 30.4168 136.214 29.5213 137.318 29.5213ZM151.167 31.5213C151.167 30.4168 150.273 29.5213 149.169 29.5213C148.065 29.5213 147.17 30.4168 147.17 31.5213V36.2289C147.17 37.3335 148.065 38.2289 149.169 38.2289C150.273 38.2289 151.167 37.3335 151.167 36.2289V31.5213ZM162.205 29.5213C163.309 29.5213 164.204 30.4168 164.204 31.5213V36.2289C164.204 37.3335 163.309 38.2289 162.205 38.2289C161.102 38.2289 160.207 37.3335 160.207 36.2289V31.5213C160.207 30.4168 161.102 29.5213 162.205 29.5213ZM127.465 47.9689C127.465 46.8644 126.57 45.9689 125.466 45.9689C124.363 45.9689 123.468 46.8644 123.468 47.9689V52.6765C123.468 53.7811 124.363 54.6765 125.466 54.6765C126.57 54.6765 127.465 53.7811 127.465 52.6765V47.9689ZM137.318 45.969C138.422 45.969 139.316 46.8644 139.316 47.969V52.6766C139.316 53.7811 138.422 54.6766 137.318 54.6766C136.214 54.6766 135.319 53.7811 135.319 52.6766V47.969C135.319 46.8644 136.214 45.969 137.318 45.969ZM151.167 47.969C151.167 46.8644 150.273 45.969 149.169 45.969C148.065 45.969 147.17 46.8644 147.17 47.969V52.6766C147.17 53.7811 148.065 54.6766 149.169 54.6766C150.273 54.6766 151.167 53.7811 151.167 52.6766V47.969ZM162.205 45.969C163.309 45.969 164.204 46.8644 164.204 47.969V52.6766C164.204 53.7811 163.309 54.6766 162.205 54.6766C161.102 54.6766 160.207 53.7811 160.207 52.6766V47.969C160.207 46.8644 161.102 45.969 162.205 45.969ZM127.465 64.4166C127.465 63.312 126.57 62.4166 125.466 62.4166C124.363 62.4166 123.468 63.312 123.468 64.4166V69.1241C123.468 70.2287 124.363 71.1241 125.466 71.1241C126.57 71.1241 127.465 70.2287 127.465 69.1241V64.4166ZM137.318 62.4165C138.422 62.4165 139.316 63.3119 139.316 64.4165V69.1241C139.316 70.2286 138.422 71.1241 137.318 71.1241C136.214 71.1241 135.319 70.2286 135.319 69.1241V64.4165C135.319 63.3119 136.214 62.4165 137.318 62.4165ZM151.167 64.4165C151.167 63.3119 150.273 62.4165 149.169 62.4165C148.065 62.4165 147.17 63.3119 147.17 64.4165V69.1241C147.17 70.2286 148.065 71.1241 149.169 71.1241C150.273 71.1241 151.167 70.2286 151.167 69.1241V64.4165ZM162.205 62.4165C163.309 62.4165 164.204 63.3119 164.204 64.4165V69.1241C164.204 70.2286 163.309 71.1241 162.205 71.1241C161.102 71.1241 160.207 70.2286 160.207 69.1241V64.4165C160.207 63.3119 161.102 62.4165 162.205 62.4165ZM127.465 80.8642C127.465 79.7596 126.57 78.8642 125.466 78.8642C124.363 78.8642 123.468 79.7596 123.468 80.8642V85.5718C123.468 86.6763 124.363 87.5718 125.466 87.5718C126.57 87.5718 127.465 86.6763 127.465 85.5718V80.8642ZM137.318 78.8642C138.422 78.8642 139.316 79.7596 139.316 80.8642V85.5717C139.316 86.6763 138.422 87.5717 137.318 87.5717C136.214 87.5717 135.319 86.6763 135.319 85.5717V80.8642C135.319 79.7596 136.214 78.8642 137.318 78.8642ZM151.167 80.8642C151.167 79.7596 150.273 78.8642 149.169 78.8642C148.065 78.8642 147.17 79.7596 147.17 80.8642V85.5717C147.17 86.6763 148.065 87.5717 149.169 87.5717C150.273 87.5717 151.167 86.6763 151.167 85.5717V80.8642ZM162.205 78.8642C163.309 78.8642 164.204 79.7596 164.204 80.8642V85.5717C164.204 86.6763 163.309 87.5717 162.205 87.5717C161.102 87.5717 160.207 86.6763 160.207 85.5717V80.8642C160.207 79.7596 161.102 78.8642 162.205 78.8642ZM128.432 96.3444C128.432 95.2398 127.537 94.3444 126.433 94.3444C125.329 94.3444 124.435 95.2398 124.435 96.3444V101.052C124.435 102.157 125.329 103.052 126.433 103.052C127.537 103.052 128.432 102.157 128.432 101.052V96.3444ZM138.285 94.3443C139.389 94.3443 140.283 95.2398 140.283 96.3443V101.052C140.283 102.156 139.389 103.052 138.285 103.052C137.181 103.052 136.286 102.156 136.286 101.052V96.3443C136.286 95.2398 137.181 94.3443 138.285 94.3443ZM152.135 96.3443C152.135 95.2398 151.24 94.3443 150.136 94.3443C149.032 94.3443 148.137 95.2398 148.137 96.3443V101.052C148.137 102.156 149.032 103.052 150.136 103.052C151.24 103.052 152.135 102.156 152.135 101.052V96.3443ZM163.172 94.3443C164.276 94.3443 165.171 95.2398 165.171 96.3443V101.052C165.171 102.156 164.276 103.052 163.172 103.052C162.069 103.052 161.174 102.156 161.174 101.052V96.3443C161.174 95.2398 162.069 94.3443 163.172 94.3443Z" fill="#2287BF"/>
<path fill-rule="evenodd" clip-rule="evenodd" d="M108.965 19.7812C108.965 18.6767 109.86 17.7812 110.964 17.7812H176.578C177.682 17.7812 178.576 18.6767 178.576 19.7812C178.576 20.8858 177.682 21.7812 176.578 21.7812H110.964C109.86 21.7812 108.965 20.8858 108.965 19.7812Z" fill="#2287BF"/>
<path fill-rule="evenodd" clip-rule="evenodd" d="M89.6294 251.016C89.6294 249.911 90.5242 249.016 91.628 249.016H186.246C187.35 249.016 188.245 249.911 188.245 251.016C188.245 252.12 187.35 253.016 186.246 253.016H91.628C90.5242 253.016 89.6294 252.12 89.6294 251.016Z" fill="#2287BF"/>
<path fill-rule="evenodd" clip-rule="evenodd" d="M204.681 251.016C204.681 249.911 205.575 249.016 206.679 249.016H267.459C268.563 249.016 269.458 249.911 269.458 251.016C269.458 252.12 268.563 253.016 267.459 253.016H206.679C205.575 253.016 204.681 252.12 204.681 251.016Z" fill="#2287BF"/>
<path fill-rule="evenodd" clip-rule="evenodd" d="M52.8901 230.698C52.8901 229.593 53.7849 228.698 54.8887 228.698H115.668C116.772 228.698 117.667 229.593 117.667 230.698C117.667 231.802 116.772 232.698 115.668 232.698H54.8887C53.7849 232.698 52.8901 231.802 52.8901 230.698Z" fill="#2287BF"/>
<path fill-rule="evenodd" clip-rule="evenodd" d="M69.3262 251.016C69.3262 249.911 70.221 249.016 71.3247 249.016H76.9958C78.0996 249.016 78.9944 249.911 78.9944 251.016C78.9944 252.12 78.0996 253.016 76.9958 253.016H71.3247C70.221 253.016 69.3262 252.12 69.3262 251.016Z" fill="#2287BF"/>
<path fill-rule="evenodd" clip-rule="evenodd" d="M60.5645 129.311C60.5645 128.482 59.8934 127.811 59.0655 127.811H42.8848C42.057 127.811 41.3859 128.482 41.3859 129.311C41.3859 130.139 42.057 130.811 42.8848 130.811H59.0655C59.8934 130.811 60.5645 130.139 60.5645 129.311Z" fill="url(#paint1_linear)"/>
<path fill-rule="evenodd" clip-rule="evenodd" d="M66.7998 151.938C66.7998 151.11 66.1287 150.438 65.3009 150.438H47.3444C46.5166 150.438 45.8455 151.11 45.8455 151.938C45.8455 152.767 46.5166 153.438 47.3444 153.438H65.3009C66.1287 153.438 66.7998 152.767 66.7998 151.938Z" fill="url(#paint2_linear)"/>
<path fill-rule="evenodd" clip-rule="evenodd" d="M64.314 167.221C64.314 166.393 63.6429 165.721 62.815 165.721H54.803C53.9752 165.721 53.3041 166.393 53.3041 167.221C53.3041 168.05 53.9752 168.721 54.803 168.721H62.815C63.6429 168.721 64.314 168.05 64.314 167.221Z" fill="url(#paint3_linear)"/>
<path fill-rule="evenodd" clip-rule="evenodd" d="M65.7344 182.148C65.7344 181.32 65.0633 180.648 64.2354 180.648H62.2611C61.4333 180.648 60.7622 181.32 60.7622 182.148C60.7622 182.977 61.4333 183.648 62.2611 183.648H64.2354C65.0633 183.648 65.7344 182.977 65.7344 182.148Z" fill="url(#paint4_linear)"/>
<path fill-rule="evenodd" clip-rule="evenodd" d="M58.6309 182.148C58.6309 181.32 57.9598 180.648 57.1319 180.648H38.8203C37.9925 180.648 37.3214 181.32 37.3214 182.148C37.3214 182.977 37.9925 183.648 38.8203 183.648H57.1319C57.9598 183.648 58.6309 182.977 58.6309 182.148Z" fill="url(#paint5_linear)"/>
<path fill-rule="evenodd" clip-rule="evenodd" d="M58.6309 193.166C58.6309 192.338 57.9598 191.666 57.1319 191.666H22.483C21.6552 191.666 20.9841 192.338 20.9841 193.166C20.9841 193.994 21.6552 194.666 22.483 194.666H57.1319C57.9598 194.666 58.6309 193.994 58.6309 193.166Z" fill="url(#paint6_linear)"/>
<path d="M212.669 114.057H67.6787V134.801H71.8306V204.928H207.551V134.801H212.669V114.057Z" fill="url(#paint7_linear)"/>
<path d="M67.1841 124.523H213.713V136.19H67.1841V124.523Z" fill="black" fill-opacity="0.08"/>
<path d="M70.9987 133.273H207.36V145.67H70.9987V133.273Z" fill="black" fill-opacity="0.08"/>
<path d="M127.336 115.335H152.474V201.444H127.336V115.335Z" fill="white"/>
<path d="M124.611 199.291H154.469V204.928H124.611V199.291Z" fill="black" fill-opacity="0.08"/>
<path d="M159.706 93.1538C159.706 93.1538 165.553 99.7154 159.977 105.808C154.401 111.901 137.896 112.114 137.896 112.114L148.801 101.666L159.706 93.1538Z" fill="#2F83FF" fill-opacity="0.1"/>
<path d="M119.519 95.2161C126.566 90.6933 137.686 93.2829 136.365 112.906C111.114 108.074 115.851 97.5699 119.519 95.2161Z" fill="#2F83FF" fill-opacity="0.1"/>
<path d="M126.722 183.733L152.961 167.498V205.154H126.722V183.733Z" fill="#2F83FF" fill-opacity="0.1"/>
<path d="M126.42 133.9L152.66 117.665V147.851L126.42 164.086V133.9Z" fill="#2F83FF" fill-opacity="0.1"/>
<path d="M66.4258 115.335H212.416V124.043H66.4258V115.335Z" fill="white" fill-opacity="0.16"/>
<path d="M72.2271 180.154H207.582V188.861H72.2271V180.154Z" fill="black" fill-opacity="0.08"/>
<path fill-rule="evenodd" clip-rule="evenodd" d="M120.775 92.4914C122.404 91.2793 126.045 90.789 129.529 93.4005C132.713 95.7871 135.927 100.954 136.652 110.937C129.621 109.771 125.018 108.072 122.084 106.241C118.883 104.243 117.74 102.141 117.44 100.371C117.126 98.5228 117.669 96.6637 118.515 95.1291C118.933 94.3728 119.399 93.7432 119.804 93.2919C120.109 92.9525 120.309 92.7919 120.38 92.7348C120.418 92.7042 120.419 92.7033 120.38 92.7204L120.59 92.6287L120.775 92.4914ZM123.215 115.944H71.5994C70.5724 115.944 69.7201 116.258 69.1701 116.669C68.6205 117.08 68.4708 117.493 68.4708 117.777V133.591H123.215V115.944ZM123.215 138.155H74.1307V201.32C74.1307 201.792 74.3816 202.374 75.095 202.907C75.8087 203.441 76.8872 203.83 78.1641 203.83H123.215V138.155ZM127.212 203.83V138.155H152.47V203.83H127.212ZM123.215 207.83V207.943H125.214H154.469H156.468V207.83H201.519C203.573 207.83 205.511 207.21 206.98 206.111C208.45 205.013 209.549 203.34 209.549 201.32V137.591H212.155C212.794 137.591 213.449 137.4 213.991 136.995C214.533 136.59 215.058 135.875 215.058 134.914V117.777C215.058 115.945 214.06 114.441 212.754 113.465C211.448 112.489 209.737 111.944 207.932 111.944H153.543C155.802 111.077 157.687 110.144 159.25 109.161C163.122 106.727 165.106 103.924 165.743 101.045C166.37 98.2164 165.615 95.6691 164.724 93.8576C163.844 92.0698 162.732 90.7929 162.276 90.3807C158.965 87.3875 153.071 86.8689 148.095 90.2764C144.408 92.8013 141.327 97.3594 139.796 104.431C138.336 97.3756 135.416 92.8156 131.925 90.1989C127.281 86.7179 121.787 86.8763 118.541 89.172C117.915 89.5109 117.313 90.0808 116.831 90.6181C116.223 91.2946 115.581 92.1725 115.016 93.196C113.899 95.221 112.985 98.0105 113.499 101.041C114.026 104.149 115.995 107.155 119.969 109.635C121.294 110.462 122.848 111.236 124.66 111.944H71.5994C69.7948 111.944 68.0835 112.489 66.7778 113.465C65.4717 114.441 64.4736 115.945 64.4736 117.777V134.914C64.4736 135.875 64.9991 136.59 65.541 136.995C66.0826 137.4 66.7383 137.591 67.377 137.591H70.1335V201.32C70.1335 203.34 71.2329 205.013 72.7026 206.111C74.1721 207.21 76.1096 207.83 78.1641 207.83H123.215ZM156.468 115.944V133.591H211.061V117.777C211.061 117.493 210.911 117.08 210.362 116.669C209.812 116.258 208.959 115.944 207.932 115.944H156.468ZM156.468 138.155H205.552V201.32C205.552 201.792 205.301 202.374 204.588 202.907C203.874 203.441 202.795 203.83 201.519 203.83H156.468V138.155ZM152.47 133.591V115.944H127.212V133.591H152.47ZM157.123 105.774C154.222 107.598 149.727 109.385 142.912 110.831C143.676 100.949 147.033 95.8505 150.352 93.5775C154.004 91.0767 157.829 91.751 159.597 93.3491C159.594 93.346 159.594 93.3464 159.598 93.3505L159.598 93.3506C159.611 93.364 159.662 93.4154 159.749 93.5135C159.853 93.6321 159.989 93.7966 160.142 94.0019C160.451 94.4143 160.815 94.9691 161.137 95.6242C161.791 96.9523 162.203 98.5434 161.841 100.18C161.489 101.768 160.329 103.759 157.123 105.774Z" fill="#52199F"/>
<path d="M127.335 131.783H152.473V140.491H127.335V131.783Z" fill="#EBF3FF"/>
<path d="M83.8286 208.212H209.515V232.4H83.8286V208.212Z" fill="#9EB2CC"/>
<path fill-rule="evenodd" clip-rule="evenodd" d="M205.518 212.212H87.8258V228.4H205.518V212.212ZM83.8286 208.212V232.4H209.515V208.212H83.8286Z" fill="#52199F"/>
<path d="M87.6958 212.082H205.648V218.855H87.6958V212.082Z" fill="#8796AE"/>
<path d="M70.293 187.894H209.515V212.082H80.2858C74.7669 212.082 70.293 207.605 70.293 202.082V187.894Z" fill="#DFE8F3"/>
<path fill-rule="evenodd" clip-rule="evenodd" d="M205.518 191.894H74.2901V202.082C74.2901 205.395 76.9745 208.082 80.2858 208.082H205.518V191.894ZM70.293 187.894V202.082C70.293 207.605 74.7669 212.082 80.2858 212.082H209.515V187.894H70.293Z" fill="#52199F"/>
<path d="M74.1602 190.797H205.648V202.407H74.1602V190.797Z" fill="white"/>
<path d="M143.771 231.432C143.771 243.722 133.815 253.685 121.534 253.685C109.253 253.685 99.2974 243.722 99.2974 231.432C99.2974 219.143 109.253 209.18 121.534 209.18C133.815 209.18 143.771 219.143 143.771 231.432Z" fill="#6F7F94"/>
<path fill-rule="evenodd" clip-rule="evenodd" d="M121.534 249.685C131.608 249.685 139.774 241.513 139.774 231.432C139.774 221.352 131.608 213.18 121.534 213.18C111.461 213.18 103.295 221.352 103.295 231.432C103.295 241.513 111.461 249.685 121.534 249.685ZM121.534 253.685C133.815 253.685 143.771 243.722 143.771 231.432C143.771 219.143 133.815 209.18 121.534 209.18C109.253 209.18 99.2974 219.143 99.2974 231.432C99.2974 243.722 109.253 253.685 121.534 253.685Z" fill="#52199F"/>
<path fill-rule="evenodd" clip-rule="evenodd" d="M137.245 225.544C137.451 224.179 138.724 223.239 140.088 223.445L140.238 223.467C141.602 223.673 142.542 224.947 142.336 226.312C142.131 227.677 140.858 228.617 139.494 228.412L139.344 228.389C137.979 228.183 137.04 226.91 137.245 225.544Z" fill="#52199F"/>
<path fill-rule="evenodd" clip-rule="evenodd" d="M102.432 240.212C101.27 239.468 100.932 237.921 101.676 236.759L102.039 236.192C102.783 235.029 104.328 234.691 105.49 235.435C106.652 236.18 106.991 237.726 106.246 238.889L105.883 239.456C105.139 240.618 103.594 240.957 102.432 240.212Z" fill="#52199F"/>
<path fill-rule="evenodd" clip-rule="evenodd" d="M107.833 246.713C106.454 246.758 105.3 245.676 105.255 244.296L105.251 244.161C105.206 242.781 106.288 241.626 107.667 241.581C109.046 241.536 110.2 242.619 110.245 243.999L110.249 244.133C110.294 245.513 109.212 246.668 107.833 246.713Z" fill="#52199F"/>
<path fill-rule="evenodd" clip-rule="evenodd" d="M113.995 251.468C112.637 251.714 111.337 250.811 111.092 249.452L111.02 249.052C110.775 247.693 111.677 246.393 113.034 246.148C114.392 245.902 115.692 246.805 115.937 248.164L116.009 248.564C116.254 249.923 115.352 251.223 113.995 251.468Z" fill="#52199F"/>
<path fill-rule="evenodd" clip-rule="evenodd" d="M122.157 253.414C120.867 253.903 119.425 253.252 118.937 251.961L118.652 251.208C118.164 249.916 118.815 248.473 120.105 247.985C121.395 247.496 122.837 248.147 123.326 249.439L123.61 250.191C124.098 251.483 123.448 252.926 122.157 253.414Z" fill="#52199F"/>
<path fill-rule="evenodd" clip-rule="evenodd" d="M129.301 246.399C130.663 246.62 131.587 247.905 131.366 249.268L131.334 249.468C131.113 250.831 129.829 251.757 128.468 251.535C127.106 251.314 126.181 250.03 126.402 248.667L126.434 248.466C126.656 247.104 127.939 246.178 129.301 246.399Z" fill="#52199F"/>
<path fill-rule="evenodd" clip-rule="evenodd" d="M117.435 210.062C118.741 210.507 119.439 211.928 118.993 213.235L118.689 214.128C118.243 215.434 116.824 216.132 115.518 215.686C114.212 215.241 113.515 213.82 113.96 212.513L114.264 211.62C114.71 210.314 116.13 209.616 117.435 210.062Z" fill="#52199F"/>
<path fill-rule="evenodd" clip-rule="evenodd" d="M107.987 213.706C109.144 212.953 110.691 213.282 111.443 214.44L112.152 215.53C112.904 216.688 112.575 218.237 111.418 218.989C110.261 219.741 108.714 219.413 107.962 218.255L107.254 217.164C106.502 216.006 106.83 214.458 107.987 213.706Z" fill="#52199F"/>
<path fill-rule="evenodd" clip-rule="evenodd" d="M102.566 223.256C102.266 221.908 103.114 220.572 104.46 220.271L104.525 220.257C105.872 219.956 107.207 220.804 107.508 222.152C107.808 223.499 106.961 224.836 105.614 225.136L105.549 225.151C104.202 225.452 102.867 224.603 102.566 223.256Z" fill="#52199F"/>
<path fill-rule="evenodd" clip-rule="evenodd" d="M136.713 216.763C138.053 217.092 138.874 218.445 138.546 219.786L138.362 220.537C138.034 221.878 136.681 222.699 135.341 222.371C134.001 222.043 133.181 220.689 133.509 219.348L133.692 218.597C134.021 217.256 135.373 216.435 136.713 216.763Z" fill="#52199F"/>
<path fill-rule="evenodd" clip-rule="evenodd" d="M130.785 212.354C132.157 212.504 133.147 213.739 132.997 215.111L132.971 215.35C132.821 216.723 131.587 217.714 130.216 217.564C128.844 217.414 127.854 216.179 128.004 214.807L128.03 214.568C128.18 213.195 129.414 212.204 130.785 212.354Z" fill="#52199F"/>
<path fill-rule="evenodd" clip-rule="evenodd" d="M124.031 210.224C125.41 210.266 126.494 211.42 126.452 212.8L126.447 212.936C126.405 214.316 125.253 215.401 123.873 215.358C122.494 215.316 121.411 214.163 121.453 212.783L121.457 212.646C121.5 211.266 122.652 210.181 124.031 210.224Z" fill="#52199F"/>
<path fill-rule="evenodd" clip-rule="evenodd" d="M138.335 231.217C139.135 230.092 140.695 229.828 141.819 230.628L141.888 230.678C143.013 231.478 143.276 233.039 142.476 234.164C141.677 235.289 140.117 235.553 138.993 234.752L138.924 234.703C137.799 233.903 137.536 232.342 138.335 231.217Z" fill="#52199F"/>
<path fill-rule="evenodd" clip-rule="evenodd" d="M102.261 232.315C101.044 231.664 100.586 230.149 101.236 228.932L101.244 228.918C101.894 227.7 103.408 227.241 104.625 227.892C105.841 228.543 106.3 230.058 105.65 231.275L105.642 231.289C104.992 232.507 103.478 232.966 102.261 232.315Z" fill="#52199F"/>
<path fill-rule="evenodd" clip-rule="evenodd" d="M136.656 237.94C137.53 236.872 139.104 236.715 140.172 237.59L140.737 238.054C141.804 238.929 141.96 240.504 141.086 241.572C140.211 242.64 138.637 242.796 137.57 241.921L137.005 241.458C135.938 240.583 135.781 239.008 136.656 237.94Z" fill="#52199F"/>
<path fill-rule="evenodd" clip-rule="evenodd" d="M132.673 243.674C133.33 242.46 134.846 242.009 136.059 242.666L136.587 242.952C137.801 243.61 138.252 245.127 137.595 246.341C136.938 247.555 135.422 248.006 134.208 247.349L133.68 247.063C132.467 246.405 132.016 244.888 132.673 243.674Z" fill="#52199F"/>
<path d="M133.136 231.432C133.136 237.844 127.942 243.042 121.534 243.042C115.127 243.042 109.933 237.844 109.933 231.432C109.933 225.02 115.127 219.822 121.534 219.822C127.942 219.822 133.136 225.02 133.136 231.432Z" fill="#ECF4FE"/>
<path fill-rule="evenodd" clip-rule="evenodd" d="M121.534 239.042C125.734 239.042 129.139 235.635 129.139 231.432C129.139 227.229 125.734 223.822 121.534 223.822C117.335 223.822 113.93 227.229 113.93 231.432C113.93 235.635 117.335 239.042 121.534 239.042ZM121.534 243.042C127.942 243.042 133.136 237.844 133.136 231.432C133.136 225.02 127.942 219.822 121.534 219.822C115.127 219.822 109.933 225.02 109.933 231.432C109.933 237.844 115.127 243.042 121.534 243.042Z" fill="#52199F"/>
<path d="M205.648 140.486H256.336C260.408 140.486 264.073 142.959 265.6 146.737L281.06 184.992H205.648V140.486Z" fill="white"/>
<path fill-rule="evenodd" clip-rule="evenodd" d="M256.336 144.486H209.645V180.992H275.132L261.894 148.237C260.978 145.97 258.779 144.486 256.336 144.486ZM265.6 146.737C264.073 142.959 260.408 140.486 256.336 140.486H205.648V184.992H281.06L265.6 146.737Z" fill="#52199F"/>
<path d="M205.648 171.447H273.905C279.448 171.447 283.932 175.962 283.897 181.509L283.579 232.4H205.648V171.447Z" fill="white"/>
<path fill-rule="evenodd" clip-rule="evenodd" d="M273.905 175.447H209.645V228.4H279.607L279.9 181.484C279.921 178.156 277.231 175.447 273.905 175.447ZM283.579 232.4L283.897 181.509C283.932 175.962 279.448 171.447 273.905 171.447H205.648V232.4H283.579Z" fill="#52199F"/>
<path d="M209.515 194.667H280.093V228.53H209.515V194.667Z" fill="#DFE8F3"/>
<path d="M209.515 162.739H211.105C216.631 162.739 221.108 167.228 221.097 172.759L221.06 191.765H209.515V162.739Z" fill="white"/>
<path d="M214.349 156.227C214.349 151.808 217.928 148.227 222.343 148.227H266.195L278.159 175.317H222.343C217.928 175.317 214.349 171.735 214.349 167.317V156.227Z" fill="url(#paint8_linear)"/>
<path fill-rule="evenodd" clip-rule="evenodd" d="M263.591 152.227H222.343C220.136 152.227 218.346 154.017 218.346 156.227V167.317C218.346 169.526 220.136 171.317 222.343 171.317H272.022L263.591 152.227ZM266.195 148.227H222.343C217.928 148.227 214.349 151.808 214.349 156.227V167.317C214.349 171.735 217.928 175.317 222.343 175.317H278.159L266.195 148.227Z" fill="#52199F"/>
<path fill-rule="evenodd" clip-rule="evenodd" d="M215.316 167L263.369 149.194L265.451 154.82L217.398 172.627L215.316 167Z" fill="url(#paint9_linear)"/>
<path fill-rule="evenodd" clip-rule="evenodd" d="M214.349 155.966L236.586 148.226L237.899 152.004L215.663 159.744L214.349 155.966Z" fill="url(#paint10_linear)"/>
<path d="M261.723 226.595C261.723 223.389 264.32 220.79 267.524 220.79H282.993C286.197 220.79 288.794 223.389 288.794 226.595C288.794 229.801 286.197 232.4 282.993 232.4H267.524C264.32 232.4 261.723 229.801 261.723 226.595Z" fill="#CED8EE"/>
<path fill-rule="evenodd" clip-rule="evenodd" d="M282.993 224.79H267.524C266.528 224.79 265.72 225.598 265.72 226.595C265.72 227.591 266.528 228.4 267.524 228.4H282.993C283.989 228.4 284.797 227.591 284.797 226.595C284.797 225.598 283.989 224.79 282.993 224.79ZM267.524 220.79C264.32 220.79 261.723 223.389 261.723 226.595C261.723 229.801 264.32 232.4 267.524 232.4H282.993C286.197 232.4 288.794 229.801 288.794 226.595C288.794 223.389 286.197 220.79 282.993 220.79H267.524Z" fill="#52199F"/>
<path d="M78.0273 226.595C78.0273 223.389 80.6245 220.79 83.8283 220.79H89.6292C92.8329 220.79 95.4301 223.389 95.4301 226.595C95.4301 229.801 92.8329 232.4 89.6292 232.4H83.8283C80.6245 232.4 78.0273 229.801 78.0273 226.595Z" fill="#CED8EE"/>
<path fill-rule="evenodd" clip-rule="evenodd" d="M89.6292 224.79H83.8283C82.8321 224.79 82.0245 225.598 82.0245 226.595C82.0245 227.591 82.8321 228.4 83.8283 228.4H89.6292C90.6254 228.4 91.4329 227.591 91.4329 226.595C91.4329 225.598 90.6254 224.79 89.6292 224.79ZM83.8283 220.79C80.6245 220.79 78.0273 223.389 78.0273 226.595C78.0273 229.801 80.6245 232.4 83.8283 232.4H89.6292C92.8329 232.4 95.4301 229.801 95.4301 226.595C95.4301 223.389 92.8329 220.79 89.6292 220.79H83.8283Z" fill="#52199F"/>
<path d="M270.633 184.366C270.649 181.204 273.226 178.655 276.386 178.676L284.44 178.73L284.384 190.166L276.31 190.112C273.158 190.091 270.618 187.52 270.633 184.366Z" fill="#FFE6E3"/>
<path fill-rule="evenodd" clip-rule="evenodd" d="M280.423 182.703L276.359 182.676C275.41 182.67 274.635 183.436 274.631 184.386C274.626 185.334 275.389 186.106 276.336 186.113L280.406 186.14L280.423 182.703ZM284.44 178.73L276.386 178.676C273.226 178.655 270.649 181.204 270.633 184.366C270.618 187.52 273.158 190.091 276.31 190.112L284.384 190.166L284.44 178.73Z" fill="#52199F"/>
<path fill-rule="evenodd" clip-rule="evenodd" d="M263.591 152.227H222.343C220.136 152.227 218.346 154.017 218.346 156.227V167.317C218.346 169.526 220.136 171.317 222.343 171.317H272.022L263.591 152.227ZM266.195 148.227H222.343C217.928 148.227 214.349 151.808 214.349 156.227V167.317C214.349 171.735 217.928 175.317 222.343 175.317H278.159L266.195 148.227Z" fill="#52199F"/>
<path d="M246.738 200.472C229.918 200.472 216.283 214.766 216.283 232.399H277.192C277.192 214.766 263.557 200.472 246.738 200.472Z" fill="#CED8EE"/>
<path fill-rule="evenodd" clip-rule="evenodd" d="M246.738 204.472C233.557 204.472 222.394 214.742 220.548 228.399H272.927C271.081 214.742 259.918 204.472 246.738 204.472ZM276.956 228.399C275.078 212.654 262.265 200.472 246.738 200.472C231.21 200.472 218.397 212.654 216.519 228.399C216.363 229.71 216.283 231.045 216.283 232.399H277.192C277.192 231.045 277.112 229.71 276.956 228.399Z" fill="#52199F"/>
<path d="M268.491 230.465C268.491 242.754 258.536 252.717 246.254 252.717C233.973 252.717 224.018 242.754 224.018 230.465C224.018 218.175 233.973 208.212 246.254 208.212C258.536 208.212 268.491 218.175 268.491 230.465Z" fill="#6F7F94"/>
<path fill-rule="evenodd" clip-rule="evenodd" d="M246.254 248.717C256.328 248.717 264.494 240.545 264.494 230.465C264.494 220.384 256.328 212.212 246.254 212.212C236.181 212.212 228.015 220.384 228.015 230.465C228.015 240.545 236.181 248.717 246.254 248.717ZM246.254 252.717C258.536 252.717 268.491 242.754 268.491 230.465C268.491 218.175 258.536 208.212 246.254 208.212C233.973 208.212 224.018 218.175 224.018 230.465C224.018 242.754 233.973 252.717 246.254 252.717Z" fill="#52199F"/>
<path fill-rule="evenodd" clip-rule="evenodd" d="M261.966 224.577C262.171 223.211 263.444 222.271 264.808 222.477L264.958 222.5C266.323 222.705 267.262 223.979 267.056 225.344C266.851 226.71 265.578 227.65 264.214 227.444L264.064 227.421C262.699 227.215 261.76 225.942 261.966 224.577Z" fill="#52199F"/>
<path fill-rule="evenodd" clip-rule="evenodd" d="M227.152 239.245C225.991 238.5 225.652 236.954 226.396 235.791L226.759 235.224C227.504 234.061 229.049 233.723 230.21 234.468C231.372 235.212 231.711 236.759 230.966 237.921L230.604 238.488C229.859 239.651 228.314 239.989 227.152 239.245Z" fill="#52199F"/>
<path fill-rule="evenodd" clip-rule="evenodd" d="M232.554 245.745C231.175 245.79 230.02 244.708 229.975 243.328L229.971 243.193C229.926 241.813 231.008 240.658 232.387 240.614C233.766 240.569 234.92 241.651 234.965 243.031L234.969 243.166C235.014 244.546 233.933 245.701 232.554 245.745Z" fill="#52199F"/>
<path fill-rule="evenodd" clip-rule="evenodd" d="M238.715 250.501C237.357 250.746 236.058 249.843 235.812 248.485L235.74 248.084C235.495 246.726 236.397 245.425 237.755 245.18C239.112 244.935 240.412 245.837 240.657 247.196L240.729 247.596C240.974 248.955 240.073 250.255 238.715 250.501Z" fill="#52199F"/>
<path fill-rule="evenodd" clip-rule="evenodd" d="M246.878 252.447C245.587 252.935 244.145 252.284 243.657 250.993L243.372 250.24C242.884 248.948 243.535 247.506 244.825 247.017C246.116 246.529 247.558 247.179 248.046 248.471L248.33 249.224C248.819 250.515 248.168 251.958 246.878 252.447Z" fill="#52199F"/>
<path fill-rule="evenodd" clip-rule="evenodd" d="M254.021 245.431C255.383 245.653 256.308 246.937 256.087 248.3L256.054 248.5C255.833 249.863 254.55 250.789 253.188 250.568C251.826 250.346 250.901 249.062 251.122 247.699L251.155 247.499C251.376 246.136 252.659 245.21 254.021 245.431Z" fill="#52199F"/>
<path fill-rule="evenodd" clip-rule="evenodd" d="M242.156 209.094C243.461 209.54 244.159 210.96 243.713 212.267L243.409 213.16C242.964 214.467 241.544 215.164 240.238 214.719C238.932 214.273 238.235 212.852 238.68 211.545L238.985 210.653C239.43 209.346 240.85 208.648 242.156 209.094Z" fill="#52199F"/>
<path fill-rule="evenodd" clip-rule="evenodd" d="M232.707 212.738C233.864 211.985 235.412 212.314 236.164 213.472L236.872 214.563C237.624 215.72 237.295 217.269 236.139 218.021C234.982 218.774 233.434 218.445 232.682 217.287L231.974 216.196C231.222 215.039 231.551 213.49 232.707 212.738Z" fill="#52199F"/>
<path fill-rule="evenodd" clip-rule="evenodd" d="M227.287 222.288C226.986 220.941 227.834 219.604 229.18 219.303L229.245 219.289C230.592 218.988 231.927 219.836 232.228 221.184C232.529 222.531 231.681 223.868 230.334 224.169L230.269 224.183C228.923 224.484 227.587 223.636 227.287 222.288Z" fill="#52199F"/>
<path fill-rule="evenodd" clip-rule="evenodd" d="M261.433 215.796C262.773 216.124 263.594 217.477 263.266 218.818L263.082 219.57C262.754 220.911 261.401 221.732 260.061 221.403C258.721 221.075 257.901 219.722 258.229 218.38L258.413 217.629C258.741 216.288 260.093 215.467 261.433 215.796Z" fill="#52199F"/>
<path fill-rule="evenodd" clip-rule="evenodd" d="M255.505 211.386C256.877 211.537 257.867 212.771 257.717 214.143L257.691 214.383C257.541 215.755 256.308 216.746 254.936 216.596C253.564 216.446 252.574 215.211 252.724 213.839L252.75 213.6C252.9 212.227 254.134 211.236 255.505 211.386Z" fill="#52199F"/>
<path fill-rule="evenodd" clip-rule="evenodd" d="M248.751 209.256C250.131 209.299 251.214 210.452 251.172 211.832L251.168 211.969C251.125 213.349 249.973 214.433 248.594 214.391C247.215 214.348 246.131 213.195 246.173 211.815L246.178 211.678C246.22 210.298 247.372 209.214 248.751 209.256Z" fill="#52199F"/>
<path fill-rule="evenodd" clip-rule="evenodd" d="M263.056 230.249C263.855 229.124 265.415 228.861 266.539 229.661L266.608 229.71C267.733 230.51 267.996 232.071 267.197 233.196C266.397 234.321 264.837 234.585 263.713 233.785L263.644 233.735C262.519 232.935 262.256 231.375 263.056 230.249Z" fill="#52199F"/>
<path fill-rule="evenodd" clip-rule="evenodd" d="M226.981 231.347C225.765 230.696 225.306 229.181 225.956 227.964L225.964 227.95C226.614 226.732 228.128 226.273 229.345 226.924C230.562 227.575 231.021 229.09 230.37 230.307L230.362 230.322C229.712 231.539 228.198 231.998 226.981 231.347Z" fill="#52199F"/>
<path fill-rule="evenodd" clip-rule="evenodd" d="M261.376 236.972C262.251 235.904 263.825 235.748 264.892 236.623L265.457 237.086C266.524 237.961 266.681 239.536 265.806 240.604C264.932 241.672 263.357 241.829 262.29 240.954L261.725 240.49C260.658 239.615 260.502 238.04 261.376 236.972Z" fill="#52199F"/>
<path fill-rule="evenodd" clip-rule="evenodd" d="M257.393 242.706C258.05 241.492 259.566 241.041 260.779 241.698L261.308 241.984C262.521 242.642 262.972 244.159 262.315 245.373C261.658 246.587 260.142 247.039 258.929 246.381L258.4 246.095C257.187 245.438 256.736 243.92 257.393 242.706Z" fill="#52199F"/>
<path d="M257.856 230.465C257.856 236.877 252.662 242.075 246.254 242.075C239.847 242.075 234.652 236.877 234.652 230.465C234.652 224.053 239.847 218.854 246.254 218.854C252.662 218.854 257.856 224.053 257.856 230.465Z" fill="#ECF4FE"/>
<path fill-rule="evenodd" clip-rule="evenodd" d="M246.254 238.075C250.454 238.075 253.859 234.668 253.859 230.465C253.859 226.262 250.454 222.854 246.254 222.854C242.054 222.854 238.649 226.262 238.649 230.465C238.649 234.668 242.054 238.075 246.254 238.075ZM246.254 242.075C252.662 242.075 257.856 236.877 257.856 230.465C257.856 224.053 252.662 218.854 246.254 218.854C239.847 218.854 234.652 224.053 234.652 230.465C234.652 236.877 239.847 242.075 246.254 242.075Z" fill="#52199F"/>
<path fill-rule="evenodd" clip-rule="evenodd" d="M238.519 202.407V151.129H242.517V202.407H238.519Z" fill="#52199F"/>
<path fill-rule="evenodd" clip-rule="evenodd" d="M226.016 178.219C227.12 178.219 228.015 179.115 228.015 180.219V182.992C228.015 184.096 227.12 184.992 226.016 184.992C224.912 184.992 224.018 184.096 224.018 182.992V180.219C224.018 179.115 224.912 178.219 226.016 178.219Z" fill="#52199F"/>
<defs>
<linearGradient id="paint0_linear" x1="42.6597" y1="101.151" x2="309.641" y2="143.246" gradientUnits="userSpaceOnUse">
<stop stop-color="#2CC3F2"/>
<stop offset="0.0364583" stop-color="#00D0FF"/>
<stop offset="1" stop-color="#00FFFF"/>
</linearGradient>
<linearGradient id="paint1_linear" x1="60.5645" y1="129.311" x2="41.3859" y2="129.311" gradientUnits="userSpaceOnUse">
<stop stop-color="#FA00FF"/>
<stop offset="1" stop-color="#C241EF"/>
</linearGradient>
<linearGradient id="paint2_linear" x1="66.7998" y1="151.938" x2="45.8455" y2="151.938" gradientUnits="userSpaceOnUse">
<stop stop-color="#FA00FF"/>
<stop offset="1" stop-color="#C241EF"/>
</linearGradient>
<linearGradient id="paint3_linear" x1="64.314" y1="167.221" x2="53.3041" y2="167.221" gradientUnits="userSpaceOnUse">
<stop stop-color="#FA00FF"/>
<stop offset="1" stop-color="#C241EF"/>
</linearGradient>
<linearGradient id="paint4_linear" x1="65.7344" y1="182.148" x2="60.7622" y2="182.148" gradientUnits="userSpaceOnUse">
<stop stop-color="#FA00FF"/>
<stop offset="1" stop-color="#C241EF"/>
</linearGradient>
<linearGradient id="paint5_linear" x1="58.6309" y1="182.148" x2="37.3214" y2="182.148" gradientUnits="userSpaceOnUse">
<stop stop-color="#FA00FF"/>
<stop offset="1" stop-color="#C241EF"/>
</linearGradient>
<linearGradient id="paint6_linear" x1="58.6309" y1="193.166" x2="20.9841" y2="193.166" gradientUnits="userSpaceOnUse">
<stop stop-color="#FA00FF"/>
<stop offset="1" stop-color="#C241EF"/>
</linearGradient>
<linearGradient id="paint7_linear" x1="67.6787" y1="159.492" x2="212.669" y2="159.492" gradientUnits="userSpaceOnUse">
<stop stop-color="#FA00FF"/>
<stop offset="1" stop-color="#C241EF"/>
</linearGradient>
<linearGradient id="paint8_linear" x1="215.44" y1="160.225" x2="278.262" y2="181.231" gradientUnits="userSpaceOnUse">
<stop stop-color="#2CC3F2"/>
<stop offset="0.644669" stop-color="#00D0FF"/>
<stop offset="1" stop-color="#00FFFF"/>
</linearGradient>
<linearGradient id="paint9_linear" x1="263.707" y1="152.632" x2="232.858" y2="134.703" gradientUnits="userSpaceOnUse">
<stop stop-color="#2CC3F2"/>
<stop offset="0.0364583" stop-color="#00D0FF"/>
<stop offset="1" stop-color="#00FFFF"/>
</linearGradient>
<linearGradient id="paint10_linear" x1="225.468" y1="152.096" x2="225.139" y2="151.152" gradientUnits="userSpaceOnUse">
<stop stop-color="#01F1FF"/>
<stop offset="1" stop-color="#C2FFA6"/>
</linearGradient>
</defs>
</svg>
