<svg width="32" height="28" viewBox="0 0 32 28" fill="none" xmlns="http://www.w3.org/2000/svg">
<path fill-rule="evenodd" clip-rule="evenodd" d="M14.0444 1.30969C15.1251 -0.438646 16.8797 -0.434479 17.9577 1.30969L31.353 22.9816C32.7956 25.3156 31.7447 27.2077 29.0072 27.2077H2.995C0.256823 27.2077 -0.798083 25.3231 0.649209 22.9816L14.0444 1.30969ZM16.0016 18.5136C16.6875 18.5136 17.2436 17.9509 17.2436 17.2752V9.81579C17.2436 9.13188 16.6923 8.57746 16.0016 8.57746C15.3156 8.57746 14.7595 9.14014 14.7595 9.81579V17.2752C14.7595 17.9591 15.3108 18.5136 16.0016 18.5136ZM16.0016 23.4816C16.6875 23.4816 17.2436 22.9255 17.2436 22.2396C17.2436 21.5537 16.6875 20.9976 16.0016 20.9976C15.3156 20.9976 14.7595 21.5537 14.7595 22.2396C14.7595 22.9255 15.3156 23.4816 16.0016 23.4816Z" fill="#FF004D"/>
</svg>
